<svg xmlns="http://www.w3.org/2000/svg" viewBox="0 0 189.37 101"><defs><style>.cls-1{fill:#ededed;}.cls-2,.cls-3{fill:#121856;}.cls-3,.cls-4,.cls-5{fill-rule:evenodd;}.cls-4{fill:#b42c3e;}.cls-5{fill:#b32a3d;}</style></defs><g id="Layer_2" data-name="Layer 2"><g id="Layer_1-2" data-name="Layer 1"><rect class="cls-1" width="189.37" height="101" transform="translate(189.37 101) rotate(180)"/><path class="cls-2" d="M102.86,58.58V30h10.68v5.46c1-2.81,5.23-4.63,8.35-5V28.8c0-3.19.8-5.54,2.42-7a11.51,11.51,0,0,1,8-2.84l11,.48-2.74,6.93c-.15,0-3.07-.39-3.33-.41l-.59,0a4.71,4.71,0,0,0-3,.69,3,3,0,0,0-.84,2.43c0,.08,0,.22,0,.41s.05,1,.05,1.16h5.36l-3.22,7.11-2,0V59.2H121.89V38h-.61a7.53,7.53,0,0,0-5.16,2.31c-1.09,1-1.64,3.41-1.64,6.59V58.58Z"/><path class="cls-2" d="M46.2,58.76V29.9H56.81v4.24a13.21,13.21,0,0,1,4.59-3.75,12.15,12.15,0,0,1,5.69-1.25A12.38,12.38,0,0,1,71.9,30a9.16,9.16,0,0,1,5.42,6.41,33.16,33.16,0,0,1,.55,7.34v15H66.21V43.81c0-2.17-.28-3.69-.89-4.51a3.44,3.44,0,0,0-3.09-1.25A3.91,3.91,0,0,0,59,39.46a7.41,7.41,0,0,0-1.11,4.41V58.76Z"/><path class="cls-3" d="M82.3,62.48V29.14H98V62.48h-.24a41.35,41.35,0,0,0-7.62-10,32.24,32.24,0,0,0-7.63,10Z"/><path class="cls-4" d="M46.06,64.8C59.64,60.37,74.12,61,89.38,66c14.53-4.64,29-5.75,43.25-1.64v4.92c-15.39-4.46-29.68-3.4-43.38.65-13.75-4.24-28-5.4-43.19-.65V64.8"/><path class="cls-4" d="M89.26,72.53c2.91-.82,5.87-1.52,8.85-2.08a79.5,79.5,0,0,1,35,1.35V70.57c-14.76-3.9-29.29-4.16-43.69.28C75,67.21,61.19,66.09,46,70.43v1.13a71.57,71.57,0,0,1,30.72-1.83,92.13,92.13,0,0,1,12.5,2.8"/><path class="cls-5" d="M90.15,8.06c0,.73.09,1.45.17,2.15a12.31,12.31,0,0,1,1.39-2c-.09.72-.16,1.44-.2,2.14a12.9,12.9,0,0,1,1.71-1.76c-.21.69-.4,1.39-.55,2.08a13.28,13.28,0,0,1,2-1.47c-.32.66-.62,1.31-.89,2A12.67,12.67,0,0,1,96,10c-.43.6-.84,1.19-1.21,1.79a14,14,0,0,1,2.35-.75c-.52.52-1,1-1.49,1.57a13.91,13.91,0,0,1,2.45-.36c-.61.43-1.19.86-1.74,1.31a13.62,13.62,0,0,1,2.47,0c-.66.32-1.31.66-1.93,1a13,13,0,0,1,2.44.44c-.71.21-1.41.44-2.08.68a14.39,14.39,0,0,1,2.33.83c-.74.09-1.46.2-2.16.34a13,13,0,0,1,2.15,1.2c-.74,0-1.47,0-2.18,0a13.15,13.15,0,0,1,1.92,1.53c-.72-.15-1.44-.28-2.15-.38a13.62,13.62,0,0,1,1.64,1.82c-.69-.26-1.38-.5-2.06-.71A13.11,13.11,0,0,1,98,22.42c-.63-.38-1.27-.73-1.91-1a12.77,12.77,0,0,1,1,2.24c-.56-.47-1.13-.92-1.71-1.34a13.2,13.2,0,0,1,.56,2.37c-.48-.55-1-1.09-1.47-1.59a12.21,12.21,0,0,1,.16,2.43c-.38-.63-.77-1.24-1.18-1.82a11.77,11.77,0,0,1-.25,2.42c-.27-.68-.55-1.34-.86-2a12.45,12.45,0,0,1-.65,2.35c-.15-.69-.31-1.36-.5-2a12.54,12.54,0,0,1-1,2.14c0-.73-.09-1.44-.17-2.15a12.24,12.24,0,0,1-1.38,2c.09-.72.15-1.44.19-2.14a12.26,12.26,0,0,1-1.7,1.76c.21-.69.39-1.39.55-2.08a13.38,13.38,0,0,1-2,1.47c.33-.66.63-1.31.89-2a12.57,12.57,0,0,1-2.19,1.13c.43-.59.83-1.19,1.21-1.79a13.83,13.83,0,0,1-2.36.75c.53-.52,1-1,1.5-1.57a14,14,0,0,1-2.45.36c.6-.43,1.18-.86,1.74-1.31a13.73,13.73,0,0,1-2.48,0c.67-.32,1.31-.66,1.93-1A12.94,12.94,0,0,1,81,19.57c.71-.21,1.4-.44,2.07-.68a14.63,14.63,0,0,1-2.32-.83c.73-.09,1.45-.2,2.16-.34a12.73,12.73,0,0,1-2.16-1.2c.74,0,1.47,0,2.19,0A12.58,12.58,0,0,1,81,15c.73.16,1.45.28,2.16.38a12.38,12.38,0,0,1-1.64-1.82c.68.26,1.37.5,2.06.72a13,13,0,0,1-1.32-2.07q1,.57,1.92,1A12.45,12.45,0,0,1,83.26,11c.56.47,1.13.92,1.71,1.34A12.4,12.4,0,0,1,84.41,10c.47.55,1,1.09,1.46,1.59a13,13,0,0,1-.15-2.43c.37.63.76,1.24,1.17,1.82a12.53,12.53,0,0,1,.26-2.42c.26.68.55,1.34.85,2a12.48,12.48,0,0,1,.66-2.35c.14.69.31,1.37.49,2a13.35,13.35,0,0,1,1-2.14"/><path class="cls-2" d="M139.86,92.85l-2.19-3,2.1-2.18H138.4L136.31,90V87.71h-1.13v5.14h1.13V91.28l.6-.62,1.59,2.19ZM133,89.48a.67.67,0,0,1-.23.53.94.94,0,0,1-.64.2H131V88.73h1.12a1,1,0,0,1,.65.18.66.66,0,0,1,.24.55Zm1.3,3.37L133.06,91a1.73,1.73,0,0,0,.8-.57,1.63,1.63,0,0,0,.3-1h0a1.57,1.57,0,0,0-.51-1.25,2.07,2.07,0,0,0-1.42-.45h-2.35v5.14H131V91.21h.88L133,92.85Zm-6.63-2.56a1.59,1.59,0,0,1-.12.62,1.45,1.45,0,0,1-.31.51,1.42,1.42,0,0,1-.49.35,1.57,1.57,0,0,1-1.25,0,1.75,1.75,0,0,1-.49-.35,1.65,1.65,0,0,1-.33-.52,1.8,1.8,0,0,1-.11-.62v0a1.84,1.84,0,0,1,.11-.62,1.69,1.69,0,0,1,.32-.51,1.39,1.39,0,0,1,.48-.34,1.61,1.61,0,0,1,.63-.13,1.65,1.65,0,0,1,.63.13,1.57,1.57,0,0,1,.49.35,1.46,1.46,0,0,1,.32.52,1.59,1.59,0,0,1,.12.62Zm1.18,0v0a2.74,2.74,0,0,0-.2-1,2.56,2.56,0,0,0-.57-.83,2.69,2.69,0,0,0-.86-.57,3,3,0,0,0-2.19,0,2.63,2.63,0,0,0-.87.57,2.88,2.88,0,0,0-.57.85,2.7,2.7,0,0,0-.2,1h0a2.57,2.57,0,0,0,.2,1,2.39,2.39,0,0,0,.56.83,2.78,2.78,0,0,0,2,.78,2.78,2.78,0,0,0,2-.78,2.67,2.67,0,0,0,.56-.85A2.53,2.53,0,0,0,128.87,90.28Zm-6.07-2.57h-1.19l-1.06,3.48-1.15-3.5h-1l-1.15,3.5-1.07-3.48H115l1.75,5.18h1l1.16-3.37,1.16,3.37h1Zm-8.42,5.14v-1h-2.79V90.76H114v-1h-2.43v-1h2.76v-1h-3.87v5.14Zm-5.14,0V87.71H108l-1.35,2.17-1.35-2.17H104.1v5.14h1.12V89.52l1.43,2.17h0l1.45-2.2v3.36Zm-8-2.15H99.89l.68-1.67Zm2.06,2.15-2.2-5.18h-1l-2.2,5.18H99l.47-1.15h2.18l.47,1.15Zm-7.17-3.37a.67.67,0,0,1-.23.53.94.94,0,0,1-.64.2H94.12V88.73h1.13a1,1,0,0,1,.65.18.66.66,0,0,1,.24.55Zm1.3,3.37L96.18,91a1.79,1.79,0,0,0,.8-.57,1.63,1.63,0,0,0,.3-1h0a1.57,1.57,0,0,0-.51-1.25,2.1,2.1,0,0,0-1.43-.45H93v5.14h1.13V91.21H95l1.1,1.64Zm-5.35-4.12v-1H88.18v5.14h1.13v-2h2.45v-1H89.31V88.73Zm-7.2,3.39V89.89H82.65v1h1.14v.74a1.82,1.82,0,0,1-1.06.31,1.61,1.61,0,0,1-.63-.12,1.42,1.42,0,0,1-.49-.35,1.38,1.38,0,0,1-.32-.52,1.67,1.67,0,0,1-.12-.65h0a1.59,1.59,0,0,1,.12-.62,1.45,1.45,0,0,1,.31-.51,1.6,1.6,0,0,1,.47-.35,1.41,1.41,0,0,1,.58-.13,2.46,2.46,0,0,1,.4,0,2.75,2.75,0,0,1,.34.1,1.87,1.87,0,0,1,.31.17,1.85,1.85,0,0,1,.29.22l.71-.86a2.26,2.26,0,0,0-.41-.3,1.88,1.88,0,0,0-.45-.22,2.74,2.74,0,0,0-.53-.14,4,4,0,0,0-.63,0,2.65,2.65,0,0,0-1.07.21,2.69,2.69,0,0,0-.86.57,2.85,2.85,0,0,0-.56.85,2.7,2.7,0,0,0-.2,1h0a2.78,2.78,0,0,0,.2,1.06,2.5,2.5,0,0,0,.55.84,2.6,2.6,0,0,0,.85.55,3,3,0,0,0,1.1.2,3.06,3.06,0,0,0,1.25-.24A3.71,3.71,0,0,0,84.89,92.12ZM79,92.85V87.71H77.87v3.16l-2.41-3.16h-1v5.14h1.11V89.58L78,92.85Zm-5.85,0V87.71H72v5.14Zm-1.86,0-2.19-3,2.09-2.18H69.81L67.72,90V87.71H66.59v5.14h1.13V91.28l.59-.62,1.6,2.19Zm-5.91,0V87.71H64.24v3.16l-2.41-3.16h-1v5.14H61.9V89.58l2.49,3.27ZM57.94,90.7H56.57L57.26,89ZM60,92.85l-2.21-5.18h-1l-2.2,5.18H55.7l.47-1.15h2.17l.47,1.15Zm-7.18-3.37a.67.67,0,0,1-.22.53,1,1,0,0,1-.65.2H50.81V88.73h1.12a1.08,1.08,0,0,1,.66.18.69.69,0,0,1,.23.55Zm1.3,3.37L52.87,91a1.76,1.76,0,0,0,.79-.57,1.57,1.57,0,0,0,.31-1h0a1.57,1.57,0,0,0-.51-1.25A2.1,2.1,0,0,0,52,87.71H49.68v5.14h1.13V91.21h.89l1.1,1.64ZM146,84.74v-1h-2.57V79.6h-1.13v5.14Zm-6.55-2.16h-1.36l.68-1.66Zm2.06,2.16-2.2-5.18h-1.05l-2.2,5.18h1.15l.47-1.16h2.18l.47,1.16Zm-6.24,0V79.6h-1.12v3.16l-2.41-3.16h-1v5.14h1.12V81.47l2.49,3.27Zm-6.76-2.56a1.8,1.8,0,0,1-.11.62,1.69,1.69,0,0,1-.32.51,1.37,1.37,0,0,1-.49.35,1.56,1.56,0,0,1-.62.12,1.45,1.45,0,0,1-.63-.13,1.42,1.42,0,0,1-.49-.35,1.34,1.34,0,0,1-.32-.51,1.63,1.63,0,0,1-.12-.62v0a1.59,1.59,0,0,1,.12-.62,1.66,1.66,0,0,1,.31-.51,1.39,1.39,0,0,1,.49-.34,1.56,1.56,0,0,1,1.75.35,1.58,1.58,0,0,1,.32.51,1.9,1.9,0,0,1,.11.63Zm1.18,0v0a2.62,2.62,0,0,0-.76-1.87,2.83,2.83,0,0,0-2-.77,2.84,2.84,0,0,0-1.1.21,2.69,2.69,0,0,0-.86.57,2.41,2.41,0,0,0-.57.84,2.61,2.61,0,0,0-.21,1h0a2.57,2.57,0,0,0,.77,1.87,2.51,2.51,0,0,0,.86.56,3,3,0,0,0,2.19,0A2.48,2.48,0,0,0,129,84a2.71,2.71,0,0,0,.57-.84A2.56,2.56,0,0,0,129.72,82.17Zm-6.52,2.57V79.6h-1.13v5.14Zm-2-4.1v-1H116.9v1h1.56v4.1h1.13v-4.1Zm-5,1.86V79.6H115v2.94a1.35,1.35,0,0,1-.29.93,1.1,1.1,0,0,1-.82.3,1,1,0,0,1-.81-.32,1.34,1.34,0,0,1-.3-1V79.6h-1.13v2.93a2.25,2.25,0,0,0,.6,1.71,2.21,2.21,0,0,0,1.63.58,2.75,2.75,0,0,0,.93-.15A1.81,1.81,0,0,0,116,83.52,2.88,2.88,0,0,0,116.11,82.5Zm-5.26-1.86v-1h-4.26v1h1.56v4.1h1.13v-4.1Zm-5.18,4.1V79.6h-1.13v5.14Zm-2-4.1v-1H99.36v1h1.57v4.1h1.13v-4.1Zm-4.87,2.58v0a1.46,1.46,0,0,0-.11-.58,1.18,1.18,0,0,0-.32-.42,2.1,2.1,0,0,0-.51-.31,5.23,5.23,0,0,0-.7-.23l-.55-.15-.34-.14a.46.46,0,0,1-.17-.17A.48.48,0,0,1,96,81h0a.42.42,0,0,1,.16-.32.8.8,0,0,1,.5-.13,1.74,1.74,0,0,1,.66.14A3.53,3.53,0,0,1,98,81l.58-.85a2.87,2.87,0,0,0-.87-.49,3.09,3.09,0,0,0-1-.17,2.38,2.38,0,0,0-.73.11,1.76,1.76,0,0,0-.57.32,1.43,1.43,0,0,0-.5,1.12v0a1.56,1.56,0,0,0,.12.64,1.33,1.33,0,0,0,.35.43,1.77,1.77,0,0,0,.53.28c.22.08.45.15.71.22a4.6,4.6,0,0,1,.53.15,2,2,0,0,1,.32.15.45.45,0,0,1,.15.16.38.38,0,0,1,0,.19v0a.41.41,0,0,1-.19.35,1,1,0,0,1-.55.13,1.92,1.92,0,0,1-.81-.17,3.35,3.35,0,0,1-.73-.45l-.66.8a3.07,3.07,0,0,0,1,.62,3.54,3.54,0,0,0,1.16.2,2.58,2.58,0,0,0,.76-.11,1.58,1.58,0,0,0,.59-.31,1.44,1.44,0,0,0,.39-.49A1.65,1.65,0,0,0,98.75,83.22Zm-5,1.52V79.6H92.68v3.16L90.27,79.6h-1v5.14h1.12V81.47l2.49,3.27Zm-5.86,0V79.6H86.81v5.14Zm-4.23,0v-1H81.15V79.6H80v5.14Zm-6.54-2.16H75.8l.68-1.66Zm2,2.16L77,79.56H76l-2.21,5.18h1.16l.47-1.16h2.17L78,84.74Zm-6.24,0V79.6H71.86v3.16l-2.4-3.16h-1v5.14h1.12V81.47L72,84.74Zm-6.75-2.56a1.59,1.59,0,0,1-.12.62,1.66,1.66,0,0,1-.31.51,1.57,1.57,0,0,1-.49.35,1.61,1.61,0,0,1-.63.12,1.38,1.38,0,0,1-.62-.13,1.46,1.46,0,0,1-.5-.35,1.48,1.48,0,0,1-.32-.51,1.62,1.62,0,0,1-.11-.62v0a1.59,1.59,0,0,1,.11-.62,1.69,1.69,0,0,1,.32-.51,1.27,1.27,0,0,1,.48-.34,1.56,1.56,0,0,1,1.75.35,1.42,1.42,0,0,1,.32.51,1.68,1.68,0,0,1,.12.63Zm1.18,0v0a2.57,2.57,0,0,0-.77-1.87,2.78,2.78,0,0,0-2-.77,2.79,2.79,0,0,0-1.09.21,2.63,2.63,0,0,0-.87.57,2.71,2.71,0,0,0-.57.84,2.61,2.61,0,0,0-.21,1h0a2.58,2.58,0,0,0,1.63,2.43,3,3,0,0,0,2.2,0A2.65,2.65,0,0,0,67.2,83.2,2.56,2.56,0,0,0,67.41,82.17Zm-6.52,2.57V79.6H59.76v5.14Zm-2-4.1v-1H54.58v1h1.56v4.1h1.13v-4.1ZM52.1,82.58H50.73l.69-1.66Zm2,2.16L52,79.56h-1l-2.2,5.18h1.15l.47-1.16H52.5L53,84.74Zm-6.24,0V79.6H46.8v3.16L44.39,79.6h-1v5.14h1.11V81.47L47,84.74Z"/></g></g></svg>