<svg xmlns="http://www.w3.org/2000/svg" viewBox="0 0 189.37 101"><defs><style>.cls-1{fill:#ededed;}.cls-2{fill:#0095c0;fill-rule:evenodd;}</style></defs><g id="Layer_2" data-name="Layer 2"><g id="Layer_1-2" data-name="Layer 1"><rect class="cls-1" width="189.37" height="101" transform="translate(189.37 101) rotate(180)"/><path class="cls-2" d="M138.86,84.75V81.53c0-1.25,0-2.16-.08-3.11h0a22.8,22.8,0,0,0,1.52,2.52l2.59,3.82H144V77.22h-1v3.15a30.21,30.21,0,0,0,.12,3.1h0A19.16,19.16,0,0,0,141.63,81L139,77.22h-1.15v7.53Zm-6.06-6.86c1.75,0,2.59,1.56,2.59,3.06,0,1.71-.94,3.13-2.61,3.13s-2.59-1.44-2.59-3S131.05,77.89,132.8,77.89Zm0-.8a3.7,3.7,0,0,0-3.78,4,3.57,3.57,0,0,0,3.66,3.82,3.65,3.65,0,0,0,3.79-4A3.55,3.55,0,0,0,132.84,77.09Zm-6.18.13v7.53h1V77.22Zm-4.47,7.53h1.07V78h2.49v-.82h-6V78h2.47Zm-6.45-3.13.8-2.18c.15-.46.29-.91.41-1.36h0a14.06,14.06,0,0,0,.43,1.37l.79,2.17Zm2.67.76.87,2.37h1.12l-2.78-7.53h-1.27l-2.76,7.53h1.09l.84-2.37Zm-9.08,2.37h1.06V78h2.49v-.82h-6V78h2.48Zm-4.44-7.53v7.53h1V77.22Zm-7,.81a7,7,0,0,1,1.24-.1c2.22,0,3.31,1.13,3.3,2.91,0,2-1.22,3.19-3.47,3.19a8.16,8.16,0,0,1-1.07,0Zm-1,6.7c.53,0,1.16.09,1.91.09a5.28,5.28,0,0,0,3.61-1.09,3.82,3.82,0,0,0,1.17-2.93,3.35,3.35,0,0,0-1.15-2.7,5,5,0,0,0-3.3-.94,16.11,16.11,0,0,0-2.24.16Zm-1.73-4.32H92V78h3.34v-.81H90.9v7.53h4.58v-.81H92V81.22h3.16ZM85.44,78a4.41,4.41,0,0,1,1-.09c1.12,0,1.88.44,1.88,1.41s-.72,1.43-1.84,1.43H85.44Zm-1,6.75h1V81.49h1c1,0,1.39.42,1.64,1.46a9.48,9.48,0,0,0,.54,1.8H89.7a10.79,10.79,0,0,1-.63-2.07,1.92,1.92,0,0,0-1.2-1.52v0a2,2,0,0,0,1.54-1.92,1.79,1.79,0,0,0-.64-1.43,3.49,3.49,0,0,0-2.36-.62,11.81,11.81,0,0,0-2,.16Zm-1.53-1a4.55,4.55,0,0,1-1.72.32A2.85,2.85,0,0,1,78,81a2.91,2.91,0,0,1,3.18-3.11,4.05,4.05,0,0,1,1.64.31l.26-.79a4.74,4.74,0,0,0-1.94-.34,3.91,3.91,0,0,0-4.25,4c0,2.47,1.73,3.81,4,3.81a5.53,5.53,0,0,0,2.15-.36Zm-7,0a4.55,4.55,0,0,1-1.72.32A2.85,2.85,0,0,1,71,81a2.91,2.91,0,0,1,3.18-3.11,4.09,4.09,0,0,1,1.64.31l.26-.79a4.74,4.74,0,0,0-1.94-.34c-2.53,0-4.25,1.6-4.25,4s1.72,3.81,4,3.81a5.53,5.53,0,0,0,2.15-.36ZM64.51,81.62l.79-2.18c.16-.46.3-.91.42-1.36h0c.12.43.24.88.42,1.37l.8,2.17Zm2.67.76.87,2.37h1.12l-2.78-7.53H65.12l-2.76,7.53h1.08l.85-2.37ZM54.52,84.75h1V81.34h3.09v-.8H55.57V78h3.34v-.81H54.52Zm-5.07-6.86C51.2,77.89,52,79.45,52,81c0,1.71-.94,3.13-2.61,3.13s-2.59-1.44-2.59-3S47.7,77.89,49.45,77.89Zm0-.8a3.7,3.7,0,0,0-3.78,4,3.57,3.57,0,0,0,3.66,3.82,3.65,3.65,0,0,0,3.79-4A3.55,3.55,0,0,0,49.49,77.09Zm87-11a6,6,0,0,1,1.23-.1c2.22,0,3.31,1.13,3.3,2.91,0,2-1.22,3.19-3.47,3.19a7.9,7.9,0,0,1-1.06,0Zm-1.06,6.7c.53,0,1.16.08,1.91.08a5.23,5.23,0,0,0,3.6-1.08,3.79,3.79,0,0,0,1.18-2.93,3.34,3.34,0,0,0-1.15-2.7,4.89,4.89,0,0,0-3.3-.94,16.35,16.35,0,0,0-2.24.15ZM130,66.11a4.34,4.34,0,0,1,1-.09c1.11,0,1.87.43,1.87,1.4s-.71,1.44-1.83,1.44H130ZM129,72.86H130V69.59h1c1,0,1.39.43,1.63,1.47a9.22,9.22,0,0,0,.55,1.8h1.09a10.79,10.79,0,0,1-.63-2.07,1.92,1.92,0,0,0-1.2-1.52v0A2,2,0,0,0,134,67.31a1.82,1.82,0,0,0-.64-1.43,3.57,3.57,0,0,0-2.36-.61,11.9,11.9,0,0,0-2,.15Zm-5.86-3.13.79-2.18c.16-.46.3-.92.42-1.36h0c.12.43.24.88.42,1.37l.8,2.17Zm2.67.76.87,2.37h1.12L125,65.32h-1.27L121,72.86H122l.85-2.37ZM116,66c1.75,0,2.6,1.56,2.6,3.06,0,1.71-.94,3.13-2.61,3.13s-2.6-1.45-2.6-3S114.28,66,116,66Zm0-.8a3.71,3.71,0,0,0-3.79,4A3.57,3.57,0,0,0,116,73a3.65,3.65,0,0,0,3.78-4A3.55,3.55,0,0,0,116.07,65.2Zm-8.8,4h.87c1.15,0,2.1.42,2.1,1.45s-1,1.47-2.09,1.47a6.41,6.41,0,0,1-.88,0Zm0-3.17a5.46,5.46,0,0,1,.93-.06c1.06,0,1.79.34,1.79,1.23,0,.72-.65,1.26-1.77,1.26h-1Zm-1,6.76a14.71,14.71,0,0,0,1.63.08,4.35,4.35,0,0,0,2.82-.7,2,2,0,0,0,.69-1.51,2,2,0,0,0-1.69-1.89v0a1.82,1.82,0,0,0,1.38-1.65,1.52,1.52,0,0,0-.68-1.33,3.54,3.54,0,0,0-2.23-.55,11,11,0,0,0-1.92.15Zm-13.58,0h4.53V72H93.69V65.32h-1Zm-5.87-3.13.8-2.18c.16-.46.29-.92.41-1.36h0c.12.43.24.88.42,1.37l.8,2.17Zm2.68.76.87,2.37h1.12l-2.78-7.54H87.39l-2.77,7.54h1.09l.85-2.37ZM78.28,72.86V69.64c0-1.25,0-2.16-.09-3.11h0A21.81,21.81,0,0,0,79.75,69l2.59,3.83H83.4V65.32h-1v3.16c0,1.17,0,2.09.12,3.09h0A20.5,20.5,0,0,0,81,69.14l-2.61-3.82H77.29v7.54ZM72.21,66c1.75,0,2.6,1.56,2.6,3.06,0,1.71-.94,3.13-2.61,3.13s-2.6-1.45-2.6-3S70.47,66,72.21,66Zm.05-.8a3.71,3.71,0,0,0-3.79,4A3.57,3.57,0,0,0,72.14,73a3.65,3.65,0,0,0,3.78-4A3.55,3.55,0,0,0,72.26,65.2Zm-6.19.12v7.54h1.05V65.32Zm-4.46,7.54h1.06V66.15h2.49v-.83h-6v.83h2.48Zm-5.93-3.13.8-2.18c.16-.46.29-.92.41-1.36h0c.12.43.24.88.42,1.37l.8,2.17Zm2.67.76.88,2.37h1.12l-2.78-7.54H56.3l-2.77,7.54h1.09l.85-2.37ZM47.18,72.86V69.64c0-1.25,0-2.16-.08-3.11h0A21.81,21.81,0,0,0,48.66,69l2.59,3.83h1.06V65.32h-1v3.16a29.9,29.9,0,0,0,.12,3.09h0A20.5,20.5,0,0,0,50,69.14l-2.61-3.82H46.19v7.54Zm71.26-28a14.14,14.14,0,0,1,.32,3h0a14.19,14.19,0,0,1-.24,2.62h12.26V60.72H136V44.89ZM116,23.43a14.18,14.18,0,0,1,1.25,5.25,13,13,0,0,1,5.3-1,12.29,12.29,0,0,1,6.09,1.44,3.71,3.71,0,0,1,1.82,1.74,2.73,2.73,0,0,1,.32,1.21c0,.07,0,.15,0,.22v7.41H116.13a14.67,14.67,0,0,1,2,4.11H136V29.26a6.83,6.83,0,0,0-.78-2.08c-1.25-2.19-3.7-3.58-6.55-4.31a23.29,23.29,0,0,0-9.18-.34A18.38,18.38,0,0,0,116,23.43Zm-3.42-4.8a15.64,15.64,0,0,1,2.91,3.79,19.23,19.23,0,0,1,3.84-1,24.8,24.8,0,0,1,9.7.37c3.15.81,5.88,2.38,7.31,4.86a8,8,0,0,1,.9,2.47v31.6h5.32V27.54C140.31,15.56,120,14,112.57,18.63ZM88.5,38.08V33.19H99.88a2.93,2.93,0,1,0,0-5.86H88.5V22.21h11.89a8.53,8.53,0,0,1,5.89,2.33,7.65,7.65,0,0,1,0,11.22,8.55,8.55,0,0,1-5.35,2.32H88.5Zm0,17V50.19h12.89a3,3,0,0,0,3.07-2.93h0a3,3,0,0,0-3.07-2.93H88.5V39.25h11.89l.59,0h.23a9.46,9.46,0,0,1,6.29,2.34,7.33,7.33,0,0,1,0,11.22,9.5,9.5,0,0,1-6.29,2.33H88.5Zm23.9-17.45a13.54,13.54,0,0,1,3.65,9.2h0c0,7.68-6.59,14-14.65,14H88.5V56.28h12.71a10.83,10.83,0,0,0,7.21-2.68,8.4,8.4,0,0,0,0-12.85,10.57,10.57,0,0,0-4.2-2.27,9.7,9.7,0,0,0,2.91-1.9,8.76,8.76,0,0,0,0-12.86,9.72,9.72,0,0,0-6.74-2.67H88.5V16.13h11.61c8.06,0,14.65,6.28,14.65,14h0A13.42,13.42,0,0,1,112.4,37.67ZM52,60.62h6.09V39l23.58,21.8h4.78V16.14H81V52.45l-1-1L52,25.6ZM45.38,16.51V60.62h5.39V22.89l1,1,28,25.89V16.14H73.74V37.05l-23-20.72h-5.4Z"/></g></g></svg>