<?xml version="1.0" encoding="UTF-8"?><svg id="Layer_1" xmlns="http://www.w3.org/2000/svg" viewBox="0 0 281 150"><defs><style>.cls-1{fill:#d2a430;}.cls-1,.cls-2,.cls-3{fill-rule:evenodd;}.cls-2{fill:#a37d2d;}.cls-3{fill:#debb76;}.cls-4{fill:#ededed;}</style></defs><rect class="cls-4" x="-.86" y="-.46" width="282.71" height="150.92"/><g><g><path class="cls-3" d="M57.9,53.43c-1.25,0-7.32,.42-13.55,13.49-6.23,13.07-14.78,24.32-19.27,27.06,0,0,11.16-3.81,18.71-15.26,7.44-11.28,8.2-13.17,11.95-15.19,.82-3.81,1.61-7.31,2.15-10.1"/><path class="cls-1" d="M53.97,65.9c-.2,.18-.4,.38-.62,.6-1.48,1.54-3.03,3.94-5.95,8.42-.06,.11-.12,.22-.18,.33,0,0-.63,1.04-1.78,2.65-.42,.64-.86,1.31-1.33,2.01-6.1,9.16-14.38,13.48-18.2,15.09,1.32,.02,6.07-.57,18.37-7.71,0,0,10.68-6.6,14.99-8.67-2.93-4.77-3.63-8.3-3.55-13.95-.64,.36-1.2,.74-1.74,1.23"/><path class="cls-2" d="M63.66,92.34c-.73-.7-6.5-5.82-16.81-2.23-9.13,3.88-16.39,7.42-20.8,6.21,3-.66,8.53-2.59,18.1-7.93,0,0,10.29-6.13,15.71-8.83,.25,.39,.53,.79,.82,1.2,2.44,3.42,3.11,8.22,2.98,11.58"/></g><g><path d="M70.56,63.86l2.98,7.67c.12,.31,.26,.51,.42,.62,.15,.1,.3,.16,.43,.16v.24c-.16-.02-.36-.03-.6-.03-.24,0-.47,0-.71,0-.32,0-.61,0-.89,0-.28,0-.5,.01-.67,.03v-.24c.42-.02,.68-.09,.79-.21,.11-.13,.09-.4-.07-.81l-2.27-6.06,.2-.16-2.12,5.51c-.17,.44-.25,.78-.24,1.03,0,.25,.1,.42,.28,.53,.18,.11,.44,.16,.78,.17v.24c-.23-.02-.47-.03-.71-.03-.25,0-.48,0-.69,0s-.38,0-.52,0c-.14,0-.28,.01-.4,.03v-.24c.16-.04,.33-.14,.5-.29,.17-.15,.33-.41,.46-.77l2.87-7.39h.2Zm1.49,5.19v.24h-3.64l.12-.24h3.51Z"/><path d="M80.92,63.92c-.03,.31-.05,.61-.07,.9-.01,.29-.02,.51-.02,.67,0,.19,0,.38,.01,.55s.02,.32,.02,.45h-.28c-.06-.57-.13-1.02-.23-1.35-.1-.33-.27-.57-.51-.71s-.62-.22-1.13-.22h-.66v6.94c0,.33,.03,.57,.09,.73,.06,.16,.18,.27,.36,.33,.18,.06,.44,.09,.78,.11v.24c-.21-.02-.48-.03-.81-.03-.33,0-.65,0-.99,0-.37,0-.71,0-1.03,0-.32,0-.58,.01-.78,.03v-.24c.34-.02,.6-.05,.78-.11,.18-.06,.3-.17,.36-.33,.06-.16,.09-.41,.09-.73v-6.94h-.66c-.5,0-.88,.07-1.13,.22s-.42,.38-.52,.71c-.1,.33-.17,.78-.23,1.35h-.28c.02-.13,.03-.28,.03-.45,0-.17,0-.35,0-.55,0-.15,0-.38-.02-.67-.01-.29-.04-.59-.07-.9,.34,0,.71,.02,1.12,.02,.4,0,.81,.01,1.21,.01h2.21c.4,0,.81,0,1.21-.01,.41,0,.78-.02,1.11-.02Z"/><path d="M84.64,63.86l2.98,7.67c.12,.31,.26,.51,.42,.62,.15,.1,.3,.16,.43,.16v.24c-.16-.02-.36-.03-.6-.03-.24,0-.47,0-.71,0-.32,0-.61,0-.89,0-.28,0-.5,.01-.67,.03v-.24c.42-.02,.68-.09,.79-.21,.11-.13,.09-.4-.07-.81l-2.27-6.06,.2-.16-2.12,5.51c-.17,.44-.25,.78-.24,1.03,0,.25,.1,.42,.28,.53,.18,.11,.44,.16,.78,.17v.24c-.23-.02-.47-.03-.71-.03-.25,0-.48,0-.69,0s-.38,0-.52,0c-.14,0-.28,.01-.4,.03v-.24c.16-.04,.33-.14,.5-.29,.17-.15,.33-.41,.46-.77l2.87-7.39h.2Zm1.49,5.19v.24h-3.64l.12-.24h3.51Z"/><path d="M91.76,63.92v.24c-.28,0-.49,.04-.63,.09-.14,.05-.24,.15-.29,.29-.05,.14-.07,.36-.07,.67v6.05c0,.29,.02,.51,.07,.66s.14,.24,.29,.29c.14,.04,.35,.07,.63,.07h.89c.51,0,.9-.07,1.17-.22,.26-.15,.46-.39,.57-.72,.12-.33,.21-.78,.26-1.34h.28c-.02,.25-.04,.59-.04,1,0,.15,0,.38,.02,.66,.01,.29,.03,.59,.07,.9-.42-.02-.88-.03-1.4-.03-.52,0-.98,0-1.39,0h-.97c-.4,0-.83,0-1.29,0-.46,0-.88,.01-1.28,.03v-.24c.28-.02,.49-.05,.63-.1s.24-.15,.29-.29,.07-.37,.07-.66v-6.05c0-.3-.02-.52-.07-.67-.05-.14-.14-.24-.29-.29-.14-.05-.35-.08-.63-.09v-.24c.17,0,.39,.02,.67,.02,.28,0,.57,.01,.89,.01,.28,0,.57,0,.85-.01,.28,0,.51-.02,.7-.02Z"/><path d="M98.86,63.92c.17,0,.39,.02,.67,.02,.28,0,.55,.01,.82,.01,.38,0,.75,0,1.1-.01,.35,0,.6-.01,.74-.01,.98,0,1.72,.2,2.21,.61,.49,.41,.73,.91,.73,1.51,0,.24-.05,.5-.15,.78-.1,.28-.27,.54-.51,.78-.24,.24-.57,.45-.98,.6s-.94,.24-1.57,.24h-1.17v-.24h1.05c.58,0,1.02-.09,1.32-.27,.3-.18,.51-.43,.62-.73,.11-.3,.17-.64,.17-1.02,0-.64-.15-1.14-.46-1.49-.3-.35-.83-.53-1.57-.53-.37,0-.62,.07-.73,.21-.11,.14-.17,.42-.17,.84v6.05c0,.29,.02,.51,.07,.66s.14,.24,.29,.29,.35,.08,.63,.1v.24c-.19-.02-.42-.03-.7-.03-.28,0-.56,0-.85,0-.32,0-.61,0-.89,0-.28,0-.5,.01-.67,.03v-.24c.28-.02,.49-.05,.63-.1s.24-.15,.29-.29,.07-.37,.07-.66v-6.05c0-.3-.02-.52-.07-.67-.05-.14-.14-.24-.29-.29-.14-.05-.35-.08-.63-.09v-.24Zm1.94,4.33c.44,.02,.79,.03,1.04,.05,.25,.02,.46,.04,.62,.06,.16,.02,.31,.04,.46,.06,.54,.09,.94,.25,1.18,.49,.24,.24,.42,.61,.53,1.12l.3,1.24c.08,.36,.17,.62,.25,.77,.09,.16,.22,.23,.4,.23,.14,0,.25-.05,.35-.13,.09-.08,.19-.19,.3-.33l.18,.13c-.17,.25-.35,.45-.53,.58-.18,.13-.44,.2-.77,.2-.3,0-.57-.09-.79-.27-.23-.18-.4-.53-.51-1.05l-.27-1.22c-.07-.35-.16-.65-.25-.91s-.22-.46-.39-.6-.41-.22-.74-.22h-1.32l-.02-.21Z"/><path d="M110.2,63.86l2.98,7.67c.12,.31,.26,.51,.42,.62,.15,.1,.3,.16,.43,.16v.24c-.16-.02-.36-.03-.6-.03-.24,0-.47,0-.71,0-.32,0-.61,0-.89,0-.28,0-.5,.01-.67,.03v-.24c.42-.02,.68-.09,.79-.21,.11-.13,.09-.4-.07-.81l-2.27-6.06,.2-.16-2.12,5.51c-.17,.44-.25,.78-.24,1.03,0,.25,.1,.42,.28,.53,.18,.11,.44,.16,.78,.17v.24c-.23-.02-.47-.03-.71-.03-.25,0-.48,0-.69,0s-.38,0-.52,0c-.14,0-.28,.01-.4,.03v-.24c.16-.04,.33-.14,.5-.29,.17-.15,.33-.41,.46-.77l2.87-7.39h.2Zm1.49,5.19v.24h-3.64l.12-.24h3.51Z"/><path d="M121.87,63.92v.24c-.28,0-.49,.05-.63,.12s-.24,.19-.29,.35-.07,.39-.07,.7v7.28h-.28l-5.12-7.92v6.44c0,.29,.03,.52,.08,.69,.05,.17,.16,.29,.32,.35,.16,.07,.4,.11,.71,.13v.24c-.15-.02-.34-.03-.57-.03-.24,0-.46,0-.67,0s-.41,0-.62,0c-.21,0-.38,.01-.52,.03v-.24c.28-.02,.49-.06,.63-.13,.14-.07,.24-.19,.29-.35,.05-.17,.07-.4,.07-.69v-5.93c0-.3-.02-.52-.07-.67-.05-.14-.14-.24-.29-.29-.14-.05-.35-.08-.63-.09v-.24c.14,0,.31,.02,.52,.02,.21,0,.41,.01,.62,.01,.18,0,.35,0,.51-.01,.16,0,.31-.02,.44-.02l4.31,6.64v-5.22c0-.3-.03-.53-.08-.7s-.16-.28-.32-.35c-.16-.07-.4-.11-.71-.12v-.24c.15,0,.34,.02,.58,.02,.24,0,.46,.01,.67,.01s.42,0,.63-.01c.21,0,.38-.02,.51-.02Z"/><path d="M125.94,63.92v.24c-.28,0-.49,.04-.63,.09-.14,.05-.24,.15-.29,.29-.05,.14-.07,.36-.07,.67v6.05c0,.29,.02,.51,.07,.66s.14,.24,.29,.29,.35,.08,.63,.1v.24c-.19-.02-.42-.03-.7-.03-.28,0-.56,0-.85,0-.32,0-.61,0-.89,0-.28,0-.5,.01-.67,.03v-.24c.28-.02,.49-.05,.63-.1s.24-.15,.29-.29,.07-.37,.07-.66v-6.05c0-.3-.02-.52-.07-.67-.05-.14-.14-.24-.29-.29-.14-.05-.35-.08-.63-.09v-.24c.17,0,.39,.02,.67,.02,.28,0,.57,.01,.89,.01,.28,0,.57,0,.85-.01,.28,0,.51-.02,.7-.02Zm3.88,0v.24c-.25,.03-.5,.11-.73,.24-.24,.13-.47,.35-.71,.65l-2.35,3.01,.27-.6,2.93,4.1c.14,.2,.29,.36,.45,.48,.16,.11,.37,.2,.62,.27v.24c-.2-.02-.44-.03-.73-.03-.29,0-.53,0-.74,0-.14,0-.31,0-.51,0-.2,0-.45,.01-.75,.03v-.24c.28-.02,.45-.06,.52-.15,.07-.08,.04-.22-.09-.4l-1.78-2.68c-.16-.25-.31-.44-.43-.57s-.26-.21-.39-.25c-.13-.04-.3-.06-.51-.07v-.24c.34,0,.63-.08,.86-.2,.23-.13,.43-.29,.58-.48l1.17-1.49c.27-.34,.45-.63,.55-.87,.1-.24,.09-.42-.01-.54-.11-.13-.33-.19-.67-.2v-.24c.24,0,.48,.02,.72,.02,.24,0,.47,.01,.68,.01,.45,0,.79-.01,1.04-.04Z"/><path d="M133.93,63.92v.24c-.28,0-.49,.04-.63,.09-.14,.05-.24,.15-.29,.29-.05,.14-.07,.36-.07,.67v6.05c0,.29,.02,.51,.07,.66s.14,.24,.29,.29,.35,.08,.63,.1v.24c-.19-.02-.42-.03-.7-.03-.28,0-.56,0-.85,0-.32,0-.61,0-.89,0-.28,0-.5,.01-.67,.03v-.24c.28-.02,.49-.05,.63-.1s.24-.15,.29-.29,.07-.37,.07-.66v-6.05c0-.3-.02-.52-.07-.67-.05-.14-.14-.24-.29-.29-.14-.05-.35-.08-.63-.09v-.24c.17,0,.39,.02,.67,.02,.28,0,.57,.01,.89,.01,.28,0,.57,0,.85-.01,.28,0,.51-.02,.7-.02Z"/><path d="M142.61,63.92v.24c-.28,0-.49,.05-.63,.12s-.24,.19-.29,.35-.07,.39-.07,.7v7.28h-.28l-5.12-7.92v6.44c0,.29,.03,.52,.08,.69,.05,.17,.16,.29,.32,.35,.16,.07,.4,.11,.71,.13v.24c-.15-.02-.34-.03-.57-.03-.24,0-.46,0-.67,0s-.41,0-.62,0c-.21,0-.38,.01-.52,.03v-.24c.28-.02,.49-.06,.63-.13,.14-.07,.24-.19,.29-.35,.05-.17,.07-.4,.07-.69v-5.93c0-.3-.02-.52-.07-.67-.05-.14-.14-.24-.29-.29-.14-.05-.35-.08-.63-.09v-.24c.14,0,.31,.02,.52,.02,.21,0,.41,.01,.62,.01,.18,0,.35,0,.51-.01,.16,0,.31-.02,.44-.02l4.31,6.64v-5.22c0-.3-.03-.53-.08-.7s-.16-.28-.32-.35c-.16-.07-.4-.11-.71-.12v-.24c.15,0,.34,.02,.58,.02,.24,0,.46,.01,.67,.01s.42,0,.63-.01c.21,0,.38-.02,.51-.02Z"/><path d="M147.55,63.75c.53,0,.96,.08,1.28,.24s.63,.34,.92,.56c.11,.08,.19,.12,.24,.12,.15,0,.26-.25,.31-.74h.28c-.02,.3-.03,.67-.04,1.1,0,.43-.01,1-.01,1.71h-.28c-.06-.34-.13-.67-.21-.99-.08-.32-.22-.59-.4-.82-.24-.3-.54-.53-.93-.7-.38-.17-.78-.25-1.18-.25s-.78,.1-1.1,.3c-.33,.2-.61,.49-.85,.86-.24,.37-.42,.82-.54,1.35-.13,.52-.19,1.12-.19,1.78,0,1.46,.24,2.54,.71,3.21,.47,.68,1.2,1.02,2.2,1.02,.29,0,.55-.04,.76-.13s.38-.17,.51-.25c.15-.11,.25-.21,.29-.3,.04-.09,.06-.22,.06-.37v-1.17c0-.33-.03-.58-.1-.74-.07-.16-.18-.27-.36-.33-.18-.06-.43-.09-.78-.1v-.24c.15,0,.32,.01,.51,.02,.2,0,.4,0,.62,.01,.21,0,.41,0,.59,0,.27,0,.51,0,.73-.01,.22,0,.4-.02,.54-.02v.24c-.27,.02-.44,.08-.51,.2-.07,.11-.11,.4-.11,.85v2.42h-.24c0-.14-.04-.29-.09-.45-.05-.16-.13-.24-.24-.24-.05,0-.1,.01-.15,.04s-.13,.08-.26,.17c-.27,.2-.55,.36-.85,.48-.3,.12-.65,.18-1.05,.18-1.26,0-2.24-.38-2.95-1.15-.7-.77-1.05-1.83-1.05-3.19,0-.95,.17-1.77,.51-2.46,.34-.69,.81-1.23,1.4-1.6,.59-.38,1.26-.57,2.02-.57Z"/><path d="M159.11,63.75c.77,0,1.45,.17,2.03,.52,.58,.35,1.03,.85,1.35,1.51s.48,1.45,.48,2.39-.16,1.71-.49,2.39c-.33,.68-.79,1.22-1.37,1.6-.59,.38-1.26,.57-2.01,.57s-1.45-.17-2.03-.52c-.58-.35-1.03-.85-1.35-1.51s-.48-1.45-.48-2.38,.17-1.71,.5-2.39c.33-.68,.79-1.22,1.37-1.6,.58-.38,1.25-.57,2.01-.57Zm-.05,.22c-.53,0-.99,.18-1.38,.55-.39,.37-.69,.87-.91,1.51-.22,.64-.32,1.39-.32,2.23s.12,1.61,.36,2.25,.57,1.13,.98,1.48c.41,.35,.86,.52,1.36,.52,.53,0,.99-.18,1.38-.55,.39-.37,.69-.87,.91-1.52,.22-.65,.32-1.39,.32-2.23s-.12-1.62-.36-2.26c-.24-.63-.56-1.12-.97-1.47-.41-.35-.86-.52-1.37-.52Z"/><path d="M170.12,63.92c-.03,.31-.05,.61-.07,.9-.01,.29-.02,.51-.02,.67,0,.19,0,.38,.01,.55s.02,.32,.02,.45h-.28c-.06-.57-.13-1.02-.23-1.35-.1-.33-.27-.57-.51-.71-.24-.15-.62-.22-1.13-.22h-.77c-.28,0-.49,.02-.63,.07-.14,.04-.24,.14-.29,.28-.05,.14-.07,.36-.07,.67v6.05c0,.29,.03,.51,.09,.66,.06,.15,.18,.24,.36,.29s.44,.08,.78,.1v.24c-.21-.02-.48-.03-.8-.03-.33,0-.66,0-.99,0s-.61,0-.89,0c-.28,0-.5,.01-.67,.03v-.24c.28-.02,.49-.05,.63-.1s.24-.15,.29-.29,.07-.37,.07-.66v-6.05c0-.3-.02-.52-.07-.67-.05-.14-.14-.24-.29-.29-.14-.05-.35-.08-.63-.09v-.24c.4,0,.83,.02,1.28,.02,.46,0,.88,.01,1.29,.01h.97c.37,0,.8,0,1.27,0,.48,0,.9-.01,1.28-.03Zm-1.89,4.29v.24h-2.44v-.24h2.44Zm.23-1.61c-.03,.46-.05,.82-.04,1.06,0,.24,0,.47,0,.67s0,.43,.01,.67c0,.24,.03,.6,.06,1.06h-.28c-.03-.26-.07-.51-.12-.76s-.14-.45-.29-.61-.4-.24-.76-.24v-.24c.36,0,.61-.09,.75-.28s.23-.41,.27-.66,.08-.48,.11-.67h.28Z"/><path d="M176.84,63.92v.24c-.28,0-.49,.04-.63,.09-.14,.05-.24,.15-.29,.29-.05,.14-.07,.36-.07,.67v6.05c0,.29,.02,.51,.07,.66s.14,.24,.29,.29,.35,.08,.63,.1v.24c-.19-.02-.42-.03-.7-.03-.28,0-.56,0-.85,0-.32,0-.61,0-.89,0-.28,0-.5,.01-.67,.03v-.24c.28-.02,.49-.05,.63-.1s.24-.15,.29-.29,.07-.37,.07-.66v-6.05c0-.3-.02-.52-.07-.67-.05-.14-.14-.24-.29-.29-.14-.05-.35-.08-.63-.09v-.24c.17,0,.39,.02,.67,.02,.28,0,.57,.01,.89,.01,.28,0,.57,0,.85-.01,.28,0,.51-.02,.7-.02Z"/><path d="M185.52,63.92v.24c-.28,0-.49,.05-.63,.12s-.24,.19-.29,.35-.07,.39-.07,.7v7.28h-.28l-5.12-7.92v6.44c0,.29,.03,.52,.08,.69,.05,.17,.16,.29,.32,.35,.16,.07,.4,.11,.71,.13v.24c-.15-.02-.34-.03-.57-.03-.24,0-.46,0-.67,0s-.41,0-.62,0c-.21,0-.38,.01-.52,.03v-.24c.28-.02,.49-.06,.63-.13,.14-.07,.24-.19,.29-.35,.05-.17,.07-.4,.07-.69v-5.93c0-.3-.02-.52-.07-.67-.05-.14-.14-.24-.29-.29-.14-.05-.35-.08-.63-.09v-.24c.14,0,.31,.02,.52,.02,.21,0,.41,.01,.62,.01,.18,0,.35,0,.51-.01,.16,0,.31-.02,.44-.02l4.31,6.64v-5.22c0-.3-.03-.53-.08-.7s-.16-.28-.32-.35c-.16-.07-.4-.11-.71-.12v-.24c.15,0,.34,.02,.58,.02,.24,0,.46,.01,.67,.01s.42,0,.63-.01c.21,0,.38-.02,.51-.02Z"/><path d="M189.08,63.78c.41,0,.72,.05,.93,.14,.21,.09,.4,.2,.56,.31,.1,.06,.18,.1,.24,.13,.06,.03,.12,.04,.18,.04,.13,0,.22-.18,.27-.54h.28c0,.14-.02,.3-.03,.49-.01,.19-.02,.44-.02,.76,0,.31,0,.73,0,1.24h-.28c-.02-.39-.11-.76-.26-1.12s-.36-.65-.64-.88c-.28-.23-.65-.34-1.1-.34-.43,0-.79,.13-1.07,.39-.28,.26-.42,.6-.42,1.02,0,.37,.09,.67,.28,.92,.19,.25,.44,.47,.75,.67,.31,.2,.65,.41,1.02,.64,.42,.26,.8,.52,1.13,.77s.59,.54,.78,.85c.19,.31,.29,.68,.29,1.12,0,.52-.12,.95-.35,1.29-.24,.34-.55,.6-.94,.77s-.82,.26-1.29,.26c-.43,0-.77-.05-1.03-.15s-.47-.2-.65-.31c-.18-.11-.32-.17-.42-.17-.13,0-.22,.18-.27,.54h-.28c.02-.17,.03-.37,.03-.6s0-.53,.01-.91,0-.85,0-1.42h.28c.03,.49,.12,.94,.28,1.37,.15,.42,.38,.76,.7,1.02,.31,.26,.73,.38,1.25,.38,.4,0,.76-.13,1.09-.38,.33-.26,.49-.67,.49-1.24,0-.5-.17-.91-.52-1.23-.35-.33-.81-.66-1.38-1-.38-.24-.74-.48-1.07-.72-.33-.24-.6-.53-.8-.85-.2-.32-.3-.71-.3-1.17,0-.48,.11-.88,.32-1.19,.21-.31,.5-.54,.85-.7s.72-.23,1.12-.23Z"/><path d="M199.77,63.92c-.03,.31-.05,.61-.07,.9-.01,.29-.02,.51-.02,.67,0,.19,0,.38,.01,.55s.02,.32,.02,.45h-.28c-.06-.57-.13-1.02-.23-1.35-.1-.33-.27-.57-.51-.71s-.62-.22-1.13-.22h-.66v6.94c0,.33,.03,.57,.09,.73,.06,.16,.18,.27,.36,.33,.18,.06,.44,.09,.78,.11v.24c-.21-.02-.48-.03-.81-.03-.33,0-.65,0-.99,0-.37,0-.71,0-1.03,0-.32,0-.58,.01-.78,.03v-.24c.34-.02,.6-.05,.78-.11,.18-.06,.3-.17,.36-.33,.06-.16,.09-.41,.09-.73v-6.94h-.66c-.5,0-.88,.07-1.13,.22s-.42,.38-.52,.71c-.1,.33-.17,.78-.23,1.35h-.28c.02-.13,.03-.28,.03-.45,0-.17,0-.35,0-.55,0-.15,0-.38-.02-.67-.01-.29-.04-.59-.07-.9,.34,0,.71,.02,1.12,.02,.4,0,.81,.01,1.21,.01h2.21c.4,0,.81,0,1.21-.01,.41,0,.78-.02,1.11-.02Z"/><path d="M203.75,63.92v.24c-.28,0-.49,.04-.63,.09-.14,.05-.24,.15-.29,.29-.05,.14-.07,.36-.07,.67v6.05c0,.29,.02,.51,.07,.66s.14,.24,.29,.29,.35,.08,.63,.1v.24c-.19-.02-.42-.03-.7-.03-.28,0-.56,0-.85,0-.32,0-.61,0-.89,0-.28,0-.5,.01-.67,.03v-.24c.28-.02,.49-.05,.63-.1s.24-.15,.29-.29,.07-.37,.07-.66v-6.05c0-.3-.02-.52-.07-.67-.05-.14-.14-.24-.29-.29-.14-.05-.35-.08-.63-.09v-.24c.17,0,.39,.02,.67,.02,.28,0,.57,.01,.89,.01,.28,0,.57,0,.85-.01,.28,0,.51-.02,.7-.02Z"/><path d="M211.48,63.92c-.03,.31-.05,.61-.07,.9-.01,.29-.02,.51-.02,.67,0,.19,0,.38,.01,.55s.02,.32,.02,.45h-.28c-.06-.57-.13-1.02-.23-1.35-.1-.33-.27-.57-.51-.71s-.62-.22-1.13-.22h-.66v6.94c0,.33,.03,.57,.09,.73,.06,.16,.18,.27,.36,.33,.18,.06,.44,.09,.78,.11v.24c-.21-.02-.48-.03-.81-.03-.33,0-.65,0-.99,0-.37,0-.71,0-1.03,0-.32,0-.58,.01-.78,.03v-.24c.34-.02,.6-.05,.78-.11,.18-.06,.3-.17,.36-.33,.06-.16,.09-.41,.09-.73v-6.94h-.66c-.5,0-.88,.07-1.13,.22s-.42,.38-.52,.71c-.1,.33-.17,.78-.23,1.35h-.28c.02-.13,.03-.28,.03-.45,0-.17,0-.35,0-.55,0-.15,0-.38-.02-.67-.01-.29-.04-.59-.07-.9,.34,0,.71,.02,1.12,.02,.4,0,.81,.01,1.21,.01h2.21c.4,0,.81,0,1.21-.01,.41,0,.78-.02,1.11-.02Z"/><path d="M219.83,63.92v.24c-.28,0-.49,.05-.63,.12-.14,.07-.24,.19-.29,.35s-.07,.39-.07,.7v3.67c0,.57-.04,1.07-.11,1.49-.07,.42-.2,.79-.39,1.1-.2,.34-.5,.62-.89,.82-.39,.21-.84,.31-1.34,.31-.39,0-.76-.05-1.12-.14-.35-.09-.67-.27-.93-.52-.24-.23-.42-.47-.56-.72-.13-.25-.23-.56-.27-.93-.05-.37-.07-.83-.07-1.38v-3.83c0-.3-.02-.52-.07-.67-.05-.14-.14-.24-.29-.29-.14-.05-.35-.08-.63-.09v-.24c.17,0,.39,.02,.67,.02,.28,0,.57,.01,.89,.01,.29,0,.57,0,.85-.01,.28,0,.51-.02,.7-.02v.24c-.28,0-.49,.04-.63,.09-.14,.05-.24,.15-.29,.29-.05,.14-.07,.36-.07,.67v4.04c0,.55,.04,1.06,.12,1.52,.08,.46,.26,.83,.53,1.11,.27,.28,.7,.41,1.27,.41,.62,0,1.1-.14,1.43-.41,.34-.27,.57-.65,.71-1.13,.13-.48,.2-1.02,.2-1.62v-3.81c0-.3-.04-.53-.1-.7-.07-.16-.19-.28-.35-.35-.16-.07-.38-.11-.66-.12v-.24c.15,0,.34,.02,.58,.02,.24,0,.46,.01,.67,.01s.42,0,.63-.01c.21,0,.38-.02,.51-.02Z"/><path d="M227.38,63.92c-.03,.31-.05,.61-.07,.9-.01,.29-.02,.51-.02,.67,0,.19,0,.38,.01,.55s.02,.32,.02,.45h-.28c-.06-.57-.13-1.02-.23-1.35-.1-.33-.27-.57-.51-.71s-.62-.22-1.13-.22h-.66v6.94c0,.33,.03,.57,.09,.73,.06,.16,.18,.27,.36,.33,.18,.06,.44,.09,.78,.11v.24c-.21-.02-.48-.03-.81-.03-.33,0-.65,0-.99,0-.37,0-.71,0-1.03,0-.32,0-.58,.01-.78,.03v-.24c.34-.02,.6-.05,.78-.11,.18-.06,.3-.17,.36-.33,.06-.16,.09-.41,.09-.73v-6.94h-.66c-.5,0-.88,.07-1.13,.22s-.42,.38-.52,.71c-.1,.33-.17,.78-.23,1.35h-.28c.02-.13,.03-.28,.03-.45,0-.17,0-.35,0-.55,0-.15,0-.38-.02-.67-.01-.29-.04-.59-.07-.9,.34,0,.71,.02,1.12,.02,.4,0,.81,.01,1.21,.01h2.21c.4,0,.81,0,1.21-.01,.41,0,.78-.02,1.11-.02Z"/><path d="M231.36,63.92v.24c-.28,0-.49,.04-.63,.09-.14,.05-.24,.15-.29,.29-.05,.14-.07,.36-.07,.67v6.05c0,.29,.02,.51,.07,.66s.14,.24,.29,.29,.35,.08,.63,.1v.24c-.19-.02-.42-.03-.7-.03-.28,0-.56,0-.85,0-.32,0-.61,0-.89,0-.28,0-.5,.01-.67,.03v-.24c.28-.02,.49-.05,.63-.1s.24-.15,.29-.29,.07-.37,.07-.66v-6.05c0-.3-.02-.52-.07-.67-.05-.14-.14-.24-.29-.29-.14-.05-.35-.08-.63-.09v-.24c.17,0,.39,.02,.67,.02,.28,0,.57,.01,.89,.01,.28,0,.57,0,.85-.01,.28,0,.51-.02,.7-.02Z"/><path d="M236.3,63.75c.77,0,1.45,.17,2.03,.52,.58,.35,1.03,.85,1.35,1.51s.48,1.45,.48,2.39-.16,1.71-.49,2.39c-.33,.68-.79,1.22-1.37,1.6-.59,.38-1.26,.57-2.01,.57s-1.45-.17-2.03-.52c-.58-.35-1.03-.85-1.35-1.51s-.48-1.45-.48-2.38,.17-1.71,.5-2.39c.33-.68,.79-1.22,1.37-1.6,.58-.38,1.25-.57,2.01-.57Zm-.05,.22c-.53,0-.99,.18-1.38,.55-.39,.37-.69,.87-.91,1.51-.22,.64-.32,1.39-.32,2.23s.12,1.61,.36,2.25,.57,1.13,.98,1.48c.41,.35,.86,.52,1.36,.52,.53,0,.99-.18,1.38-.55,.39-.37,.69-.87,.91-1.52,.22-.65,.32-1.39,.32-2.23s-.12-1.62-.36-2.26c-.24-.63-.56-1.12-.97-1.47-.41-.35-.86-.52-1.37-.52Z"/><path d="M248.89,63.92v.24c-.28,0-.49,.05-.63,.12s-.24,.19-.29,.35-.07,.39-.07,.7v7.28h-.28l-5.12-7.92v6.44c0,.29,.03,.52,.08,.69,.05,.17,.16,.29,.32,.35,.16,.07,.4,.11,.71,.13v.24c-.15-.02-.34-.03-.57-.03-.24,0-.46,0-.67,0s-.41,0-.62,0c-.21,0-.38,.01-.52,.03v-.24c.28-.02,.49-.06,.63-.13,.14-.07,.24-.19,.29-.35,.05-.17,.07-.4,.07-.69v-5.93c0-.3-.02-.52-.07-.67-.05-.14-.14-.24-.29-.29-.14-.05-.35-.08-.63-.09v-.24c.14,0,.31,.02,.52,.02,.21,0,.41,.01,.62,.01,.18,0,.35,0,.51-.01,.16,0,.31-.02,.44-.02l4.31,6.64v-5.22c0-.3-.03-.53-.08-.7s-.16-.28-.32-.35c-.16-.07-.4-.11-.71-.12v-.24c.15,0,.34,.02,.58,.02,.24,0,.46,.01,.67,.01s.42,0,.63-.01c.21,0,.38-.02,.51-.02Z"/><path d="M252.45,63.78c.41,0,.72,.05,.93,.14,.21,.09,.4,.2,.56,.31,.1,.06,.18,.1,.24,.13,.06,.03,.12,.04,.18,.04,.13,0,.22-.18,.27-.54h.28c0,.14-.02,.3-.03,.49-.01,.19-.02,.44-.02,.76,0,.31,0,.73,0,1.24h-.28c-.02-.39-.11-.76-.26-1.12s-.36-.65-.64-.88c-.28-.23-.65-.34-1.1-.34-.43,0-.79,.13-1.07,.39-.28,.26-.42,.6-.42,1.02,0,.37,.09,.67,.28,.92,.19,.25,.44,.47,.75,.67,.31,.2,.65,.41,1.02,.64,.42,.26,.8,.52,1.13,.77s.59,.54,.78,.85c.19,.31,.29,.68,.29,1.12,0,.52-.12,.95-.35,1.29-.24,.34-.55,.6-.94,.77s-.82,.26-1.29,.26c-.43,0-.77-.05-1.03-.15s-.47-.2-.65-.31c-.18-.11-.32-.17-.42-.17-.13,0-.22,.18-.27,.54h-.28c.02-.17,.03-.37,.03-.6s0-.53,.01-.91,0-.85,0-1.42h.28c.03,.49,.12,.94,.28,1.37,.15,.42,.38,.76,.7,1.02,.31,.26,.73,.38,1.25,.38,.4,0,.76-.13,1.09-.38,.33-.26,.49-.67,.49-1.24,0-.5-.17-.91-.52-1.23-.35-.33-.81-.66-1.38-1-.38-.24-.74-.48-1.07-.72-.33-.24-.6-.53-.8-.85-.2-.32-.3-.71-.3-1.17,0-.48,.11-.88,.32-1.19,.21-.31,.5-.54,.85-.7s.72-.23,1.12-.23Z"/><path d="M71.14,80.02c.77,0,1.45,.17,2.03,.52,.58,.35,1.03,.85,1.35,1.51s.48,1.45,.48,2.38-.16,1.71-.49,2.39c-.33,.68-.79,1.22-1.37,1.6-.59,.38-1.26,.57-2.01,.57s-1.45-.17-2.03-.52c-.58-.35-1.03-.85-1.35-1.51-.32-.66-.48-1.45-.48-2.38s.17-1.71,.5-2.39c.33-.68,.79-1.22,1.37-1.6,.58-.38,1.25-.57,2.01-.57Zm-.05,.22c-.53,0-.99,.18-1.38,.55-.39,.37-.69,.87-.91,1.51-.22,.64-.32,1.39-.32,2.23s.12,1.61,.36,2.25c.24,.64,.57,1.13,.98,1.48,.41,.35,.86,.52,1.36,.52,.53,0,.99-.18,1.38-.55s.69-.87,.91-1.52c.22-.65,.32-1.39,.32-2.23s-.12-1.62-.36-2.26c-.24-.63-.56-1.12-.97-1.47-.41-.35-.86-.52-1.37-.52Z"/><path d="M83.73,80.19v.24c-.28,0-.49,.05-.63,.12-.14,.07-.24,.19-.29,.35s-.07,.39-.07,.7v7.28h-.28l-5.12-7.92v6.44c0,.29,.03,.52,.08,.69,.05,.17,.16,.28,.32,.35s.4,.11,.71,.13v.24c-.15-.02-.34-.03-.57-.03-.24,0-.46,0-.67,0s-.41,0-.62,0c-.21,0-.38,.01-.52,.03v-.24c.28-.02,.49-.06,.63-.13s.24-.19,.29-.35c.05-.17,.07-.4,.07-.69v-5.93c0-.3-.02-.52-.07-.67s-.14-.24-.29-.29c-.14-.05-.35-.08-.63-.09v-.24c.14,0,.31,.02,.52,.02,.21,0,.41,.01,.62,.01,.18,0,.35,0,.51-.01,.16,0,.31-.02,.44-.02l4.31,6.64v-5.22c0-.3-.03-.53-.08-.7s-.16-.28-.32-.35c-.16-.07-.4-.11-.71-.12v-.24c.15,0,.34,.02,.58,.02,.24,0,.46,.01,.67,.01s.42,0,.63-.01c.21,0,.38-.02,.51-.02Z"/><path d="M90.83,80.19v.24c-.28,0-.49,.04-.63,.09-.14,.05-.24,.15-.29,.29s-.07,.36-.07,.67v6.05c0,.29,.02,.51,.07,.66s.14,.24,.29,.29,.35,.08,.63,.1v.24c-.19-.02-.42-.03-.7-.03-.28,0-.56,0-.85,0-.32,0-.61,0-.89,0s-.5,.01-.67,.03v-.24c.28-.02,.49-.05,.63-.1s.24-.15,.29-.29,.07-.37,.07-.66v-6.05c0-.3-.02-.52-.07-.67s-.14-.24-.29-.29c-.14-.05-.35-.08-.63-.09v-.24c.17,0,.39,.02,.67,.02,.28,0,.57,.01,.89,.01,.28,0,.57,0,.85-.01,.28,0,.51-.02,.7-.02Z"/><path d="M99.52,80.19v.24c-.28,0-.49,.05-.63,.12-.14,.07-.24,.19-.29,.35s-.07,.39-.07,.7v7.28h-.28l-5.12-7.92v6.44c0,.29,.03,.52,.08,.69,.05,.17,.16,.28,.32,.35s.4,.11,.71,.13v.24c-.15-.02-.34-.03-.57-.03-.24,0-.46,0-.67,0s-.41,0-.62,0c-.21,0-.38,.01-.52,.03v-.24c.28-.02,.49-.06,.63-.13s.24-.19,.29-.35c.05-.17,.07-.4,.07-.69v-5.93c0-.3-.02-.52-.07-.67s-.14-.24-.29-.29c-.14-.05-.35-.08-.63-.09v-.24c.14,0,.31,.02,.52,.02,.21,0,.41,.01,.62,.01,.18,0,.35,0,.51-.01,.16,0,.31-.02,.44-.02l4.31,6.64v-5.22c0-.3-.03-.53-.08-.7s-.16-.28-.32-.35c-.16-.07-.4-.11-.71-.12v-.24c.15,0,.34,.02,.58,.02,.24,0,.46,.01,.67,.01s.42,0,.63-.01c.21,0,.38-.02,.51-.02Z"/><path d="M108.13,80.19v.24c-.28,0-.49,.05-.63,.12-.14,.07-.24,.19-.29,.35s-.07,.39-.07,.7v7.28h-.28l-5.12-7.92v6.44c0,.29,.03,.52,.08,.69,.05,.17,.16,.28,.32,.35s.4,.11,.71,.13v.24c-.15-.02-.34-.03-.57-.03-.24,0-.46,0-.67,0s-.41,0-.62,0c-.21,0-.38,.01-.52,.03v-.24c.28-.02,.49-.06,.63-.13s.24-.19,.29-.35c.05-.17,.07-.4,.07-.69v-5.93c0-.3-.02-.52-.07-.67s-.14-.24-.29-.29c-.14-.05-.35-.08-.63-.09v-.24c.14,0,.31,.02,.52,.02,.21,0,.41,.01,.62,.01,.18,0,.35,0,.51-.01,.16,0,.31-.02,.44-.02l4.31,6.64v-5.22c0-.3-.03-.53-.08-.7s-.16-.28-.32-.35c-.16-.07-.4-.11-.71-.12v-.24c.15,0,.34,.02,.58,.02,.24,0,.46,.01,.67,.01s.42,0,.63-.01c.21,0,.38-.02,.51-.02Z"/><path d="M113.01,80.02c.77,0,1.45,.17,2.03,.52,.58,.35,1.03,.85,1.35,1.51s.48,1.45,.48,2.38-.16,1.71-.49,2.39c-.33,.68-.79,1.22-1.37,1.6-.59,.38-1.26,.57-2.01,.57s-1.45-.17-2.03-.52c-.58-.35-1.03-.85-1.35-1.51-.32-.66-.48-1.45-.48-2.38s.17-1.71,.5-2.39c.33-.68,.79-1.22,1.37-1.6,.58-.38,1.25-.57,2.01-.57Zm-.05,.22c-.53,0-.99,.18-1.38,.55-.39,.37-.69,.87-.91,1.51-.22,.64-.32,1.39-.32,2.23s.12,1.61,.36,2.25c.24,.64,.57,1.13,.98,1.48,.41,.35,.86,.52,1.36,.52,.53,0,.99-.18,1.38-.55s.69-.87,.91-1.52c.22-.65,.32-1.39,.32-2.23s-.12-1.62-.36-2.26c-.24-.63-.56-1.12-.97-1.47-.41-.35-.86-.52-1.37-.52Z"/><path d="M125.13,80.19v.24c-.15,.03-.32,.13-.49,.28s-.33,.42-.47,.78l-2.87,7.39h-.2l-2.98-7.67c-.12-.31-.26-.51-.42-.62s-.3-.16-.43-.16v-.24c.16,0,.36,.02,.6,.02,.24,0,.47,.01,.7,.01,.32,0,.61,0,.89-.01,.28,0,.5-.02,.67-.02v.24c-.42,.02-.68,.09-.79,.21-.11,.13-.09,.4,.07,.81l2.27,6.01-.2,.21,2.12-5.51c.17-.44,.25-.78,.24-1.03,0-.25-.1-.42-.28-.53-.18-.11-.44-.16-.78-.17v-.24c.24,0,.48,.02,.72,.02,.24,0,.47,.01,.68,.01s.39,0,.52-.01c.14,0,.27-.02,.39-.02Z"/><path d="M128.2,80.12l2.98,7.67c.12,.31,.26,.51,.42,.62,.15,.1,.3,.16,.43,.17v.24c-.16-.02-.36-.03-.6-.03-.24,0-.47,0-.71,0-.32,0-.61,0-.89,0s-.5,.01-.67,.03v-.24c.42-.02,.68-.09,.79-.21,.11-.13,.09-.4-.07-.81l-2.27-6.06,.2-.16-2.12,5.51c-.17,.44-.25,.78-.24,1.03,0,.25,.1,.42,.28,.53,.18,.11,.44,.16,.78,.17v.24c-.23-.02-.47-.03-.71-.03s-.48,0-.69,0-.38,0-.52,0c-.14,0-.28,.01-.4,.03v-.24c.16-.04,.33-.14,.5-.29s.33-.41,.46-.78l2.87-7.39h.2Zm1.49,5.19v.24h-3.64l.12-.24h3.51Z"/><path d="M138.56,80.19c-.03,.31-.05,.61-.07,.9-.01,.29-.02,.51-.02,.67,0,.2,0,.38,.01,.55s.02,.32,.02,.45h-.28c-.06-.57-.13-1.02-.23-1.35-.1-.33-.27-.57-.51-.71s-.62-.22-1.13-.22h-.66v6.94c0,.33,.03,.57,.09,.73,.06,.16,.18,.27,.36,.33,.18,.06,.44,.09,.78,.11v.24c-.21-.02-.48-.03-.81-.03s-.65,0-.99,0c-.37,0-.71,0-1.03,0s-.58,.01-.78,.03v-.24c.34-.02,.6-.05,.78-.11s.3-.17,.36-.33c.06-.16,.09-.41,.09-.73v-6.94h-.66c-.5,0-.88,.07-1.13,.22s-.42,.38-.52,.71c-.1,.33-.17,.78-.23,1.35h-.28c.02-.13,.03-.28,.03-.45,0-.17,0-.35,0-.55,0-.15,0-.38-.02-.67-.01-.29-.04-.59-.07-.9,.34,0,.71,.02,1.12,.02,.4,0,.81,.01,1.21,.01h2.21c.4,0,.81,0,1.21-.01,.41,0,.78-.02,1.11-.02Z"/><path d="M142.54,80.19v.24c-.28,0-.49,.04-.63,.09-.14,.05-.24,.15-.29,.29s-.07,.36-.07,.67v6.05c0,.29,.02,.51,.07,.66s.14,.24,.29,.29,.35,.08,.63,.1v.24c-.19-.02-.42-.03-.7-.03-.28,0-.56,0-.85,0-.32,0-.61,0-.89,0s-.5,.01-.67,.03v-.24c.28-.02,.49-.05,.63-.1s.24-.15,.29-.29,.07-.37,.07-.66v-6.05c0-.3-.02-.52-.07-.67s-.14-.24-.29-.29c-.14-.05-.35-.08-.63-.09v-.24c.17,0,.39,.02,.67,.02,.28,0,.57,.01,.89,.01,.28,0,.57,0,.85-.01,.28,0,.51-.02,.7-.02Z"/><path d="M147.48,80.02c.77,0,1.45,.17,2.03,.52,.58,.35,1.03,.85,1.35,1.51s.48,1.45,.48,2.38-.16,1.71-.49,2.39c-.33,.68-.79,1.22-1.37,1.6-.59,.38-1.26,.57-2.01,.57s-1.45-.17-2.03-.52c-.58-.35-1.03-.85-1.35-1.51-.32-.66-.48-1.45-.48-2.38s.17-1.71,.5-2.39c.33-.68,.79-1.22,1.37-1.6,.58-.38,1.25-.57,2.01-.57Zm-.05,.22c-.53,0-.99,.18-1.38,.55-.39,.37-.69,.87-.91,1.51-.22,.64-.32,1.39-.32,2.23s.12,1.61,.36,2.25c.24,.64,.57,1.13,.98,1.48,.41,.35,.86,.52,1.36,.52,.53,0,.99-.18,1.38-.55s.69-.87,.91-1.52c.22-.65,.32-1.39,.32-2.23s-.12-1.62-.36-2.26c-.24-.63-.56-1.12-.97-1.47-.41-.35-.86-.52-1.37-.52Z"/><path d="M160.07,80.19v.24c-.28,0-.49,.05-.63,.12-.14,.07-.24,.19-.29,.35s-.07,.39-.07,.7v7.28h-.28l-5.12-7.92v6.44c0,.29,.03,.52,.08,.69,.05,.17,.16,.28,.32,.35s.4,.11,.71,.13v.24c-.15-.02-.34-.03-.57-.03-.24,0-.46,0-.67,0s-.41,0-.62,0c-.21,0-.38,.01-.52,.03v-.24c.28-.02,.49-.06,.63-.13s.24-.19,.29-.35c.05-.17,.07-.4,.07-.69v-5.93c0-.3-.02-.52-.07-.67s-.14-.24-.29-.29c-.14-.05-.35-.08-.63-.09v-.24c.14,0,.31,.02,.52,.02,.21,0,.41,.01,.62,.01,.18,0,.35,0,.51-.01,.16,0,.31-.02,.44-.02l4.31,6.64v-5.22c0-.3-.03-.53-.08-.7s-.16-.28-.32-.35c-.16-.07-.4-.11-.71-.12v-.24c.15,0,.34,.02,.58,.02,.24,0,.46,.01,.67,.01s.42,0,.63-.01c.21,0,.38-.02,.51-.02Z"/><path d="M167.08,80.12l2.98,7.67c.12,.31,.26,.51,.42,.62,.15,.1,.3,.16,.43,.17v.24c-.16-.02-.36-.03-.6-.03-.24,0-.47,0-.71,0-.32,0-.61,0-.89,0s-.5,.01-.67,.03v-.24c.42-.02,.68-.09,.79-.21,.11-.13,.09-.4-.07-.81l-2.27-6.06,.2-.16-2.12,5.51c-.17,.44-.25,.78-.24,1.03,0,.25,.1,.42,.28,.53,.18,.11,.44,.16,.78,.17v.24c-.23-.02-.47-.03-.71-.03s-.48,0-.69,0-.38,0-.52,0c-.14,0-.28,.01-.4,.03v-.24c.16-.04,.33-.14,.5-.29s.33-.41,.46-.78l2.87-7.39h.2Zm1.49,5.19v.24h-3.64l.12-.24h3.51Z"/><path d="M175.22,80.02c.54,0,.98,.08,1.32,.24,.34,.16,.65,.34,.92,.56,.16,.12,.29,.14,.37,.04,.08-.09,.14-.32,.18-.67h.28c-.02,.3-.03,.67-.04,1.1,0,.43-.01,1-.01,1.71h-.28c-.06-.35-.11-.63-.16-.84-.05-.21-.11-.38-.18-.53-.07-.15-.16-.29-.27-.44-.25-.33-.57-.58-.95-.73-.38-.15-.79-.23-1.21-.23-.4,0-.76,.1-1.08,.3s-.6,.49-.83,.86c-.23,.37-.41,.83-.54,1.35-.13,.53-.19,1.12-.19,1.78s.07,1.29,.21,1.81c.14,.52,.33,.97,.58,1.32,.25,.36,.54,.63,.88,.81,.34,.18,.7,.27,1.09,.27,.37,0,.75-.07,1.15-.22s.71-.38,.94-.71c.18-.24,.3-.49,.37-.77,.07-.28,.13-.66,.19-1.16h.28c0,.74,0,1.34,.01,1.79s.02,.83,.04,1.14h-.28c-.03-.35-.09-.57-.17-.66-.08-.09-.21-.08-.38,.04-.3,.21-.62,.4-.96,.55-.34,.16-.77,.24-1.3,.24-.77,0-1.45-.17-2.03-.52-.58-.35-1.03-.85-1.35-1.51-.32-.66-.48-1.45-.48-2.38s.17-1.71,.5-2.39c.33-.68,.79-1.22,1.37-1.6,.58-.38,1.25-.57,2.01-.57Z"/><path d="M179.61,88.82v-.24c.28-.02,.49-.05,.63-.1s.24-.15,.29-.29,.07-.37,.07-.66v-6.05c0-.3-.02-.52-.07-.67s-.14-.24-.29-.29c-.14-.05-.35-.08-.63-.09v-.24c.17,0,.39,.02,.67,.02,.28,0,.57,.01,.89,.01,.28,0,.57,0,.85-.01,.28,0,.51-.02,.7-.02v.24c-.28,0-.49,.04-.63,.09-.14,.05-.24,.15-.29,.29s-.07,.36-.07,.67v6.05c0,.29,.02,.51,.07,.66s.14,.24,.29,.29,.35,.08,.63,.1v.24c-.19-.02-.42-.03-.7-.03-.28,0-.56,0-.85,0-.32,0-.61,0-.89,0s-.5,.01-.67,.03Zm1.7-4.22v-.24h4.82v.24h-4.82Zm3.4,4.22v-.24c.28-.02,.49-.05,.63-.1,.14-.05,.24-.15,.29-.29s.07-.37,.07-.66v-6.05c0-.3-.02-.52-.07-.67s-.14-.24-.29-.29c-.14-.05-.35-.08-.63-.09v-.24c.19,0,.42,.02,.71,.02,.28,0,.56,.01,.84,.01,.32,0,.61,0,.89-.01,.28,0,.5-.02,.67-.02v.24c-.28,0-.49,.04-.63,.09-.14,.05-.24,.15-.29,.29s-.07,.36-.07,.67v6.05c0,.29,.02,.51,.07,.66s.14,.24,.29,.29c.14,.05,.35,.08,.63,.1v.24c-.17-.02-.39-.03-.67-.03-.28,0-.57,0-.89,0-.28,0-.56,0-.84,0-.29,0-.52,.01-.71,.03Z"/><path d="M191.95,80.19v.24c-.28,0-.49,.04-.63,.09-.14,.05-.24,.15-.29,.29s-.07,.36-.07,.67v6.05c0,.29,.02,.51,.07,.66s.14,.24,.29,.29,.35,.08,.63,.1v.24c-.19-.02-.42-.03-.7-.03-.28,0-.56,0-.85,0-.32,0-.61,0-.89,0s-.5,.01-.67,.03v-.24c.28-.02,.49-.05,.63-.1s.24-.15,.29-.29,.07-.37,.07-.66v-6.05c0-.3-.02-.52-.07-.67s-.14-.24-.29-.29c-.14-.05-.35-.08-.63-.09v-.24c.17,0,.39,.02,.67,.02,.28,0,.57,.01,.89,.01,.28,0,.57,0,.85-.01,.28,0,.51-.02,.7-.02Z"/><path d="M199.06,80.19c-.03,.28-.05,.56-.07,.83-.01,.27-.02,.47-.02,.61,0,.15,0,.29,.01,.42,0,.13,.02,.25,.02,.33h-.28c-.05-.48-.12-.86-.21-1.14-.09-.28-.24-.48-.46-.6-.22-.12-.54-.18-.97-.18h-1.01c-.28,0-.49,.02-.63,.07s-.24,.14-.29,.28-.07,.36-.07,.67v6.05c0,.29,.02,.51,.07,.66s.14,.24,.29,.29,.35,.07,.63,.07h.89c.51,0,.9-.07,1.17-.21,.26-.14,.46-.36,.57-.68,.12-.31,.21-.74,.26-1.28h.28c-.02,.22-.04,.51-.04,.88,0,.15,0,.38,.02,.67,.01,.29,.03,.59,.07,.9-.42-.02-.88-.03-1.4-.03s-.98,0-1.39,0h-.97c-.4,0-.83,0-1.29,0-.46,0-.88,.01-1.28,.03v-.24c.28-.02,.49-.05,.63-.1s.24-.15,.29-.29,.07-.37,.07-.66v-6.05c0-.3-.02-.52-.07-.67s-.14-.24-.29-.29c-.14-.05-.35-.08-.63-.09v-.24c.4,0,.83,.02,1.28,.02,.46,0,.88,.01,1.29,.01h.97c.37,0,.8,0,1.27,0,.48,0,.9-.01,1.28-.03Zm-2.1,4.17v.24h-2.23v-.24h2.23Zm.35-1.61c-.03,.46-.05,.82-.04,1.06,0,.24,0,.47,0,.67s0,.43,.01,.67c0,.24,.03,.6,.06,1.06h-.28c-.03-.26-.07-.51-.12-.76-.04-.25-.14-.45-.29-.61-.15-.16-.4-.24-.76-.24v-.24c.36,0,.61-.09,.75-.28,.14-.19,.23-.41,.28-.66,.04-.25,.08-.48,.11-.67h.28Z"/><path d="M207.67,80.19v.24c-.15,.03-.32,.13-.49,.28s-.33,.42-.47,.78l-2.87,7.39h-.2l-2.98-7.67c-.12-.31-.26-.51-.42-.62s-.3-.16-.43-.16v-.24c.16,0,.36,.02,.6,.02,.24,0,.47,.01,.7,.01,.32,0,.61,0,.89-.01,.28,0,.5-.02,.67-.02v.24c-.42,.02-.68,.09-.79,.21-.11,.13-.09,.4,.07,.81l2.27,6.01-.2,.21,2.12-5.51c.17-.44,.25-.78,.24-1.03,0-.25-.1-.42-.28-.53-.18-.11-.44-.16-.78-.17v-.24c.24,0,.48,.02,.72,.02,.24,0,.47,.01,.68,.01s.39,0,.52-.01c.14,0,.27-.02,.39-.02Z"/><path d="M214.18,80.19c-.03,.28-.05,.56-.07,.83-.01,.27-.02,.47-.02,.61,0,.15,0,.29,.01,.42,0,.13,.02,.25,.02,.33h-.28c-.05-.48-.12-.86-.21-1.14-.09-.28-.24-.48-.46-.6-.22-.12-.54-.18-.97-.18h-1.01c-.28,0-.49,.02-.63,.07s-.24,.14-.29,.28-.07,.36-.07,.67v6.05c0,.29,.02,.51,.07,.66s.14,.24,.29,.29,.35,.07,.63,.07h.89c.51,0,.9-.07,1.17-.21,.26-.14,.46-.36,.57-.68,.12-.31,.21-.74,.26-1.28h.28c-.02,.22-.04,.51-.04,.88,0,.15,0,.38,.02,.67,.01,.29,.03,.59,.07,.9-.42-.02-.88-.03-1.4-.03s-.98,0-1.39,0h-.97c-.4,0-.83,0-1.29,0-.46,0-.88,.01-1.28,.03v-.24c.28-.02,.49-.05,.63-.1s.24-.15,.29-.29,.07-.37,.07-.66v-6.05c0-.3-.02-.52-.07-.67s-.14-.24-.29-.29c-.14-.05-.35-.08-.63-.09v-.24c.4,0,.83,.02,1.28,.02,.46,0,.88,.01,1.29,.01h.97c.37,0,.8,0,1.27,0,.48,0,.9-.01,1.28-.03Zm-2.1,4.17v.24h-2.23v-.24h2.23Zm.35-1.61c-.03,.46-.05,.82-.04,1.06,0,.24,0,.47,0,.67s0,.43,.01,.67c0,.24,.03,.6,.06,1.06h-.28c-.03-.26-.07-.51-.12-.76-.04-.25-.14-.45-.29-.61-.15-.16-.4-.24-.76-.24v-.24c.36,0,.61-.09,.75-.28,.14-.19,.23-.41,.28-.66,.04-.25,.08-.48,.11-.67h.28Z"/><path d="M225.12,80.19v.24c-.28,0-.49,.04-.63,.09-.14,.05-.24,.15-.29,.29s-.07,.36-.07,.67v6.05c0,.29,.02,.51,.07,.66s.14,.24,.29,.29c.14,.05,.35,.08,.63,.1v.24c-.19-.02-.42-.03-.7-.03-.28,0-.56,0-.85,0-.32,0-.61,0-.89,0s-.5,.01-.67,.03v-.24c.28-.02,.49-.05,.63-.1,.14-.05,.24-.15,.29-.29s.07-.37,.07-.66v-6.71l.05,.04-2.99,8.03h-.2l-3.07-7.92v6.44c0,.29,.03,.52,.08,.69,.05,.17,.16,.28,.32,.35s.4,.11,.71,.13v.24c-.15-.02-.34-.03-.57-.03-.24,0-.46,0-.67,0s-.41,0-.62,0c-.21,0-.38,.01-.52,.03v-.24c.28-.02,.49-.06,.63-.13s.24-.19,.29-.35c.05-.17,.07-.4,.07-.69v-5.93c0-.3-.02-.52-.07-.67s-.14-.24-.29-.29c-.14-.05-.35-.08-.63-.09v-.24c.14,0,.31,.02,.52,.02,.21,0,.41,.01,.62,.01,.18,0,.36,0,.55-.01,.19,0,.35-.02,.48-.02l2.77,7.3-.21,.1,2.75-7.36h.57c.29,0,.57,0,.85-.01,.28,0,.51-.02,.7-.02Z"/><path d="M232.24,80.19c-.03,.28-.05,.56-.07,.83-.01,.27-.02,.47-.02,.61,0,.15,0,.29,.01,.42,0,.13,.02,.25,.02,.33h-.28c-.05-.48-.12-.86-.21-1.14-.09-.28-.24-.48-.46-.6-.22-.12-.54-.18-.97-.18h-1.01c-.28,0-.49,.02-.63,.07s-.24,.14-.29,.28-.07,.36-.07,.67v6.05c0,.29,.02,.51,.07,.66s.14,.24,.29,.29,.35,.07,.63,.07h.89c.51,0,.9-.07,1.17-.21,.26-.14,.46-.36,.57-.68,.12-.31,.21-.74,.26-1.28h.28c-.02,.22-.04,.51-.04,.88,0,.15,0,.38,.02,.67,.01,.29,.03,.59,.07,.9-.42-.02-.88-.03-1.4-.03s-.98,0-1.39,0h-.97c-.4,0-.83,0-1.29,0-.46,0-.88,.01-1.28,.03v-.24c.28-.02,.49-.05,.63-.1s.24-.15,.29-.29,.07-.37,.07-.66v-6.05c0-.3-.02-.52-.07-.67s-.14-.24-.29-.29c-.14-.05-.35-.08-.63-.09v-.24c.4,0,.83,.02,1.28,.02,.46,0,.88,.01,1.29,.01h.97c.37,0,.8,0,1.27,0,.48,0,.9-.01,1.28-.03Zm-2.1,4.17v.24h-2.23v-.24h2.23Zm.35-1.61c-.03,.46-.05,.82-.04,1.06,0,.24,0,.47,0,.67s0,.43,.01,.67c0,.24,.03,.6,.06,1.06h-.28c-.03-.26-.07-.51-.12-.76-.04-.25-.14-.45-.29-.61-.15-.16-.4-.24-.76-.24v-.24c.36,0,.61-.09,.75-.28,.14-.19,.23-.41,.28-.66,.04-.25,.08-.48,.11-.67h.28Z"/><path d="M241.24,80.19v.24c-.28,0-.49,.05-.63,.12-.14,.07-.24,.19-.29,.35s-.07,.39-.07,.7v7.28h-.28l-5.12-7.92v6.44c0,.29,.03,.52,.08,.69,.05,.17,.16,.28,.32,.35s.4,.11,.71,.13v.24c-.15-.02-.34-.03-.57-.03-.24,0-.46,0-.67,0s-.41,0-.62,0c-.21,0-.38,.01-.52,.03v-.24c.28-.02,.49-.06,.63-.13s.24-.19,.29-.35c.05-.17,.07-.4,.07-.69v-5.93c0-.3-.02-.52-.07-.67s-.14-.24-.29-.29c-.14-.05-.35-.08-.63-.09v-.24c.14,0,.31,.02,.52,.02,.21,0,.41,.01,.62,.01,.18,0,.35,0,.51-.01,.16,0,.31-.02,.44-.02l4.31,6.64v-5.22c0-.3-.03-.53-.08-.7s-.16-.28-.32-.35c-.16-.07-.4-.11-.71-.12v-.24c.15,0,.34,.02,.58,.02,.24,0,.46,.01,.67,.01s.42,0,.63-.01c.21,0,.38-.02,.51-.02Z"/><path d="M248.9,80.19c-.03,.31-.05,.61-.07,.9-.01,.29-.02,.51-.02,.67,0,.2,0,.38,.01,.55s.02,.32,.02,.45h-.28c-.06-.57-.13-1.02-.23-1.35-.1-.33-.27-.57-.51-.71s-.62-.22-1.13-.22h-.66v6.94c0,.33,.03,.57,.09,.73,.06,.16,.18,.27,.36,.33,.18,.06,.44,.09,.78,.11v.24c-.21-.02-.48-.03-.81-.03s-.65,0-.99,0c-.37,0-.71,0-1.03,0s-.58,.01-.78,.03v-.24c.34-.02,.6-.05,.78-.11s.3-.17,.36-.33c.06-.16,.09-.41,.09-.73v-6.94h-.66c-.5,0-.88,.07-1.13,.22s-.42,.38-.52,.71c-.1,.33-.17,.78-.23,1.35h-.28c.02-.13,.03-.28,.03-.45,0-.17,0-.35,0-.55,0-.15,0-.38-.02-.67-.01-.29-.04-.59-.07-.9,.34,0,.71,.02,1.12,.02,.4,0,.81,.01,1.21,.01h2.21c.4,0,.81,0,1.21-.01,.41,0,.78-.02,1.11-.02Z"/><path d="M252.38,80.05c.41,0,.72,.05,.93,.14,.21,.09,.4,.2,.56,.31,.1,.06,.18,.1,.24,.13,.06,.03,.12,.04,.18,.04,.13,0,.22-.18,.27-.54h.28c0,.14-.02,.3-.03,.49-.01,.19-.02,.44-.02,.76,0,.31,0,.73,0,1.24h-.28c-.02-.39-.11-.76-.26-1.12-.15-.36-.36-.65-.64-.88-.28-.23-.65-.34-1.1-.34-.43,0-.79,.13-1.07,.39-.28,.26-.42,.6-.42,1.03,0,.37,.09,.67,.28,.92,.19,.25,.44,.47,.75,.67,.31,.2,.65,.41,1.02,.64,.42,.26,.8,.52,1.13,.77,.33,.26,.59,.54,.78,.85,.19,.31,.29,.68,.29,1.12,0,.52-.12,.95-.35,1.29-.24,.34-.55,.6-.94,.77-.39,.17-.82,.26-1.29,.26-.43,0-.77-.05-1.03-.15s-.47-.2-.65-.3c-.18-.11-.32-.17-.42-.17-.13,0-.22,.18-.27,.54h-.28c.02-.17,.03-.37,.03-.6s0-.54,.01-.91,0-.85,0-1.42h.28c.03,.49,.12,.94,.28,1.37,.15,.42,.38,.76,.7,1.02,.31,.26,.73,.38,1.25,.38,.4,0,.76-.13,1.09-.38,.33-.26,.49-.67,.49-1.24,0-.5-.17-.91-.52-1.23s-.81-.66-1.38-1c-.38-.24-.74-.48-1.07-.72-.33-.24-.6-.53-.8-.85-.2-.32-.3-.71-.3-1.17,0-.48,.11-.88,.32-1.19,.21-.31,.5-.54,.85-.7,.35-.15,.72-.23,1.12-.23Z"/></g></g></svg>