<?xml version="1.0" encoding="UTF-8"?><svg id="Layer_1" xmlns="http://www.w3.org/2000/svg" viewBox="0 0 281 150"><defs><style>.cls-1{fill:#1f1f1d;}.cls-2{fill:#1e1e1c;}.cls-3{fill:#f6a60d;}.cls-4{fill:#fefefd;}.cls-5{fill:#f8be4d;}.cls-6{fill:#1d1d1b;}.cls-7{fill:#fefefe;}.cls-8{fill:#fcfcfc;}.cls-9{fill:#ededed;}</style></defs><rect class="cls-9" x="-.86" y="-.46" width="282.71" height="150.92"/><g><path class="cls-7" d="M154.57,78.07c0-1.47,0-2.94,0-4.41,0-.25-.06-.31-.31-.31-2.93,0-5.86,0-8.79,0-.23,0-.31,.04-.3,.29,.01,1.17,.01,2.34,0,3.51,0,.26,.08,.31,.32,.31,1.39-.01,2.78,0,4.16-.01,.26,0,.32,.07,.32,.32-.02,.8-.02,1.6,0,2.4,0,.29-.1,.43-.33,.56-1.01,.59-2.09,.93-3.24,1.06-2.81,.32-5.38-.97-6.69-3.37-.64-1.17-.79-2.43-.79-3.74,0-3.65,3.03-6.62,6.68-6.5,1.88,.06,3.54,.74,4.96,1.98,.18,.16,.26,.19,.43-.02,.87-1.06,1.76-2.12,2.65-3.16,.14-.16,.15-.24-.03-.39-.62-.51-1.28-.96-1.98-1.35-2.13-1.17-4.41-1.55-6.82-1.44-3.54,.15-6.42,1.58-8.58,4.37-1.9,2.44-2.57,5.26-2.19,8.3,.52,4.17,2.63,7.28,6.58,8.79,5,1.91,9.62,.89,13.79-2.38,.14-.11,.16-.24,.16-.41,0-1.47,0-2.94,0-4.41Z"/><path class="cls-7" d="M222.19,78.07c0-1.47,0-2.94,0-4.41,0-.24-.05-.32-.31-.32-2.93,0-5.86,.01-8.79,0-.29,0-.32,.09-.32,.34,.01,1.15,.02,2.3,0,3.44,0,.27,.07,.33,.34,.33,1.38-.01,2.75,0,4.13-.01,.26,0,.35,.04,.35,.33-.02,.82-.02,1.65,0,2.47,0,.21-.07,.32-.24,.43-1.02,.62-2.11,1-3.3,1.11-2.81,.24-5.07-.71-6.59-3.16-.77-1.23-.93-2.6-.9-4.03,.05-3.54,2.96-6.45,6.48-6.41,1.97,.02,3.69,.7,5.17,1.99,.2,.17,.27,.15,.43-.04,.87-1.06,1.75-2.12,2.64-3.17,.13-.16,.12-.23-.03-.36-.67-.55-1.37-1.03-2.13-1.44-2.05-1.09-4.25-1.45-6.55-1.37-3.55,.13-6.45,1.53-8.64,4.32-1.96,2.49-2.63,5.36-2.23,8.46,.5,3.88,2.41,6.89,6.04,8.45,5.15,2.22,9.95,1.26,14.32-2.14,.16-.12,.16-.27,.16-.44,0-1.46,0-2.92,0-4.38Z"/><path class="cls-7" d="M225.62,74.99c0,3.49,0,6.98,0,10.47,0,.23,0,.36,.31,.36,5.29-.01,10.57,0,15.86,0,.23,0,.3-.06,.3-.3-.01-1.18-.02-2.37,0-3.55,0-.31-.06-.42-.4-.41-3.66,.01-7.32,0-10.98,.02-.3,0-.37-.08-.37-.38,.02-1.25,.02-2.51,0-3.77,0-.32,.07-.42,.41-.41,3.13,.01,6.27,0,9.4,.02,.34,0,.41-.1,.4-.42-.02-1.15-.02-2.3,0-3.44,0-.32-.08-.39-.39-.39-3.15,.01-6.29,0-9.44,.01-.29,0-.39-.05-.38-.36,.02-1.21,.02-2.41,0-3.62,0-.34,.09-.41,.41-.41,3.61,.01,7.22,0,10.84,.01,.29,0,.35-.08,.35-.36-.02-1.17-.02-2.34,0-3.51,0-.33-.09-.38-.4-.38-5.18,0-10.36,0-15.54,0-.3,0-.4,.06-.4,.38,.01,3.48,0,6.96,0,10.44Z"/><path class="cls-7" d="M179.89,71.05c0,1.85,0,3.71,0,5.56,0,.87,.07,1.74,.24,2.6,.65,3.23,2.45,5.49,5.67,6.44,2.41,.71,4.84,.67,7.25-.05,2.54-.76,4.23-2.41,5.14-4.89,.47-1.27,.67-2.59,.67-3.94,.01-4.1,0-8.2,.01-12.3,0-.26-.08-.31-.32-.31-1.35,.01-2.7,.02-4.05,0-.34,0-.44,.06-.43,.42,.01,4,0,8.01,.01,12.01,0,.95-.15,1.86-.58,2.72-.55,1.12-1.38,1.87-2.58,2.21-.77,.22-1.55,.26-2.35,.16-1.81-.23-2.99-1.21-3.56-2.94-.26-.79-.33-1.61-.33-2.44,0-3.92,0-7.84,0-11.76,0-.28-.05-.39-.36-.38-1.36,.02-2.73,.02-4.09,0-.3,0-.35,.1-.34,.36,0,2.18,0,4.35,0,6.53Z"/><path class="cls-7" d="M179.04,85.81c-.02-.08-.03-.12-.04-.15-3.03-7.14-6.07-14.27-9.1-21.41-.08-.19-.19-.23-.38-.23-1.27,0-2.54,.01-3.8,0-.26,0-.37,.09-.46,.32-2.74,6.47-5.5,12.94-8.25,19.4-.29,.68-.57,1.35-.87,2.05,.07,.01,.1,.03,.13,.03,1.5,0,2.99,0,4.49,0,.23,0,.28-.12,.34-.28,.58-1.43,1.16-2.85,1.73-4.28,.1-.24,.22-.31,.47-.31,2.82,0,5.65,0,8.47,0,.25,0,.37,.06,.47,.31,.56,1.43,1.15,2.86,1.73,4.28,.06,.14,.08,.29,.3,.28,1.58-.01,3.16,0,4.77,0Z"/><path class="cls-7" d="M119.48,75c0-3.49,0-6.98,0-10.47,0-.31-.08-.37-.38-.37-1.38,.02-2.75,.01-4.13,0-.26,0-.31,.08-.31,.32,0,7,0,14.01,0,21.01,0,.26,.08,.32,.32,.31,1.38-.01,2.75-.02,4.13,0,.31,0,.37-.1,.36-.38,0-3.48,0-6.96,0-10.43Z"/><path class="cls-7" d="M127.22,73.97c-1.51,0-3.01,0-4.52,0-.25,0-.32,.07-.31,.32,.01,1.29,.01,2.58,0,3.87,0,.22,.04,.3,.29,.3,3.02,0,6.05,0,9.07,0,.24,0,.3-.06,.29-.3-.01-1.29-.02-2.58,0-3.87,0-.29-.1-.32-.35-.32-1.49,.01-2.99,0-4.48,0Z"/><path class="cls-3" d="M38.92,107.35c0-.14-.01-.29-.01-.43,0-21.3,0-42.59,0-63.89q0-.47,.48-.47c21.33,0,42.67,0,64,0q.48,0,.48,.47c0,21.32,0,42.64,0,63.96,0,.14,0,.29,.01,.43h-.14c-.13-.14-.29-.07-.44-.07-21.29,0-42.58,0-63.88,0-.17,0-.33,0-.5,0Zm35.62-34.01c.06-3.53-1.94-7.55-4.92-9.82-3.06-2.33-6.46-3.31-10.27-2.73-8.63,1.31-13.57,10.67-9.81,18.54,3.13,6.56,10.98,9.32,17.53,6.16,.21-.1,.38-.12,.6-.02,.82,.39,1.65,.76,2.47,1.15,3.18,1.5,6.36,3,9.52,4.51,.35,.17,.43-.05,.58-.24,.21-.25-.06-.31-.17-.4-3.56-2.87-7.07-5.82-10.68-8.64-.82-.64-1.62-1.3-2.42-1.97-.23-.19-.37-.22-.62-.01-1.19,.98-2.57,1.56-4.11,1.72-5.14,.51-9.32-3.75-8.72-8.87,.52-4.47,4.85-7.64,9.28-6.8,5.35,1.01,8.11,6.83,5.52,11.62-.11,.21-.11,.31,.08,.46,1.18,.95,2.37,1.9,3.53,2.87,.27,.23,.37,.15,.52-.1,1.37-2.15,2.07-4.5,2.07-7.42Zm1.91,4.47s-.05,.05-.06,.07c-.45,1.65-1.16,3.19-2.13,4.59-.13,.19-.04,.26,.08,.37,.92,.79,1.92,1.47,3,2.01,3.46,1.74,7.09,2.32,10.89,1.41,1.63-.39,3.06-1.17,4.17-2.45,1.54-1.78,1.91-3.88,1.66-6.14-.22-2.01-1.28-3.49-2.97-4.54-.43-.27-.87-.5-1.33-.71-1.51-.69-3.11-1.08-4.7-1.51-1.13-.3-2.27-.6-3.3-1.17-.79-.44-1.15-1.11-1.1-2.01,.05-.87,.55-1.4,1.28-1.75,.72-.34,1.49-.44,2.28-.36,2.19,.22,4.18,.97,5.95,2.29,.2,.15,.29,.16,.44-.06,.85-1.25,1.7-2.48,2.57-3.72,.13-.19,.11-.29-.07-.42-3.5-2.59-7.39-3.54-11.68-2.76-1.49,.27-2.85,.91-3.99,1.93-2,1.79-2.58,4.08-2.3,6.66,.16,1.45,.7,2.72,1.78,3.73,.65,.61,1.41,1.06,2.22,1.43,1.61,.73,3.32,1.13,5.02,1.59,1.15,.31,2.3,.65,3.35,1.24,1.49,.84,1.31,2.98-.1,3.7-.59,.3-1.2,.48-1.85,.51-2.85,.13-5.37-.75-7.57-2.54-.54-.43-1.05-.9-1.53-1.4Z"/><path class="cls-5" d="M38.92,107.35c.17,0,.33,0,.5,0,21.29,0,42.58,0,63.88,0,.14,0,.31-.07,.44,.07H38.91s0-.05,.01-.08Z"/><path class="cls-2" d="M154.57,78.07c0,1.47,0,2.94,0,4.41,0,.16-.02,.29-.16,.41-4.17,3.27-8.79,4.29-13.79,2.38-3.96-1.51-6.06-4.62-6.58-8.79-.38-3.04,.29-5.86,2.19-8.3,2.16-2.79,5.04-4.22,8.58-4.37,2.4-.1,4.69,.27,6.82,1.44,.7,.39,1.36,.85,1.98,1.35,.17,.14,.17,.22,.03,.39-.89,1.05-1.78,2.1-2.65,3.16-.17,.21-.25,.18-.43,.02-1.42-1.24-3.07-1.91-4.96-1.98-3.65-.12-6.67,2.85-6.68,6.5,0,1.31,.14,2.57,.79,3.74,1.31,2.39,3.89,3.68,6.69,3.37,1.16-.13,2.24-.47,3.24-1.06,.23-.13,.34-.27,.33-.56-.03-.8-.02-1.6,0-2.4,0-.25-.06-.32-.32-.32-1.39,.01-2.78,0-4.16,.01-.24,0-.33-.05-.32-.31,.01-1.17,.01-2.34,0-3.51,0-.25,.08-.29,.3-.29,2.93,0,5.86,0,8.79,0,.25,0,.32,.06,.31,.31-.01,1.47,0,2.94,0,4.41Z"/><path class="cls-2" d="M222.19,78.07c0,1.46,0,2.92,0,4.38,0,.17,0,.32-.16,.44-4.37,3.4-9.17,4.36-14.32,2.14-3.63-1.56-5.54-4.57-6.04-8.45-.4-3.11,.27-5.98,2.23-8.46,2.19-2.79,5.1-4.19,8.64-4.32,2.3-.08,4.5,.28,6.55,1.37,.76,.41,1.47,.89,2.13,1.44,.15,.13,.16,.21,.03,.36-.89,1.05-1.77,2.1-2.64,3.17-.16,.19-.24,.21-.43,.04-1.48-1.3-3.2-1.97-5.17-1.99-3.51-.04-6.42,2.87-6.48,6.41-.02,1.43,.14,2.8,.9,4.03,1.52,2.45,3.78,3.4,6.59,3.16,1.19-.1,2.28-.48,3.3-1.11,.17-.11,.25-.22,.24-.43-.01-.82-.02-1.65,0-2.47,0-.28-.09-.33-.35-.33-1.38,.01-2.75,0-4.13,.01-.26,0-.34-.06-.34-.33,.02-1.15,.01-2.3,0-3.44,0-.25,.03-.35,.32-.34,2.93,.01,5.86,.01,8.79,0,.26,0,.31,.07,.31,.32-.01,1.47,0,2.94,0,4.41Z"/><path class="cls-2" d="M225.62,74.99c0-3.48,0-6.96,0-10.44,0-.33,.09-.38,.4-.38,5.18,0,10.36,0,15.54,0,.31,0,.4,.05,.4,.38-.02,1.17-.02,2.34,0,3.51,0,.28-.06,.36-.35,.36-3.61-.01-7.22,0-10.84-.01-.32,0-.42,.07-.41,.41,.02,1.21,.02,2.41,0,3.62,0,.31,.09,.36,.38,.36,3.15-.01,6.29,0,9.44-.01,.31,0,.4,.07,.39,.39-.02,1.15-.02,2.3,0,3.44,0,.31-.06,.42-.4,.42-3.13-.02-6.27,0-9.4-.02-.34,0-.41,.1-.41,.41,.02,1.25,.02,2.51,0,3.77,0,.29,.07,.38,.37,.38,3.66-.01,7.32,0,10.98-.02,.34,0,.41,.1,.4,.41-.02,1.18-.01,2.37,0,3.55,0,.24-.07,.3-.3,.3-5.29,0-10.57,0-15.86,0-.31,0-.31-.13-.31-.36,0-3.49,0-6.98,0-10.47Z"/><path class="cls-2" d="M179.89,71.05c0-2.18,0-4.35,0-6.53,0-.27,.05-.37,.34-.36,1.36,.02,2.73,.02,4.09,0,.32,0,.36,.1,.36,.38,0,3.92,0,7.84,0,11.76,0,.83,.07,1.65,.33,2.44,.57,1.73,1.75,2.71,3.56,2.94,.79,.1,1.58,.06,2.35-.16,1.2-.34,2.03-1.09,2.58-2.21,.42-.87,.58-1.77,.58-2.72,0-4,0-8.01-.01-12.01,0-.36,.1-.43,.43-.42,1.35,.02,2.7,.01,4.05,0,.24,0,.32,.05,.32,.31,0,4.1,0,8.2-.01,12.3,0,1.35-.21,2.67-.67,3.94-.91,2.47-2.6,4.13-5.14,4.89-2.41,.72-4.84,.76-7.25,.05-3.22-.95-5.01-3.21-5.67-6.44-.17-.86-.24-1.73-.24-2.6,0-1.85,0-3.71,0-5.56Z"/><path class="cls-2" d="M179.04,85.81c-1.61,0-3.19,0-4.77,0-.22,0-.25-.15-.3-.28-.58-1.43-1.17-2.85-1.73-4.28-.1-.24-.22-.31-.47-.31-2.82,0-5.65,0-8.47,0-.25,0-.37,.07-.47,.31-.57,1.43-1.15,2.85-1.73,4.28-.06,.16-.12,.28-.34,.28-1.5-.01-2.99,0-4.49,0-.03,0-.06-.01-.13-.03,.29-.69,.58-1.37,.87-2.05,2.75-6.47,5.5-12.93,8.25-19.4,.1-.23,.2-.32,.46-.32,1.27,.02,2.54,.01,3.8,0,.19,0,.29,.04,.38,.23,3.03,7.14,6.06,14.28,9.1,21.41,.01,.03,.02,.07,.04,.15Z"/><path class="cls-2" d="M170.38,76.72c-.95-2.31-1.89-4.6-2.86-6.97-.96,2.37-1.88,4.65-2.82,6.97h5.67Z"/><path class="cls-1" d="M119.48,75c0,3.48,0,6.96,0,10.43,0,.28-.05,.39-.36,.38-1.38-.02-2.75-.01-4.13,0-.25,0-.32-.06-.32-.31,0-7,0-14.01,0-21.01,0-.24,.05-.33,.31-.32,1.38,.01,2.75,.02,4.13,0,.29,0,.38,.06,.38,.37-.01,3.49,0,6.98,0,10.47Z"/><path class="cls-6" d="M127.22,73.97c1.49,0,2.99,0,4.48,0,.25,0,.35,.03,.35,.32-.02,1.29-.01,2.58,0,3.87,0,.23-.06,.3-.29,.3-3.02,0-6.05,0-9.07,0-.25,0-.29-.08-.29-.3,0-1.29,.01-2.58,0-3.87,0-.25,.06-.32,.31-.32,1.51,.01,3.01,0,4.52,0Z"/><path class="cls-4" d="M74.55,73.34c0,2.92-.7,5.27-2.07,7.42-.16,.25-.25,.33-.52,.1-1.16-.97-2.34-1.92-3.53-2.87-.19-.15-.19-.26-.08-.46,2.6-4.8-.17-10.61-5.52-11.62-4.42-.84-8.75,2.34-9.28,6.8-.6,5.13,3.58,9.39,8.72,8.87,1.54-.15,2.92-.73,4.11-1.72,.25-.21,.39-.18,.62,.01,.8,.67,1.6,1.33,2.42,1.97,3.61,2.82,7.11,5.76,10.68,8.64,.11,.09,.38,.15,.17,.4-.15,.18-.23,.4-.58,.24-3.17-1.52-6.35-3.01-9.52-4.51-.82-.39-1.65-.75-2.47-1.15-.22-.11-.39-.08-.6,.02-6.55,3.16-14.4,.4-17.53-6.16-3.76-7.87,1.17-17.23,9.81-18.54,3.8-.58,7.2,.4,10.27,2.73,2.98,2.27,4.98,6.29,4.92,9.82Z"/><path class="cls-4" d="M76.46,77.81c.48,.5,.99,.96,1.53,1.4,2.21,1.79,4.72,2.67,7.57,2.54,.65-.03,1.27-.2,1.85-.51,1.41-.72,1.59-2.86,.1-3.7-1.05-.59-2.2-.93-3.35-1.24-1.7-.46-3.41-.86-5.02-1.59-.81-.37-1.57-.82-2.22-1.43-1.08-1.01-1.63-2.28-1.78-3.73-.28-2.58,.3-4.87,2.3-6.66,1.14-1.02,2.49-1.66,3.99-1.93,4.29-.78,8.18,.17,11.68,2.76,.18,.14,.21,.23,.07,.42-.86,1.23-1.72,2.47-2.57,3.72-.15,.22-.24,.21-.44,.06-1.77-1.32-3.76-2.07-5.95-2.29-.79-.08-1.56,.02-2.28,.36-.74,.35-1.23,.89-1.28,1.75-.06,.91,.3,1.57,1.1,2.01,1.04,.57,2.17,.87,3.3,1.17,1.59,.43,3.2,.82,4.7,1.51,.46,.21,.9,.44,1.33,.71,1.7,1.05,2.75,2.53,2.97,4.54,.25,2.26-.12,4.37-1.66,6.14-1.11,1.28-2.54,2.06-4.17,2.45-3.8,.91-7.43,.34-10.89-1.41-1.08-.55-2.08-1.23-3-2.01-.13-.11-.22-.18-.08-.37,.98-1.41,1.68-2.94,2.13-4.59,0-.02,.03-.03,.06-.07Z"/><path class="cls-8" d="M170.38,76.72h-5.67c.94-2.31,1.86-4.6,2.82-6.97,.97,2.36,1.91,4.65,2.86,6.97Z"/></g></svg>