<svg xmlns="http://www.w3.org/2000/svg" viewBox="0 0 252.95 186.59"><defs><style>.cls-1{fill:#9aa4af;}</style></defs><g id="Layer_2" data-name="Layer 2"><g id="Layer_1-2" data-name="Layer 1"><path class="cls-1" d="M120.15,129.15v52.41c-3.93.77-7.87,1.65-11.85,2.32-14.39,2.42-28.85,3.56-43.42,2s-28-5.57-39.49-15c-10.23-8.4-16-19.54-19.64-32C2.3,127.2.88,115.17.31,103-.52,85.45.13,68,4.77,51c5-18.55,15.32-33,32.71-41.94C48.25,3.5,59.82,1.06,71.8.28c15.77-1,31.23,1.3,46.61,4.37,1.07.22,1.86.5,1.85,1.95-.06,16.63,0,33.25-.06,49.88a4.84,4.84,0,0,1-.25,1c-3.74-.59-7.48-1.24-11.24-1.76-22.07-3.06-44.09-3.56-65.95,1.62a75.5,75.5,0,0,0-21.67,8.74C-.12,78.82,3.38,103.66,16.7,115.66c8,7.2,17.46,11.43,27.7,14a141.36,141.36,0,0,0,51.14,3.08c7.52-.86,15-2.26,22.48-3.4C118.64,129.28,119.27,129.24,120.15,129.15Z"/><path class="cls-1" d="M252.64,57.33c-6.4-.89-12.62-2-18.88-2.6-21.92-2.25-43.72-2.2-65,4.55-8.21,2.61-15.86,6.35-22.08,12.54-11.78,11.72-9.5,31.33,1.25,42.24,8.19,8.31,18.4,12.85,29.43,15.67A140.8,140.8,0,0,0,228,132.82c7.61-.85,15.15-2.27,22.73-3.42.6-.09,1.23-.07,2-.12,0,.91.13,1.69.13,2.47,0,15.75,0,31.5,0,47.25,0,2-.55,2.72-2.52,3.13a192.87,192.87,0,0,1-40.64,4.44c-10.67-.11-21.2-1.32-31.38-4.7C158.6,175.3,145.9,161.8,139.52,142c-4.25-13.2-6-26.79-6.49-40.55-.67-17,0-33.86,4.51-50.4,7.72-28.33,26.66-44.15,55.05-49.36,16.5-3,32.94-1.73,49.31,1.19,3.07.54,6.12,1.17,9.18,1.71,1.15.21,1.85.58,1.84,2q-.06,24.95,0,49.89A4,4,0,0,1,252.64,57.33Z"/><path class="cls-1" d="M211.46,64.65a28.67,28.67,0,1,1-28.65,28.67A28.64,28.64,0,0,1,211.46,64.65Z"/><path class="cls-1" d="M107.36,93.45A28.79,28.79,0,0,1,78.52,122C62.75,121.88,49.66,108.66,50,93.14A28.74,28.74,0,0,1,79.31,64.65C94.69,64.79,107.54,78,107.36,93.45Z"/></g></g></svg>