<svg id="Layer_1" data-name="Layer 1" xmlns="http://www.w3.org/2000/svg" viewBox="0 0 150 150"><defs><style>.cls-1{fill:#e69b01;}.cls-2{fill:none;stroke:#fff;stroke-linecap:round;stroke-linejoin:round;stroke-width:2px;}</style></defs><path class="cls-1" d="M94.44,45.23h35L86.18,2V37A8.27,8.27,0,0,0,94.44,45.23Z"/><path class="cls-1" d="M94.44,48.83A11.86,11.86,0,0,1,82.59,37V0H28.92A10.34,10.34,0,0,0,18.58,10.34V138.56A10.34,10.34,0,0,0,28.92,148.9h92.16a10.34,10.34,0,0,0,10.34-10.34V48.83Z"/><line class="cls-2" x1="47.57" y1="121.33" x2="102.43" y2="121.33"/><polyline class="cls-2" points="93.23 86.63 75 106.47 56.77 86.63"/><line class="cls-2" x1="75" y1="106.47" x2="75" y2="58.52"/></svg>