<svg id="Layer_1" data-name="Layer 1" xmlns="http://www.w3.org/2000/svg" viewBox="0 0 593.21 292.34"><defs><style>.cls-1{fill:#55479a;}.cls-1,.cls-10,.cls-12,.cls-15,.cls-16,.cls-2,.cls-3,.cls-4,.cls-5,.cls-9{fill-rule:evenodd;}.cls-2,.cls-8{fill:#6ec8c2;}.cls-3{fill:#46beaa;}.cls-4{fill:#9589b0;}.cls-5{fill:#55468c;}.cls-6{fill:#483b79;}.cls-10,.cls-7{fill:#fefefe;}.cls-9{fill:#6152a0;}.cls-11{fill:#f4d030;}.cls-12,.cls-17{fill:#fff;}.cls-13,.cls-16{fill:#221f1f;}.cls-14{fill:#1b2557;}.cls-15{fill:#d3c96f;}</style></defs><polygon class="cls-1" points="574.72 261.62 458.07 267.42 465.33 223.14 584.2 216.78 574.72 261.62"/><polygon class="cls-1" points="454.21 267.89 250.17 278.16 260.56 233.63 462.42 223.24 454.21 267.89"/><polygon class="cls-2" points="361.86 279.27 343.66 274.27 347.02 280.07 346.93 280.16 361.77 279.31 361.86 279.27"/><polygon class="cls-3" points="361.77 279.31 346.93 280.16 341.14 286.36 361.77 279.31"/><polygon class="cls-4" points="233.75 265.13 241.93 256.38 242.05 256.24 237.31 248.05 255.82 253.14 254.73 257.96 233.75 265.13"/><polygon class="cls-5" points="254.73 257.96 255.82 253.14 263.03 255.12 262.9 255.16 254.73 257.96"/><polygon class="cls-2" points="263.71 250.31 231.2 241.38 237.2 251.73 237.04 251.9 263.54 250.37 263.71 250.31"/><polygon class="cls-3" points="263.54 250.37 237.04 251.9 226.7 262.96 263.54 250.37"/><path class="cls-6" d="M447.89,237.15l-9.5.44-1.63,8.23,7.67-.35-.81,4.08-7.66.35-1.71,8.66,9.5-.44-.81,4.07-14.74.69L434,233.75l14.74-.68Zm-30.68,1.42-1.71,8.65,2.13-.1a4.17,4.17,0,0,0,4.37-3.74l.29-1.5a3,3,0,0,0-.35-2.66,3.1,3.1,0,0,0-2.6-.75Zm1.64,24.74-1.73-12.12-2.42.11-2.43,12.32-5.25.24,5.75-29.12,7.57-.36c2.84-.13,4.87.4,6.11,1.6s1.62,3,1.15,5.36l-.41,2.08a8.77,8.77,0,0,1-5,6.58l2.18,13.05ZM403,257.58a8.3,8.3,0,0,1-3.17,5.25,11.17,11.17,0,0,1-6.36,2.07c-2.51.12-4.36-.39-5.56-1.51s-1.58-2.81-1.14-5.06l4.46-22.59,5.05-.24L391.81,258c-.38,1.94.42,2.87,2.4,2.77a3.43,3.43,0,0,0,3.54-3.05l4.43-22.46,5.25-.25ZM387.31,240l-5.59.26-4.93,25-5.24.25,4.93-25-5.59.26.82-4.16,16.42-.76Zm-23.13,19.34a8.3,8.3,0,0,1-3.17,5.25,11.17,11.17,0,0,1-6.36,2.07c-2.51.12-4.36-.39-5.56-1.51s-1.58-2.81-1.14-5.06l4.46-22.59,5-.24L353,259.77c-.38,1.94.42,2.87,2.4,2.77a3.43,3.43,0,0,0,3.54-3.05L363.4,237l5.24-.25Zm-15.74-17.62-9.25.43-1.63,8.24,7.43-.35-.81,4.08-7.42.35-2.51,12.73-5.25.24,5.75-29.12,14.5-.68Zm-26.53,1.32-5.59.26-4.93,25-5.24.24,4.92-25-5.59.26.82-4.16,16.43-.77Zm-18.59.78-9.5.44-1.62,8.23,7.66-.35-.8,4.08-7.67.35-1.71,8.66,9.5-.45-.8,4.08-14.75.69,5.75-29.13,14.75-.68Zm-27.06-3.2q3.9-.18,5.72,1.55t1.16,5.06l-.4,2-5.08.45L278,248c.44-2.25-.36-3.32-2.4-3.23a3.91,3.91,0,0,0-2.45.86,3.79,3.79,0,0,0-1.2,2.24l-3.14,15.89q-.58,3,2.44,2.81a3.65,3.65,0,0,0,2.43-.91,4.74,4.74,0,0,0,1.25-2.6l1-5-3,.14.8-4.08,8.12-.38L280,263.24a8.38,8.38,0,0,1-3.19,5.26,11.29,11.29,0,0,1-6.45,2.12q-3.9.18-5.67-1.55T263.56,264l3.15-16a8.5,8.5,0,0,1,3.15-5.26A11,11,0,0,1,276.26,240.66Z"/><path class="cls-7" d="M326.68,240.25l-5.6.26-4.92,25-5.25.24,4.93-25-5.59.26.82-4.16,16.43-.77Zm-18.59.78-9.5.44L297,249.71l7.67-.35-.8,4.07-7.67.36-1.71,8.65L304,262l-.8,4.08-14.75.68,5.75-29.12,14.74-.68ZM281,237.84c2.61-.12,4.52.39,5.73,1.55s1.59,2.84,1.16,5.05l-.4,2-5.09.44.35-1.74q.66-3.37-2.4-3.23a3.94,3.94,0,0,0-2.45.85,3.82,3.82,0,0,0-1.2,2.24l-3.14,15.9q-.58,3,2.43,2.81a3.66,3.66,0,0,0,2.44-.92,4.67,4.67,0,0,0,1.25-2.59l1-5-3,.14.81-4.08,8.11-.38-1.88,9.53a8.42,8.42,0,0,1-3.19,5.26,11.21,11.21,0,0,1-6.45,2.11c-2.61.12-4.5-.39-5.67-1.55s-1.55-2.84-1.11-5.06l3.15-16a8.5,8.5,0,0,1,3.15-5.26A11,11,0,0,1,281,237.84Z"/><path class="cls-8" d="M452.7,234.31l-9.5.44L441.57,243l7.67-.35-.8,4.08-7.67.35-1.71,8.66,9.5-.45-.81,4.08L433,260l5.75-29.13,14.74-.68ZM422,235.73l-1.71,8.65,2.13-.1a4.17,4.17,0,0,0,4.37-3.74l.29-1.5a3,3,0,0,0-.35-2.66,3.1,3.1,0,0,0-2.6-.75Zm1.64,24.74-1.73-12.12-2.42.11-2.43,12.32-5.25.24,5.75-29.12,7.57-.36q4.26-.19,6.11,1.6t1.15,5.36l-.41,2.08a8.77,8.77,0,0,1-5,6.58l2.18,13Zm-15.88-5.73a8.33,8.33,0,0,1-3.17,5.25,11.17,11.17,0,0,1-6.36,2.07c-2.51.12-4.36-.39-5.56-1.51s-1.58-2.81-1.14-5.06L396,232.9l5.05-.24-4.44,22.47c-.38,1.94.42,2.87,2.4,2.77a3.43,3.43,0,0,0,3.54-3L407,232.39l5.24-.25ZM392.12,237.2l-5.59.26-4.92,25-5.25.25,4.93-25-5.59.26.82-4.16,16.42-.76ZM369,256.54a8.3,8.3,0,0,1-3.17,5.25,11.17,11.17,0,0,1-6.36,2.07c-2.51.12-4.36-.39-5.56-1.51s-1.58-2.81-1.14-5.06l4.46-22.59,5-.24-4.43,22.47c-.39,1.94.41,2.87,2.39,2.77a3.43,3.43,0,0,0,3.54-3.05l4.44-22.46,5.24-.25Zm-15.74-17.62-9.25.43-1.62,8.24,7.42-.35-.81,4.08-7.42.35-2.51,12.73-5.25.24,5.75-29.12,14.5-.68Z"/><path class="cls-9" d="M283.36,224.89l89.84-5.07a1,1,0,0,0,1.07-1,1.11,1.11,0,0,0-1.23-.91L283.21,223a1.05,1.05,0,0,0-1.08,1,1.12,1.12,0,0,0,1.23.9"/><path class="cls-9" d="M368.85,280l136.48-7.36a1,1,0,0,0,1.08-1,1.09,1.09,0,0,0-1.21-.91l-136.48,7.36a1,1,0,0,0-1.08,1,1.09,1.09,0,0,0,1.21.92"/><path class="cls-9" d="M288.77,279.71l51.77-2.5a1,1,0,0,0,1.09-1,1.1,1.1,0,0,0-1.22-.91l-51.78,2.5a1,1,0,0,0-1.08,1,1.1,1.1,0,0,0,1.22.91"/><path class="cls-9" d="M262.58,230.63l32.86-2a1.06,1.06,0,0,0,1.07-1,1.12,1.12,0,0,0-1.24-.9l-32.86,2a1.05,1.05,0,0,0-1.07,1,1.12,1.12,0,0,0,1.24.9"/><polygon class="cls-9" points="303.07 215.71 298.11 218.12 293.15 220.53 293.99 216.3 294.82 212.06 298.94 213.89 303.07 215.71"/><polygon class="cls-9" points="517.12 269.09 513.57 270.81 510.03 272.53 510.63 269.51 511.23 266.49 514.17 267.79 517.12 269.09"/><polygon class="cls-9" points="381.35 273.18 378.86 274.39 376.37 275.6 376.79 273.48 377.2 271.35 379.28 272.26 381.35 273.18"/><polygon class="cls-9" points="452.52 269.53 450.66 270.44 448.8 271.34 449.11 269.75 449.42 268.16 450.97 268.85 452.52 269.53"/><polygon class="cls-10" points="457.46 209.21 454.65 210.57 451.85 211.93 452.32 209.54 452.8 207.15 455.13 208.18 457.46 209.21"/><polygon class="cls-10" points="240.38 229.6 236.29 231.59 232.2 233.58 232.89 230.09 233.57 226.59 236.98 228.1 240.38 229.6"/><polygon class="cls-9" points="440.3 214.26 437.39 215.68 434.48 217.09 434.97 214.61 435.46 212.13 437.88 213.19 440.3 214.26"/><polygon class="cls-9" points="283.27 284.34 275.04 288.34 266.8 292.34 268.19 285.31 269.57 278.29 276.42 281.31 283.27 284.34"/><polygon class="cls-9" points="292.82 288.2 289.55 289.79 286.29 291.38 286.84 288.59 287.39 285.8 290.11 287 292.82 288.2"/><polygon class="cls-10" points="307.24 283.28 304.69 284.52 302.14 285.76 302.57 283.58 303 281.4 305.12 282.34 307.24 283.28"/><polygon class="cls-10" points="313.59 217.44 311.43 218.49 309.27 219.54 309.63 217.69 310 215.85 311.8 216.64 313.59 217.44"/><path class="cls-6" d="M560.35,243.38l-2.53,12.8-5.11.24,2.54-12.84-4-15.18,5.39-.25,2.31,9.84H559l6.08-10.24,5.3-.24ZM538.6,232.92l-4,20.41,2-.1a4,4,0,0,0,4.25-3.64l2.66-13.45a3,3,0,0,0-.35-2.59,3,3,0,0,0-2.53-.73Zm3-4.08c2.76-.12,4.74.39,5.94,1.55s1.58,2.91,1.12,5.23l-2.77,14a8.71,8.71,0,0,1-3.22,5.43,11.54,11.54,0,0,1-6.67,2.13l-7.32.34,5.6-28.35Zm-21.38,7-4.43,12,4.29-.2.28-11.85ZM525,257.7l-5.2.25.16-6.39-5.63.26L512,258.31l-5.11.24,11.43-28.62,6.5-.31Zm-15.85-23.42-9.24.43-1.59,8,7.47-.35-.79,4-7.46.35-1.66,8.42,9.24-.43-.78,4-14.35.67L495.6,231l14.36-.67Zm-29.86,1.39-1.66,8.42,2.07-.09a4.65,4.65,0,0,0,2.87-1,4.5,4.5,0,0,0,1.38-2.67l.29-1.46a2.4,2.4,0,0,0-2.88-3.32Zm1.6,24.08L479.23,248l-2.36.11-2.37,12-5.1.24L475,231.94l7.37-.35c2.76-.12,4.74.39,5.95,1.55s1.57,2.91,1.11,5.23l-.4,2a8.53,8.53,0,0,1-4.84,6.41l2.12,12.7Z"/><path class="cls-11" d="M566.43,240.59l-2.59,13.14-5.25.25,2.6-13.19-4.12-15.6,5.54-.26L565,235.05h.09l6.25-10.51,5.44-.25Zm-22.34-10.76-4.14,21,2.08-.09a4.71,4.71,0,0,0,2.94-1A4.66,4.66,0,0,0,546.4,247l2.72-13.82a3,3,0,0,0-.35-2.66,3.13,3.13,0,0,0-2.6-.74Zm3.08-4.18q4.26-.19,6.11,1.59t1.15,5.37L551.59,247a9,9,0,0,1-3.31,5.57,11.89,11.89,0,0,1-6.86,2.19l-7.52.35L539.65,226Zm-22,7.2-4.55,12.38,4.4-.21.3-12.17Zm4.93,22.45-5.34.25L525,249l-5.79.27-2.44,6.67-5.25.24,11.74-29.4,6.68-.31Zm-16.28-24.06-9.5.44-1.62,8.23,7.67-.35-.81,4.08-7.67.35-1.7,8.66,9.49-.44-.8,4.07-14.74.69,5.74-29.13,14.75-.68Zm-30.67,1.42-1.71,8.65,2.13-.09a4.18,4.18,0,0,0,4.37-3.75l.29-1.5a2.46,2.46,0,0,0-2.95-3.41Zm1.64,24.74-1.73-12.12-2.42.11-2.43,12.32L473,258l5.75-29.12,7.57-.36c2.84-.13,4.87.4,6.11,1.6s1.61,3,1.14,5.36l-.41,2.08a8.76,8.76,0,0,1-5,6.58l2.18,13Z"/><path class="cls-4" d="M583.77,219.44l.51-2.72,4.12,1.13-.07,0Zm-11,3.77,1.41-1.5,3.42-.15Z"/><polygon class="cls-5" points="574.14 221.71 577.11 218.52 577.18 218.45 574.64 214.07 584.28 216.72 583.77 219.44 577.56 221.56 574.14 221.71"/><polygon class="cls-2" points="589.77 214.9 576 211.12 578.54 215.5 578.48 215.57 589.7 214.93 589.77 214.9"/><polygon class="cls-3" points="589.7 214.93 578.48 215.57 574.1 220.26 589.7 214.93"/><polygon class="cls-4" points="456.82 253.72 458.02 247.19 467.94 249.91 467.87 249.94 456.82 253.72"/><polygon class="cls-5" points="450.95 255.72 455.69 250.64 455.77 250.56 453.01 245.81 458.02 247.19 456.82 253.72 450.95 255.72"/><polygon class="cls-2" points="469.43 246.71 454.49 242.61 457.25 247.36 457.18 247.44 469.35 246.74 469.43 246.71"/><polygon class="cls-3" points="469.35 246.74 457.18 247.44 452.43 252.52 469.35 246.74"/><polygon class="cls-4" points="568.28 264.58 571.08 261.58 571.17 261.49 568.03 256.08 585.02 260.75 584.94 260.78 574.72 264.27 568.28 264.58"/><polygon class="cls-5" points="565.68 267.36 568.28 264.58 574.72 264.27 565.68 267.36"/><polygon class="cls-2" points="585.68 258.58 566.37 253.27 569.93 259.42 569.84 259.52 585.58 258.61 585.68 258.58"/><polygon class="cls-3" points="585.58 258.61 569.84 259.52 563.7 266.09 585.58 258.61"/><polygon class="cls-4" points="390.03 226.35 394.25 221.84 394.37 221.71 389.65 213.57 415.21 220.59 415.08 220.64 399.72 225.89 390.03 226.35"/><polygon class="cls-5" points="386.12 230.54 390.03 226.35 399.72 225.89 386.12 230.54"/><polygon class="cls-2" points="416.2 217.33 387.16 209.35 392.52 218.59 392.38 218.75 416.05 217.38 416.2 217.33"/><polygon class="cls-3" points="416.05 217.38 392.38 218.75 383.14 228.63 416.05 217.38"/><path class="cls-12" d="M16.65,101.62l86.49-85.31a15.89,15.89,0,0,1,22.19,0l86.49,85.31a15.37,15.37,0,0,1,0,21.88l-86.49,85.31a15.89,15.89,0,0,1-22.19,0L16.65,123.5a15.37,15.37,0,0,1,0-21.88"/><path class="cls-13" d="M103.37,17.62,16.88,102.93h0a15,15,0,0,0-4.48,10.71h0a15,15,0,0,0,4.48,10.71h0l86.49,85.31h0a15.55,15.55,0,0,0,21.72,0l86.5-85.31h0a15.07,15.07,0,0,0,0-21.42h0l-86.5-85.31a15.55,15.55,0,0,0-21.72,0ZM16.42,102.47l86.49-85.31h0a16.22,16.22,0,0,1,22.65,0l86.49,85.31h0a15.69,15.69,0,0,1,0,22.34h0l-86.49,85.31a16.22,16.22,0,0,1-22.65,0h0L16.42,124.81h0a15.65,15.65,0,0,1-4.67-11.17h0a15.65,15.65,0,0,1,4.67-11.17h0Z"/><path class="cls-14" d="M220,102.1l2.4-2.37,1.22-5.34L225,95.73,224,99.29l3.58-.93L229,99.67l-5.42,1.2-2.4,2.37Zm-3-7.17,1-1,2.49,2.45-2.28,2.25a4.64,4.64,0,0,1-1.67-.42,5.34,5.34,0,0,1-1.66-1.12,4.33,4.33,0,0,1-1.19-1.91,3.3,3.3,0,0,1,.07-2.06,4.79,4.79,0,0,1,1.19-1.83,4.62,4.62,0,0,1,2-1.2,3.54,3.54,0,0,1,2.16,0,4.23,4.23,0,0,1,1.66,1.06,3.84,3.84,0,0,1,1.22,2.09,2.82,2.82,0,0,1-.47,2l-1.36-.92a1.69,1.69,0,0,0,.21-1.11,1.93,1.93,0,0,0-.59-1.06,2.17,2.17,0,0,0-1.68-.71,2.86,2.86,0,0,0-1.87,1,3.13,3.13,0,0,0-1.08,2,2.07,2.07,0,0,0,.68,1.67,2.82,2.82,0,0,0,.87.58,3.5,3.5,0,0,0,1,.28l.73-.72Zm-7.29-8.68a3,3,0,0,0-1,1.9,2,2,0,0,0,.64,1.62,2.1,2.1,0,0,0,1.63.63,3.15,3.15,0,0,0,1.93-1,3,3,0,0,0,1-1.87,2.25,2.25,0,0,0-2.31-2.26A3,3,0,0,0,209.71,86.25Zm-1.23-1.13a5.22,5.22,0,0,1,1.73-1.19,3.91,3.91,0,0,1,1.32-.25,3.35,3.35,0,0,1,1.25.22,4.2,4.2,0,0,1,1.46,1,3.71,3.71,0,0,1,1.24,2.76,4.2,4.2,0,0,1-1.42,2.91A4.28,4.28,0,0,1,211.14,92a4.22,4.22,0,0,1-4-4A4.11,4.11,0,0,1,208.48,85.12Zm-7.58-1.86,5.67-5.59,1.16,1.13L203,83.45l2.88,2.83-1,1Zm-2.56-8.16a3,3,0,0,0-1,1.9,2,2,0,0,0,.64,1.62,2.1,2.1,0,0,0,1.63.63,3.12,3.12,0,0,0,1.94-1,3.05,3.05,0,0,0,1-1.87,2,2,0,0,0-.67-1.61,2.1,2.1,0,0,0-1.64-.65A3.07,3.07,0,0,0,198.34,75.1ZM197.11,74a5.22,5.22,0,0,1,1.73-1.19,3.9,3.9,0,0,1,1.31-.25,3.21,3.21,0,0,1,1.26.23,4.4,4.4,0,0,1,1.46,1,3.75,3.75,0,0,1,1.24,2.77,4.17,4.17,0,0,1-1.43,2.9,4.24,4.24,0,0,1-2.92,1.39A3.81,3.81,0,0,1,197,79.6a3.72,3.72,0,0,1-1.25-2.77A4.11,4.11,0,0,1,197.11,74ZM188.7,71.2l5.71-5.64,1.13,1.11-1.48,6.08L197.88,69,199,70l-5.72,5.64-1.15-1.15,1.42-6-3.73,3.68Zm-6-5.8,5.72-5.65,1.16,1.14-2.25,2.23,2.26,2.23,2.25-2.22L193,64.27l-5.72,5.64-1.16-1.14,2.5-2.47-2.26-2.23-2.5,2.47Zm-.07-4.27.76,1.46a3.64,3.64,0,0,1-2.24.53,3.57,3.57,0,0,1-2-1,3.42,3.42,0,0,1-1.09-2.62,4.11,4.11,0,0,1,1.39-2.82,4.5,4.5,0,0,1,3-1.47,3.62,3.62,0,0,1,2.73,1.14,3.27,3.27,0,0,1,1.08,2.29,3.06,3.06,0,0,1-.47,1.62l-1.41-.86a1.61,1.61,0,0,0-.25-2.13,1.84,1.84,0,0,0-1.48-.57,3.17,3.17,0,0,0-1.88,1.06,3.41,3.41,0,0,0-1.16,1.91,1.78,1.78,0,0,0,.56,1.46,1.62,1.62,0,0,0,1.08.49A2.4,2.4,0,0,0,182.67,61.13Zm-11.2-6.88,5.72-5.65,4.24,4.19-1,1-3.09-3L176.11,52,179,54.78l-1,.95-2.87-2.83-1.56,1.54,3.2,3.15-1,.95Zm-3.74-3.64,4.76-4.68-1.7-1.68,1-1,4.54,4.48-1,1-1.69-1.67-4.75,4.68Zm-5-10.14a2.13,2.13,0,0,0-1-.11,1.43,1.43,0,0,0-.74.36,1,1,0,0,0-.34.8,1.18,1.18,0,0,0,.39.84,1.83,1.83,0,0,0,.6.39,3,3,0,0,0,.85.18Zm1.62-.75.52.07a1,1,0,0,0,.83-.18.65.65,0,0,0,.2-.51,1,1,0,0,0-.82-.84.58.58,0,0,0-.45.15,1.08,1.08,0,0,0-.24.73Zm-.13,6-1.51.18a5.21,5.21,0,0,1-.28-1.57,3.52,3.52,0,0,1-1.2-.27,3.81,3.81,0,0,1-1.08-.77,2.84,2.84,0,0,1-1-2.18,2.17,2.17,0,0,1,.65-1.47,2.27,2.27,0,0,1,1.32-.65,4,4,0,0,1,1.74.21,4.56,4.56,0,0,1,.22-1.09,2,2,0,0,1,.45-.73,1.57,1.57,0,0,1,1.29-.45,2.43,2.43,0,0,1,1.55.81,2.34,2.34,0,0,1,.78,1.51,1.7,1.7,0,0,1-.51,1.33,1.64,1.64,0,0,1-.87.44,4,4,0,0,1-1.54-.12l-.25,1.82a3.92,3.92,0,0,0,.89-.4l.77,1.2a8.86,8.86,0,0,1-1,.5,2.66,2.66,0,0,1-.64.17A6,6,0,0,0,164,45,4.52,4.52,0,0,0,164.18,45.73Zm-9.42-12.11,1-1,2.49,2.46-2.28,2.25a4.52,4.52,0,0,1-1.67-.43,5.49,5.49,0,0,1-1.66-1.11,4.42,4.42,0,0,1-1.19-1.91,3.3,3.3,0,0,1,.08-2.06A4.67,4.67,0,0,1,152.68,30a4.56,4.56,0,0,1,2-1.2,3.62,3.62,0,0,1,2.16,0,4.23,4.23,0,0,1,1.65,1.07A3.81,3.81,0,0,1,159.67,32a2.78,2.78,0,0,1-.46,2l-1.37-.91a1.76,1.76,0,0,0,.22-1.11,1.93,1.93,0,0,0-.59-1.06,2.25,2.25,0,0,0-1.69-.72,2.87,2.87,0,0,0-1.87,1,3.06,3.06,0,0,0-1.07,1.95,2.07,2.07,0,0,0,.67,1.67,3.08,3.08,0,0,0,.87.58,3.5,3.5,0,0,0,1,.28l.73-.72Zm-10.59-6.34,5.72-5.64L151,22.75l-1.48,6.07,3.82-3.76,1.07,1.06-5.72,5.64-1.16-1.15L149,24.66l-3.74,3.68ZM141.73,25l5.72-5.65,1.16,1.14-5.72,5.64Zm-1.33-7.88.85.84a6.21,6.21,0,0,0,1.11,1,.86.86,0,0,0,.57.08,1.07,1.07,0,0,0,.54-.31.9.9,0,0,0,.1-1.26,11,11,0,0,0-.82-.85l-.9-.89Zm-4.46,2.12,5.72-5.65,2.43,2.4a5.79,5.79,0,0,1,1.18,1.47,1.88,1.88,0,0,1,.12,1.2,2.23,2.23,0,0,1-.66,1.13,2.17,2.17,0,0,1-1.44.68,2.62,2.62,0,0,1-1.66-.6,3.59,3.59,0,0,1,.14,1.09,8.69,8.69,0,0,1-.27,1.56l-.42,1.79L139.7,23l.41-2.06a9.6,9.6,0,0,0,.23-1.42,1.16,1.16,0,0,0-.11-.58,2.44,2.44,0,0,0-.52-.64l-.23-.23-2.38,2.36Zm-5.44-5.36,5.72-5.64,4.24,4.18-1,1-3.09-3.05-1.27,1.25L138,14.43l-1,1-2.87-2.83-1.56,1.53,3.2,3.15-1,.95Zm-6.43-4.18,4-6.91,5.2,3-.69,1.17-3.78-2.15-.9,1.53,3.52,2-.68,1.16-3.51-2-1.11,1.88,3.92,2.23-.69,1.17ZM116,7.81,117.65,0l1.56.33,2.11,5.89L122.44,1l1.49.31-1.68,7.8-1.61-.33L118.55,3l-1.1,5.09Zm-3.46.24-.28-8L113.86,0l.28,8Zm-5.83-2-.36-1.3,3.4-.9L110.56,7a4.47,4.47,0,0,1-1.21,1.22,5.67,5.67,0,0,1-1.81.86,4.4,4.4,0,0,1-2.27.06A3.39,3.39,0,0,1,103.5,8a4.77,4.77,0,0,1-1-1.93,4.44,4.44,0,0,1-.07-2.28A3.51,3.51,0,0,1,103.53,2a4.22,4.22,0,0,1,1.76-.88,4,4,0,0,1,2.44,0,2.86,2.86,0,0,1,1.5,1.39l-1.49.7a1.7,1.7,0,0,0-.86-.73,2,2,0,0,0-1.23,0,2.24,2.24,0,0,0-1.47,1.09,2.76,2.76,0,0,0-.09,2.07,3.12,3.12,0,0,0,1.18,1.9,2.19,2.19,0,0,0,1.81.26,2.83,2.83,0,0,0,.94-.46,3.23,3.23,0,0,0,.73-.69l-.27-1ZM97,14.4,92.33,7.87l1.3-.9,5.81,2.49L96.34,5.1l1.25-.86,4.64,6.53-1.35.93-5.7-2.42,3,4.27ZM91.55,20l-5.62-5.74,4.31-4.11,1,1-3.14,3,1.24,1.28,2.92-2.79,1,1-2.92,2.78,1.53,1.56L95,14.82l1,1Zm-7.1,7-5.62-5.74,4-3.8,1,1L81,21.13l1.33,1.36,2.43-2.32,1,1-2.43,2.32,2.39,2.44Zm-8.2,2.34a3.09,3.09,0,0,0,1.91,1,2.06,2.06,0,0,0,1.65-.6,2,2,0,0,0,.67-1.6,3.09,3.09,0,0,0-1-1.93,3,3,0,0,0-1.88-1.05,2.24,2.24,0,0,0-2.33,2.23A3,3,0,0,0,76.25,29.36Zm-1.17,1.19a5.09,5.09,0,0,1-1.17-1.73,3.83,3.83,0,0,1-.23-1.3,2.91,2.91,0,0,1,.25-1.23,4.21,4.21,0,0,1,1-1.43,3.85,3.85,0,0,1,2.83-1.17,4.25,4.25,0,0,1,2.91,1.45,4.15,4.15,0,0,1,1.36,2.91,3.69,3.69,0,0,1-1.27,2.73A3.85,3.85,0,0,1,78,32,4.24,4.24,0,0,1,75.08,30.55Zm-4.5,10.07L65,34.88l4.32-4.1,1,1-3.14,3L68.34,36l2.92-2.78.94,1L69.28,37l1.53,1.57,3.25-3.1,1,1Zm-3.71,3.77L62.2,39.62l-1.73,1.65-.95-1,4.62-4.41,1,1-1.72,1.65L68,43.27ZM54.1,45.7l1.17-1.12,3,3.11a8.61,8.61,0,0,0,1,.92,1.36,1.36,0,0,0,.91.23,1.8,1.8,0,0,0,1-.53,1.57,1.57,0,0,0,.55-.92,1.09,1.09,0,0,0-.18-.79,7.47,7.47,0,0,0-.9-1L57.56,42.4l1.18-1.12,2.95,3A11,11,0,0,1,63,45.85a2.2,2.2,0,0,1,.36,1.06A2.45,2.45,0,0,1,63.15,48a4.07,4.07,0,0,1-.95,1.24,4.29,4.29,0,0,1-1.45,1,2.55,2.55,0,0,1-1.16.16,2.33,2.33,0,0,1-1-.33,9.47,9.47,0,0,1-1.55-1.34ZM56,55.09l-4.67-4.76L49.61,52l-1-1,4.63-4.41,1,1-1.73,1.64L57.18,54Zm-3.63,3.63L46.76,53l1.18-1.12,5.62,5.74ZM48.7,62.34,44,57.57l-1.72,1.65-1-1L46,53.84l1,1-1.72,1.64,4.67,4.77Zm-8.87,5,1-1.2a1.92,1.92,0,0,0,1.23.43,1.71,1.71,0,0,0,1.11-.54,1.81,1.81,0,0,0,.63-1,1,1,0,0,0-.26-.83.66.66,0,0,0-.46-.23,1.33,1.33,0,0,0-.66.15c-.19.08-.58.3-1.19.65a4.58,4.58,0,0,1-1.88.69,2.16,2.16,0,0,1-1.67-.64,2,2,0,0,1-.55-1.06,2.14,2.14,0,0,1,.16-1.28,4,4,0,0,1,1-1.29,3.48,3.48,0,0,1,2.11-1.1,2.36,2.36,0,0,1,1.82.72L41.09,62a1.41,1.41,0,0,0-1-.33,1.73,1.73,0,0,0-.94.51,1.8,1.8,0,0,0-.59,1,.57.57,0,0,0,.16.54.64.64,0,0,0,.51.18,4.21,4.21,0,0,0,1.46-.65,8.06,8.06,0,0,1,1.67-.79,2.3,2.3,0,0,1,1.22,0,2.5,2.5,0,0,1,1.13.69,2.32,2.32,0,0,1,.62,1.19,2.24,2.24,0,0,1-.16,1.39A4.33,4.33,0,0,1,44.16,67,3.54,3.54,0,0,1,42,68.15,3.16,3.16,0,0,1,39.83,67.36Zm-3.69,7.36L30.51,69l1.15-1.09,6.13,1.56L34,65.63l1.09-1,5.62,5.74-1.18,1.12-6-1.51,3.67,3.74ZM33.7,77.11l-5.62-5.74,1.17-1.12L34.87,76Zm-6.82,2.23L24,78l1.3,2.88Zm4.38.21L30,80.76l-1.78-.82-2.33,2.22.8,1.76-1.25,1.19-3.35-7.9L23.31,76ZM16.68,84.46l3.72,3.8.88-.83a4.46,4.46,0,0,0,.66-.74,1.37,1.37,0,0,0,.24-.69,1.67,1.67,0,0,0-.23-.85A5.57,5.57,0,0,0,21,84a5.36,5.36,0,0,0-1.12-.91,1.81,1.81,0,0,0-.88-.23,1.58,1.58,0,0,0-.81.24,7.34,7.34,0,0,0-1,.87Zm-2.12.15,2.15-2a5.31,5.31,0,0,1,1.21-.94,2.7,2.7,0,0,1,1.39-.31,3.45,3.45,0,0,1,1.47.4,6,6,0,0,1,1.52,1.18,5.3,5.3,0,0,1,1,1.39,3.58,3.58,0,0,1,.37,1.6,2.8,2.8,0,0,1-.38,1.25,4.86,4.86,0,0,1-.92,1.11l-2.21,2.11Zm3.3,8.11L12.24,87l1.18-1.12L19,91.6ZM9.71,95.13a3.09,3.09,0,0,0,1.91,1,2.09,2.09,0,0,0,1.65-.6,2,2,0,0,0,.66-1.6,3,3,0,0,0-1-1.92A3.07,3.07,0,0,0,11,91a2.06,2.06,0,0,0-1.64.62,2,2,0,0,0-.69,1.61A3,3,0,0,0,9.71,95.13ZM8.54,96.32a5.13,5.13,0,0,1-1.18-1.73,3.83,3.83,0,0,1-.23-1.3,3.25,3.25,0,0,1,.25-1.23,4.61,4.61,0,0,1,1-1.43,3.87,3.87,0,0,1,2.83-1.17,4.33,4.33,0,0,1,2.92,1.45,4.15,4.15,0,0,1,1.36,2.91,3.7,3.7,0,0,1-1.28,2.74,3.82,3.82,0,0,1-2.83,1.18A4.2,4.2,0,0,1,8.54,96.32Zm-2.92,8.39L0,99l1.14-1.09,6.14,1.57L3.52,95.61l1.1-1,5.62,5.74-1.18,1.13-6-1.51,3.66,3.74Z"/><path class="cls-13" d="M157,56.68C145.75,41.62,130.18,32.3,113,32.3s-32.76,9.32-44,24.38-18.34,36-18.34,59.1,7,44,18.34,59.09S95.8,199.25,113,199.25s32.76-9.32,44.05-24.38,18.34-36,18.34-59.09-7-44-18.34-59.1M113,31c17.63,0,33.58,9.52,45.11,24.91s18.6,36.5,18.6,59.87-7.11,44.53-18.6,59.87-27.48,24.9-45.11,24.9S79.41,191,67.88,175.64s-18.6-36.5-18.6-59.86,7.11-44.54,18.6-59.87S95.36,31,113,31Z"/><path class="cls-13" d="M125.36,27.11a28.16,28.16,0,0,0-21.63,0c-2.61,1.27-4.23,3-4.23,4.81s1.62,3.54,4.23,4.81a28,28,0,0,0,21.63,0c2.61-1.26,4.23-3,4.23-4.81s-1.62-3.54-4.23-4.81m-10.82-3.47a26.83,26.83,0,0,1,11.4,2.3c3.07,1.5,5,3.61,5,6s-1.9,4.49-5,6a29.4,29.4,0,0,1-22.8,0c-3.06-1.49-5-3.6-5-6s1.9-4.48,5-6A26.59,26.59,0,0,1,114.54,23.64ZM130.2,24a34.05,34.05,0,0,0-15.66-3.45A34,34,0,0,0,98.89,24C95,26,92.62,28.85,92.62,31.92s2.4,5.88,6.27,7.95a34,34,0,0,0,15.65,3.44,34,34,0,0,0,15.66-3.44c3.87-2.07,6.26-4.88,6.26-7.95S134.07,26,130.2,24Zm-15.66-4.75a35.43,35.43,0,0,1,16.28,3.6c4.3,2.3,7,5.51,7,9.09s-2.66,6.8-7,9.09a35.3,35.3,0,0,1-16.28,3.61A35.33,35.33,0,0,1,98.26,41c-4.3-2.29-7-5.5-7-9.09s2.66-6.79,7-9.09A35.49,35.49,0,0,1,114.54,19.23Z"/><path class="cls-15" d="M114.54,24.29c8.68,0,15.71,3.42,15.71,7.63s-7,7.63-15.71,7.63-15.7-3.41-15.7-7.63,7-7.63,15.7-7.63m0-4.41c12.48,0,22.59,5.39,22.59,12S127,44,114.54,44,92,38.58,92,31.92,102.08,19.88,114.54,19.88Z"/><path class="cls-16" d="M137.13,31.92h-6.88c0-4.22-7-7.63-15.71-7.63s-15.7,3.41-15.7,7.63H92c0-6.65,10.1-12,22.57-12s22.59,5.39,22.59,12"/><path class="cls-13" d="M98.84,32.18H92v-.52h6.87Zm38.29,0h-6.88v-.52h6.88Z"/><path class="cls-13" d="M126.2,89.39a53.32,53.32,0,0,0-6.07-1.17l-.42-.06-.12-.4-1.74-5.71-6.28-.15-1.88,5.49-.14.41-.44,0A54.76,54.76,0,0,0,96.85,90l-.4.12-.28-.3-4.06-4.46-5.75,2.5L87,93.54l.06.43-.4.21a55.86,55.86,0,0,0-4.88,2.94,53,53,0,0,0-4.58,3.43l-.34.28-.39-.2-5.25-2.77-4.54,4.3,2.84,5.6.19.37-.27.32q-1.6,2-3,4.13c-.93,1.42-1.81,2.89-2.62,4.4l-.2.37-.43,0-7.15-.5-2.39,5.74,5.57,4.51.34.27-.12.41a54.59,54.59,0,0,0-1.62,7.58,56.59,56.59,0,0,0-.54,7.76,55.38,55.38,0,1,0,110.76,0c0-1.88-.1-3.74-.28-5.56s-.47-3.7-.83-5.51l-.13-.62.63-.14h0l6.54-4.47-1.79-5.94-8.42-.11h-.42l-.17-.38c-.52-1.16-1.09-2.31-1.71-3.46s-1.28-2.27-2-3.36l-.23-.35.24-.35,4.4-6.39-3.84-4.91-7.39,2.72-.4.14-.3-.3a56.15,56.15,0,0,0-9.65-7.77l-.35-.22.05-.4.84-6.74-5.69-2.63-4.36,4.72-.3.33-.42-.16a54.63,54.63,0,0,0-5.9-1.84M120.73,87a54.56,54.56,0,0,1,5.8,1.14,57,57,0,0,1,5.62,1.73l4.38-4.74.33-.36.44.2,6.56,3,.43.2-.06.47-.84,6.8a56.24,56.24,0,0,1,4.8,3.47,57.63,57.63,0,0,1,4.43,4l7.45-2.73.45-.17.3.38,4.43,5.65.29.37-.27.39-4.43,6.44c.63,1,1.23,2,1.78,3.07s1.08,2.08,1.58,3.16l8.49.11h.48l.14.46,2.06,6.84.14.45-.39.27-6.81,4.64c.33,1.69.59,3.42.76,5.18a56.7,56.7,0,1,1-112.55-2.26,55.69,55.69,0,0,1,1.53-7.35l-5.61-4.54-.37-.3.18-.44L55,115.89l.18-.44.47,0,7.21.5c.77-1.4,1.6-2.78,2.48-4.11s1.84-2.66,2.83-3.91l-2.87-5.66-.21-.43.35-.33,5.24-5,.34-.33.42.22,5.27,2.78q2.1-1.71,4.34-3.23t4.61-2.79L85,87.55l0-.48.44-.19L92,84l.43-.19.32.35,4.1,4.5a57.33,57.33,0,0,1,5.82-1.35,54.78,54.78,0,0,1,5.89-.74l1.9-5.53.15-.45h.49l7.24.18h.48l.14.45Z"/><path class="cls-15" d="M120.23,87.57a55.69,55.69,0,0,1,12.11,3.05L137,85.55l6.56,3-.89,7.2a56.18,56.18,0,0,1,9.76,7.87l7.85-2.88,4.43,5.65-4.67,6.78a55,55,0,0,1,3.71,6.89l8.91.12,2.07,6.85-7.05,4.8-.12,0a56.67,56.67,0,0,1,1.12,11.21A56,56,0,1,1,58.81,127.57l-5.94-4.81,2.74-6.63,7.63.54A56,56,0,0,1,69,108.05l-3.06-6,5.25-5,5.66,3a56.05,56.05,0,0,1,9.57-6.44l-.72-6.14,6.63-2.89,4.38,4.81a55.91,55.91,0,0,1,12.41-2.21l2-6,7.25.18Z"/><path class="cls-13" d="M132.1,125.75a29.94,29.94,0,0,0-42,0,29,29,0,0,0,0,41.39,30,30,0,0,0,42,0,29,29,0,0,0,0-41.39m-21-9.88a31.09,31.09,0,0,1,21.92,9,30.28,30.28,0,0,1,0,43.23,31.31,31.31,0,0,1-43.83,0,30.27,30.27,0,0,1,0-43.23A31.09,31.09,0,0,1,111.12,115.87Z"/><path class="cls-16" d="M111.11,116.53a29.92,29.92,0,1,1-30.33,29.91,30.13,30.13,0,0,1,30.33-29.91"/><path class="cls-12" d="M137.18,132c-6.32.52-12.65,6.77-4.21,15.63.66,1.1.4,1.86-.77,2.29-7,3.62-6.54,6.92-3.44,10.1,3-7.1,7.9-6,3.78,1.62a4.55,4.55,0,0,0,5.35-1.12,29.56,29.56,0,0,0,0-28.07Z"/><path class="cls-12" d="M112,120.62c1.13,0,2,1.83,2,4.08s-.91,4.09-2,4.09-2-1.83-2-4.09.91-4.08,2-4.08m.14-1c-5.37,3.43-7.47,8.26-2.39,16.22-2.83,6.85-3.64,12.21,1.16,13.46,3.41-.92,5.81-3.47,3.33-13.89C119,127,117.88,123.44,112.13,119.61Z"/><path class="cls-16" d="M133.61,141.13c-1.08,1.29-1.48,2.73-.88,3.22s2-.17,3-1.46,1.47-2.72.87-3.21-1.95.17-3,1.45"/><path class="cls-12" d="M107.88,165.07c2.88-16.2-18-8-4.09,3-2.53-4.6.39-7.56,4.09-3"/><path class="cls-12" d="M84,137.17c2.48.6,4.26,2.31,4.26,4.31,0,2.25-2.23,4.11-5.15,4.47l.21-2.08a2.72,2.72,0,0,0,2.26-2.39,2.57,2.57,0,0,0-1.79-2.23Z"/><path class="cls-13" d="M44.78,93.75h-8v20.17h8Zm-8.33-.61h8.94v21.39H36.14V93.14Z"/><path class="cls-13" d="M47.38,82.79h-8V103h8Zm-8.32-.61H48v21.39H38.75V82.18Z"/><rect class="cls-13" x="40.36" y="93.45" width="10.26" height="20.79"/><path class="cls-13" d="M50.29,93.78H40.7v20.13h9.59Zm-9.93-.66H51v21.45H40V93.12Z"/><rect class="cls-13" x="43.63" y="82.49" width="4.07" height="31.1"/><path class="cls-13" d="M47.45,82.75H43.9v30.58h3.55Zm-3.81-.52H48v31.61h-4.6V82.23Z"/><path class="cls-13" d="M41.74,114.8H38.33v16.1h3.41ZM37.92,114h4.64v17.74H37.5V114Z"/><path class="cls-13" d="M42.15,145.09H37.5V130.9h5.06v14.19Zm-3.82-.82h3.41V131.72H38.33Z"/><path class="cls-13" d="M21.51,102.56l2.61,2.78,9.52-8.59.2-3.29-3,.13ZM23.86,106l-3.05-3.25-.21-.23.22-.22L30.44,93l.22-.09,3.52-.15h.36l0,.35-.23,3.79-.11.22L24.33,106l-.24.22Z"/><path class="cls-13" d="M24.1,107.05l-2,3.2,10.87,6.85,3.28-.67-.91-2.85Zm-2.78,3.13,2.4-3.74.17-.27.27.16,11.58,6.76.15.18L37,116.58l.11.35-.36.07-3.77.76-.24-.05-11.26-7.08-.28-.18Z"/><rect class="cls-13" x="44.92" y="92.79" width="5.89" height="53.11"/><path class="cls-16" d="M49.68,102.08c9.52-7.39,19.24-14.57,35.18-15.25Q83.1,83.1,86.4,81c-17.23-1.57-28.33,5.25-37.7,14.42.33,2.22.65,4.44,1,6.65"/><polygon class="cls-15" points="173.35 91.23 141.93 61.05 133.35 71.82 169.06 96.08 173.35 91.23"/><path class="cls-13" d="M142.11,60.87,173.54,91l.17.17-.16.19-4.29,4.85-.15.18-.2-.14L133.2,72l-.23-.15.17-.22,8.59-10.77.18-.22ZM173,91.24l-31-29.8-8.23,10.32,35.29,24Z"/><polygon class="cls-15" points="167.23 97.29 175.96 89.86 181.48 94.87 172.28 100.63 167.23 97.29"/><path class="cls-13" d="M175.94,91.47l-6.71,5.7,3.07,2,7.19-4.51Zm-9.51,4.92L175.17,89l.82-.7.8.72,5.51,5L183.47,95l-1.34.84-9.19,5.76-.67.42-.66-.43-5.06-3.34-1.33-.88Z"/><polygon class="cls-15" points="179.48 96.39 210.14 117.92 201.71 127.77 173.51 100.18 179.48 96.39"/><path class="cls-13" d="M209.75,118,179.48,96.7l-5.56,3.52,27.77,27.17ZM179.64,96.17l30.65,21.53.23.17-.18.21-8.43,9.86-.18.21-.21-.19-28.2-27.6-.23-.23.28-.17,6-3.79.15-.1Z"/><polygon class="cls-13" points="139.18 75.63 148.03 67.36 149.03 68.41 140.18 76.67 139.18 75.63"/><polygon class="cls-13" points="147.52 81.32 155.17 73.95 156.19 74.99 148.54 82.35 147.52 81.32"/><polygon class="cls-13" points="152.77 84.64 159.61 77.85 160.65 78.86 153.8 85.66 152.77 84.64"/><polygon class="cls-13" points="158.6 88.94 164.51 82.83 165.57 83.83 159.65 89.93 158.6 88.94"/><polygon class="cls-13" points="179.79 106.03 185.7 99.92 186.76 100.91 180.84 107.02 179.79 106.03"/><polygon class="cls-13" points="184.13 111.06 190.98 104.27 192.01 105.28 185.17 112.07 184.13 111.06"/><polygon class="cls-13" points="188.06 114.83 195.64 107.41 196.67 108.43 189.09 115.85 188.06 114.83"/><polygon class="cls-13" points="194.95 121.22 203.38 112.97 204.41 113.98 195.97 122.24 194.95 121.22"/><path class="cls-15" d="M50.21,248.14c.09-4.31,1.25-9.14,1.34-13.45,37.51-27.14,83-25.52,122.5-2.64,4.95,5.1,5.48,10.2,4,15.3q-.13,2.78-4.55,3.43C137.19,234.22,98.48,230,55,250c-2.31.09-3.92-.53-4.81-1.85"/><path class="cls-13" d="M51.2,241.45a62.29,62.29,0,0,0-.66,6.59,3.5,3.5,0,0,0,1.66,1.25,7,7,0,0,0,2.74.38c21.76-10,42.33-14,62-13.33s38.44,5.83,56.61,14.1a6.86,6.86,0,0,0,3.1-1.11,2.56,2.56,0,0,0,1.07-2v-.07a15,15,0,0,0,.4-7.49,15.59,15.59,0,0,0-4.3-7.46c-20.22-11.69-42-17.81-63.42-17.35a102.76,102.76,0,0,0-58.55,19.9,59.12,59.12,0,0,1-.67,6.59m-1.32,6.69a62.69,62.69,0,0,1,.67-6.78,61.41,61.41,0,0,0,.67-6.68v-.16l.13-.1a103.48,103.48,0,0,1,59.06-20.11c21.58-.46,43.47,5.69,63.81,17.46l.07.06a16.23,16.23,0,0,1,4.49,7.8,15.58,15.58,0,0,1-.39,7.78,3.19,3.19,0,0,1-1.33,2.44,7.69,7.69,0,0,1-3.5,1.25l-.19,0c-18.12-8.26-36.84-13.45-56.44-14.08s-40.09,3.3-61.77,13.29l-.13,0A7.78,7.78,0,0,1,52,249.9a4.21,4.21,0,0,1-2-1.58Z"/><path class="cls-15" d="M62.18,227.8c-4.42-6.9-8.31-8.53-11.92-7.2Q47,224.68,54,232.87l8.19-5.07"/><path class="cls-13" d="M56.08,220.83c2,1.13,4.14,3.3,6.38,6.79l.17.28-.27.17-8.19,5.08-.24.15-.19-.22a21.61,21.61,0,0,1-4.49-7.28,5.56,5.56,0,0,1,.75-5.4l.15-.1a6.8,6.8,0,0,1,5.93.53Zm5.64,6.87c-2.11-3.24-4.09-5.26-6-6.3h0a6.19,6.19,0,0,0-5.29-.53,5,5,0,0,0-.58,4.75,20.62,20.62,0,0,0,4.18,6.83Z"/><path class="cls-15" d="M166.77,227.6c4.42-6.89,8.32-8.52,11.92-7.19q3.27,4.08-3.73,12.27l-8.19-5.08"/><path class="cls-13" d="M173.2,221.2c-1.88,1.05-3.86,3.06-6,6.3l7.67,4.75a20.69,20.69,0,0,0,4.18-6.83,5,5,0,0,0-.59-4.74,6.16,6.16,0,0,0-5.29.52Zm-6.7,6.23c2.23-3.49,4.35-5.66,6.38-6.79h0a6.8,6.8,0,0,1,5.93-.54l.14.11a5.58,5.58,0,0,1,.76,5.4,21.71,21.71,0,0,1-4.49,7.28l-.19.21-.24-.15-8.19-5.07-.28-.18Z"/><path class="cls-13" d="M161.81,243.92c-.7-1.09-1.4-2.18-2.09-3.27l.7-.16c.57,1,1.13,2.08,1.71,3.13l-.32.3m-1.45-12.49c-1-.32-1.91-.61-2.87-.9v3.15c1,.28,1.92.57,2.87.89Zm.85.27v8.4l-.85-.28v-4.45c-1-.32-1.91-.61-2.87-.9V236l-.13.07-.21,0a.76.76,0,0,1-.4-.32c-.19-.26-.37-.53-.55-.79a5.9,5.9,0,0,1-.5-.83,3.51,3.51,0,0,1-.15-.5,1.89,1.89,0,0,1,0-.23l.17-.11h.09l.16,0,.66.19v-3.14l-2-.56V229c2.55.72,5.11,1.51,7.67,2.35v.73Zm-7.7-2.29v8.39l-.82-.2v-5.36h-.4l-.49.15-.42.28c-.08.1-.17.19-.26.29l-.25.36c-.08.15-.16.3-.23.46s-.09.25-.13.37l-.67-.6v-.21l.13-.23c.09-.15.19-.3.29-.45l.09-.24a1.81,1.81,0,0,0-.69-.78c-.18-.12-.37-.24-.54-.37a4.14,4.14,0,0,0-.49-.19,1,1,0,0,0-1.2.47,1.66,1.66,0,0,0-.28,1,3.67,3.67,0,0,0,1.36,2.6l.54.51.81.6-.4.66c-.52-.12-1.22-.79-2.12-2a4.56,4.56,0,0,1-.73-1.29,4.88,4.88,0,0,1-.24-1.28,2.38,2.38,0,0,1,.19-1,1.62,1.62,0,0,1,1.22-1,2.82,2.82,0,0,1,.43,0,1.91,1.91,0,0,1,.48,0,3.7,3.7,0,0,1,1.52.87l.43.47a.76.76,0,0,1,.15.27c.08-.06.18-.11.28-.17l.29-.16.22-.1.36-.06.4,0,.15.05.2,0V229.2c-2.49-.62-5-1.17-7.47-1.68v-.72q4.8,1,9.61,2.24v.73Zm-13.32.38c0,.1-.07.19-.1.29s-.06.2-.08.3v.23a2.36,2.36,0,0,0,.11.72,2.33,2.33,0,0,0,.88,1.13,2,2,0,0,0,.59.24,1.24,1.24,0,0,0,.86-.17l.14-.1.21-.16Zm3.9-2.48v8.39l-.83-.15v-2.68l-.37.34-.4.17a.91.91,0,0,1-.46.08,3.54,3.54,0,0,1-.45-.08,2.54,2.54,0,0,1-.87-.28,2.88,2.88,0,0,1-.75-.64,2.82,2.82,0,0,1-.68-1.41,3.43,3.43,0,0,1-.06-.55,2.27,2.27,0,0,1,.62-1.62,1.69,1.69,0,0,1,1.6-.52l.38.07a1,1,0,0,1,.39.15l.07,0,.13.06c0,.26.08.53.11.79a.86.86,0,0,0-.31-.23c-.14-.06-.28-.09-.41-.14l-.38-.07-.33.07a.59.59,0,0,0-.33.14l-.23.17c.87.81,1.75,1.63,2.62,2.46,0-.13.07-.25.11-.37v-4.35c-1.68-.3-3.37-.56-5-.81v-.73c2.31.35,4.64.74,7,1.17l0,.73C144.84,227.45,144.47,227.37,144.09,227.31Zm-16.93-4.82v-1.15l1.09.08v1.15Zm-.27,2.69L124,225v3.14l2.88.17Zm.84.06v8.39l-.84-.06v-4.45L124,229v1.54l-.13.1-.21,0a.58.58,0,0,1-.4-.21l-.55-.66a3.94,3.94,0,0,1-.5-.71,4.11,4.11,0,0,1-.15-.46l.06-.24.16-.16.09,0,.16,0,.66,0V225l-2-.08v-.72q3.82.15,7.67.43v.72Zm-7.51-.38v2.33a1.61,1.61,0,0,1-.53,1.26l-.25.19a2.79,2.79,0,0,1-.3.15,2,2,0,0,1-.63.08h-.29l-.28-.1c.37.62.75,1.24,1.13,1.85l.44.63c.19.24.38.47.58.7a3.43,3.43,0,0,0,.24.33l.35.4-.59.58a3.79,3.79,0,0,1-.89-1,27.41,27.41,0,0,1-1.53-2.32l-.48-.82-.63-1.17c0-.1-.09-.22-.14-.32s-.23-.42-.34-.64l.66-.53c.21.42.41.84.64,1.25a1.22,1.22,0,0,0,1.72.19,1.9,1.9,0,0,0,.21-.38c0-.16,0-.31.08-.47v-2.23l-4.34-.06v-.73c2.13,0,4.28.06,6.42.13v.72Zm-6.77-.08c-1,0-2,0-3.07,0v3.39a1.58,1.58,0,0,0,.48,1.25,1.4,1.4,0,0,0,.41.29,3.4,3.4,0,0,0,.46.08,1.25,1.25,0,0,0,.65-.14,2.3,2.3,0,0,0,.61-.47l.2-.25.26-.37Zm.83,0v8.4h-.83v-3.52l-.28.27-.2.16a2,2,0,0,1-1.21.43,2.12,2.12,0,0,1-2-1.46,2.58,2.58,0,0,1-.14-.95v-3.27l-1.23,0v-.73q3.62-.09,7.24-.08v.72Zm-17-1.91v-1.14l1.08-.1v1.14Zm.3,2.68v8.4l-.81.08v-5.36l-.24.09-.17.07-.48.32-.44.44-.25.38c-.09.15-.16.3-.24.45s-.16.36-.24.54a4,4,0,0,0-.13.42l-.67-.36v-.21l.12-.28a5.86,5.86,0,0,1,.3-.55c0-.09.06-.18.1-.28a1.22,1.22,0,0,0-.71-.54l-.53-.18a3.93,3.93,0,0,0-.48,0,1.54,1.54,0,0,0-1.21.9,2.12,2.12,0,0,0-.28,1.05A2.4,2.4,0,0,0,92.59,233l.54.32.82.33-.39.78c-.54.07-1.25-.34-2.13-1.25a3,3,0,0,1-.72-1.05,3.88,3.88,0,0,1-.24-1.21,2.84,2.84,0,0,1,.18-1,2.57,2.57,0,0,1,1.23-1.41,2,2,0,0,1,.42-.18,2.11,2.11,0,0,1,.48-.12,2.41,2.41,0,0,1,.78,0,1.81,1.81,0,0,1,.74.3l.43.33a.43.43,0,0,1,.14.21l.28-.26.3-.27.23-.19.34-.18.41-.17.15,0,.21,0v-2.33q-3.74.4-7.47.94v-.72c3.2-.45,6.4-.84,9.59-1.15v.73Zm-9.45,1.2v8.4l-.83.14v-8.4l-1.53.26v-.72c1.3-.23,2.59-.44,3.89-.64v.73Zm-3.76,1.33a1,1,0,0,0-1.07-.48,1.23,1.23,0,0,0-.73.47,3.17,3.17,0,0,0-.21.41,3.07,3.07,0,0,0-.07.42.91.91,0,0,0,.29.76,3.87,3.87,0,0,0,.34.21,3.23,3.23,0,0,0,.44,0,1.54,1.54,0,0,0,1-.66c.05-.06.07-.14.12-.21l.18-.31C84.56,228.47,84.47,228.27,84.39,228.07Zm.38-.76c.12.14.24.28.35.43a1.23,1.23,0,0,1,.22.48c0,.18.1.36.16.54s0,.37.06.56a4,4,0,0,1-.83,2.4,3.27,3.27,0,0,1-2,1.39l2.61,1.95-.55.7L81,232.94l.55-.74.56.4.1,0,.47-.11a2.43,2.43,0,0,1,.37-.16,1.56,1.56,0,0,0,.5-.33l.5-.47.4-.51c.07-.17.15-.34.24-.52s0-.25,0-.37,0-.34,0-.52l-.25.28-.18.19a1.93,1.93,0,0,1-.52.43,3,3,0,0,1-.5.19,1.58,1.58,0,0,1-.72,0,1.41,1.41,0,0,1-1-.82,1.49,1.49,0,0,1-.12-.7,2.48,2.48,0,0,1,.44-1.25l-1.79.38v-.71c1.92-.42,3.85-.8,5.79-1.16v.71Zm-7.59.94c-1.05-.52-2.08-1-3.12-1.51l.6-.9,2.9,2.32Zm1.34-.33-2.69-3.33.71-.64c.42.65.85,1.28,1.26,1.92s.84,1.28,1.26,1.93Zm.32.65V237l-.83.2v-8.4l-1.52.38v-.72c1.29-.33,2.59-.64,3.89-.93v.72Zm-6.61,1.74V233l.29-.4.18-.24.37-.34a2.17,2.17,0,0,1,.37-.27l.19,0,.18-.05a1.59,1.59,0,0,1,1.56.24,1.83,1.83,0,0,1,.58,1.46,4.83,4.83,0,0,1-.82,2.36l-.33.57-.48.71-.69-.41a.61.61,0,0,0,.26-.27c.17-.27.33-.55.49-.82a4.15,4.15,0,0,0,.72-2,1.32,1.32,0,0,0-.28-.95.83.83,0,0,0-.41-.22,1.05,1.05,0,0,0-.52,0,2.19,2.19,0,0,0-1.2,1.12,3,3,0,0,0-.46,1.49v3.79l-.82.24v-2.61A2.7,2.7,0,0,1,70,237.43a1.54,1.54,0,0,1-2.1-.78,2.15,2.15,0,0,1-.18-.91,3,3,0,0,1,.18-1.07A3.45,3.45,0,0,1,69,233.06a2.52,2.52,0,0,1,.83-.45l.43-.08h.42v.77h-.16l-.08,0-.12,0h-.12l-.13,0-.1,0a1.58,1.58,0,0,0-.6.33,2.43,2.43,0,0,0-.73,1.21,3.1,3.1,0,0,0-.08.42v.28c0,.78.25,1.23.79,1.3a1.45,1.45,0,0,0,.56,0,1.88,1.88,0,0,0,.94-.7,2.17,2.17,0,0,0,.54-1.11c0-.73,0-1.47,0-2.2v-2.2c-1.6.48-3.2,1-4.8,1.53v-.73c3.39-1.1,6.76-2.1,10.15-3v.73C75.25,229.46,73.74,229.88,72.23,230.31Z"/><path class="cls-13" d="M160.14,240.82l1.1,1.72-.2-.36-.76-1.39Zm1.45,3.24-.23-.36-1.86-2.91-.2-.31.36-.08.18,0,.53-.12.19,0,.09.17.85,1.56.86,1.56.09.17-.14.14-.32.3-.23.23ZM159,230.72l1.44.46.18.06v3.69l-.35-.11-1.43-.46-1.44-.44-.18,0v-3.69l.34.1Zm1.09.89-1.25-.39-1.1-.34v2.6l1.26.39,1.09.34Zm-5-2.22v.18l.37.1,1.29.37.19.05v3.69l-.34-.1-.33-.1h0l-.28-.07h-.15l0,.07,0,.1h0a2.64,2.64,0,0,0,.1.3,3,3,0,0,0,.21.4c.08.12.17.26.27.39h0l.11.17.43.62h0a1.2,1.2,0,0,0,.15.16l.1.06h0v-1.68l.34.1.23.07c.88.27,1.76.54,2.65.83l.18.06v4.45l.31.11v-8.4l.35.12.82.27v-.18c-1.21-.4-2.43-.79-3.66-1.16S156.21,229.71,155.09,229.39Zm-1.84,4.21v-4.54l.33.1.85.23v-.18c-1.48-.38-3-.75-4.47-1.1s-3-.68-4.47-1v.19c1.18.24,2.36.49,3.53.76s2.49.57,3.74.88l.19.05v2.86l-.32-.07-.2,0h0l-.11,0-.34,0-.18,0h0l-.13,0-.18.08-.14.08-.14.08-.14.08h0l-.13.09-.28.17-.11-.31a.31.31,0,0,0,0-.1h0a.18.18,0,0,0-.05-.07l-.3-.34-.13-.14a1.56,1.56,0,0,0-.3-.27h0l-.37-.23h0l-.34-.17a1.79,1.79,0,0,0-.37-.12l-.2,0H148l-.17,0h0a1.31,1.31,0,0,0-.62.28,1.35,1.35,0,0,0-.41.57,1.45,1.45,0,0,0-.12.4,2.23,2.23,0,0,0,0,.47,3.13,3.13,0,0,0,.05.53c0,.19.1.41.18.68h0a2.79,2.79,0,0,0,.26.59h0c.12.21.27.41.42.62a10.48,10.48,0,0,0,1.17,1.39,2.58,2.58,0,0,0,.63.46l.16-.27-.62-.47,0,0-.39-.36h0l-.15-.15a5.15,5.15,0,0,1-1.07-1.35,3,3,0,0,1-.38-1.43,1.85,1.85,0,0,1,.09-.58,1.75,1.75,0,0,1,.24-.52,1.41,1.41,0,0,1,.65-.54,1.33,1.33,0,0,1,.84,0h0a1.66,1.66,0,0,1,.37.14l.16.07,0,0,.27.19.27.18h0a2.53,2.53,0,0,1,.48.42h0a1.66,1.66,0,0,1,.31.47l0,.1,0,.11s0,.11-.07.17v.05l0,0-.15.22-.14.23-.09.15v0l.29.25h0v0l.12-.23h0l.12-.23h0l.2-.3h0l.06-.08,0,0,.25-.29,0,0,.31-.21.12-.08.07,0,.49-.14.05,0H153v5.42l.3.07Zm-12.95-3.3h0m0,0v0l0,.11v.2a3.25,3.25,0,0,0,0,.33h0a2.82,2.82,0,0,0,.07.31,1.39,1.39,0,0,0,.12.28c0,.09.11.18.17.27h0a1.71,1.71,0,0,0,.22.25,1.18,1.18,0,0,0,.25.19h0a1,1,0,0,0,.23.12h0l.28.08h0a.54.54,0,0,0,.31,0h0a1,1,0,0,0,.35-.14h0l.07,0h0l-1.09-1Zm3.52,1.24V227l.31.05.8.15V227l-3.3-.58-3.15-.51v.2l2.3.36,2.53.42.21,0v4.64l-.09.3h0l0,.07-.13.41-.31-.3-.09-.09-.5-.47.62.59.22.21-.25.18-.11.08-.09.07,0,0-.05,0-.12.08h0a1.77,1.77,0,0,1-.51.19h0a1.14,1.14,0,0,1-.52,0h0l-.37-.11h0a2.11,2.11,0,0,1-.3-.16h0a2,2,0,0,1-.34-.26,2,2,0,0,1-.27-.31,2.54,2.54,0,0,1-.23-.34,3.47,3.47,0,0,1-.15-.36h0a2.23,2.23,0,0,1-.09-.39,2.5,2.5,0,0,1,0-.4v-.28l0-.15v0l.05-.15h0l.1-.31.15-.35,0,0,.24-.17.05,0h0l.15-.12h0a.8.8,0,0,1,.21-.13h0l.24-.07.24,0h0l.09,0h.1l.37.06h0l.15,0h0l.15.06v-.1h0l-.09-.06h0l-.13-.07h0l-.15,0h0l-.15,0h0l-.23,0h0a1.6,1.6,0,0,0-.76,0,1.35,1.35,0,0,0-.59.4h0a2.12,2.12,0,0,0-.43.68,2,2,0,0,0-.13.75h0a2.11,2.11,0,0,0,0,.26c0,.08,0,.17,0,.26h0a2.49,2.49,0,0,0,.21.67h0a2.83,2.83,0,0,0,.41.61h0a2.85,2.85,0,0,0,.34.35h0a2.92,2.92,0,0,0,.34.23h0a2,2,0,0,0,.36.16h0l.42.1.18,0h0l.25.05.18,0,.15-.05.3-.13h0l.06,0,.3-.27h0l0,0,.44-.4v3.06l.31,0Zm.53-3.88V236l-.31-.06-.84-.14-.21,0v-2.33h0l-.11,0h0l-.28.11h0a1.23,1.23,0,0,1-.25.08,1.08,1.08,0,0,1-.32,0,1.63,1.63,0,0,1-.33-.05h0l-.15,0h0a4.05,4.05,0,0,1-.5-.12h0a2.55,2.55,0,0,1-.44-.2h0a2.64,2.64,0,0,1-.42-.29h0a3.77,3.77,0,0,1-.4-.4h0a3.18,3.18,0,0,1-.48-.73h0a3,3,0,0,1-.26-.8h0a2.72,2.72,0,0,1,0-.3c0-.1,0-.2,0-.29h0a2.55,2.55,0,0,1,.16-1,2.9,2.9,0,0,1,.53-.84h0a1.84,1.84,0,0,1,.82-.54,2.26,2.26,0,0,1,1-.07h0l.23,0h0l.15,0a1.17,1.17,0,0,1,.25.07h0a1.71,1.71,0,0,1,.23.13h.05l.11,0,.14.06,0,.14.11.8-.45.21a.43.43,0,0,0-.1-.09h0l-.13-.07h0l-.23-.08h0l-.13,0-.3-.05h-.06l-.24,0h0l-.12,0-.07.05c.68.63,1.37,1.29,2.06,1.94v-4l-2.31-.38-2.51-.39-.23,0v-1.25l.31,0c1.12.17,2.27.36,3.46.56h0l3.24.57h0l.3.06.18,0h0c1.56.32,3.11.67,4.64,1h0c1.44.34,2.89.7,4.35,1.07h0l.34.1.12,0h0l.19.05h0c1.18.34,2.35.68,3.52,1s2.55.8,3.85,1.23l.18.06v1.27l-.35-.12-.82-.27v8.4l-.35-.12-.84-.27-.18-.06v-4.46l-2.35-.73v1.36l-.15.07h0l-.07,0-.09.07-.12,0h-.09l-.12,0h0a.84.84,0,0,1-.3-.15h0a1.23,1.23,0,0,1-.24-.26h0c-.15-.2-.3-.42-.45-.63l-.11-.17-.27-.41a4.09,4.09,0,0,1-.25-.46h0a3.43,3.43,0,0,1-.13-.38h0l0-.15v-.13l.06-.23.1-.15.05,0h0l.13-.08.07,0h.14l.16,0h.09l.32.09v-2.6l-1.1-.31-.22-.06h0l-.33-.09-1-.27v8.39l-.33-.09-.81-.2-.2,0v-5.29h-.09l-.42.12-.09.06h0l-.27.18-.23.26-.05.07h0c-.06.09-.13.17-.18.26l-.12.22-.1.2-.06.17h0l-.06.18-.12.39-.3-.27c-.22-.18-.45-.39-.67-.59h0l-.07-.19v-.21l0-.11,0-.05h0c0-.07.07-.13.11-.21h0l.15-.22h0l.13-.2h0l0-.11a1.5,1.5,0,0,0-.17-.23,2.79,2.79,0,0,0-.39-.34l-.27-.18-.25-.17-.13-.06h0a1.62,1.62,0,0,0-.28-.11.83.83,0,0,0-.52,0,.88.88,0,0,0-.4.35h0a1.41,1.41,0,0,0-.18.37,1.56,1.56,0,0,0-.06.44,2.61,2.61,0,0,0,.31,1.19,4.76,4.76,0,0,0,1,1.22l.15.14.37.36.75.56.06,0,.18.14-.12.2-.1.16h0l-.29.48-.09.17-.19,0a2.42,2.42,0,0,1-1-.66,10.52,10.52,0,0,1-1.23-1.45,7.86,7.86,0,0,1-.45-.67h0a2.92,2.92,0,0,1-.32-.7h0c-.08-.28-.14-.53-.18-.74a3.61,3.61,0,0,1-.07-.62,3.24,3.24,0,0,1,0-.56h0a2.63,2.63,0,0,1,.15-.52,2.06,2.06,0,0,1,.56-.76,2,2,0,0,1,.86-.39h0l.24,0h.51l.27,0a2.07,2.07,0,0,1,.46.15h0a3.24,3.24,0,0,1,.37.19h0a4.45,4.45,0,0,1,.43.26h0a2.57,2.57,0,0,1,.39.35h0l.13.14.29.33h0l.06.07,0,0h0l.14-.08h0l.15-.08h0l.22-.11.07,0,.17,0h0l.18,0h0l.4,0h.11v-1.8c-1.18-.29-2.36-.57-3.53-.83s-2.4-.52-3.58-.76l-.15,0-.28-.06Zm-16.93-6v.63l.55,0v-.63Zm-.53.87v-1.43l.28,0,1.09.08.24,0v1.67l-.28,0-1.09-.08-.24,0Zm-2,2.31,2,.12h.25v3.67l-.28,0-2.07-.12-.8-.05h-.25v-3.67l.28,0Zm1.68.62-1.7-.1-.64,0v2.63l.55,0,1.79.11Zm-4.88-1v.2l.72,0,.75,0h.25v3.66h-.27l-.62,0-.11,0,0,0,0,0,0,0,0,.1,0,.07h0a1.83,1.83,0,0,0,.1.28h0a4,4,0,0,0,.45.65h0l.08.09c.15.19.31.37.47.55a.58.58,0,0,0,.13.11.11.11,0,0,0,.07,0h.08v-1.66H124l.22,0c.9,0,1.78.1,2.65.15h.25v4.46l.32,0V225l.28,0,.87.06v-.2c-1.2-.09-2.4-.16-3.58-.23S122.83,224.49,121.74,224.45ZM117.42,229h0m-5.52-4.49h1.8v4.08l0,.14-.26.38h0l-.21.25h0a2,2,0,0,1-.3.27,2.78,2.78,0,0,1-.38.25h0a1.66,1.66,0,0,1-.39.15,1.39,1.39,0,0,1-.41,0,2,2,0,0,1-.35-.06l-.15,0-.06,0a1.58,1.58,0,0,1-.29-.17,1.64,1.64,0,0,1-.18-.16,1.55,1.55,0,0,1-.42-.61,2.12,2.12,0,0,1-.15-.83v-3.64h.26l1.54,0Zm1.28.51h-1.27l-1.28,0v3.14a1.67,1.67,0,0,0,.11.64,1,1,0,0,0,.28.42h0a.81.81,0,0,0,.14.12.7.7,0,0,0,.18.11l.11,0h0a1.36,1.36,0,0,0,.27,0h0a.69.69,0,0,0,.25,0h0a.92.92,0,0,0,.25-.09,3,3,0,0,0,.32-.21l.22-.19.19-.24.21-.3Zm2.66-.72v.21h1.37l2.17,0h.26v2.52l0,.12h0c0,.11,0,.22-.05.34l0,.08-.12.25h0a1.56,1.56,0,0,1-.13.19h0a.86.86,0,0,1-.44.28,1.69,1.69,0,0,1-.58.08h0a1.75,1.75,0,0,1-.68-.15,1.11,1.11,0,0,1-.46-.45c-.18-.34-.34-.65-.49-1l-.24.19.07.13h0l.17.32v0l.14.31.62,1.16.24.4.24.41h0c.25.41.49.81.74,1.19s.5.75.77,1.11h0c.19.25.36.46.5.62h0l.15.15.13-.12h0l.13-.12h0l-.17-.2v0l-.13-.16h0l-.11-.14-.29-.35h0l-.28-.35h0l-.23-.31h0l-.21-.31h0l-.57-.93h0l-.56-.92.32-.38a.93.93,0,0,0,.2.07h.55a1.09,1.09,0,0,0,.26,0h0l.14-.07h0l.1-.05,0,0h0l.18-.13h0a1.23,1.23,0,0,0,.33-.46,1.66,1.66,0,0,0,.11-.61v-2.6h.27l.72,0v-.2l-2.7-.06Zm-.53,0h0v.21h0ZM114,229v-4.46h.77v-.2c-.94,0-1.88,0-2.82,0-1.12,0-2.23,0-3.35.06v.2l1,0h.27v3.54a3.39,3.39,0,0,0,0,.45h0a1.18,1.18,0,0,0,.1.4h0a2.21,2.21,0,0,0,.73,1,1.68,1.68,0,0,0,1.06.31h0a1.67,1.67,0,0,0,.55-.09,2.26,2.26,0,0,0,.5-.28h0l.19-.16.12-.12h0l.15-.14.44-.42v3.87H114Zm.53-3.94v8.4h-1.36v-3.19l0,0h0a2.27,2.27,0,0,1-.64.36,2.18,2.18,0,0,1-.72.13h0a2.27,2.27,0,0,1-1.38-.41,2.83,2.83,0,0,1-.91-1.21h0a2.69,2.69,0,0,1-.14-.54,4.43,4.43,0,0,1,0-.51v-3l-1,0h-.27v-1.24h.26c1.2,0,2.4,0,3.61-.06l2.83,0h1.06l2.41,0,2.69.06h.79l3.33.16c1.29.07,2.57.16,3.84.25l.24,0v1.24l-.28,0-.88-.06v8.39l-.28,0-.84-.06-.25,0v-4.45l-2.34-.13v1.4l-.12.07h0l-.09.07-.15.07h-.24a.62.62,0,0,1-.32-.09,1,1,0,0,1-.27-.21h0l-.49-.57-.08-.1h0a3.58,3.58,0,0,1-.52-.75h0a2,2,0,0,1-.13-.36l0-.14v-.13l.06-.24.07-.13.08-.07h0l.09-.08.09,0,.1,0h0l.15,0h.48v-2.62l-.49,0-1.24,0h-.73v2.06a2.16,2.16,0,0,1-.15.81,1.69,1.69,0,0,1-.46.64h0a1.24,1.24,0,0,1-.23.17l0,0,0,0-.1.06h0a1.27,1.27,0,0,1-.23.12h0a2.57,2.57,0,0,1-.38.08h-.37l.26.44.57.92.2.3h0l.23.31.27.34h0l.29.35v0l.11.15h0l.12.16.17.19.17.19.17.19-.18.17-.3.29-.29.29-.14.14-.17-.09a2.51,2.51,0,0,1-.44-.38h0a8.3,8.3,0,0,1-.53-.67h0c-.26-.36-.52-.74-.78-1.13s-.51-.8-.75-1.21h0l-.25-.41h0l-.23-.41h0l-.63-1.17h0l-.14-.31-.16-.32h0l-.16-.32-.09-.19.16-.13.41-.33h0l.24-.2.25-.2.15.29.09.18h0c.19.36.37.74.55,1.06a.57.57,0,0,0,.23.23,1,1,0,0,0,.45.09h0a1.24,1.24,0,0,0,.41-.05.45.45,0,0,0,.2-.12h0l.06-.11h0l.1-.18c0-.1,0-.22,0-.33h0v-2l-1.9,0-1.93,0Zm-17-3.08v.63l.54-.05v-.63h-.06Zm-.53.91v-1.38l.24,0,.72-.07h0l.34,0,.29,0V223l-.24,0-.23,0-.84.08-.29,0Zm-2.13,8.38h0m0,0h0M90,226v.2L93,225.8c1.25-.16,2.5-.31,3.74-.44l.29,0v2.86l-.24,0-.21,0h-.1l-.37.15-.3.17-.22.17-.25.23h0l0,0h0l-.13.13-.14.14-.29.28-.14-.38s0-.05,0-.08h0l-.22-.16h0l-.21-.16a1.56,1.56,0,0,0-.28-.16h0l-.35-.1-.32,0a1.54,1.54,0,0,0-.37,0h0l-.21,0h0l-.22.06h0l-.2.08h0l-.18.09a2.1,2.1,0,0,0-.67.54,2.24,2.24,0,0,0-.43.73h0a2.06,2.06,0,0,0-.13.46,3.6,3.6,0,0,0,0,.49,3.16,3.16,0,0,0,.06.52,4.06,4.06,0,0,0,.17.6,2.06,2.06,0,0,0,.25.49,5.85,5.85,0,0,0,.4.47h0a5.47,5.47,0,0,0,1.14,1,1.48,1.48,0,0,0,.63.23l.13-.25h0l.07-.14-.56-.22,0,0-.54-.31a3.3,3.3,0,0,1-1.1-1A2.42,2.42,0,0,1,91,230.9a2.47,2.47,0,0,1,.08-.6,2.52,2.52,0,0,1,.23-.57,2.2,2.2,0,0,1,.6-.73,1.58,1.58,0,0,1,.82-.31h0a2.32,2.32,0,0,1,.37,0h0l.15,0h.06l.17.05.37.13h0a1.81,1.81,0,0,1,.52.28,1.14,1.14,0,0,1,.34.39l0,.1,0,.1,0,.09h0l-.06.17,0,0-.15.27h0l-.14.27-.09.22h0l.24.13,0-.12v0l.05-.11a3.9,3.9,0,0,1,.19-.44h0l.06-.12.19-.35h0l.26-.38,0,0,.43-.44,0,0,.23-.16h0l.24-.16,0,0,.17-.07h0l.11,0h0l.12,0,.36-.14v5.45h.06l.23,0V225.3l.24,0,1.07-.1V225c-1.48.15-3,.31-4.5.49S91.35,225.82,90,226ZM84,227.41a1.7,1.7,0,0,1,.59.5l0,.06.26.61,0,.12-.06.11-.18.31h0l0,.09a.6.6,0,0,1-.09.15h0a2.31,2.31,0,0,1-.53.51,1.47,1.47,0,0,1-.61.25h0a2.1,2.1,0,0,1-.35,0h-.14l-.12,0-.1-.06-.27-.18h0a1,1,0,0,1-.3-.43,1.33,1.33,0,0,1-.08-.54,2.23,2.23,0,0,1,0-.36l0-.11,0-.06.06-.13h0a1.24,1.24,0,0,1,.16-.3h0a1.51,1.51,0,0,1,.39-.37h0a1.47,1.47,0,0,1,.51-.2h0a1.2,1.2,0,0,1,.73.07Zm.15.78a1.15,1.15,0,0,0-.37-.31.84.84,0,0,0-.42,0h0a.8.8,0,0,0-.32.13.77.77,0,0,0-.25.23c0,.06-.07.14-.11.21h0l0,.13,0,.08h0a1.41,1.41,0,0,0-.05.27h0a.9.9,0,0,0,.05.34.45.45,0,0,0,.15.21,1.07,1.07,0,0,0,.21.13h0l0,0h.07a1,1,0,0,0,.25,0,.77.77,0,0,0,.39-.16,1.71,1.71,0,0,0,.41-.4l0-.08h0l0-.1h0l.12-.2Zm2-1.57v.2l1.11-.2.31-.05V235l.31-.05v-8.4l.22,0,1-.14v-.2l-1.28.2Zm-10.43.63.73.36-.52-.42-1.22-1-.28.41,1.29.62Zm.46-2.63,2.44,3h0l-.43-.65-.63-1h0l-.58-.88-.51-.78-.13.12h0Zm4.46,3.09v.18l1.2-.25.59-.12-.32.51a3.16,3.16,0,0,0-.3.62,1.38,1.38,0,0,0-.1.49h0a1.29,1.29,0,0,0,.1.58h0a1.46,1.46,0,0,0,.33.45,1.06,1.06,0,0,0,.47.22h0a1,1,0,0,0,.3,0,.77.77,0,0,0,.3,0h0a.94.94,0,0,0,.22-.07,1.45,1.45,0,0,0,.22-.09h0a1.12,1.12,0,0,0,.22-.16h0a2.19,2.19,0,0,0,.23-.21l0-.06.13-.13.11-.13h0l.13-.14.45.21c0,.13,0,.28,0,.43v.09l0,.37,0,.08-.12.25-.11.25,0,.06-.08.11h0q-.16.19-.3.39l0,.05-.16.14-.34.31a1.49,1.49,0,0,1-.27.23h0l-.32.16-.23.1h0l-.12,0,0,0-.2.05h0l-.27.06h0l-.1,0-.11,0-.09-.06-.35-.25-.13.16h0l-.13.17L83,234.14h0l1.69,1.26.23-.29-1.28-1h0l-1.12-.83-.46-.35.57-.11a2.88,2.88,0,0,0,1-.43,3.54,3.54,0,0,0,.87-.86,4.37,4.37,0,0,0,.59-1.1,3.17,3.17,0,0,0,.18-1.14h0a1.93,1.93,0,0,0,0-.33h0l0-.18-.14-.47h0l0-.05h0a1.43,1.43,0,0,0-.08-.22h0a.52.52,0,0,0-.1-.18,1.92,1.92,0,0,0-.18-.22h0l-.16-.19-.29-.34.44-.08.51-.09h0l.3-.05v-.18l-2.48.48C82.26,227.37,81.46,227.53,80.65,227.71Zm-3.62.85v.19l.92-.23.32-.08v8.4l.31-.08v-8.39l.21-.05,1-.24v-.19l-.35.08h0l-.14,0-.86.2h0ZM72,233v-2.87l.19-.05,2.28-.63,1.79-.48v-.18c-1.49.4-3,.82-4.46,1.26q-2.48.74-4.88,1.52v.18l2.05-.67c.77-.25,1.57-.5,2.41-.75l.33-.1v2.55c0,.27,0,.5,0,.72a12.51,12.51,0,0,1,0,1.5h0a1.67,1.67,0,0,1-.2.66h0a4.38,4.38,0,0,1-.4.59,2.63,2.63,0,0,1-.5.5A1.51,1.51,0,0,1,70,237h0l-.33.06a1.11,1.11,0,0,1-.32,0,1,1,0,0,1-.79-.5,2,2,0,0,1-.24-1v-.32l0-.12c0-.11,0-.22.07-.33h0a3.16,3.16,0,0,1,.34-.76,2.11,2.11,0,0,1,.47-.57h0a2.11,2.11,0,0,1,.31-.21h0a1.63,1.63,0,0,1,.38-.17l.06,0h0l.13,0h.29v-.19H70.3l-.14,0h0l-.24,0h0a1.84,1.84,0,0,0-.36.15l-.38.25a3.48,3.48,0,0,0-.66.67,3.18,3.18,0,0,0-.42.82,2.52,2.52,0,0,0-.13.47,4.07,4.07,0,0,0,0,.52,1.93,1.93,0,0,0,0,.42,1.21,1.21,0,0,0,.12.38,1.31,1.31,0,0,0,.68.69,1.69,1.69,0,0,0,1.1,0,2.45,2.45,0,0,0,.74-.37h0a2.66,2.66,0,0,0,.58-.62l.48.15v2.26l.29-.08v-3.6a2.51,2.51,0,0,1,.13-.79,3.94,3.94,0,0,1,.37-.83h0a3.06,3.06,0,0,1,.61-.8,1.8,1.8,0,0,1,.75-.43h0a1.51,1.51,0,0,1,.33-.07.89.89,0,0,1,.33,0h0a1.6,1.6,0,0,1,.29.11.92.92,0,0,1,.24.17h0a1.59,1.59,0,0,1,.35,1.13,3,3,0,0,1-.19,1,7.5,7.5,0,0,1-.56,1.15h0l-.22.36h0l-.27.46h0l-.06.08.18.11.3-.45,0-.06h0l.33-.55h0a7.49,7.49,0,0,0,.59-1.23,3.3,3.3,0,0,0,.19-1,1.88,1.88,0,0,0-.13-.74,1.31,1.31,0,0,0-.37-.53h0a1.08,1.08,0,0,0-.54-.25h0a1.92,1.92,0,0,0-.77.07h0l-.18.05h0l-.15,0-.15.1h0l-.16.13-.28.26h0l-.07.06-.11.16,0,.06h0l-.23.31-.06.08Zm.53-2.48v1.69l0,0,.08-.08.29-.27h0a1.46,1.46,0,0,1,.21-.16h0l.21-.13.06,0,.19,0h0l.18-.05h0a2.42,2.42,0,0,1,1-.08h0a1.59,1.59,0,0,1,.81.37h0a1.86,1.86,0,0,1,.51.73,2.49,2.49,0,0,1,.16.93,3.71,3.71,0,0,1-.21,1.16,7.57,7.57,0,0,1-.64,1.33l-.33.57h0l0,.07c-.16.23-.33.47-.44.64l-.13.22-.22-.13-.69-.42-.44-.26.47-.2,0,0h0l.1-.13h0l.27-.46h0l.21-.36h0a6.41,6.41,0,0,0,.52-1.06,2.5,2.5,0,0,0,.17-.83,1.09,1.09,0,0,0-.21-.77.24.24,0,0,0-.11-.08h0a.75.75,0,0,0-.18-.07h-.15l-.23,0h0a1.3,1.3,0,0,0-.53.32,2.67,2.67,0,0,0-.51.67h0a3.53,3.53,0,0,0-.32.73h0a2.17,2.17,0,0,0-.1.64v4l-.19.06-.81.24-.34.1V237l-.23.19h0a3,3,0,0,1-.89.46,2.23,2.23,0,0,1-1.44,0,1.75,1.75,0,0,1-1-1h0a2.24,2.24,0,0,1-.16-.5,3.05,3.05,0,0,1,0-.52,4.07,4.07,0,0,1,0-.61,4.94,4.94,0,0,1,.15-.55,3.59,3.59,0,0,1,1.26-1.73h0a3.79,3.79,0,0,1,.45-.29h0a2.07,2.07,0,0,1,.47-.2h0l.29-.05.16,0H71v1.28h-.43l-.11,0,0,0h0l-.07,0h0l-.09,0h0l-.07,0h0a1.69,1.69,0,0,0-.27.11h0l-.23.17h0a1.58,1.58,0,0,0-.36.43,3,3,0,0,0-.29.65h0a2.56,2.56,0,0,0,0,.27h0l0,.1v.26a1.53,1.53,0,0,0,.16.79.53.53,0,0,0,.41.25h.2a1.18,1.18,0,0,0,.25,0h0a1.2,1.2,0,0,0,.39-.2,2.65,2.65,0,0,0,.41-.41,3,3,0,0,0,.34-.51h0a1.18,1.18,0,0,0,.15-.46c0-.48,0-1,0-1.44h0c0-.26,0-.52,0-.74v-1.85l-2.06.64-2.39.78-.35.12v-1.27l.18-.06c1.72-.57,3.41-1.09,5.08-1.59s3.07-.89,4.61-1.3h0l.2-.05h0l-.93-.45h0L74,227l-.27-.13.16-.24.53-.79h0l.07-.11.16-.23.22.17c.47.37,1,.75,1.45,1.15l1.36,1.09.44-.11-2.45-3-.15-.2.18-.16.36-.32h0l.36-.32.23-.21.17.26c.21.34.44.69.67,1l.58.88h0c.19.3.41.63.63,1h0l.54.82.65-.15h0l.21,0h.08l.2,0,.32-.08h0l2.3-.48,2.58-.49h0l.22,0,.27,0,.14,0h0l1.53-.26h0l1.37-.21h0l.21,0,.37-.06.31,0h0c1.37-.19,2.75-.37,4.14-.53,1.58-.19,3.18-.37,4.8-.52l.29,0v1.24l-.24,0-1.07.09v8.4l-.24,0-.47,0-.35,0-.28,0V229h0l-.22.14-.22.16-.39.39-.24.36-.17.31h0l-.06.1c0,.13-.12.28-.18.42l0,.1-.07.21-.06.2-.1.31-.28-.16-.66-.37-.14-.08v-.35l0-.1.11-.28,0,0,.14-.28h0l.14-.25.06-.15-.13-.13h0a1.67,1.67,0,0,0-.38-.2h0l-.35-.12h0l-.15-.05H93a1.31,1.31,0,0,0-.28,0,1.06,1.06,0,0,0-.54.21h0a1.6,1.6,0,0,0-.46.55h0a2,2,0,0,0-.18.46h0a1.84,1.84,0,0,0-.06.47,2,2,0,0,0,.29,1,2.73,2.73,0,0,0,.93.84l.52.31.8.32.27.1-.13.25-.2.39h0l-.19.4-.06.12-.14,0a1.78,1.78,0,0,1-1.11-.29,6.89,6.89,0,0,1-1.25-1,4.55,4.55,0,0,1-.46-.54h0a2.55,2.55,0,0,1-.32-.61,4.77,4.77,0,0,1-.19-.68,3.09,3.09,0,0,1-.06-.61,3.6,3.6,0,0,1,0-.58h0a4.94,4.94,0,0,1,.15-.55h0a3,3,0,0,1,.53-.89,2.84,2.84,0,0,1,.82-.66l.22-.11.24-.09h0l.27-.08h0a1.47,1.47,0,0,1,.27,0,1.91,1.91,0,0,1,.47,0h0l.39.05h0a3,3,0,0,1,.43.12h0a1.66,1.66,0,0,1,.41.23l.21.16.21.16,0,0,.06,0,0,0,.28-.25h0l.23-.19,0,0,.35-.18h0l.41-.17.08,0h.12v-1.81c-1.16.12-2.3.26-3.44.4l-3.73.51-.24,0-.71.11v8.4l-.22,0h-.08l-.75.12-.31.06v-8.41l-1.21.22-.31,0h0l-.21,0h0l-.06,0,.07.09h0a1.64,1.64,0,0,1,.16.29c0,.09.07.19.1.28h0v.06h0c0,.15.09.32.14.46v.06l0,.21h0a2.22,2.22,0,0,1,0,.38h0a3.74,3.74,0,0,1-.22,1.32,5.21,5.21,0,0,1-.65,1.23h0a3.87,3.87,0,0,1-1.69,1.35l.7.52h0l1.49,1.11.21.16-.16.21-.55.7-.16.21-.21-.16-1.89-1.42h0l-1.89-1.4-.2-.16.15-.2.27-.37h0l.28-.38.16-.2.21.15.15.11h0l.31.22.25-.06h0l.17,0,.1,0h0l.26-.12a.91.91,0,0,0,.22-.11h0a.9.9,0,0,0,.19-.15l.36-.34.14-.12c.09-.13.19-.26.29-.38l.07-.09.1-.23h0l.11-.23v-.07l-.16.16a2.2,2.2,0,0,1-.32.21l-.28.13h0l-.28.09a1.46,1.46,0,0,1-.46,0,2.28,2.28,0,0,1-.39-.06,1.63,1.63,0,0,1-.69-.33,1.85,1.85,0,0,1-.48-.63h0a1.73,1.73,0,0,1-.15-.8h0a2.14,2.14,0,0,1,.13-.66h0a1,1,0,0,1,.09-.22l-.76.16h0l-.21,0-1.33.3v8.4l-.21,0-.6.14h0l-.23,0-.33.08v-8.39l-1.09.27c-.7.17-1.39.36-2.09.55h0Z"/><path class="cls-17" d="M58.14,285.85V263.42H69.27v2.33H60.61V273H68.7v2.27H60.61v8.26h8.74v2.36Z"/><path class="cls-17" d="M72.11,280.81h2.33a.51.51,0,0,1,0,.09,3.5,3.5,0,0,0,0,.48,2.67,2.67,0,0,0,.78,2.08,3.21,3.21,0,0,0,2.26.71,3,3,0,0,0,2.14-.72,2.59,2.59,0,0,0,.78-2q0-2-3-3l-.06,0a9.68,9.68,0,0,1-3.94-2.11,5.37,5.37,0,0,1,.38-6.48,5,5,0,0,1,3.59-1.23A5.19,5.19,0,0,1,81,269.78a4.62,4.62,0,0,1,1.24,3.48v.24H80a3.55,3.55,0,0,0-.69-2.21,2.4,2.4,0,0,0-1.9-.69,3,3,0,0,0-2.07.65,2.51,2.51,0,0,0-.69,1.93,2.73,2.73,0,0,0,.18,1,1.72,1.72,0,0,0,.54.72,7.84,7.84,0,0,0,2.55,1.17c.67.21,1.2.39,1.57.54a5.3,5.3,0,0,1,2.47,1.7,4.49,4.49,0,0,1,.75,2.71,5.11,5.11,0,0,1-1.45,3.89,5.8,5.8,0,0,1-4.13,1.37,4.94,4.94,0,0,1-3.72-1.3,5.32,5.32,0,0,1-1.26-3.84Z"/><path class="cls-17" d="M88.48,282.38a1.85,1.85,0,0,0,.38,1.38,3.1,3.1,0,0,0,1.8.33H91l.21,0v2.05l-.58,0-1.15,0a3.86,3.86,0,0,1-2.47-.66,2.43,2.43,0,0,1-.81-2V271H83.86v-1.94h2.33v-4.47h2.29v4.47H91.2V271H88.48Z"/><path class="cls-17" d="M103.82,285.85h-2.2v-2.11a3.14,3.14,0,0,1-1.31,1.77,4,4,0,0,1-2.33.67,4.32,4.32,0,0,1-4-2.36,14,14,0,0,1-1.36-6.88A11.42,11.42,0,0,1,94,270.85a4.28,4.28,0,0,1,3.82-2.16,4.47,4.47,0,0,1,2.33.6,2.62,2.62,0,0,1,1.28,1.53v-7.4h2.36Zm-2.2-8.51a12.62,12.62,0,0,0-.72-5.11,2.53,2.53,0,0,0-2.46-1.44A2.57,2.57,0,0,0,96,272.35a11.25,11.25,0,0,0-.79,4.82,13.57,13.57,0,0,0,.75,5.28,2.5,2.5,0,0,0,2.39,1.64,2.59,2.59,0,0,0,2.49-1.55A12.64,12.64,0,0,0,101.62,277.34Z"/><path class="cls-17" d="M107.94,285.85v-3.07h2.65v3.07Z"/><path class="cls-17" d="M114.47,285.84q0-.15,0-.33V285a9.22,9.22,0,0,1,1-4.14,12.38,12.38,0,0,1,2.95-3.71c.26-.22.62-.55,1.1-1a35.57,35.57,0,0,0,3-2.87,4.32,4.32,0,0,0,.89-1.63,7.4,7.4,0,0,0,.28-2.18,4.55,4.55,0,0,0-.86-3,3,3,0,0,0-2.45-1,2.8,2.8,0,0,0-2.44,1.15,6.08,6.08,0,0,0-.81,3.48q0,.5,0,.75h-2.42c0-.09,0-.22,0-.4s0-.32,0-.4a7.58,7.58,0,0,1,1.5-5,5.32,5.32,0,0,1,4.28-1.77,5.6,5.6,0,0,1,4.25,1.61,6.28,6.28,0,0,1,1.53,4.5,9.94,9.94,0,0,1-.3,2.58,7,7,0,0,1-1,2.08,14.61,14.61,0,0,1-2.93,2.85l-.86.7a17.9,17.9,0,0,0-3.23,3.26,5.2,5.2,0,0,0-1,2.73h9.44v2.3Z"/><path class="cls-17" d="M129.24,274.75q0-6.3,1.39-8.88a4.91,4.91,0,0,1,4.67-2.57,5.27,5.27,0,0,1,2.81.72,5.85,5.85,0,0,1,2,2.22,9.31,9.31,0,0,1,.93,3.12,38,38,0,0,1,.29,5.42q0,6.25-1.38,8.88a4.78,4.78,0,0,1-4.59,2.64,5,5,0,0,1-4.74-2.58C129.7,282,129.24,279,129.24,274.75Zm2.59-.06q0,5.44.78,7.44a2.76,2.76,0,0,0,2.71,2,2.69,2.69,0,0,0,2.69-1.8q.75-1.8.75-7.6,0-5.4-.77-7.33a2.88,2.88,0,0,0-5.4-.08Q131.83,269.16,131.83,274.69Z"/><path class="cls-17" d="M144.09,274.75q0-6.3,1.4-8.88a4.89,4.89,0,0,1,4.66-2.57A5.28,5.28,0,0,1,153,264a5.93,5.93,0,0,1,2,2.22,9.31,9.31,0,0,1,.93,3.12,38,38,0,0,1,.29,5.42q0,6.25-1.38,8.88a4.78,4.78,0,0,1-4.59,2.64,5,5,0,0,1-4.74-2.58Q144.09,281.14,144.09,274.75Zm2.6-.06q0,5.44.78,7.44a2.75,2.75,0,0,0,2.71,2,2.7,2.7,0,0,0,2.69-1.8q.75-1.8.75-7.6,0-5.4-.77-7.33a2.89,2.89,0,0,0-5.41-.08Q146.69,269.16,146.69,274.69Z"/><path class="cls-17" d="M158.86,280h2.45v.19a4.41,4.41,0,0,0,.87,2.92,3.07,3.07,0,0,0,2.47,1,3,3,0,0,0,2.68-1.4,7.36,7.36,0,0,0,.93-4.07,7.09,7.09,0,0,0-.92-4,3.12,3.12,0,0,0-2.75-1.34,3.61,3.61,0,0,0-2,.55,2.79,2.79,0,0,0-1.14,1.54l-2.11-.18,1.22-11.52H170V266h-7.51l-.81,6.69a2.42,2.42,0,0,1,1.29-1.17,5.19,5.19,0,0,1,2.23-.45,5,5,0,0,1,4.14,2,8.45,8.45,0,0,1,1.52,5.33,9.49,9.49,0,0,1-1.62,5.9,5.39,5.39,0,0,1-4.55,2.1,5.51,5.51,0,0,1-4.3-1.63A6.89,6.89,0,0,1,158.86,280Z"/><path class="cls-17" d="M593.21,0V27.82h-2.5c-1.55-6.42-3.24-11-5.11-13.83a19.81,19.81,0,0,0-7.71-6.71q-2.73-1.37-9.58-1.37h-7.37V85.49q0,8,.81,10a7.64,7.64,0,0,0,3.19,3.47,12.09,12.09,0,0,0,6.51,1.5h3.19v2.65H523.8v-2.65H527a12.79,12.79,0,0,0,6.78-1.6,7.26,7.26,0,0,0,2.92-3.68c.52-1.22.79-4.43.79-9.64V5.91h-7.08q-9.79,0-14.24,4.4-6.23,6.14-7.86,17.51h-2.8V0ZM442,5.91v42H444c6.22,0,10.71-2.05,13.51-6.14s4.57-10.13,5.33-18.11h2.8V77.57h-2.8a41.72,41.72,0,0,0-3.64-14.43c-1.86-3.76-4-6.27-6.45-7.57s-6-1.94-10.69-1.94v29c0,5.67.22,9.12.69,10.39a6,6,0,0,0,2.55,3.11c1.26.8,3.27,1.22,6.05,1.22h5.84q13.67,0,21.93-6.66t11.84-20.31h2.68l-4.4,32.72H404.87v-2.65h3.22a12.9,12.9,0,0,0,6.83-1.6,6.86,6.86,0,0,0,2.87-3.68c.52-1.22.79-4.43.79-9.64V17.57a56.19,56.19,0,0,0-.37-8.66,7.18,7.18,0,0,0-2.65-4.12,11.83,11.83,0,0,0-7.47-2.15h-3.22V0h81.65V30.47h-2.8q-2.07-11.19-5.85-16a21.6,21.6,0,0,0-10.63-7.15c-2.68-.91-7.69-1.37-15.06-1.37Zm-43.65,94.5v2.65H347.52v-2.65h3.22a12.93,12.93,0,0,0,6.83-1.6,6.86,6.86,0,0,0,2.87-3.68c.52-1.22.79-4.43.79-9.64V17.57c0-5.32-.27-8.63-.79-9.95a7.53,7.53,0,0,0-3.19-3.47,12.09,12.09,0,0,0-6.51-1.51h-3.22V0h50.84V2.64h-3.21a12.79,12.79,0,0,0-6.78,1.61,7.29,7.29,0,0,0-2.93,3.68c-.51,1.22-.78,4.43-.78,9.64V85.49q0,8,.81,10a7.67,7.67,0,0,0,3.22,3.47,12,12,0,0,0,6.46,1.5ZM274.77,0l48.11,63.83V19.59c0-6.25-.83-10.44-2.52-12.65-2.31-3-6.19-4.4-11.62-4.3V0H341V2.64c-4.12.57-6.9,1.3-8.32,2.18a9,9,0,0,0-3.32,4.38c-.79,2-1.18,5.49-1.18,10.39v85.8h-2.43L259.81,19.48v65.7q0,8.94,3.86,12.1a13.66,13.66,0,0,0,8.86,3.13h2.31v2.65H240.06v-2.65c5.41,0,9.14-1.21,11.28-3.52s3.16-6.19,3.16-11.71V12.31l-2-2.67C250.4,6.84,248.58,5,247,4.12a15.46,15.46,0,0,0-6.83-1.48V0Z"/><path class="cls-17" d="M576.17,194.1v-8.22a16.2,16.2,0,0,0-5,4,4.74,4.74,0,0,0-1.08,2.88,2.89,2.89,0,0,0,.92,2.13,2.58,2.58,0,0,0,2,.71,5.42,5.42,0,0,0,3.23-1.51m0,2q-4.77,4-8.55,4a5.19,5.19,0,0,1-3.71-1.39,4.56,4.56,0,0,1-1.47-3.47,6.65,6.65,0,0,1,2.56-5.08q2.57-2.27,11.17-6v-2.48a11.11,11.11,0,0,0-.33-3.52,2.89,2.89,0,0,0-1.21-1.26,3.83,3.83,0,0,0-2-.54,5.3,5.3,0,0,0-3,.77,1.33,1.33,0,0,0-.72,1.11,2.27,2.27,0,0,0,.78,1.37,3.3,3.3,0,0,1,1.06,2.19,2.83,2.83,0,0,1-1,2.19,3.79,3.79,0,0,1-2.65.91,4.36,4.36,0,0,1-2.93-1,3,3,0,0,1-1.19-2.34,5.31,5.31,0,0,1,1.59-3.63,10.27,10.27,0,0,1,4.42-2.65,19.15,19.15,0,0,1,5.9-.92,10.17,10.17,0,0,1,5.86,1.49,7,7,0,0,1,2.8,3.22,19.89,19.89,0,0,1,.39,5.09v9.56a9.45,9.45,0,0,0,.14,2.11,1.29,1.29,0,0,0,.42.65,1,1,0,0,0,.64.21,2.07,2.07,0,0,0,1.5-.95l.83.62a9.86,9.86,0,0,1-2.88,2.84,6.4,6.4,0,0,1-3.38.9,5.53,5.53,0,0,1-3.49-1A4.44,4.44,0,0,1,576.17,196.05Zm-28.61-15.41c-1.35-2.49-3-3.73-5-3.73a2.66,2.66,0,0,0-1.69.52,6,6,0,0,0-1.67,2.87,22.59,22.59,0,0,0-.65,6.29,24.4,24.4,0,0,0,.72,6.91,6.64,6.64,0,0,0,2,3.23,2.79,2.79,0,0,0,1.74.5q2.43,0,4.58-3.64Zm7.81-16.76v28.43a17,17,0,0,0,.17,3.38,2.05,2.05,0,0,0,.84,1.29,4.68,4.68,0,0,0,2.18.52v.92l-11,2v-3.91a13.23,13.23,0,0,1-3.5,3.09,7.23,7.23,0,0,1-3.47.82,9,9,0,0,1-7.85-4.21,14.68,14.68,0,0,1-2.32-8.41,17,17,0,0,1,1.44-7.13,10.79,10.79,0,0,1,3.95-4.76,9.8,9.8,0,0,1,5.38-1.6,7.55,7.55,0,0,1,3.3.69,11,11,0,0,1,3.07,2.39v-7.51a13,13,0,0,0-.24-3.38,2.31,2.31,0,0,0-1-1.12,5.89,5.89,0,0,0-2.51-.37v-1.13ZM524.45,175v19.58c0,1.75.22,2.88.64,3.37a3.66,3.66,0,0,0,2.55.84v.92H513.45v-.92a3.55,3.55,0,0,0,2.62-1c.38-.41.57-1.5.57-3.25V180.15c0-1.77-.21-2.88-.65-3.38a3.7,3.7,0,0,0-2.54-.84V175Zm-3.91-11.94a4.23,4.23,0,0,1,3.05,1.19,3.88,3.88,0,0,1,1.26,2.9,3.78,3.78,0,0,1-1.27,2.88,4.29,4.29,0,0,1-3,1.19,4.24,4.24,0,0,1-3-1.19,3.81,3.81,0,0,1-1.26-2.88,3.88,3.88,0,0,1,1.26-2.9A4.2,4.2,0,0,1,520.54,163.07Zm-22.32,13.08a3.28,3.28,0,0,0-2.42,1c-.68.67-1.12,2-1.33,4a80.42,80.42,0,0,0-.33,8.31,35,35,0,0,0,.39,5.29,5,5,0,0,0,1.3,2.84,3.33,3.33,0,0,0,4.35.32,4.44,4.44,0,0,0,1.45-2.51,57.91,57.91,0,0,0,.55-10.12,23.45,23.45,0,0,0-.53-6.16,4.68,4.68,0,0,0-1.55-2.44A3,3,0,0,0,498.22,176.15Zm-.13-1.84a12.52,12.52,0,0,1,6.3,1.66,10.91,10.91,0,0,1,4.42,4.72,14.83,14.83,0,0,1,1.51,6.69,13.65,13.65,0,0,1-2.8,8.77,11.26,11.26,0,0,1-9.34,4.27c-3.9,0-6.91-1.29-9-3.9a13.9,13.9,0,0,1-3.16-9,14.08,14.08,0,0,1,3.23-9.23A10.84,10.84,0,0,1,498.09,174.31Zm-41.18-10.43,18.6,22.2V170.69c0-2.17-.32-3.63-1-4.4q-1.33-1.54-4.49-1.49v-.92h12.48v.92a10.08,10.08,0,0,0-3.22.75,3.18,3.18,0,0,0-1.28,1.53,9.87,9.87,0,0,0-.46,3.61v29.84h-.94l-25.49-29.88V193.5c0,2.08.49,3.48,1.49,4.21a5.68,5.68,0,0,0,3.43,1.09h.89v.92H443.5v-.92c2.09,0,3.53-.42,4.36-1.22s1.22-2.16,1.22-4.08V168.16l-.79-.93a7.29,7.29,0,0,0-2.11-1.92,6.35,6.35,0,0,0-2.64-.51v-.92ZM417,175l0,5.63a18,18,0,0,1,4.51-5.08,6.92,6.92,0,0,1,3.73-1.25,3.18,3.18,0,0,1,3.41,3.48,3.9,3.9,0,0,1-.9,2.74,2.84,2.84,0,0,1-2.17,1,3.88,3.88,0,0,1-2.54-.89,14.13,14.13,0,0,0-1.27-1,1.23,1.23,0,0,0-.63-.16,2.38,2.38,0,0,0-1.52.57,5.54,5.54,0,0,0-1.72,2.57,17.21,17.21,0,0,0-.88,5.65v7.16a5.83,5.83,0,0,0,.2,1.94,2.11,2.11,0,0,0,1,1,6.1,6.1,0,0,0,2.23.41v.92H406.33v-.92a3.21,3.21,0,0,0,2.3-.88c.4-.51.6-1.83.6-4V180.26a9.93,9.93,0,0,0-.23-2.74,2.09,2.09,0,0,0-.8-1.1,4.47,4.47,0,0,0-1.87-.49V175Zm-20.84,9.74a23.4,23.4,0,0,0-.48-5.83,4.84,4.84,0,0,0-1.52-2.4,2.39,2.39,0,0,0-1.57-.48,2.77,2.77,0,0,0-2.36,1.34,11.15,11.15,0,0,0-1.65,6.45v.92Zm6.84,1.73h-14.3a12.34,12.34,0,0,0,2.76,7.75,5.94,5.94,0,0,0,4.62,2.19,5.46,5.46,0,0,0,3-.88,11.49,11.49,0,0,0,2.93-3.17l1,.59a15.06,15.06,0,0,1-4.68,5.77,10.47,10.47,0,0,1-5.93,1.69c-3.85,0-6.78-1.4-8.76-4.21a14.25,14.25,0,0,1-2.39-8.44q0-6.17,3.52-9.81a11.11,11.11,0,0,1,8.25-3.65,9.11,9.11,0,0,1,6.85,3.07Q402.75,180.44,403,186.48Zm-30.71-20.55V175h6.16v2.6h-6.16v15.25a11,11,0,0,0,.21,2.77,1.94,1.94,0,0,0,.73,1,1.71,1.71,0,0,0,1,.39c1.21,0,2.34-.87,3.41-2.6l.84.58q-2.25,5-7.31,5.05a6.69,6.69,0,0,1-4.19-1.31,5.76,5.76,0,0,1-2.18-2.92,24.2,24.2,0,0,1-.28-4.87V177.61h-3.42v-.93a35.4,35.4,0,0,0,6-5,29.63,29.63,0,0,0,4.31-5.8ZM347.84,194.1v-8.22a16.27,16.27,0,0,0-5,4,4.7,4.7,0,0,0-1.09,2.88,2.9,2.9,0,0,0,.93,2.13,2.56,2.56,0,0,0,1.94.71A5.42,5.42,0,0,0,347.84,194.1Zm0,2c-3.17,2.66-6,4-8.54,4a5.2,5.2,0,0,1-3.72-1.39,4.6,4.6,0,0,1-1.47-3.47,6.68,6.68,0,0,1,2.56-5.08q2.56-2.27,11.17-6v-2.48a11.55,11.55,0,0,0-.32-3.52,2.92,2.92,0,0,0-1.22-1.26,3.83,3.83,0,0,0-2-.54,5.27,5.27,0,0,0-3,.77,1.3,1.3,0,0,0-.72,1.11,2.24,2.24,0,0,0,.77,1.37,3.26,3.26,0,0,1,1.06,2.19,2.8,2.8,0,0,1-1,2.19,3.78,3.78,0,0,1-2.65.91,4.38,4.38,0,0,1-2.93-1,3,3,0,0,1-1.19-2.34,5.36,5.36,0,0,1,1.59-3.63,10.27,10.27,0,0,1,4.42-2.65,19.22,19.22,0,0,1,5.91-.92,10.19,10.19,0,0,1,5.86,1.49,7.05,7.05,0,0,1,2.8,3.22,20.56,20.56,0,0,1,.38,5.09v9.56a8.64,8.64,0,0,0,.15,2.11,1.23,1.23,0,0,0,.42.65,1,1,0,0,0,.63.21,2.07,2.07,0,0,0,1.5-.95l.84.62a9.77,9.77,0,0,1-2.89,2.84,6.4,6.4,0,0,1-3.38.9,5.48,5.48,0,0,1-3.48-1A4.4,4.4,0,0,1,347.84,196.05Zm-24.43-11.3a23.4,23.4,0,0,0-.48-5.83,4.78,4.78,0,0,0-1.52-2.4,2.39,2.39,0,0,0-1.57-.48,2.78,2.78,0,0,0-2.36,1.34,11.15,11.15,0,0,0-1.64,6.45v.92Zm6.84,1.73H316a12.34,12.34,0,0,0,2.76,7.75,6,6,0,0,0,4.63,2.19,5.42,5.42,0,0,0,3-.88,11.34,11.34,0,0,0,2.93-3.17l.95.59a15.05,15.05,0,0,1-4.67,5.77,10.52,10.52,0,0,1-5.94,1.69q-5.77,0-8.76-4.21a14.32,14.32,0,0,1-2.39-8.44q0-6.17,3.52-9.81a11.13,11.13,0,0,1,8.25-3.65,9.15,9.15,0,0,1,6.86,3.07Q330,180.44,330.25,186.48ZM294.73,175l0,5.63a17.88,17.88,0,0,1,4.51-5.08,6.92,6.92,0,0,1,3.73-1.25,3.18,3.18,0,0,1,3.41,3.48,3.9,3.9,0,0,1-.9,2.74,2.84,2.84,0,0,1-2.17,1,3.86,3.86,0,0,1-2.54-.89,14.13,14.13,0,0,0-1.27-1,1.24,1.24,0,0,0-.64-.16,2.37,2.37,0,0,0-1.51.57,5.54,5.54,0,0,0-1.72,2.57,17.21,17.21,0,0,0-.88,5.65v7.16a5.83,5.83,0,0,0,.2,1.94,2.11,2.11,0,0,0,1,1,6.1,6.1,0,0,0,2.23.41v.92H284.08v-.92a3.23,3.23,0,0,0,2.3-.88c.4-.51.6-1.83.6-4V180.26a9.93,9.93,0,0,0-.23-2.74,2.09,2.09,0,0,0-.8-1.1,4.51,4.51,0,0,0-1.87-.49V175ZM277,163.07v12.59h-1a16,16,0,0,0-5.6-7.81,13.72,13.72,0,0,0-8.16-2.68,10.88,10.88,0,0,0-7.05,2.26,12.08,12.08,0,0,0-4,6.29,29.58,29.58,0,0,0-1.17,8.28,28.93,28.93,0,0,0,1.27,9,10.29,10.29,0,0,0,4.13,5.69,12.23,12.23,0,0,0,6.76,1.82,14.19,14.19,0,0,0,2.79-.28,20.18,20.18,0,0,0,2.94-.8V190a7.88,7.88,0,0,0-.31-2.78,2.8,2.8,0,0,0-1.26-1.14,4.86,4.86,0,0,0-2.31-.51h-1v-.92h18.34v.92a8.33,8.33,0,0,0-2.92.55,2.78,2.78,0,0,0-1.26,1.39A7.1,7.1,0,0,0,277,190v7.41a39.45,39.45,0,0,1-7.52,2.31,42,42,0,0,1-8.1.77,24.82,24.82,0,0,1-8.91-1.38,22.19,22.19,0,0,1-6.25-3.65,17.19,17.19,0,0,1-4.24-5.08,16.94,16.94,0,0,1-1.94-8.14,17.93,17.93,0,0,1,6-13.65,21.25,21.25,0,0,1,15.06-5.56,27.9,27.9,0,0,1,5.07.41,26.8,26.8,0,0,1,4,1.2,16.46,16.46,0,0,0,3.24,1,2.27,2.27,0,0,0,1.45-.54,4.75,4.75,0,0,0,1.22-2.05Z"/><path class="cls-17" d="M249.73,135.26v7.54a11.45,11.45,0,0,0,.2,2.78,1.8,1.8,0,0,0,.72.91,3.69,3.69,0,0,0,1.9.35v.74H242.23v-.74a3.56,3.56,0,0,0,1.91-.36,1.8,1.8,0,0,0,.7-.91,11.29,11.29,0,0,0,.2-2.77V125.14a11.45,11.45,0,0,0-.2-2.78,1.73,1.73,0,0,0-.71-.91,3.69,3.69,0,0,0-1.9-.34v-.75h8.85c2.91,0,5,.7,6.27,2.09a7.45,7.45,0,0,1,1.91,5.22A8.1,8.1,0,0,1,258,132.2a6.11,6.11,0,0,1-3.39,2.57A17.36,17.36,0,0,1,249.73,135.26Zm0-13.33v11.76c.33,0,.58,0,.75,0a3.19,3.19,0,0,0,2.82-1.46,8.21,8.21,0,0,0,1-4.5,7.93,7.93,0,0,0-1-4.44,3.4,3.4,0,0,0-3-1.4Z"/><path class="cls-17" d="M268.26,134.49v8.43a10.93,10.93,0,0,0,.18,2.61,1.89,1.89,0,0,0,.67.91,2.12,2.12,0,0,0,1.36.4h.67v.74H260.52v-.74h.67a2.22,2.22,0,0,0,1.43-.43,1.73,1.73,0,0,0,.6-1,11.05,11.05,0,0,0,.16-2.53V125a12,12,0,0,0-.16-2.61,1.89,1.89,0,0,0-.67-.91,2.16,2.16,0,0,0-1.36-.39h-.67v-.75h10.62v.75h-.67a2.27,2.27,0,0,0-1.43.42,1.84,1.84,0,0,0-.61,1,10.81,10.81,0,0,0-.17,2.53v7.71h7.18V125a11.77,11.77,0,0,0-.17-2.61,1.83,1.83,0,0,0-.67-.91,2.18,2.18,0,0,0-1.36-.39h-.66v-.75h10.6v.75h-.66a2.2,2.2,0,0,0-1.42.42,1.84,1.84,0,0,0-.61,1,10.81,10.81,0,0,0-.17,2.53v17.9a11.77,11.77,0,0,0,.17,2.61,1.83,1.83,0,0,0,.67.91,2.12,2.12,0,0,0,1.36.4h.66v.74h-10.6v-.74h.66a2.15,2.15,0,0,0,1.42-.43,1.8,1.8,0,0,0,.61-1,10.81,10.81,0,0,0,.17-2.53v-8.43Z"/><path class="cls-17" d="M296.19,139.83H289l-.85,2.65a7.52,7.52,0,0,0-.42,2.19,2,2,0,0,0,.69,1.68,4.45,4.45,0,0,0,2,.49v.74h-6.75v-.74a2.88,2.88,0,0,0,1.8-1.22,18.63,18.63,0,0,0,1.73-4.1l7.27-21.72h.28l7.33,22.32a15.17,15.17,0,0,0,1.72,4,2.06,2.06,0,0,0,1.44.73v.74h-9.83v-.74h.41a2.43,2.43,0,0,0,1.66-.45,1.22,1.22,0,0,0,.33-.92,3.18,3.18,0,0,0-.09-.74c0-.12-.17-.62-.45-1.51Zm-.51-1.48-3-9.38-3.11,9.38Z"/><path class="cls-17" d="M313.42,135.17v7.63a11.45,11.45,0,0,0,.2,2.78,1.78,1.78,0,0,0,.71.91,3.68,3.68,0,0,0,1.91.35v.74h-10.4v-.74a3.52,3.52,0,0,0,1.91-.36,1.82,1.82,0,0,0,.71-.91,11.29,11.29,0,0,0,.2-2.77V125.14a11.45,11.45,0,0,0-.2-2.78,1.8,1.8,0,0,0-.72-.91,3.66,3.66,0,0,0-1.9-.34v-.75h9.44a15.47,15.47,0,0,1,5.39.69,5.65,5.65,0,0,1,2.79,2.51,8.36,8.36,0,0,1,1.08,4.31,7.57,7.57,0,0,1-1.62,5,6.21,6.21,0,0,1-2.89,1.86l4.88,9.22a13.52,13.52,0,0,0,1.36,2.22,2.18,2.18,0,0,0,1.43.69v.74h-6.4l-6.55-12.41Zm0-13.34v11.92h.85a7.35,7.35,0,0,0,3.12-.51,3.58,3.58,0,0,0,1.63-1.85,8.75,8.75,0,0,0,.59-3.48,7.8,7.8,0,0,0-1.09-4.6,4,4,0,0,0-3.5-1.48Z"/><path class="cls-17" d="M341.74,138.31l5.51-18h8.27v.75h-.66a2.28,2.28,0,0,0-1.44.42,1.87,1.87,0,0,0-.6.94,11,11,0,0,0-.16,2.51v17.94a12,12,0,0,0,.16,2.61,1.83,1.83,0,0,0,.67.91,2.15,2.15,0,0,0,1.37.4h.66v.74H344.91v-.74h.66a2.23,2.23,0,0,0,1.44-.43,1.85,1.85,0,0,0,.6-1,11.05,11.05,0,0,0,.16-2.53V122.75L340,147.58h-.36l-7.9-24.65V142.1a23.23,23.23,0,0,0,.07,2.47,3,3,0,0,0,.85,1.63,2.79,2.79,0,0,0,2,.64v.74h-6.95v-.74h.21a2.5,2.5,0,0,0,1.26-.3,2.08,2.08,0,0,0,.88-.83,4.54,4.54,0,0,0,.47-1.46c0-.15,0-.83,0-2.05V125a11.43,11.43,0,0,0-.17-2.58,1.85,1.85,0,0,0-.67-.9,2.2,2.2,0,0,0-1.36-.39h-.65v-.75H336Z"/><path class="cls-17" d="M368.52,139.83h-7.17l-.86,2.65a7.52,7.52,0,0,0-.42,2.19,2,2,0,0,0,.69,1.68,4.51,4.51,0,0,0,2,.49v.74H356v-.74a2.88,2.88,0,0,0,1.8-1.22,18,18,0,0,0,1.74-4.1l7.26-21.72h.28l7.33,22.32a15.17,15.17,0,0,0,1.72,4,2.06,2.06,0,0,0,1.44.73v.74h-9.83v-.74h.41a2.41,2.41,0,0,0,1.66-.45,1.22,1.22,0,0,0,.33-.92,3.18,3.18,0,0,0-.09-.74c0-.12-.17-.62-.45-1.51Zm-.51-1.48L365,129l-3.12,9.38Z"/><path class="cls-17" d="M398.08,119.74v9.43h-.58a11.16,11.16,0,0,0-2.46-5.66,5.41,5.41,0,0,0-4.07-2,5,5,0,0,0-3.49,1.46,8.56,8.56,0,0,0-2.33,3.84,22.87,22.87,0,0,0-.94,6.74,29.73,29.73,0,0,0,.69,6.65,9.54,9.54,0,0,0,2.16,4.54,5,5,0,0,0,3.8,1.53,5.94,5.94,0,0,0,3.51-1.12,13.9,13.9,0,0,0,3.37-3.87v2.34a11.94,11.94,0,0,1-3.56,3.47,8.49,8.49,0,0,1-4.32,1.07,9.89,9.89,0,0,1-5.78-1.75,11.09,11.09,0,0,1-3.89-5,17.94,17.94,0,0,1-1.37-7,18.33,18.33,0,0,1,1.52-7.38,13,13,0,0,1,4.1-5.42,9,9,0,0,1,5.49-1.93,9.83,9.83,0,0,1,4.53,1.25,5.72,5.72,0,0,0,1.75.72,1,1,0,0,0,.83-.47,3.16,3.16,0,0,0,.46-1.5Z"/><path class="cls-17" d="M421.26,120.36v.75a2.61,2.61,0,0,0-1.54.78,21.84,21.84,0,0,0-2.37,4.59l-4.4,9.86v6.58a12,12,0,0,0,.16,2.62,1.93,1.93,0,0,0,.65.9,2,2,0,0,0,1.3.4h1.14v.74H404.8v-.74h1.06a2.15,2.15,0,0,0,1.42-.43,1.81,1.81,0,0,0,.62-1,11.05,11.05,0,0,0,.16-2.53v-5.46l-4.78-11.66a18,18,0,0,0-2-4.06,2.1,2.1,0,0,0-1.56-.63v-.75h9.74v.75H409a1.72,1.72,0,0,0-1.23.34,1,1,0,0,0-.36.72,14.57,14.57,0,0,0,1.2,3.63l3.67,9L416,126.6a13.12,13.12,0,0,0,1.36-4,1.17,1.17,0,0,0-.39-.9,2.92,2.92,0,0,0-1.87-.6v-.75Z"/><path class="cls-17" d="M439.06,146.84v.74H428.44v-.74h.67a2.19,2.19,0,0,0,1.42-.43,1.73,1.73,0,0,0,.6-1,10.81,10.81,0,0,0,.17-2.53V125a11.77,11.77,0,0,0-.17-2.61,1.86,1.86,0,0,0-.66-.91,2.18,2.18,0,0,0-1.36-.39h-.67v-.75h10.62v.75h-.68a2.24,2.24,0,0,0-1.42.42,1.84,1.84,0,0,0-.61,1,10.81,10.81,0,0,0-.17,2.53v17.9a11.77,11.77,0,0,0,.17,2.61,1.91,1.91,0,0,0,.68.91,2.07,2.07,0,0,0,1.35.4Z"/><path class="cls-17" d="M447.09,120.36l10,16.88v-11.7a7.08,7.08,0,0,0-.52-3.31,2.52,2.52,0,0,0-2.41-1.12v-.75h6.71v.75a3.92,3.92,0,0,0-1.73.57,2.18,2.18,0,0,0-.69,1.14,10.08,10.08,0,0,0-.25,2.72V148.2h-.51L444,125.54v17.3a4.59,4.59,0,0,0,.8,3.17,2.48,2.48,0,0,0,1.83.83h.48v.74h-7.2v-.74a2.75,2.75,0,0,0,2.33-.93,5.35,5.35,0,0,0,.66-3.07V123.63l-.43-.72a4.59,4.59,0,0,0-1.14-1.42,2.61,2.61,0,0,0-1.42-.38v-.75Z"/><path class="cls-17" d="M475.71,119.74l.16,9.07h-.61a10.58,10.58,0,0,0-2.14-5.49,4.79,4.79,0,0,0-3.67-2.07,2.94,2.94,0,0,0-2.42,1.09,4,4,0,0,0-.58,4.12,6.21,6.21,0,0,0,1.39,1.87,30.56,30.56,0,0,0,3.25,2.35,15.27,15.27,0,0,1,4.81,4.43,9.27,9.27,0,0,1,1.23,4.78,9,9,0,0,1-2,5.87,6.19,6.19,0,0,1-5,2.46,6.28,6.28,0,0,1-1.81-.26,11.31,11.31,0,0,1-2.14-1,2.55,2.55,0,0,0-1.18-.4,1.26,1.26,0,0,0-.83.4,2.77,2.77,0,0,0-.7,1.22h-.56V137.92h.56a13.43,13.43,0,0,0,2.54,6.62,5.29,5.29,0,0,0,4,2.28,3.25,3.25,0,0,0,2.67-1.23,4.33,4.33,0,0,0,1-2.85,4.8,4.8,0,0,0-.38-1.86,5.68,5.68,0,0,0-1.16-1.72A17.36,17.36,0,0,0,469.4,137a22.94,22.94,0,0,1-4-3.11,9.41,9.41,0,0,1-1.87-2.87,9.19,9.19,0,0,1-.65-3.49,8.72,8.72,0,0,1,1.78-5.54,5.47,5.47,0,0,1,4.5-2.29,5.93,5.93,0,0,1,1.91.32,8.63,8.63,0,0,1,1.72.89,3.33,3.33,0,0,0,1.41.66.73.73,0,0,0,.62-.32,4.57,4.57,0,0,0,.42-1.55Z"/><path class="cls-17" d="M497.4,120.36v7.37h-.54a14.09,14.09,0,0,0-1.06-3.66,4.67,4.67,0,0,0-1.6-1.78,4,4,0,0,0-2-.36h-1.51v21a11.77,11.77,0,0,0,.17,2.61,1.91,1.91,0,0,0,.68.91,2.11,2.11,0,0,0,1.37.4h.67v.74H483v-.74h.67a2.19,2.19,0,0,0,1.42-.43,1.81,1.81,0,0,0,.62-1,11.05,11.05,0,0,0,.16-2.53v-21h-1.47a3.61,3.61,0,0,0-3,1.16,9,9,0,0,0-1.64,4.64h-.57v-7.37Z"/><path class="cls-17" d="M509.43,146.84v.74H498.81v-.74h.68a2.19,2.19,0,0,0,1.42-.43,1.73,1.73,0,0,0,.6-1,10.81,10.81,0,0,0,.17-2.53V125a11.77,11.77,0,0,0-.17-2.61,1.83,1.83,0,0,0-.67-.91,2.13,2.13,0,0,0-1.35-.39h-.68v-.75h10.62v.75h-.67a2.24,2.24,0,0,0-1.42.42,1.85,1.85,0,0,0-.62,1,11.05,11.05,0,0,0-.16,2.53v17.9a11.77,11.77,0,0,0,.17,2.61,2,2,0,0,0,.67.91,2.12,2.12,0,0,0,1.36.4Z"/><path class="cls-17" d="M529.18,120.36v7.37h-.54a14.09,14.09,0,0,0-1.06-3.66,4.59,4.59,0,0,0-1.6-1.78,4,4,0,0,0-2-.36h-1.51v21a11.77,11.77,0,0,0,.17,2.61,1.91,1.91,0,0,0,.68.91,2.11,2.11,0,0,0,1.37.4h.67v.74H514.73v-.74h.67a2.19,2.19,0,0,0,1.42-.43,1.81,1.81,0,0,0,.62-1,11.05,11.05,0,0,0,.16-2.53v-21h-1.46a3.62,3.62,0,0,0-3,1.16,9,9,0,0,0-1.64,4.64h-.57v-7.37Z"/><path class="cls-17" d="M530.7,120.36h10.49v.75h-.53a2.83,2.83,0,0,0-1.62.33,1.71,1.71,0,0,0-.63.91,12.65,12.65,0,0,0-.19,2.91v13.33a18.1,18.1,0,0,0,.41,4.83,4.41,4.41,0,0,0,1.36,2,3.61,3.61,0,0,0,2.38.78,4.19,4.19,0,0,0,2.81-1,6,6,0,0,0,1.73-2.74,21.65,21.65,0,0,0,.58-6.08v-11.1a8.44,8.44,0,0,0-.28-2.61,2.17,2.17,0,0,0-.72-1.08,3.34,3.34,0,0,0-1.9-.46v-.75h7v.75h-.42a2.16,2.16,0,0,0-1.42.46,2.6,2.6,0,0,0-.83,1.38,9.25,9.25,0,0,0-.19,2.31V135.6a36.12,36.12,0,0,1-.47,6.92,7.84,7.84,0,0,1-2.3,3.91,6.8,6.8,0,0,1-5,1.79,7.38,7.38,0,0,1-4.07-.94,7,7,0,0,1-2.77-3.29,14.76,14.76,0,0,1-.81-5.4V125.26a12.35,12.35,0,0,0-.2-2.92,1.76,1.76,0,0,0-.67-.91,3.09,3.09,0,0,0-1.77-.32Z"/><path class="cls-17" d="M571.18,120.36v7.37h-.54a14,14,0,0,0-1.07-3.66,4.52,4.52,0,0,0-1.6-1.78,4,4,0,0,0-2-.36h-1.51v21a11.15,11.15,0,0,0,.17,2.61,1.89,1.89,0,0,0,.67.91,2.15,2.15,0,0,0,1.37.4h.68v.74H556.72v-.74h.68a2.19,2.19,0,0,0,1.42-.43,1.8,1.8,0,0,0,.61-1,10.81,10.81,0,0,0,.17-2.53v-21h-1.47a3.6,3.6,0,0,0-3,1.16,9,9,0,0,0-1.65,4.64h-.57v-7.37Z"/><path class="cls-17" d="M580.34,121.93V133h.4a2.94,2.94,0,0,0,2.8-1.63,12.45,12.45,0,0,0,1.11-4.8h.57v14.25h-.57a13.39,13.39,0,0,0-.76-3.81,4.17,4.17,0,0,0-1.34-2,4,4,0,0,0-2.21-.51v7.67a14.38,14.38,0,0,0,.14,2.75,1.57,1.57,0,0,0,.53.82,1.94,1.94,0,0,0,1.26.32h1.21a6.08,6.08,0,0,0,4.56-1.76,10.67,10.67,0,0,0,2.47-5.38h.55l-.91,8.65H572.59v-.74h.68a2.21,2.21,0,0,0,1.42-.43,1.73,1.73,0,0,0,.6-1,11.05,11.05,0,0,0,.16-2.53V125a19.58,19.58,0,0,0-.07-2.27,2,2,0,0,0-.56-1.08,2.09,2.09,0,0,0-1.55-.56h-.68v-.75h17v8H589a11.7,11.7,0,0,0-1.22-4.23,4.58,4.58,0,0,0-2.22-1.89,9.17,9.17,0,0,0-3.15-.36Z"/></svg>