<svg id="Layer_1" data-name="Layer 1" xmlns="http://www.w3.org/2000/svg" viewBox="0 0 150 150"><defs><style>.cls-1{fill:#15216b;}.cls-2{fill:none;stroke:#fff;stroke-linecap:round;stroke-linejoin:round;stroke-width:2px;}</style></defs><path class="cls-1" d="M94.28,46H129L86.09,3.13v34.7A8.2,8.2,0,0,0,94.28,46Z"/><path class="cls-1" d="M94.28,49.59A11.78,11.78,0,0,1,82.52,37.83V1.15H29.29A10.25,10.25,0,0,0,19,11.4V138.6a10.25,10.25,0,0,0,10.26,10.25h91.42A10.25,10.25,0,0,0,131,138.6v-89Z"/><line class="cls-2" x1="47.79" y1="121.51" x2="102.21" y2="121.51"/><polyline class="cls-2" points="93.08 87.08 75 106.77 56.91 87.08"/><line class="cls-2" x1="75" y1="106.77" x2="75" y2="59.19"/></svg>