<?xml version="1.0" standalone="no"?>
<!DOCTYPE svg PUBLIC "-//W3C//DTD SVG 1.1//EN" "http://www.w3.org/Graphics/SVG/1.1/DTD/svg11.dtd" >
<svg xmlns="http://www.w3.org/2000/svg" xmlns:xlink="http://www.w3.org/1999/xlink" version="1.1">
<metadata>
Created by FontForge 20170731 at Tue Feb 14 18:40:41 2012
 By Aleksey,,,
Copyright (c) 2011 by Dieter Hofrichter. All rights reserved.
</metadata>
<defs>
<font id="Corda-Medium" horiz-adv-x="379" >
  <font-face 
    font-family="Corda-Medium"
    font-weight="500"
    font-stretch="normal"
    units-per-em="1000"
    panose-1="0 0 0 0 0 0 0 0 0 0"
    ascent="749"
    descent="-251"
    x-height="485"
    cap-height="669"
    bbox="-167 -267 1212 996"
    underline-thickness="50"
    underline-position="-150"
    unicode-range="U+0020-FB06"
  />
<missing-glyph horiz-adv-x="542" 
d="M70 0v668h402v-668h-402zM118 48h305v572h-305v-572z" />
    <glyph glyph-name="f_f" unicode="ff" horiz-adv-x="644" 
d="M289 -1q-59 3 -132 3q-84 0 -121 -3v21q36 2 48 22.5t12 70.5v322h-67v28q41 9 54.5 25.5t21.5 73.5q13 95 67.5 134.5t119.5 39.5q119 0 119 -70q0 -51 -74 -58l-6 5q0 48 -12.5 64.5t-36.5 16.5q-42 0 -60 -44q-12 -29 -12 -103v-65h91q65 0 86 11q21 12 28 78
q11 96 66.5 137.5t119.5 41.5q122 0 122 -70q0 -20 -19 -37.5t-61 -21.5l-6 5q0 48 -12 65t-34 17q-40 0 -58 -44q-11 -30 -11 -103v-79h112v-47h-112v-322q0 -51 17.5 -71t63.5 -22v-21q-59 3 -135 3q-84 0 -121 -3v21q36 2 48.5 22.5t12.5 70.5v322h-198v-322
q0 -51 17.5 -71t61.5 -22v-21z" />
    <glyph glyph-name="fi" unicode="fi" horiz-adv-x="600" 
d="M288 -1q-58 3 -131 3q-84 0 -121 -3v21q36 2 48 22.5t12 70.5v322h-67v28q38 9 52.5 29.5t22.5 72.5t31 89.5t56 57.5t67 29t72 9q76 0 116.5 -25.5t40.5 -64.5q0 -31 -23 -51.5t-68 -24.5l-6 5q0 119 -76 119q-60 0 -84 -50q-20 -40 -20 -141v-35h100q50 0 92 5t48 5
q28 0 42.5 -12t19.5 -42q3 -19 3 -64v-262q0 -48 16 -69t57 -23v-21q-58 3 -136 3q-75 0 -113 -3v21q35 3 48.5 24t13.5 71v200q0 74 -14 97t-61 23h-116v-322q0 -51 17.5 -71t60.5 -22v-21z" />
    <glyph glyph-name="fl" unicode="fl" horiz-adv-x="602" 
d="M292 -1q-58 3 -135 3q-84 0 -121 -3v21q36 2 48 22.5t12 70.5v322h-67v28q40 9 54.5 29.5t21.5 78.5q7 51 29 88t53 55.5t62 27t64 8.5q57 0 104 -17q36 16 55 16q32 0 42 -38q4 -16 4 -68v-536q0 -42 15 -63.5t58 -23.5v-21q-57 3 -133 3q-60 0 -115 -3v21q36 3 48.5 24
t12.5 69v448q0 77 -12 103q-18 44 -71 44q-62 0 -90 -47q-21 -36 -21 -112v-67h120v-47h-120v-322q0 -51 18 -71t64 -22v-21z" />
    <glyph glyph-name="f_f_i" unicode="ffi" horiz-adv-x="911" 
d="M289 -1q-59 3 -132 3q-84 0 -121 -3v21q36 2 48 22.5t12 70.5v322h-67v28q41 9 54.5 25.5t21.5 73.5q13 95 67.5 134.5t119.5 39.5q119 0 119 -70q0 -51 -74 -58l-6 5q0 48 -12.5 64.5t-36.5 16.5q-42 0 -60 -44q-12 -29 -12 -103v-65h91q65 0 86 11q21 12 28 72
q8 68 46.5 111.5t83 58.5t96.5 15q76 0 117 -25.5t41 -64.5q0 -31 -23.5 -51.5t-67.5 -24.5l-6 5q0 119 -77 119q-59 0 -83 -50q-20 -40 -20 -141v-35h99q51 0 93 5t47 5q28 0 43 -12t19 -42q3 -19 3 -64v-262q0 -48 16 -69t57 -23v-21q-59 3 -136 3q-75 0 -113 -3v21
q35 3 49 24t14 71v200q0 74 -14 97t-61 23h-116v-322q0 -51 17.5 -71t60.5 -22v-21q-58 3 -132 3q-84 0 -121 -3v21q36 2 48.5 22.5t12.5 70.5v322h-198v-322q0 -51 17.5 -71t61.5 -22v-21z" />
    <glyph glyph-name="f_f_l" unicode="ffl" horiz-adv-x="914" 
d="M289 -1q-59 3 -132 3q-84 0 -121 -3v21q36 2 48 22.5t12 70.5v322h-67v28q41 9 54.5 25.5t21.5 73.5q13 95 67.5 134.5t119.5 39.5q119 0 119 -70q0 -51 -74 -58l-6 5q0 48 -12.5 64.5t-36.5 16.5q-42 0 -60 -44q-12 -29 -12 -103v-65h102q56 0 77 13q18 13 27 76
q7 51 29 88t53.5 55.5t62 27t63.5 8.5q57 0 104 -17q36 16 55 16q33 0 41 -38q5 -21 5 -68v-536q0 -42 15.5 -63.5t58.5 -23.5v-21q-59 3 -134 3q-59 0 -115 -3v21q37 3 49.5 24t12.5 69v448q0 75 -13 103q-18 44 -71 44q-62 0 -89 -47q-21 -36 -21 -112v-67h120v-47h-120
v-322q0 -51 17.5 -71t63.5 -22v-21q-59 3 -135 3q-84 0 -121 -3v21q36 2 48.5 22.5t12.5 70.5v322h-198v-322q0 -51 17.5 -71t61.5 -22v-21z" />
    <glyph glyph-name="T_h" unicode="Th" horiz-adv-x="1132" 
d="M363 620v-507q0 -47 15.5 -69t62.5 -23v-22q-64 2 -141 2q-105 0 -137 -2v22q47 1 62 23t15 69v507h-36q-81 0 -110.5 -22.5t-46.5 -95.5h-24q10 145 11 166q153 -2 269 -2q133 0 220 3q62 2 91 16q24 11 50 36q19 17 36 17q23 0 34.5 -16t11.5 -63v-254q25 35 70 61
t97 26q86 0 114 -61q15 -32 15 -95v-177q0 -52 7 -76q12 -42 73 -42v-11q-39 -39 -92 -39q-76 0 -94 55q-9 24 -9 103v154q0 60 -11 81q-16 31 -57 31q-67 0 -113 -41v-266q0 -42 15 -64t58 -24v-21q-57 3 -133 3q-58 0 -114 -3v21q36 3 48.5 24t12.5 69v428q0 55 -25 67
q-24 12 -210 12h-35z" />
    <glyph glyph-name="Tcaron_h" unicode="&#x164;h" horiz-adv-x="1132" 
d="M153 856l13 16q52 -23 136 -65q93 44 137 63l12 -14q-114 -115 -142 -143h-13q-73 77 -143 143zM363 620v-507q0 -47 15.5 -69t62.5 -23v-22q-64 2 -141 2q-105 0 -137 -2v22q47 1 62 23t15 69v507h-36q-81 0 -110.5 -22.5t-46.5 -95.5h-24q10 145 11 166q153 -2 269 -2
q133 0 220 3q62 2 91 16q24 11 50 36q19 17 36 17q23 0 34.5 -16t11.5 -63v-254q25 35 70 61t97 26q86 0 114 -61q15 -32 15 -95v-177q0 -52 7 -76q12 -42 73 -42v-11q-39 -39 -92 -39q-76 0 -94 55q-9 24 -9 103v154q0 60 -11 81q-16 31 -57 31q-67 0 -113 -41v-266
q0 -42 15 -64t58 -24v-21q-57 3 -133 3q-58 0 -114 -3v21q36 3 48.5 24t12.5 69v428q0 55 -25 67q-24 12 -210 12h-35z" />
    <glyph glyph-name="f_b" unicode="fb" horiz-adv-x="889" 
d="M292 -1q-58 3 -135 3q-84 0 -121 -3v21q36 2 48 22.5t12 70.5v322h-67v28q40 9 54.5 29.5t21.5 78.5q7 51 29 88t53 55.5t62 27t64 8.5q50 0 97 -17q36 16 56 16q33 0 41 -38q4 -17 4 -71v-226q24 31 67 55.5t92 24.5q179 0 179 -243q0 -124 -58 -192.5t-151 -68.5
q-89 0 -153 52q-47 -43 -95 -58l-5 4q10 33 10 145v428q0 78 -11 104q-18 43 -65 43q-62 0 -90 -47q-21 -36 -21 -112v-67h120v-47h-120v-322q0 -51 18 -71t64 -22v-21zM511 82q40 -29 101 -29q50 0 81 47t31 148q0 90 -29 133.5t-76 43.5q-68 0 -108 -48v-295z" />
    <glyph glyph-name="f_f_b" unicode="ffb" horiz-adv-x="1201" 
d="M289 -1q-59 3 -132 3q-84 0 -121 -3v21q36 2 48 22.5t12 70.5v322h-67v28q41 9 54.5 25.5t21.5 73.5q13 95 67.5 134.5t119.5 39.5q119 0 119 -70q0 -51 -74 -58l-6 5q0 48 -12.5 64.5t-36.5 16.5q-42 0 -60 -44q-12 -29 -12 -103v-65h102q56 0 77 13q19 13 27 75
q7 51 29 88.5t53 56t62 27t64 8.5q50 0 97 -17q36 16 55 16q33 0 41 -38q4 -17 4 -71v-226q24 31 67.5 55.5t92.5 24.5q179 0 179 -243q0 -124 -58 -192.5t-151 -68.5q-88 0 -154 52q-48 -44 -93 -58l-5 4q10 33 10 145v428q0 75 -12 104q-17 43 -65 43q-62 0 -89 -47
q-21 -36 -21 -112v-67h120v-47h-120v-322q0 -51 17.5 -71t63.5 -22v-21q-59 3 -135 3q-84 0 -121 -3v21q36 2 48.5 22.5t12.5 70.5v322h-198v-322q0 -51 17.5 -71t61.5 -22v-21zM821 82q41 -29 102 -29q50 0 81 46.5t31 148.5q0 90 -29 133.5t-76 43.5q-69 0 -109 -48v-295z
" />
    <glyph glyph-name="f_f_h" unicode="ffh" horiz-adv-x="1215" 
d="M289 -1q-59 3 -132 3q-84 0 -121 -3v21q36 2 48 22.5t12 70.5v322h-67v28q41 9 54.5 25.5t21.5 73.5q13 95 67.5 134.5t119.5 39.5q119 0 119 -70q0 -51 -74 -58l-6 5q0 48 -12.5 64.5t-36.5 16.5q-42 0 -60 -44q-12 -29 -12 -103v-65h102q56 0 77 13q18 13 27 76
q7 51 29 88t53.5 55.5t62 27t63.5 8.5q57 0 104 -17q36 16 56 16q33 0 41 -38q4 -17 4 -71v-235q25 35 70 61t97 26q84 0 114 -61q15 -32 15 -95v-177q0 -52 7 -76q12 -42 73 -42v-11q-39 -39 -92 -39q-76 0 -94 55q-9 24 -9 103v154q0 60 -11 81q-15 31 -57 31
q-67 0 -113 -41v-266q0 -42 15 -64t58 -24v-21q-57 3 -133 3q-59 0 -115 -3v21q37 3 49.5 24t12.5 69v448q0 75 -13 103q-18 44 -71 44q-62 0 -89 -47q-21 -36 -21 -112v-67h120v-47h-120v-322q0 -51 17.5 -71t63.5 -22v-21q-59 3 -135 3q-84 0 -121 -3v21q36 2 48.5 22.5
t12.5 70.5v322h-198v-322q0 -51 17.5 -71t61.5 -22v-21z" />
    <glyph glyph-name="f_f_j" unicode="ffj" horiz-adv-x="898" 
d="M289 -1q-59 3 -132 3q-84 0 -121 -3v21q36 2 48 22.5t12 70.5v322h-67v28q41 9 54.5 25.5t21.5 73.5q13 95 67.5 134.5t119.5 39.5q119 0 119 -70q0 -51 -74 -58l-6 5q0 48 -12.5 64.5t-36.5 16.5q-42 0 -60 -44q-12 -29 -12 -103v-65h102q54 0 75 12t28 71
q8 68 46.5 111.5t83 58.5t96.5 15q76 0 116 -25.5t40 -64.5q0 -31 -23 -51.5t-68 -24.5l-6 5q0 119 -75 119q-59 0 -83 -50q-20 -40 -20 -141v-35h91q51 0 93 5t47 5q28 0 42.5 -12t19.5 -42q3 -19 3 -64v-334q0 -113 -16 -150q-43 -94 -159 -94q-23 0 -32 4v9q40 17 57 34
t26.5 59t9.5 126v287q0 74 -14 97t-61 23h-107v-322q0 -51 17.5 -71t60.5 -22v-21q-58 3 -132 3q-84 0 -121 -3v21q36 2 48.5 22.5t12.5 70.5v322h-198v-322q0 -51 17.5 -71t61.5 -22v-21z" />
    <glyph glyph-name="f_f_k" unicode="ffk" horiz-adv-x="1195" 
d="M289 -1q-59 3 -132 3q-84 0 -121 -3v21q36 2 48 22.5t12 70.5v322h-67v28q41 9 54.5 25.5t21.5 73.5q13 95 67.5 134.5t119.5 39.5q119 0 119 -70q0 -51 -74 -58l-6 5q0 48 -12.5 64.5t-36.5 16.5q-42 0 -60 -44q-12 -29 -12 -103v-65h102q56 0 77 13q18 13 27 76
q7 51 29 88t53.5 55.5t62 27t63.5 8.5q57 0 104 -17q36 16 56 16q33 0 41 -38q4 -17 4 -71v-533q0 -42 15.5 -63.5t58.5 -23.5v-21q-59 3 -134 3q-59 0 -115 -3v21q37 3 49.5 24t12.5 69v448q0 75 -13 103q-18 44 -71 44q-62 0 -89 -47q-21 -36 -21 -112v-67h120v-47h-120
v-322q0 -51 17.5 -71t63.5 -22v-21q-59 3 -135 3q-84 0 -121 -3v21q36 2 48.5 22.5t12.5 70.5v322h-198v-322q0 -51 17.5 -71t61.5 -22v-21zM1195 63q-19 -37 -49 -54.5t-55 -17.5q-61 0 -111 65q-28 36 -74.5 105.5t-62.5 86.5v12q19 7 35 19q65 48 107 100q26 33 26 58
q0 15 -12 25v8q8 9 28.5 15t39.5 6q53 0 53 -42q0 -33 -67 -92q-38 -32 -99 -79q49 -72 116 -154q48 -57 88 -57q18 0 31 3z" />
    <glyph glyph-name="f_f_t" unicode="fft" horiz-adv-x="948" 
d="M289 -1q-59 3 -132 3q-84 0 -121 -3v21q36 2 48 22.5t12 70.5v322h-67v28q41 9 54.5 25.5t21.5 73.5q13 95 67.5 134.5t119.5 39.5q119 0 119 -70q0 -51 -74 -58l-6 5q0 48 -12.5 64.5t-36.5 16.5q-42 0 -60 -44q-12 -29 -12 -103v-65h104q52 0 73 12q21 13 28 75
q6 51 27 88.5t49.5 56.5t57 27.5t56.5 8.5q122 0 122 -70q0 -20 -19 -37.5t-61 -21.5l-6 5q0 48 -12 65t-34 17q-42 0 -60 -44q-13 -32 -13 -103v-79h102q69 0 95 16q37 23 71 113h29v-129h105v-47h-106v-276q0 -37 4 -56q12 -50 61 -50q26 0 60 12l7 -9q-49 -66 -123 -66
q-92 0 -114 70q-9 27 -9 74v301h-182v-322q0 -51 17.5 -71t63.5 -22v-21q-59 3 -135 3q-84 0 -121 -3v21q36 2 48.5 22.5t12.5 70.5v322h-198v-322q0 -51 17.5 -71t61.5 -22v-21z" />
    <glyph glyph-name="f_f_y" unicode="ffy" horiz-adv-x="1127" 
d="M771 449q18 -34 51 -112q35 -84 82 -219q47 114 77 192q21 56 21 96q0 30 -27 46v10q41 32 80 32q17 0 30 -12t13 -34q0 -16 -9 -43.5t-19 -51.5t-36 -82q-21 -46 -54 -122.5t-51.5 -118t-41.5 -88.5t-41 -74q-52 -83 -124 -83q-29 0 -50.5 26.5t-21.5 60.5l6 4
q21 -8 40 -8t31 1.5t30 12.5t31 32q36 53 50 82q-128 320 -171 394q-14 24 -29 34q-16 11 -48 11h-68v-322q0 -51 17.5 -71t63.5 -22v-21q-59 3 -135 3q-84 0 -121 -3v21q36 2 48.5 22.5t12.5 70.5v322h-198v-322q0 -51 17.5 -71t61.5 -22v-21q-59 3 -132 3q-84 0 -121 -3
v21q36 2 48 22.5t12 70.5v322h-67v28q41 9 54.5 25.5t21.5 73.5q13 95 67.5 134.5t119.5 39.5q119 0 119 -70q0 -51 -74 -58l-6 5q0 48 -12.5 64.5t-36.5 16.5q-42 0 -60 -44q-12 -29 -12 -103v-65h104q52 0 74 11q20 12 27 78q6 51 26.5 88t48.5 55.5t56 27t56 8.5
q124 0 124 -70q0 -20 -19 -37.5t-61 -21.5l-6 5q0 48 -13 65t-35 17q-41 0 -59 -44q-11 -30 -11 -103v-78h71q42 0 72 5q30 6 44 6q37 0 62 -45z" />
    <glyph glyph-name="f_h" unicode="fh" horiz-adv-x="903" 
d="M292 -1q-58 3 -135 3q-84 0 -121 -3v21q36 2 48 22.5t12 70.5v322h-67v28q40 9 54.5 29.5t21.5 78.5q7 51 29 88t53 55.5t62 27t64 8.5q57 0 104 -17q36 16 55 16q33 0 41 -38q4 -17 4 -68v-238q25 35 70 61t97 26q84 0 114 -61q15 -32 15 -95v-177q0 -52 7 -76
q12 -42 73 -42v-11q-39 -39 -92 -39q-76 0 -94 55q-8 25 -8 103v154q0 59 -12 81q-15 31 -57 31q-67 0 -113 -41v-266q0 -42 15 -64t58 -24v-21q-57 3 -132 3q-60 0 -115 -3v21q36 3 48.5 24t12.5 69v451q0 74 -12 100q-18 44 -71 44q-62 0 -90 -47q-21 -36 -21 -112v-67
h120v-47h-120v-322q0 -51 18 -71t64 -22v-21z" />
    <glyph glyph-name="f_j" unicode="fj" horiz-adv-x="586" 
d="M288 -1q-58 3 -131 3q-84 0 -121 -3v21q36 2 48 22.5t12 70.5v322h-67v28q38 9 52.5 29.5t22.5 72.5t31 89.5t56 57.5t67 29t72 9q76 0 116 -25.5t40 -64.5q0 -31 -23 -51.5t-68 -24.5l-6 5q0 119 -75 119q-60 0 -84 -50q-20 -40 -20 -141v-35h92q50 0 92 5t48 5
q27 0 42 -12t20 -42q2 -13 2 -64v-334q0 -116 -15 -150q-43 -94 -159 -94q-23 0 -33 4v9q41 17 58 34.5t26 59t9 125.5v287q0 75 -13.5 97.5t-60.5 22.5h-108v-322q0 -51 17.5 -71t60.5 -22v-21z" />
    <glyph glyph-name="f_k" unicode="fk" horiz-adv-x="884" 
d="M292 -1q-58 3 -135 3q-84 0 -121 -3v21q36 2 48 22.5t12 70.5v322h-67v28q40 9 54.5 29.5t21.5 78.5q7 51 29 88t53 55.5t62 27t64 8.5q57 0 104 -17q36 16 55 16q33 0 41 -38q4 -17 4 -68v-536q0 -42 15.5 -63.5t58.5 -23.5v-21q-59 3 -133 3q-60 0 -115 -3v21
q36 3 48.5 24t12.5 69v451q0 74 -12 100q-18 44 -71 44q-62 0 -90 -47q-21 -36 -21 -112v-67h120v-47h-120v-322q0 -51 18 -71t64 -22v-21zM884 63q-20 -37 -50 -54.5t-54 -17.5q-61 0 -111 65q-28 36 -74.5 105.5t-62.5 86.5v12q19 7 35 19q24 18 57 48.5t49 51.5
q27 33 27 58q0 15 -12 25v8q8 9 28.5 15t38.5 6q54 0 54 -42q0 -34 -68 -92q-36 -32 -98 -79q55 -81 116 -154q47 -57 88 -57q17 0 31 3z" />
    <glyph glyph-name="f_t" unicode="ft" horiz-adv-x="637" 
d="M292 -1q-58 3 -135 3q-84 0 -121 -3v21q36 2 48 22.5t12 70.5v322h-67v28q40 9 54 29.5t21 78.5q6 51 26.5 88t49.5 55.5t57.5 27t56.5 8.5q122 0 122 -70q0 -20 -19 -37.5t-61 -21.5l-6 5q0 48 -12 65t-34 17q-43 0 -61 -44q-13 -36 -13 -103v-79h102q71 0 96 16
q37 22 70 113h29v-129h105v-47h-105v-276q0 -37 4 -56q12 -50 61 -50q26 0 60 12l6 -9q-20 -28 -52.5 -47t-69.5 -19q-93 0 -115 70q-8 29 -8 74v301h-183v-322q0 -51 18 -71t64 -22v-21z" />
    <glyph glyph-name="f_y" unicode="fy" horiz-adv-x="825" 
d="M364 390q-16 25 -30 34q-16 11 -53 11h-71v-322q0 -51 18 -71t64 -22v-21q-58 3 -135 3q-84 0 -121 -3v21q36 2 48 22.5t12 70.5v322h-67v28q40 9 54 29.5t21 78.5q6 51 26.5 88t48.5 55.5t56 27t56 8.5q124 0 124 -70q0 -20 -19 -37.5t-61 -21.5l-6 5q0 48 -13 65
t-35 17q-41 0 -59 -44q-12 -33 -12 -103v-79h69q51 0 73 5q30 7 51 7q40 0 65 -45q23 -44 51 -112q28 -66 82 -219q47 114 77 192q21 56 21 96q0 30 -27 46v10q41 32 80 32q17 0 30 -12t13 -34q0 -16 -9 -43.5t-19 -51.5t-36 -82q-21 -46 -54 -122.5t-51.5 -118t-41.5 -88.5
t-41 -74q-52 -83 -124 -83q-29 0 -50.5 26.5t-21.5 60.5l6 4q21 -8 40 -8t31 1.5t30 12.5t31 32q36 53 50 82q-128 320 -171 394z" />
    <glyph glyph-name="t_y" unicode="ty" horiz-adv-x="816" 
d="M354 390q-17 29 -33 37q-17 10 -44 10h-77v-278q0 -37 4 -56q12 -50 61 -50q25 0 61 12l6 -9q-49 -66 -123 -66q-92 0 -114 70q-8 29 -8 74v303h-65v27q52 12 87 42t63 105h29v-128h76q42 0 66 4q37 7 50 7q41 0 64 -45q23 -44 51 -112q28 -66 82 -219q47 114 77 192
q21 56 21 96q0 30 -27 46v10q41 32 80 32q17 0 30 -12t13 -34q0 -16 -9 -43.5t-19 -51.5t-36 -82q-21 -46 -54 -122.5t-51.5 -118t-41.5 -88.5t-41 -74q-52 -83 -124 -83q-29 0 -50.5 26.5t-21.5 60.5l6 4q21 -8 40 -8t31 1.5t30 12.5t31 32q36 53 50 82q-130 326 -170 394z
" />
    <glyph glyph-name="uni0162_h" unicode="&#x162;h" horiz-adv-x="1132" 
d="M363 620v-507q0 -47 15.5 -69t62.5 -23v-22q-56 2 -122 2q-8 -16 -8 -30q0 -15 17 -25q4 -2 19.5 -11t25.5 -16q26 -19 26 -54q0 -44 -46.5 -70.5t-109.5 -26.5l-2 23q41 6 61.5 22.5t20.5 36.5q0 27 -34 51q-26 18 -26 37t27 63q-98 0 -127 -2v22q47 1 62 23t15 69v507
h-36q-81 0 -110.5 -22.5t-46.5 -95.5h-24q10 145 11 166q153 -2 269 -2q133 0 220 3q62 2 91 16q24 11 50 36q19 17 36 17q23 0 34.5 -16t11.5 -63v-254q25 35 70 61t97 26q86 0 114 -61q15 -32 15 -95v-177q0 -52 7 -76q12 -42 73 -42v-11q-39 -39 -92 -39q-76 0 -94 55
q-9 24 -9 103v154q0 60 -11 81q-16 31 -57 31q-67 0 -113 -41v-266q0 -42 15 -64t58 -24v-21q-57 3 -133 3q-58 0 -114 -3v21q36 3 48.5 24t12.5 69v428q0 55 -25 67q-24 12 -210 12h-35z" />
    <glyph glyph-name="uni021A_h" unicode="&#x21a;h" horiz-adv-x="1132" 
d="M363 620v-507q0 -47 15.5 -69t62.5 -23v-22q-64 2 -141 2q-105 0 -137 -2v22q47 1 62 23t15 69v507h-36q-81 0 -110.5 -22.5t-46.5 -95.5h-24q10 145 11 166q153 -2 269 -2q133 0 220 3q62 2 91 16q24 11 50 36q19 17 36 17q23 0 34.5 -16t11.5 -63v-254q25 35 70 61
t97 26q86 0 114 -61q15 -32 15 -95v-177q0 -52 7 -76q12 -42 73 -42v-11q-39 -39 -92 -39q-76 0 -94 55q-9 24 -9 103v154q0 60 -11 81q-16 31 -57 31q-67 0 -113 -41v-266q0 -42 15 -64t58 -24v-21q-57 3 -133 3q-58 0 -114 -3v21q36 3 48.5 24t12.5 69v428q0 55 -25 67
q-24 12 -210 12h-35zM371 -112q0 -93 -124 -151l-12 21q34 22 48 38t14 35q0 17 -20 30q-23 17 -23 45q0 20 15.5 34.5t40.5 14.5q29 0 45 -18t16 -49z" />
    <glyph glyph-name=".notdef" horiz-adv-x="542" 
d="M70 0v668h402v-668h-402zM118 48h305v572h-305v-572z" />
    <glyph glyph-name=".null" horiz-adv-x="0" 
 />
    <glyph glyph-name="nonmarkingreturn" horiz-adv-x="333" 
 />
    <glyph glyph-name="space" unicode=" " horiz-adv-x="220" 
 />
    <glyph glyph-name="exclam" unicode="!" horiz-adv-x="277" 
d="M171 204h-36q-6 54 -18.5 153t-21 171t-8.5 89q0 67 67 67q72 0 72 -65q0 -25 -10 -97.5t-24.5 -168t-20.5 -149.5zM222 57q0 -30 -19.5 -49t-49.5 -19q-31 0 -50.5 19.5t-19.5 49.5q0 29 20 49t50 20q29 0 49 -19.5t20 -50.5z" />
    <glyph glyph-name="quotedbl" unicode="&#x22;" horiz-adv-x="329" 
d="M95 427h-29q-5 34 -14 89.5l-15 92.5t-6 45q0 52 53 52q29 0 41 -12.5t12 -38.5q0 -9 -7 -46.5t-18 -92.5t-17 -89zM256 427h-30q-5 35 -13.5 89.5t-14.5 92t-6 45.5q0 52 52 52q29 0 41 -12.5t12 -38.5q0 -9 -7 -46l-17.5 -92.5t-16.5 -89.5z" />
    <glyph glyph-name="numbersign" unicode="#" horiz-adv-x="584" 
d="M153 -26h-50l45 215h-110v86h129l23 110h-107v86h125l41 191h51l-41 -191h122l41 191h50l-41 -191h115v-86h-133l-24 -110h112v-86h-130l-46 -215h-49l45 215h-122zM241 385l-24 -110h123l23 110h-122z" />
    <glyph glyph-name="dollar" unicode="$" horiz-adv-x="536" 
d="M119 187l6 -4q0 -74 35 -109.5t92 -36.5v235l-58 21q-136 50 -136 175q0 71 52.5 118t141.5 55v99h45v-97q90 -1 132.5 -31.5t42.5 -67.5q0 -51 -78 -64l-8 3q0 108 -89 119v-219l43 -16q83 -31 117.5 -74.5t34.5 -105.5q0 -76 -53 -126t-142 -61v-98h-45v95
q-109 0 -163 36.5t-54 87.5q0 58 84 66zM387 147q0 67 -90 107v-213q41 9 65.5 36.5t24.5 69.5zM159 508q0 -37 20.5 -62t72.5 -46v201q-42 -7 -67.5 -32t-25.5 -61z" />
    <glyph glyph-name="percent" unicode="%" horiz-adv-x="857" 
d="M646 658l-377 -677h-57l377 677h57zM351 438q0 -91 -42 -145.5t-120 -54.5q-82 0 -122 55t-40 148t44.5 147t118.5 54q85 0 123 -56.5t38 -147.5zM265 441q0 91 -17.5 129.5t-58.5 38.5q-39 0 -57.5 -38.5t-18.5 -125.5q0 -94 17 -135t60 -41q75 0 75 172zM829 191
q0 -92 -41.5 -146t-119.5 -54q-83 0 -123 55t-40 148t44.5 147t118.5 54q85 0 123 -56.5t38 -147.5zM744 194q0 91 -18 129.5t-59 38.5q-38 0 -56.5 -38.5t-18.5 -125.5q0 -94 17 -134.5t60 -40.5q75 0 75 171z" />
    <glyph glyph-name="ampersand" unicode="&#x26;" horiz-adv-x="719" 
d="M466 47q-77 -60 -188 -60q-65 0 -113.5 17.5t-74 46.5t-37.5 59.5t-12 62.5q0 66 38.5 108.5t115.5 80.5q-64 89 -64 158q0 71 52 116t139 45q77 0 121 -34.5t44 -97.5q0 -54 -39.5 -92.5t-113.5 -73.5q113 -148 183 -214q22 43 22 86q0 54 -48 83v7q34 38 72 38
q27 0 45 -23t18 -59q0 -80 -75 -167q33 -34 61.5 -49t63.5 -15q22 0 37 7l7 -8q-40 -79 -124 -79q-34 0 -62 12t-68 45zM434 81q-93 85 -215 249q-55 -49 -55 -126q0 -59 43 -106.5t113 -47.5q75 0 114 31zM308 412q50 27 74 58.5t24 75.5q0 92 -80 92q-32 0 -56 -22
t-24 -64q0 -65 62 -140z" />
    <glyph glyph-name="quotesingle" unicode="'" horiz-adv-x="168" 
d="M95 427h-29q-5 34 -14 89.5l-15 92.5t-6 45q0 52 53 52q29 0 41 -12.5t12 -38.5q0 -9 -7 -46.5t-18 -92.5t-17 -89z" />
    <glyph glyph-name="parenleft" unicode="(" horiz-adv-x="305" 
d="M301 -136l-14 -26q-70 29 -121 79t-79 113.5t-41 131.5t-13 144q0 307 252 438l16 -24q-97 -64 -132.5 -169.5t-35.5 -242.5q0 -345 168 -444z" />
    <glyph glyph-name="parenright" unicode=")" horiz-adv-x="305" 
d="M4 718l14 26q70 -29 121 -79t79 -113.5t41 -131.5t13 -144q0 -307 -252 -438l-15 24q96 64 131.5 169.5t35.5 242.5q0 345 -168 444z" />
    <glyph glyph-name="asterisk" unicode="*" horiz-adv-x="385" 
d="M219 545q13 -4 52 -13q40 -8 53 -15.5t13 -26.5q0 -13 -11 -27.5t-27 -14.5q-20 0 -47 32q-25 28 -43 41q1 -8 13 -57q10 -42 10 -47q0 -28 -39 -28q-37 0 -37 27q0 13 10 49q11 36 13 56q-19 -15 -36 -33q-37 -41 -56 -41q-14 0 -25.5 12.5t-11.5 29.5q0 29 63 41
q29 4 54 15q-16 7 -52 16q-39 9 -47 12q-19 6 -19 28q0 15 11.5 30t27.5 15t46 -35q30 -32 44 -43q-3 29 -13 67q-8 34 -8 39q0 29 36 29q38 0 38 -29q0 -3 -9 -41q-11 -46 -13 -66q24 19 44 43q13 15 18 20.5t13 10t16 4.5q16 0 26.5 -13t10.5 -29t-13 -23.5t-50 -16.5
q-36 -8 -55 -18z" />
    <glyph glyph-name="plus" unicode="+" horiz-adv-x="603" 
d="M342 65h-79v191h-192v78h192v192h79v-192h191v-78h-191v-191z" />
    <glyph glyph-name="comma" unicode="," horiz-adv-x="225" 
d="M191 42q0 -126 -152 -212l-17 22q80 60 80 119q0 26 -26 43q-31 21 -31 56q0 24 19 42t49 18q37 0 57.5 -23t20.5 -65z" />
    <glyph glyph-name="hyphen" unicode="-" horiz-adv-x="308" 
d="M261 206h-214v89h214v-89z" />
    <glyph glyph-name="period" unicode="." horiz-adv-x="254" 
d="M196 57q0 -30 -19.5 -49t-48.5 -19q-31 0 -50.5 19.5t-19.5 49.5q0 29 20 49t50 20q29 0 48.5 -19.5t19.5 -50.5z" />
    <glyph glyph-name="slash" unicode="/" horiz-adv-x="378" 
d="M352 738l-270 -853h-74l270 853h74z" />
    <glyph glyph-name="zero" unicode="0" horiz-adv-x="558" 
d="M526 313q0 -152 -62 -239t-183 -87q-130 0 -189 89t-59 244q0 153 66 241.5t182 88.5q55 0 97.5 -18t70 -48.5t45 -74.5t25 -92t7.5 -104zM403 307q0 161 -28 231t-95 70q-62 0 -91 -65t-29 -213q0 -160 27 -230.5t96 -70.5q60 0 90 64.5t30 213.5z" />
    <glyph glyph-name="one" unicode="1" horiz-adv-x="558" 
d="M439 -1q-64 2 -150 2q-81 0 -157 -2v22q60 1 81.5 23t21.5 70v445q-54 -27 -124 -48l-10 28q93 49 157 98h93v-523q0 -48 17.5 -70t70.5 -23v-22z" />
    <glyph glyph-name="two" unicode="2" horiz-adv-x="558" 
d="M492 -1q-55 1 -207 1q-165 0 -238 -1v68q182 146 252 238t70 169q0 71 -24.5 102t-77.5 31q-60 0 -84 -43t-24 -125l-9 -3q-86 11 -86 78q0 50 51 92.5t152 42.5q224 0 224 -179q0 -89 -82.5 -176t-257.5 -205q75 3 341 3v-93z" />
    <glyph glyph-name="three" unicode="3" horiz-adv-x="558" 
d="M317 338q91 -6 135.5 -47t44.5 -107q0 -94 -68 -145.5t-190 -51.5q-90 0 -144.5 36t-54.5 85q0 28 21 49t63 27l7 -4q0 -74 30.5 -112t85.5 -38q71 0 99.5 39.5t28.5 115.5q0 68 -37.5 98t-108.5 30q-21 0 -43 -2v41q20 -2 43 -2q120 0 120 142q0 115 -95 115
q-51 0 -74 -35.5t-23 -107.5l-7 -4q-78 13 -78 71q0 44 51.5 81.5t138.5 37.5q102 0 153.5 -42t51.5 -112q0 -123 -150 -158z" />
    <glyph glyph-name="four" unicode="4" horiz-adv-x="558" 
d="M503 -1q-64 2 -134 2q-55 0 -131 -2v22q52 1 66 20.5t14 68.5v44h-276v57q113 199 155 281q37 76 37 106q0 19 -8 29l-1 8q21 25 54 25q43 0 43 -51q0 -34 -50 -122q-43 -74 -157 -256h203v237h110v-237h85v-77h-85v-44q0 -46 15 -67t60 -22v-22z" />
    <glyph glyph-name="five" unicode="5" horiz-adv-x="558" 
d="M161 389q45 19 108 19q114 0 170.5 -52.5t56.5 -150.5q0 -96 -70 -157t-189 -61q-90 0 -141.5 35.5t-51.5 84.5q0 64 84 77l7 -4q0 -66 27 -108t82 -42q73 0 101.5 40t28.5 128q0 67 -39 103.5t-101 36.5q-73 0 -133 -22l30 316h331v-93h-287z" />
    <glyph glyph-name="six" unicode="6" horiz-adv-x="558" 
d="M415 479q0 60 -19 94.5t-72 34.5q-133 0 -146 -276q23 23 62.5 40t82.5 17q95 0 144.5 -49.5t49.5 -139.5q0 -93 -61 -153t-166 -60q-237 0 -237 296q0 51 7.5 99t27.5 98t50.5 86.5t80.5 60t113 23.5q94 0 133.5 -31t39.5 -76q0 -27 -22.5 -45t-60.5 -23zM177 289
q0 -4 -0.5 -19.5t-0.5 -20.5q0 -220 117 -220q107 0 107 172q0 64 -30 99t-76 35q-67 0 -117 -46z" />
    <glyph glyph-name="seven" unicode="7" horiz-adv-x="558" 
d="M281 13q-26 -25 -63 -25q-27 0 -42 17.5t-15 44.5q0 63 51 159q37 70 201 330h-349v92h426v-71q-117 -197 -207 -391q-25 -52 -25 -101q0 -33 22 -48z" />
    <glyph glyph-name="eight" unicode="8" horiz-adv-x="558" 
d="M362 355q72 -31 107.5 -71.5t35.5 -107.5q0 -86 -63 -137.5t-166 -51.5q-111 0 -167 45t-56 122q0 104 131 161q-103 57 -103 160q0 79 59 127t143 48q92 0 144.5 -41t52.5 -110q0 -95 -118 -144zM223 297q-67 -61 -67 -139q0 -61 32 -95t89 -34q55 0 88 29.5t33 82.5
q0 52 -38.5 84t-136.5 72zM320 373q60 49 60 124q0 49 -25 80t-72 31t-73 -30t-26 -73q0 -39 31 -70.5t105 -61.5z" />
    <glyph glyph-name="nine" unicode="9" horiz-adv-x="558" 
d="M139 159q0 -131 97 -131q70 0 104.5 71t40.5 211q-24 -24 -63 -42t-82 -18q-95 0 -144.5 48t-49.5 138q0 94 60.5 153.5t166.5 59.5q237 0 237 -296q0 -54 -7 -102.5t-26.5 -98t-50 -85.5t-80.5 -58.5t-115 -22.5q-93 0 -136 31.5t-43 75.5q0 27 23 45.5t61 23.5z
M382 353q0 4 0.5 18.5t0.5 19.5q0 105 -26 160.5t-91 55.5q-106 0 -106 -173q0 -63 29.5 -96t75.5 -33q66 0 117 48z" />
    <glyph glyph-name="colon" unicode=":" horiz-adv-x="274" 
d="M216 57q0 -30 -19.5 -49t-48.5 -19q-31 0 -50.5 19.5t-19.5 49.5q0 29 20 49t50 20q29 0 48.5 -19.5t19.5 -50.5zM216 414q0 -30 -19.5 -49t-48.5 -19q-31 0 -50.5 19.5t-19.5 49.5q0 29 20 49t50 20q29 0 48.5 -19.5t19.5 -50.5z" />
    <glyph glyph-name="semicolon" unicode=";" horiz-adv-x="274" 
d="M216 414q0 -30 -19.5 -49t-48.5 -19q-31 0 -50.5 19.5t-19.5 49.5q0 29 20 49t50 20q29 0 48.5 -19.5t19.5 -50.5zM218 42q0 -126 -152 -212l-17 22q80 60 80 119q0 26 -26 43q-31 21 -31 56q0 24 19 42t49 18q37 0 57.5 -23t20.5 -65z" />
    <glyph glyph-name="less" unicode="&#x3c;" horiz-adv-x="611" 
d="M492 61l-395 191v79l395 190v-87l-310 -142l310 -141v-90z" />
    <glyph glyph-name="equal" unicode="=" horiz-adv-x="611" 
d="M532 169h-453v78h453v-78zM532 344h-453v77h453v-77z" />
    <glyph glyph-name="greater" unicode="&#x3e;" horiz-adv-x="611" 
d="M120 521l394 -190v-79l-394 -191v87l309 143l-309 141v89z" />
    <glyph glyph-name="question" unicode="?" horiz-adv-x="454" 
d="M210 205l-32 -14q-40 57 -40 102q0 38 21 68t71 72q70 59 70 119q0 40 -21 62t-54 22q-47 0 -69 -33.5t-22 -103.5l-7 -5q-81 12 -81 73q0 48 46 80.5t137 32.5q87 0 137.5 -38t50.5 -103q0 -53 -29 -94.5t-116 -105.5q-25 -19 -36.5 -28.5t-22.5 -26.5t-11 -36
q0 -21 8 -43zM265 57q0 -30 -19.5 -49t-49.5 -19q-31 0 -50.5 19.5t-19.5 49.5q0 29 20 49t50 20t49.5 -19.5t19.5 -50.5z" />
    <glyph glyph-name="at" unicode="@" horiz-adv-x="794" 
d="M450 99q-51 -85 -136 -85q-57 0 -86.5 35t-29.5 88q0 97 58 186q32 50 84.5 80t109.5 30q56 0 82 -34q28 22 66 31l12 -7q-15 -39 -34 -113q-41 -170 -41 -215q0 -26 23 -26q31 0 66 43q32 38 49 103t17 135q0 101 -61 161t-173 60q-148 0 -245.5 -112.5t-97.5 -284.5
q0 -130 82 -212.5t213 -82.5q194 0 315 121l26 -25q-71 -74 -161 -113.5t-187 -39.5q-170 0 -268 95t-98 258q0 116 50 214.5t148 160.5t226 62q70 0 125.5 -18.5t88 -47t54 -65.5t29.5 -70t8 -65q0 -99 -40.5 -178.5t-117.5 -125.5q-44 -25 -92 -25q-32 0 -49 16t-17 41
q0 11 2 25zM455 143l56 221q-26 23 -62 23q-73 0 -119 -78q-45 -76 -45 -160q0 -32 15 -52.5t42 -20.5q33 0 58.5 16.5t54.5 50.5z" />
    <glyph glyph-name="A" unicode="A" horiz-adv-x="658" 
d="M218 -1q-64 2 -119 2q-20 0 -96 -2v21q33 1 52.5 23t36.5 67l158 415q25 64 50 143h76q20 -64 49 -143l147 -415q16 -46 33.5 -67.5t49.5 -22.5v-21q-76 2 -112 2q-101 0 -165 -2v21q70 2 70 41q0 25 -11 57l-32 89h-215l-34 -96q-12 -31 -12 -48q0 -41 74 -43v-21z
M208 255h181l-90 253z" />
    <glyph glyph-name="B" unicode="B" horiz-adv-x="624" 
d="M388 356q96 -8 145 -53.5t49 -113.5q0 -189 -277 -189q-6 0 -57 0.5t-74 0.5q-56 0 -136 -2v22q43 1 58.5 22t15.5 67v464q0 42 -15 57.5t-59 16.5v21q37 -2 134 -2q18 0 70 0.5t70 0.5q129 0 182 -40.5t53 -124.5q0 -53 -41 -92.5t-118 -54.5zM234 372h34q49 0 80 10
q75 27 75 112q0 84 -57 113q-31 17 -89 17h-43v-252zM234 326v-273q50 -6 76 -6q72 0 105 34t33 107q0 104 -97 129q-31 9 -85 9h-32z" />
    <glyph glyph-name="C" unicode="C" horiz-adv-x="572" 
d="M537 136q11 -10 11 -23q0 -39 -61.5 -82.5t-146.5 -43.5q-143 0 -219.5 89.5t-76.5 246.5q0 167 82 262t223 95q96 0 145 -28.5t49 -72.5q0 -29 -19 -49t-72 -30l-6 7q0 132 -104 132q-72 0 -118 -74.5t-46 -231.5q0 -131 50.5 -197.5t136.5 -66.5q103 0 164 67h8z" />
    <glyph glyph-name="D" unicode="D" horiz-adv-x="684" 
d="M38 -1v22q43 1 58.5 22.5t15.5 67.5v464q0 42 -14.5 56.5t-59.5 15.5v22q56 -3 132 -3q17 0 67.5 1t66.5 1q166 0 251 -77.5t85 -252.5q0 -155 -77 -246.5t-244 -91.5q-17 0 -81 1t-81 1q-8 0 -119 -3zM234 55q30 -5 65 -5q105 0 155.5 63t50.5 218q0 262 -164 288
q-31 5 -107 5v-569z" />
    <glyph glyph-name="E" unicode="E" horiz-adv-x="564" 
d="M524 0q-105 1 -346 1q-48 0 -140 -2v22q43 1 58.5 22.5t15.5 67.5v464q0 42 -14.5 56.5t-59.5 15.5v22q69 -3 199 -3q106 0 259 2q5 -82 11 -151h-23q-17 70 -47 86.5t-129 16.5h-74v-249h36q82 0 106.5 14.5t27.5 57.5h23q-2 -62 -2 -100q0 -60 2 -91h-23
q-3 43 -27 58.5t-106 15.5h-37v-272q68 -7 145 -7q60 0 87 27t36 96h25q-3 -81 -3 -170z" />
    <glyph glyph-name="F" unicode="F" horiz-adv-x="538" 
d="M320 -1q-62 2 -149 2q-59 0 -133 -2v22q43 1 58.5 22.5t15.5 67.5v464q0 42 -14.5 56.5t-59.5 15.5v22q69 -3 212 -3q90 0 241 2q5 -82 11 -151h-23q-17 71 -45.5 87t-126.5 16h-73v-263h36q82 0 106.5 15t27.5 59h23q-2 -64 -2 -100q0 -61 2 -92h-23q-3 43 -27 58
t-106 15h-37v-199q0 -53 19 -72t67 -20v-22z" />
    <glyph glyph-name="G" unicode="G" horiz-adv-x="648" 
d="M583 42q-112 -55 -234 -55q-143 0 -224 89t-81 249q0 165 87 260t231 95q98 0 153 -29t55 -71q0 -29 -18.5 -49.5t-70.5 -30.5l-7 7q0 65 -32 98.5t-83 33.5q-182 0 -182 -307q0 -136 52.5 -209.5t147.5 -73.5q52 0 80 11v150q0 47 -14.5 68t-62.5 22v21q114 -2 128 -2
q20 0 124 2v-21q-35 -1 -48 -24.5t-13 -71.5q0 -140 12 -162z" />
    <glyph glyph-name="H" unicode="H" horiz-adv-x="731" 
d="M308 -1q-64 2 -137 2q-59 0 -133 -2v22q43 1 58.5 22.5t15.5 67.5v464q0 42 -14.5 56.5t-59.5 15.5v22q37 -2 133 -2q100 0 137 2v-22q-45 -1 -59.5 -15.5t-14.5 -56.5v-201h262v201q0 42 -14.5 56.5t-59.5 15.5v22q37 -2 133 -2q100 0 137 2v-22q-45 -1 -59 -15.5
t-14 -56.5v-464q0 -47 15 -68t58 -22v-22q-64 2 -137 2q-59 0 -133 -2v22q43 1 58.5 22t15.5 68v212h-262v-212q0 -47 15.5 -68t58.5 -22v-22z" />
    <glyph glyph-name="I" unicode="I" horiz-adv-x="345" 
d="M308 -1q-64 2 -137 2q-59 0 -133 -2v22q45 1 59.5 23.5t14.5 66.5v459q0 44 -13.5 60t-60.5 17v22q37 -2 133 -2q100 0 137 2v-22q-48 -1 -61 -17t-13 -60v-459q0 -43 14 -66t60 -24v-22z" />
    <glyph glyph-name="J" unicode="J" horiz-adv-x="330" 
d="M230 131q0 -100 -14 -141q-18 -51 -65.5 -80t-115.5 -29q-26 0 -41 3v9q40 13 63 34t36.5 70.5t13.5 133.5v437q0 44 -14.5 61t-62.5 18v22q38 -2 135 -2q100 0 137 2v-22q-46 -1 -59 -17t-13 -60v-439z" />
    <glyph glyph-name="K" unicode="K" horiz-adv-x="687" 
d="M308 -1q-64 2 -137 2q-59 0 -133 -2v22q43 1 58.5 22.5t15.5 67.5v464q0 42 -14.5 56.5t-59.5 15.5v22q37 -2 133 -2q100 0 137 2v-22q-45 -1 -59.5 -15.5t-14.5 -56.5v-464q0 -47 15.5 -68t58.5 -22v-22zM681 37q-50 -43 -99 -43q-46 0 -78 19.5t-75 74.5
q-41 52 -139 199q-22 34 -39 46v14q34 5 61 30q41 37 98 116q72 97 72 120q0 17 -14 24.5t-49 9.5v22q40 -2 119 -2q59 0 100 2v-22q-30 -3 -50 -20.5t-65 -75.5q-96 -125 -146 -185q70 -107 166 -224q68 -80 135 -96z" />
    <glyph glyph-name="L" unicode="L" horiz-adv-x="550" 
d="M523 0q-105 1 -345 1q-48 0 -140 -2v22q43 1 58.5 22t15.5 68v460q0 44 -13.5 59.5t-60.5 16.5v22q37 -2 132 -2q105 0 142 2v-22q-48 -1 -63 -17.5t-15 -59.5v-514q68 -7 146 -7q59 0 85 27t35 96h26q-3 -80 -3 -172z" />
    <glyph glyph-name="M" unicode="M" horiz-adv-x="864" 
d="M235 -1q-62 2 -116 2q-28 0 -100 -2v22q44 3 58.5 23.5t18.5 66.5q38 422 38 470q-9 26 -26 36t-50 13l-3 11q53 37 121 37q23 0 41 -7t31 -23t19 -26.5t16 -31.5q51 -109 149 -405q43 129 168 483q18 -2 87 -2q51 0 107 3v-22q-40 -1 -51.5 -15t-11.5 -55q0 -29 31 -466
q3 -49 16 -69t56 -21v-22q-64 2 -143 2q-50 0 -126 -2v22q47 1 60.5 21.5t13.5 68.5q0 30 -11 203.5t-16 216.5q-161 -447 -183 -518h-64q-61 196 -181 505q-26 -379 -26 -407q0 -47 15 -68t62 -22v-22z" />
    <glyph glyph-name="N" unicode="N" horiz-adv-x="711" 
d="M253 -1q-64 2 -102 2q-18 0 -56 -1t-57 -1v22q47 1 61.5 22t14.5 68v474q-28 40 -80 42l-4 11q59 40 124 40q42 0 69.5 -21.5t54.5 -59.5q114 -154 276 -402q-3 38 -6 363q-1 45 -16 67t-58 23v21q36 -2 112 -2q31 0 95 2v-21q-47 -1 -60 -21.5t-13 -68.5v-561h-72
q-79 127 -192 296t-175 249q4 -142 4 -431q0 -46 16.5 -67.5t63.5 -22.5v-22z" />
    <glyph glyph-name="O" unicode="O" horiz-adv-x="673" 
d="M628 334q0 -159 -74.5 -253t-215.5 -94q-150 0 -222 94t-72 254q0 159 77 252.5t212 93.5q81 0 140 -27.5t92 -77t48 -109.5t15 -133zM493 332q0 156 -39 231t-121 75q-155 0 -155 -298q0 -156 38 -233t121 -77q156 0 156 302z" />
    <glyph glyph-name="P" unicode="P" horiz-adv-x="615" 
d="M234 334q17 -2 48 -2q90 0 125.5 42.5t35.5 114.5q0 87 -59 116q-36 19 -94 19h-56v-290zM234 288v-164q0 -55 16.5 -79t71.5 -24v-22q-62 2 -133 2q-77 0 -151 -2v22q44 1 59 23.5t15 70.5v454q0 44 -13.5 61t-60.5 18v21q33 -2 150 -2q18 0 74 0.5t74 0.5
q240 0 240 -171q0 -42 -13.5 -77.5t-43.5 -66.5t-87 -49t-137 -18q-38 0 -61 2z" />
    <glyph glyph-name="Q" unicode="Q" horiz-adv-x="673" 
d="M628 334q0 -117 -41 -200.5t-121 -120.5q99 -75 159 -75q29 0 46 7l6 -5q-13 -35 -42 -59t-69 -24q-48 0 -98 27.5t-137 102.5q-146 2 -216.5 96t-70.5 252q0 159 77 252.5t212 93.5q81 0 140 -27.5t92 -77t48 -109.5t15 -133zM493 332q0 156 -39 231t-121 75
q-155 0 -155 -298q0 -156 38 -233t121 -77q156 0 156 302z" />
    <glyph glyph-name="R" unicode="R" horiz-adv-x="670" 
d="M324 -1q-62 2 -156 2q-56 0 -130 -2v22q46 1 60 24.5t14 71.5v452q0 44 -13.5 61t-60.5 18v21q35 -2 120 -2q18 0 84 0.5t84 0.5q127 0 183 -41.5t56 -124.5q0 -63 -39.5 -111t-128.5 -68q34 -4 74 -65q13 -20 38 -61t39 -63q32 -49 62 -68q24 -14 58 -14l3 -5
q-16 -21 -45.5 -37.5t-61.5 -16.5q-41 0 -72 18t-61 76q-88 169 -106 189q-20 23 -52 24q-17 0 -39 2v-184q0 -52 17 -74t73 -23v-22zM234 346q14 -2 39 -2q93 0 129 40.5t36 108.5q0 71 -38.5 101t-120.5 30h-45v-278z" />
    <glyph glyph-name="S" unicode="S" horiz-adv-x="537" 
d="M111 192l6 -5q0 -80 41.5 -118t104.5 -38q60 0 99 31t39 87q0 80 -119 126l-84 32q-144 53 -144 188q0 84 66.5 135t176.5 51q100 0 145.5 -32.5t45.5 -72.5q0 -54 -80 -69l-7 4q-1 127 -115 127q-55 0 -90.5 -28t-35.5 -73q0 -42 26 -71t89 -53l75 -29q87 -34 124 -80
t37 -113q0 -91 -72.5 -147.5t-184.5 -56.5q-114 0 -171.5 39.5t-57.5 94.5q0 61 86 71z" />
    <glyph glyph-name="T" unicode="T" horiz-adv-x="603" 
d="M441 -1q-64 2 -141 2q-105 0 -137 -2v22q47 1 62 23t15 69v507h-36q-81 0 -110.5 -22.5t-46.5 -95.5h-24q10 145 11 166q153 -2 269 -2q114 0 267 2q3 -70 10 -166h-24q-17 74 -46.5 96t-111.5 22h-35v-507q0 -47 15.5 -69t62.5 -23v-22z" />
    <glyph glyph-name="U" unicode="U" horiz-adv-x="697" 
d="M680 647q-47 -1 -59.5 -20.5t-12.5 -75.5v-310q0 -90 -19 -133q-51 -119 -219 -119q-107 0 -165 29t-83 86q-21 50 -21 131v334q0 44 -13 60.5t-61 17.5v22q37 -2 140 -2q93 0 130 2v-22q-47 -1 -60 -17t-13 -61v-328q0 -76 14 -114q32 -81 141 -81q116 0 152 85
q15 35 15 110v312q0 50 -14 71.5t-61 22.5v21q74 -2 117 -2q32 0 92 2v-21z" />
    <glyph glyph-name="V" unicode="V" horiz-adv-x="658" 
d="M362 -4h-76q-13 49 -50 147l-151 413q-10 26 -15 38t-14.5 26.5t-21.5 20t-29 6.5v22q76 -2 151 -2q61 0 125 2v-22q-74 -2 -74 -41q0 -18 14 -57l138 -395l134 377q18 54 18 75q0 39 -73 41v22q64 -2 122 -2q17 0 93 2v-22q-35 -1 -51.5 -22t-34.5 -69l-153 -412
q-36 -96 -52 -148z" />
    <glyph glyph-name="W" unicode="W" horiz-adv-x="946" 
d="M323 -4h-77q-14 56 -40 148l-120 412q-14 48 -31.5 69t-51.5 22v22q76 -2 153 -2q62 0 126 2v-22q-44 -1 -58.5 -11t-14.5 -32q0 -18 10 -56l101 -368l100 317q31 102 47 171h75q20 -74 51 -173l98 -315l97 349q13 48 13 73q0 22 -16 33t-56 12v22q64 -2 117 -2
q57 0 97 2v-22q-33 -1 -50.5 -23t-31.5 -68l-121 -412q-1 -3 -41 -148h-77q-14 61 -42 145l-110 321l-105 -322q-29 -91 -42 -144z" />
    <glyph glyph-name="X" unicode="X" horiz-adv-x="694" 
d="M252 611q0 -16 36 -68l90 -132l89 127q36 51 36 73q0 19 -16 27.5t-57 9.5v21q64 -2 127 -2q24 0 100 2v-21q-23 -1 -44.5 -21t-58.5 -69l-145 -193l178 -259q22 -33 33 -46.5t29.5 -25.5t41.5 -13v-21q-38 2 -146 2q-82 0 -146 -2v21q66 1 66 31q0 12 -37 68l-110 162
l-109 -156q-37 -52 -37 -73q0 -18 17.5 -24.5t54.5 -7.5v-21q-64 2 -130 2q-36 0 -110 -2v21q34 3 58 21.5t57 63.5l166 224l-155 229q-36 53 -55 70t-46 19v21q38 -2 146 -2q79 0 143 2v-21q-35 -2 -50.5 -10t-15.5 -27z" />
    <glyph glyph-name="Y" unicode="Y" horiz-adv-x="650" 
d="M460 -1q-64 2 -134 2q-67 0 -141 -2v22q47 1 61.5 22t14.5 68v177l-160 269q-19 32 -29.5 47t-29 29t-39.5 15v21q38 -2 163 -2q65 0 129 2v-21q-73 -3 -73 -36q0 -19 31 -74l105 -182l103 173q33 56 33 81q0 36 -70 38v21q64 -2 128 -2q17 0 95 2v-21q-29 -2 -49 -22
t-50 -69l-164 -266v-180q0 -47 14.5 -68t61.5 -22v-22z" />
    <glyph glyph-name="Z" unicode="Z" horiz-adv-x="593" 
d="M554 -1q-164 2 -211 2q-188 0 -326 -2v19l373 601h-139q-97 0 -126.5 -18t-45.5 -90h-26q9 102 11 158q80 -2 226 -2q193 0 264 2v-20l-376 -600h184q96 0 129 20.5t50 92.5h24q-8 -99 -11 -163z" />
    <glyph glyph-name="bracketleft" unicode="[" horiz-adv-x="289" 
d="M264 -145h-189v870h189v-36h-95v-799h95v-35z" />
    <glyph glyph-name="backslash" unicode="\" horiz-adv-x="378" 
d="M281 -115l-260 823h75l260 -823h-75z" />
    <glyph glyph-name="bracketright" unicode="]" horiz-adv-x="289" 
d="M24 725h189v-870h-189v36h95v799h-95v35z" />
    <glyph glyph-name="asciicircum" unicode="^" horiz-adv-x="580" 
d="M485 336h-85l-110 245l-109 -246h-86l156 332h81z" />
    <glyph glyph-name="underscore" unicode="_" horiz-adv-x="486" 
d="M488 -124h-490v52h490v-52z" />
    <glyph glyph-name="grave" unicode="`" horiz-adv-x="300" 
d="M250 546l-17 -13q-38 25 -96 76t-88 85l80 47q49 -95 121 -195z" />
    <glyph glyph-name="a" unicode="a" horiz-adv-x="527" 
d="M339 63q-16 -30 -55 -53.5t-88 -23.5q-73 0 -114 38.5t-41 100.5q0 143 238 143q27 0 50 -5q0 5 0.5 15t0.5 16q0 59 -11 83q-21 44 -91 44q-94 0 -137 -65l-15 6q4 50 48.5 92.5t139.5 42.5q179 0 179 -159q0 -12 -1.5 -87t-1.5 -109q0 -54 16.5 -75.5t58.5 -21.5v-10
q-42 -44 -94 -44q-64 0 -82 72zM329 92q-1 29 -1 132q-10 1 -33 1q-137 0 -137 -91q0 -37 24.5 -57.5t58.5 -20.5q54 0 88 36z" />
    <glyph glyph-name="b" unicode="b" horiz-adv-x="573" 
d="M169 42q-48 -46 -93 -60l-5 4q10 33 10 145v448q0 57 -13.5 79t-59.5 23v12q64 56 122 56q33 0 48.5 -24.5t15.5 -86.5v-224q23 31 66.5 55.5t92.5 24.5q179 0 179 -243q0 -124 -58 -192.5t-151 -68.5q-88 0 -154 52zM194 82q40 -29 102 -29q49 0 80 47t31 148
q0 90 -29 133.5t-76 43.5q-70 0 -108 -48v-295z" />
    <glyph glyph-name="c" unicode="c" horiz-adv-x="478" 
d="M441 114q12 -10 12 -24q0 -29 -54.5 -66t-133.5 -37q-98 0 -161.5 64.5t-63.5 182.5q0 130 70.5 196.5t171.5 66.5q77 0 120.5 -24t43.5 -69q0 -51 -77 -67l-8 7q0 59 -21 85.5t-64 26.5q-112 0 -112 -206q0 -102 39.5 -147t97.5 -45q84 0 134 56h6z" />
    <glyph glyph-name="d" unicode="d" horiz-adv-x="588" 
d="M386 63q-60 -73 -145 -73q-82 0 -141.5 60t-59.5 183q0 118 62.5 189.5t163.5 71.5q69 0 113 -34v119q0 57 -13.5 79t-58.5 23v12q63 56 120 56q34 0 49.5 -24.5t15.5 -86.5v-486q0 -61 15.5 -85t64.5 -25v-11q-37 -39 -95 -39q-33 0 -58.5 18.5t-32.5 52.5zM379 100v314
q-34 26 -89 26t-90 -46.5t-35 -147.5q0 -103 33 -144.5t80 -41.5q65 0 101 40z" />
    <glyph glyph-name="e" unicode="e" horiz-adv-x="511" 
d="M161 253q1 -106 44 -150t109 -44q90 0 141 55h5q12 -10 12 -25q0 -28 -56.5 -65t-137.5 -37q-115 0 -176.5 68t-61.5 190q0 117 66.5 184.5t167.5 67.5q201 0 201 -213q0 -31 -39 -31h-275zM162 296q138 2 177 4q24 0 24 19q0 76 -23.5 106.5t-67.5 30.5
q-40 0 -72.5 -34.5t-37.5 -125.5z" />
    <glyph glyph-name="f" unicode="f" horiz-adv-x="332" 
d="M292 -1q-58 3 -135 3q-84 0 -121 -3v21q36 2 48 22.5t12 70.5v322h-67v28q40 9 54 29.5t21 78.5q6 51 26 88t48.5 55.5t56 27t55.5 8.5q121 0 121 -70q0 -20 -19 -37.5t-60 -21.5l-6 5q0 48 -12 65t-34 17q-40 0 -58 -44q-12 -29 -12 -103v-79h112v-47h-112v-322
q0 -51 18 -71t64 -22v-21z" />
    <glyph glyph-name="g" unicode="g" horiz-adv-x="499" 
d="M451 516h9q20 -20 20 -41q0 -25 -16 -36.5t-37 -11.5q-17 0 -45 6q43 -36 43 -102q0 -56 -40.5 -101t-127.5 -54q-17 -2 -52 -2q-23 -6 -36.5 -18.5t-13.5 -23.5q0 -14 17 -22q22 -8 114 -11q39 -1 65 -4t53.5 -11.5t43 -23t26 -39.5t10.5 -60q0 -79 -71 -128t-176 -49
q-107 0 -164 36.5t-57 86.5q0 34 27 58t69 32l4 -6q-18 -32 -18 -62q0 -47 39 -75t104 -28q71 0 106.5 29t35.5 72q0 37 -31.5 52.5t-126.5 22.5q-89 7 -121 21q-37 19 -37 60q0 63 89 99q-113 40 -113 148q0 74 50 119.5t144 45.5q58 0 110 -20q39 0 69.5 10.5t34.5 30.5z
M313 336q0 64 -20 91t-58 27q-76 0 -76 -120t76 -120q36 0 57 31t21 91z" />
    <glyph glyph-name="h" unicode="h" horiz-adv-x="588" 
d="M275 -1q-57 3 -133 3q-58 0 -114 -3v21q36 3 48.5 24t12.5 69v466q0 57 -13.5 79t-58.5 23v12q63 56 122 56q33 0 48 -22.5t15 -83.5v-238q25 35 70 61t97 26q83 0 113 -61q15 -32 15 -95v-177q0 -52 7 -76q14 -42 74 -42v-11q-41 -39 -92 -39q-76 0 -94 55q-9 24 -9 103
v154q0 60 -11 81q-16 31 -57 31q-67 0 -113 -41v-266q0 -42 15 -64t58 -24v-21z" />
    <glyph glyph-name="i" unicode="i" horiz-adv-x="297" 
d="M285 -1q-59 3 -136 3q-73 0 -111 -3v21q37 3 49 25t12 74v182q0 74 -14.5 99.5t-60.5 25.5v12q58 55 114 55q27 0 46.5 -16.5t24.5 -47.5q3 -19 3 -57v-260q0 -48 16 -69t57 -23v-21zM208 643q0 -28 -18 -46.5t-46 -18.5q-29 0 -48 18.5t-19 46.5q0 29 19 47.5t48 18.5
q28 0 46 -18.5t18 -47.5z" />
    <glyph glyph-name="j" unicode="j" horiz-adv-x="286" 
d="M-1 -200v9q41 17 58 34t26.5 59t9.5 126v273q0 74 -14.5 99.5t-60.5 25.5v12q58 55 114 55q30 0 49 -18.5t23 -50.5q2 -14 2 -59v-325q0 -116 -15 -150q-43 -94 -160 -94q-22 0 -32 4zM202 643q0 -28 -18 -46.5t-46 -18.5q-29 0 -48 18.5t-19 46.5q0 29 19 47.5t48 18.5
q28 0 46 -18.5t18 -47.5z" />
    <glyph glyph-name="k" unicode="k" horiz-adv-x="566" 
d="M273 -1q-57 3 -133 3q-60 0 -115 -3v21q37 3 49.5 24t12.5 69v466q0 57 -13.5 79t-59.5 23v12q64 56 122 56q33 0 48.5 -23t15.5 -83v-536q0 -42 15 -63.5t58 -23.5v-21zM565 63q-19 -37 -49 -54.5t-55 -17.5q-60 0 -110 65q-28 36 -74.5 105t-62.5 87v12q21 8 36 19
q25 18 58.5 48.5t50.5 51.5q25 30 25 58q0 13 -14 25v8q21 21 68 21q53 0 53 -42q0 -30 -67 -89q-40 -34 -100 -80q58 -85 116 -156q47 -57 88 -57q17 0 32 3z" />
    <glyph glyph-name="l" unicode="l" horiz-adv-x="287" 
d="M276 -1q-57 3 -132 3q-60 0 -115 -3v21q36 3 48.5 24t12.5 69v466q0 57 -13.5 79t-59.5 22v12q64 57 123 57q33 0 48.5 -22t15.5 -84v-536q0 -42 14.5 -63.5t57.5 -23.5v-21z" />
    <glyph glyph-name="m" unicode="m" horiz-adv-x="880" 
d="M280 -1q-58 3 -129 3q-60 0 -115 -3v21q37 3 50 24t13 69v191q0 72 -15 97t-61 25v12q59 55 109 55q74 0 76 -88q25 36 70.5 63t96.5 27q102 0 121 -89q25 37 69.5 63t95.5 26q85 0 113 -61q15 -32 15 -96v-179q0 -52 7 -76q12 -42 74 -42v-11q-39 -39 -92 -39
q-77 0 -95 55q-8 25 -8 103v157q0 60 -11 81q-14 30 -55 30q-62 0 -108 -41q2 -22 2 -38v-231q0 -42 15 -63.5t57 -23.5v-21q-59 3 -132 3q-53 0 -109 -3v21q32 3 43 23.5t11 69.5v193q0 62 -10 82q-14 29 -56 29q-65 0 -110 -40v-270q0 -41 15 -63t53 -24v-21z" />
    <glyph glyph-name="n" unicode="n" horiz-adv-x="597" 
d="M284 -1q-58 3 -133 3q-60 0 -115 -3v21q37 3 50 24t13 69v191q0 72 -15 97t-61 25v12q59 55 109 55q74 0 76 -88q25 37 71 63.5t100 26.5q81 0 111 -61q16 -34 16 -96v-179q0 -52 7 -76q12 -42 73 -42v-11q-41 -39 -90 -39q-76 0 -94 55q-9 28 -9 103v157q0 58 -12 80
q-16 31 -57 31q-66 0 -112 -40v-270q0 -42 15 -63.5t57 -23.5v-21z" />
    <glyph glyph-name="o" unicode="o" horiz-adv-x="551" 
d="M510 244q0 -116 -63.5 -186.5t-173.5 -70.5q-111 0 -172 67.5t-61 187.5q0 117 65 186t174 69q117 0 174 -68t57 -185zM388 245q0 117 -27 164t-84 47q-112 0 -112 -201q0 -122 26 -175t87 -53q59 0 84.5 52.5t25.5 165.5z" />
    <glyph glyph-name="p" unicode="p" horiz-adv-x="586" 
d="M287 -209q-57 3 -139 3q-60 0 -115 -3v22q37 3 49.5 23.5t12.5 69.5v396q0 69 -13 96.5t-62 27.5v12q55 55 109 55q34 0 51.5 -18t22.5 -56q27 36 66.5 56.5t83.5 20.5q82 0 138 -58.5t56 -185.5q0 -118 -61 -187.5t-162 -69.5q-70 0 -115 36v-130q0 -48 16 -66.5
t62 -21.5v-22zM208 76q34 -26 92 -26q54 0 88 45.5t34 144.5q0 185 -111 185q-62 0 -103 -37v-312z" />
    <glyph glyph-name="q" unicode="q" horiz-adv-x="581" 
d="M378 103v312q-38 25 -86 25q-127 0 -127 -208q0 -91 34 -130.5t80 -39.5q60 0 99 41zM555 -209q-59 3 -135 3q-80 0 -116 -3v21q37 3 55.5 21.5t18.5 66.5v163q-17 -29 -52 -50t-83 -21q-90 0 -146.5 61.5t-56.5 178.5q0 123 64.5 193.5t161.5 70.5q81 0 131 -41
q10 14 40 29.5t57 21.5l8 -5q-10 -44 -10 -150v-452q0 -43 14 -64t49 -23v-21z" />
    <glyph glyph-name="r" unicode="r" horiz-adv-x="407" 
d="M290 -1q-57 3 -137 3q-63 0 -113 -3v21q35 3 47 24.5t12 69.5v190q0 73 -14.5 98t-60.5 25v12q57 55 109 55q35 0 54.5 -20.5t20.5 -73.5q15 35 47.5 65t76.5 30q65 0 65 -52q0 -42 -47 -76l-8 3q-13 37 -53 37q-19 0 -41 -10.5t-36 -27.5v-263q0 -41 16 -62.5t62 -23.5
v-21z" />
    <glyph glyph-name="s" unicode="s" horiz-adv-x="446" 
d="M107 153l7 -5q0 -59 31.5 -89.5t83.5 -30.5q43 0 68.5 20t25.5 56q0 53 -73 78l-62 21q-68 23 -99.5 57t-31.5 91q0 67 54 106.5t137 39.5q80 0 115 -25t35 -60q0 -44 -69 -59l-7 3q0 101 -86 101q-37 0 -63 -17.5t-26 -52.5q0 -52 71 -75l61 -20q78 -26 108 -62t30 -87
q0 -68 -54 -112t-153 -44q-87 0 -131.5 31.5t-44.5 71.5q0 52 73 63z" />
    <glyph glyph-name="t" unicode="t" horiz-adv-x="330" 
d="M332 56q-49 -66 -123 -66q-92 0 -114 70q-8 29 -8 74v301h-65v28q52 12 87 42.5t63 105.5h29v-129h105v-47h-106v-276q0 -37 4 -56q12 -50 61 -50q25 0 61 12z" />
    <glyph glyph-name="u" unicode="u" horiz-adv-x="593" 
d="M397 67q-24 -38 -65 -59t-90 -21q-87 0 -126 58q-22 33 -22 117v141q0 52 -2 66q-4 30 -18.5 43.5t-51.5 13.5v12q60 55 121 55q55 0 62 -61q3 -27 3 -72v-180q0 -60 14 -85q19 -30 69 -30q63 0 99 33v214q0 37 -3 61q-4 53 -71 53v12q22 22 56.5 38.5t63.5 16.5
q61 0 66 -64q2 -20 2 -92v-199q0 -53 17 -74.5t63 -22.5v-12q-38 -38 -95 -38q-37 0 -62 20t-30 56z" />
    <glyph glyph-name="v" unicode="v" horiz-adv-x="526" 
d="M295 -4h-69q-35 101 -82.5 218t-68.5 153q-11 19 -18 29t-19.5 19.5t-28.5 12.5v12q18 22 46 38t56 16q34 0 58 -45q15 -30 50 -118q6 -15 76 -206q76 167 84 186q22 50 22 95q0 31 -26 46v10q37 32 77 32q19 0 32.5 -11.5t13.5 -33.5q0 -44 -68 -178
q-109 -216 -135 -275z" />
    <glyph glyph-name="w" unicode="w" horiz-adv-x="779" 
d="M258 -4h-70q-73 273 -111 360q-10 23 -17 35t-21 23.5t-32 14.5v12q20 23 48 38t50 15q42 0 63 -43q21 -44 41 -116q34 -125 46 -190q93 232 129 333h69q50 -130 124 -333q2 6 23.5 64t33.5 93q20 61 20 105q0 12 -8 25.5t-19 19.5v10q37 32 76 32q47 0 47 -45
q0 -30 -63 -187q-92 -229 -106 -266h-68q-7 23 -121 330q-86 -208 -134 -330z" />
    <glyph glyph-name="x" unicode="x" horiz-adv-x="541" 
d="M371 441q40 53 75 53q51 0 70 -77l-6 -8q-36 0 -60.5 -6.5t-44.5 -29.5q-27 -30 -80 -102q49 -72 108 -152q12 -16 23 -25.5t23 -13.5t21 -5t25 -1l3 -8q-20 -31 -50 -52.5t-62 -21.5q-42 0 -71 43l-98 150q-63 -110 -91 -147q-34 -46 -79 -46q-23 0 -43 21t-27 52l5 9
q11 -4 24 -4q45 0 85 45q41 46 93 121l-81 118q-21 29 -40 40.5t-46 15.5l-6 9q22 33 51.5 54t52.5 21q36 0 68 -51l79 -122q47 76 79 120z" />
    <glyph glyph-name="y" unicode="y" horiz-adv-x="524" 
d="M235 -4q-123 307 -160 371q-16 28 -30 43t-36 18v13q55 53 100 53q37 0 59 -45q12 -24 49 -112q45 -111 84 -221q61 149 79 194q21 54 21 96q0 30 -27 46v10q41 32 80 32q17 0 30 -12t13 -34q0 -23 -14 -60t-50 -117q-16 -35 -44 -99t-43 -98t-35.5 -78.5t-37 -75
t-30.5 -52.5q-52 -83 -124 -83q-29 0 -50.5 26.5t-21.5 60.5l6 4q21 -8 40 -8t31 1.5t30 12.5t31 32q36 53 50 82z" />
    <glyph glyph-name="z" unicode="z" horiz-adv-x="493" 
d="M472 149q-2 -90 -18 -119.5t-72 -29.5q-22 0 -112.5 0.5t-129.5 0.5q-66 0 -118 -2l-6 13q40 55 84 120l204 300q-57 0 -97 -3q-65 -4 -93.5 -21.5t-40.5 -67.5h-18q-9 36 -9 59q0 51 15 68t66 17q14 0 50 -0.5t49 -0.5q119 0 229 2l6 -13q-39 -53 -80 -114l-202 -301
q33 -2 97 -2q74 0 115 22t64 72h17z" />
    <glyph glyph-name="braceleft" unicode="{" horiz-adv-x="324" 
d="M22 279v21q53 6 68.5 41.5t15.5 118.5v106q0 83 47 125t150 42v-31q-63 0 -84 -27.5t-21 -109.5v-130q0 -64 -25.5 -97.5t-78.5 -46.5q105 -25 105 -147v-130q0 -73 22 -103t82 -30v-33q-98 0 -146.5 34.5t-48.5 119.5v126q0 70 -18.5 108.5t-67.5 42.5z" />
    <glyph glyph-name="bar" unicode="|" horiz-adv-x="234" 
d="M159 -145h-84v870h84v-870z" />
    <glyph glyph-name="braceright" unicode="}" horiz-adv-x="324" 
d="M302 302v-21q-53 -6 -68.5 -41t-15.5 -118v-107q0 -167 -197 -167v31q63 0 84 28t21 110v130q0 64 25.5 97t78.5 46q-105 25 -105 148v129q0 73 -22 103.5t-82 30.5v32q98 0 146.5 -34.5t48.5 -119.5v-125q0 -70 18.5 -109t67.5 -43z" />
    <glyph glyph-name="asciitilde" unicode="~" horiz-adv-x="597" 
d="M105 190l-53 60q70 89 147 89q24 0 45.5 -8t74.5 -36t78 -28q48 0 97 69l51 -59q-66 -90 -145 -90q-44 0 -98 31q-72 39 -100 39q-52 0 -97 -67z" />
    <glyph glyph-name="uni00A0" unicode="&#xa0;" horiz-adv-x="220" 
 />
    <glyph glyph-name="exclamdown" unicode="&#xa1;" horiz-adv-x="277" 
d="M106 284h36q5 -56 17.5 -153.5t21.5 -170.5t9 -89q0 -31 -17 -49t-51 -18q-72 0 -72 64q0 24 10.5 97t25 169t20.5 150zM55 431q0 30 19.5 49t49.5 19t49.5 -19.5t19.5 -49.5q0 -29 -20 -49.5t-49 -20.5q-30 0 -49.5 20t-19.5 51z" />
    <glyph glyph-name="cent" unicode="&#xa2;" horiz-adv-x="501" 
d="M458 112q12 -12 12 -23q0 -25 -45 -59t-111 -41v-87h-45v86q-92 5 -149.5 68t-57.5 174q0 118 59 182.5t148 75.5v88h45v-86q69 -2 108 -26t39 -65q0 -50 -74 -65l-8 6q0 97 -65 108v-392q88 0 137 56h7zM181 246q0 -151 88 -182v383q-88 -23 -88 -201z" />
    <glyph glyph-name="sterling" unicode="&#xa3;" horiz-adv-x="581" 
d="M539 -1q-66 2 -233 2q-227 0 -282 -2v84q30 3 47 10q40 13 68 54t28 113h-102v54h99q-11 107 -11 152q0 87 63.5 135.5t157.5 48.5q92 0 135.5 -32.5t43.5 -80.5q0 -60 -87 -70l-7 4q-2 137 -91 137q-53 0 -73 -32.5t-20 -99.5q0 -15 4.5 -78.5t5.5 -83.5h139v-54h-140
q-3 -51 -41.5 -99t-101.5 -72q47 2 398 4v-94z" />
    <glyph glyph-name="currency" unicode="&#xa4;" horiz-adv-x="609" 
d="M495 50l-63 64q-52 -41 -127 -41q-74 0 -127 40l-63 -64l-58 60l63 65q-40 55 -40 130q0 73 40 130l-63 65l58 60l62 -64q54 41 128 41q71 0 127 -41l62 64l58 -60l-63 -65q41 -48 41 -130q0 -76 -41 -130l64 -65zM445 304q0 64 -39.5 106.5t-100.5 42.5t-101 -42
t-40 -105q0 -66 39.5 -109t101.5 -43q60 0 100 43t40 107z" />
    <glyph glyph-name="yen" unicode="&#xa5;" horiz-adv-x="654" 
d="M97 348h121l-107 177q-20 33 -30 47t-27 27t-38 14v21q37 -2 158 -2q62 0 126 2v-21q-72 -1 -72 -35q0 -20 30 -71l102 -174l100 166q32 51 32 77q0 35 -68 37v21q62 -2 122 -2q17 0 91 2v-21q-28 -1 -46.5 -20t-48.5 -68l-112 -177h127v-39h-151l-22 -35v-36h173v-39
h-173v-92q0 -45 14 -65t60 -21v-22q-62 2 -131 2q-65 0 -137 -2v22q46 1 61 21t15 65v92h-169v39h169v32l-24 39h-145v39z" />
    <glyph glyph-name="brokenbar" unicode="&#xa6;" horiz-adv-x="234" 
d="M159 360h-84v365h84v-365zM159 -146h-84v365h84v-365z" />
    <glyph glyph-name="section" unicode="&#xa7;" horiz-adv-x="522" 
d="M248 -177q-89 0 -137.5 34.5t-48.5 74.5q0 25 20.5 45t57.5 27l9 -4q1 -65 29.5 -100.5t76.5 -35.5q42 0 66.5 21.5t24.5 54.5q0 27 -20.5 57.5t-80.5 77.5l-93 75q-63 51 -85.5 87.5t-22.5 72.5q0 93 112 138q-58 51 -58 121q0 57 49.5 101t144.5 44q77 0 118 -31
t41 -67q0 -46 -78 -66l-7 4q-5 119 -85 119q-38 0 -60.5 -19t-22.5 -53q0 -53 68 -100l84 -59q82 -59 110.5 -99t28.5 -83q0 -91 -112 -144q70 -63 70 -133q0 -67 -54.5 -113.5t-144.5 -46.5zM351 138q44 31 44 77q0 44 -82 107l-70 54q-60 48 -63 50q-38 -24 -38 -66
q0 -52 75 -110l59 -47q45 -37 75 -65z" />
    <glyph glyph-name="dieresis" unicode="&#xa8;" horiz-adv-x="300" 
d="M115 624q0 -22 -15 -37t-37 -15t-36.5 15t-14.5 37q0 23 14.5 38t36.5 15t37 -15t15 -38zM288 624q0 -22 -15 -37t-37 -15t-36.5 15t-14.5 37q0 23 14.5 38t36.5 15t37 -15t15 -38z" />
    <glyph glyph-name="copyright" unicode="&#xa9;" horiz-adv-x="794" 
d="M753 334q0 -155 -101.5 -250.5t-254.5 -95.5q-154 0 -255 95.5t-101 250.5q0 152 103 249t253 97t253 -97t103 -249zM702 333q0 139 -87 221.5t-218 82.5t-217.5 -82.5t-86.5 -221.5q0 -137 86.5 -220.5t217.5 -83.5q130 0 217.5 83.5t87.5 220.5zM550 226q10 -10 10 -20
q0 -25 -47.5 -57t-116.5 -32q-85 0 -139.5 55.5t-54.5 156.5q0 113 61 170.5t149 57.5q66 0 103 -21t37 -60q0 -47 -64 -59l-8 5q0 98 -73 98q-105 0 -105 -177q0 -88 37.5 -127.5t88.5 -39.5q71 0 115 50h7z" />
    <glyph glyph-name="ordfeminine" unicode="&#xaa;" horiz-adv-x="393" 
d="M252 360q-13 -22 -43 -39.5t-67 -17.5q-56 0 -86.5 28t-30.5 74q0 108 181 108q17 0 39 -4q0 3 0.5 10.5t0.5 11.5q0 38 -9 57q-15 32 -68 32q-63 0 -100 -50l-15 5q5 37 41.5 70.5t103.5 33.5q135 0 135 -117q0 -9 -1 -63.5t-1 -79.5q0 -39 12.5 -53.5t45.5 -15.5v-10
q-33 -33 -72 -33q-52 0 -66 53zM245 386q-1 22 -1 89q-7 1 -25 1q-53 0 -78 -14.5t-25 -49.5q0 -26 18 -39.5t43 -13.5q43 0 68 27z" />
    <glyph glyph-name="guillemotleft" unicode="&#xab;" horiz-adv-x="484" 
d="M223 448l25 -18q-37 -75 -104 -189q74 -139 104 -199l-29 -17q-93 114 -184 212q76 80 188 211zM412 448l25 -18q-32 -65 -105 -189q91 -170 105 -199l-29 -17q-80 97 -184 212q73 77 188 211z" />
    <glyph glyph-name="logicalnot" unicode="&#xac;" horiz-adv-x="611" 
d="M520 57h-80v187h-373v78h453v-265z" />
    <glyph glyph-name="uni00AD" unicode="&#xad;" horiz-adv-x="307" 
d="M253 228h-199v69h199v-69z" />
    <glyph glyph-name="registered" unicode="&#xae;" horiz-adv-x="794" 
d="M753 334q0 -155 -101.5 -250.5t-254.5 -95.5q-154 0 -255 95.5t-101 250.5q0 152 103 249t253 97t253 -97t103 -249zM702 333q0 139 -87 221.5t-218 82.5t-217.5 -82.5t-86.5 -221.5q0 -137 86.5 -220.5t217.5 -83.5q130 0 217.5 83.5t87.5 220.5zM404 132q-22 1 -90 1
q-70 0 -94 -1v19q30 1 40 16.5t10 47.5v263q0 27 -9.5 38.5t-39.5 12.5v20q22 -1 94 -1q11 0 43 0.5t44 0.5q157 0 157 -106q0 -89 -116 -111q35 -4 61 -47q30 -52 40 -68q18 -28 33 -43q13 -12 39 -12l2 -9q-22 -25 -63 -25q-31 0 -50 13t-37 46q-8 16 -22.5 44.5t-24 46
t-15.5 25.5q-12 15 -31 15q-15 0 -24 1v-102q0 -23 2.5 -35t14.5 -21.5t36 -9.5v-19zM351 358q8 -1 27 -1q56 0 74.5 21.5t18.5 61.5q0 70 -89 70h-31v-152z" />
    <glyph glyph-name="macron" unicode="&#xaf;" horiz-adv-x="440" 
d="M355 585h-270v69h270v-69z" />
    <glyph glyph-name="degree" unicode="&#xb0;" horiz-adv-x="325" 
d="M162 719q59 0 100.5 -35.5t41.5 -102.5q0 -64 -42 -101.5t-100 -37.5q-59 0 -100 36.5t-41 101.5q0 64 41.5 101.5t99.5 37.5zM162 674q-36 0 -60 -25.5t-24 -67.5t23 -68t61 -26q39 0 62.5 25.5t23.5 67.5t-23.5 68t-62.5 26z" />
    <glyph glyph-name="plusminus" unicode="&#xb1;" horiz-adv-x="611" 
d="M346 185h-80v181h-187v77h187v182h80v-182h186v-77h-186v-181zM532 45h-453v78h453v-78z" />
    <glyph glyph-name="twosuperior" unicode="&#xb2;" 
d="M320 459q-19 1 -149 1q-105 0 -137 -1v48q121 90 161 141t40 98q0 77 -63 77q-35 0 -50.5 -27.5t-15.5 -69.5l-6 -3q-53 12 -53 55q0 29 34 53.5t94 24.5q73 0 107.5 -29.5t34.5 -80.5q0 -56 -48.5 -104.5t-161.5 -118.5q10 0 80 0.5t133 0.5v-65z" />
    <glyph glyph-name="threesuperior" unicode="&#xb3;" 
d="M225 666q108 -15 108 -92q0 -58 -44.5 -90t-125.5 -32q-55 0 -89.5 21t-34.5 53q0 38 52 49l5 -2q2 -90 75 -90q80 0 80 90q0 41 -23.5 57.5t-70.5 16.5q-21 0 -28 -1v32q6 -1 28 -1q42 0 59.5 19t17.5 64q0 27 -16 45t-49 18q-31 0 -47 -22.5t-16 -61.5l-5 -2
q-50 7 -50 44q0 27 34 51t92 24q138 0 138 -95q0 -76 -90 -95z" />
    <glyph glyph-name="acute" unicode="&#xb4;" horiz-adv-x="300" 
d="M69 533l-16 13q71 97 120 195l80 -47q-30 -34 -88 -85t-96 -76z" />
    <glyph glyph-name="mu" unicode="&#xb5;" horiz-adv-x="594" 
d="M205 -209h-111v512q0 52 -2 66q-4 30 -18.5 43.5t-51.5 13.5v12q60 55 121 55q55 0 62 -61q3 -27 3 -72v-179q0 -61 14 -84q19 -32 69 -32q63 0 99 33v214q0 37 -3 61q-4 53 -71 53v12q22 22 56.5 38.5t63.5 16.5q61 0 66 -64q2 -20 2 -92v-199q0 -53 17 -74.5t63 -22.5
v-12q-38 -38 -95 -38q-37 0 -62 20t-30 56q-14 -37 -47 -58.5t-71 -21.5q-53 0 -77 32q3 -62 3 -228z" />
    <glyph glyph-name="paragraph" unicode="&#xb6;" horiz-adv-x="659" 
d="M249 -185v10q58 27 66 93q3 27 3 117v198q-85 0 -141 17q-143 47 -143 201q0 153 150 200q56 17 137 17h137v-10q-31 -12 -48 -29.5t-23 -53.5q-5 -32 -5 -106v-433q0 -118 -12 -148q-13 -34 -45 -52.5t-76 -20.5zM318 275v189q0 72 7 105.5t31 56.5q-56 0 -82 -14
q-36 -19 -51.5 -54.5t-15.5 -102.5q0 -126 43 -159q22 -18 68 -21zM413 -155v10q53 27 61 93q6 54 6 117v401q0 118 12 148q13 33 49 52t80 21v-10q-63 -29 -70 -90q-6 -54 -6 -120v-401q0 -118 -12 -148q-13 -33 -46 -52t-74 -21z" />
    <glyph glyph-name="periodcentered" unicode="&#xb7;" horiz-adv-x="254" 
d="M196 275q0 -30 -19.5 -49t-48.5 -19q-31 0 -50.5 19.5t-19.5 49.5q0 29 20 49t50 20q29 0 48.5 -19.5t19.5 -50.5z" />
    <glyph glyph-name="cedilla" unicode="&#xb8;" horiz-adv-x="300" 
d="M76 -222l-2 21q39 6 58.5 22t19.5 35q0 25 -32 48q-25 18 -25 36q0 14 31 69l23 -8q-8 -16 -8 -30t17 -24q37 -22 42 -26q26 -19 26 -50q0 -42 -44.5 -67.5t-105.5 -25.5z" />
    <glyph glyph-name="onesuperior" unicode="&#xb9;" 
d="M295 459q-40 2 -101 2q-47 0 -97 -2v20q36 1 48.5 14.5t12.5 42.5v257q-36 -18 -72 -30l-9 22q34 17 96 64h67v-313q0 -29 12 -42.5t43 -14.5v-20z" />
    <glyph glyph-name="ordmasculine" unicode="&#xba;" horiz-adv-x="415" 
d="M386 493q0 -86 -48 -138t-132 -52q-85 0 -131.5 50t-46.5 138q0 87 49.5 137.5t132.5 50.5q90 0 133 -50t43 -136zM291 493q0 84 -20 118t-63 34q-83 0 -83 -145q0 -87 20 -125.5t64 -38.5q43 0 62.5 38.5t19.5 118.5z" />
    <glyph glyph-name="guillemotright" unicode="&#xbb;" horiz-adv-x="484" 
d="M260 25l-24 19q17 35 104 188q-86 162 -104 199l28 17q97 -117 185 -212q-48 -49 -189 -211zM72 25l-25 19q29 59 105 188q-62 114 -105 199l29 17q93 -112 184 -212q-66 -68 -188 -211z" />
    <glyph glyph-name="onequarter" unicode="&#xbc;" horiz-adv-x="857" 
d="M634 658l-377 -677h-57l377 677h57zM285 246q-40 2 -101 2q-47 0 -97 -2v20q36 1 48.5 14.5t12.5 42.5v256q-36 -18 -72 -30l-9 22q34 17 96 64h67v-312q0 -29 12 -42.5t43 -14.5v-20zM773 -1q-42 2 -93 2q-44 0 -94 -2v20q35 1 45.5 13t10.5 41v18h-177v45
q79 113 110 182q13 28 13 45q0 14 -6 22v4q13 14 36 14q31 0 31 -30q0 -23 -27 -71q-18 -32 -108 -154h128v137h79v-137h54v-57h-54v-18q0 -28 11 -40.5t41 -13.5v-20z" />
    <glyph glyph-name="onehalf" unicode="&#xbd;" horiz-adv-x="857" 
d="M642 658l-377 -677h-57l377 677h57zM298 246q-40 2 -101 2q-47 0 -97 -2v20q36 1 48.5 14.5t12.5 42.5v256q-36 -18 -72 -30l-9 22q34 17 96 64h67v-312q0 -29 12 -42.5t43 -14.5v-20zM800 -1q-19 1 -149 1q-105 0 -137 -1v48q121 90 161 141t40 98q0 77 -63 77
q-35 0 -50.5 -27.5t-15.5 -69.5l-6 -3q-53 12 -53 55q0 29 34 53.5t94 24.5q73 0 107.5 -29.5t34.5 -80.5q0 -56 -48.5 -104.5t-161.5 -118.5q10 0 80 0.5t133 0.5v-65z" />
    <glyph glyph-name="threequarters" unicode="&#xbe;" horiz-adv-x="857" 
d="M676 658l-377 -677h-57l377 677h57zM257 452q108 -15 108 -92q0 -58 -44.5 -90t-125.5 -32q-55 0 -89.5 21t-34.5 53q0 38 52 49l5 -2q2 -90 75 -90q80 0 80 90q0 41 -23.5 57.5t-70.5 16.5q-21 0 -28 -1v32q6 -1 28 -1q42 0 59.5 19t17.5 64q0 27 -16 45t-49 18
q-31 0 -47 -22.5t-16 -61.5l-5 -2q-50 7 -50 44q0 27 34 51t92 24q138 0 138 -95q0 -76 -90 -95zM806 -1q-42 2 -93 2q-44 0 -94 -2v20q35 1 45.5 13t10.5 41v18h-177v45q79 113 110 182q13 28 13 45q0 14 -6 22v4q13 14 36 14q31 0 31 -30q0 -23 -27 -71q-18 -32 -108 -154
h128v137h79v-137h54v-57h-54v-18q0 -28 11 -40.5t41 -13.5v-20z" />
    <glyph glyph-name="questiondown" unicode="&#xbf;" horiz-adv-x="454" 
d="M244 283l31 14q41 -56 41 -103q0 -38 -20.5 -67.5t-71.5 -71.5q-70 -59 -70 -119q0 -41 21 -62.5t54 -21.5q47 0 69 33.5t22 103.5l7 4q81 -12 81 -72q0 -48 -46 -80.5t-137 -32.5q-87 0 -137.5 38t-50.5 102q0 54 28.5 95.5t115.5 105.5q26 19 37 28t22.5 26.5
t11.5 36.5t-8 43zM189 431q0 30 19.5 49t49.5 19t49.5 -19.5t19.5 -49.5q0 -29 -20 -49.5t-49 -20.5q-30 0 -49.5 20t-19.5 51z" />
    <glyph glyph-name="Agrave" unicode="&#xc0;" horiz-adv-x="658" 
d="M218 -1q-64 2 -119 2q-20 0 -96 -2v21q33 1 52.5 23t36.5 67l158 415q25 64 50 143h76q20 -64 49 -143l147 -415q16 -46 33.5 -67.5t49.5 -22.5v-21q-76 2 -112 2q-101 0 -165 -2v21q70 2 70 41q0 25 -11 57l-32 89h-215l-34 -96q-12 -31 -12 -48q0 -41 74 -43v-21z
M208 255h181l-90 253zM422 726l-12 -16q-42 16 -110.5 53t-105.5 65l68 63q69 -84 160 -165z" />
    <glyph glyph-name="Aacute" unicode="&#xc1;" horiz-adv-x="658" 
d="M218 -1q-64 2 -119 2q-20 0 -96 -2v21q33 1 52.5 23t36.5 67l158 415q25 64 50 143h76q20 -64 49 -143l147 -415q16 -46 33.5 -67.5t49.5 -22.5v-21q-76 2 -112 2q-101 0 -165 -2v21q70 2 70 41q0 25 -11 57l-32 89h-215l-34 -96q-12 -31 -12 -48q0 -41 74 -43v-21z
M208 255h181l-90 253zM264 708l-12 15q84 75 159 166l68 -63q-36 -28 -104 -65t-111 -53z" />
    <glyph glyph-name="Acircumflex" unicode="&#xc2;" horiz-adv-x="658" 
d="M218 -1q-64 2 -119 2q-20 0 -96 -2v21q33 1 52.5 23t36.5 67l158 415q25 64 50 143h76q20 -64 49 -143l147 -415q16 -46 33.5 -67.5t49.5 -22.5v-21q-76 2 -112 2q-101 0 -165 -2v21q70 2 70 41q0 25 -11 57l-32 89h-215l-34 -96q-12 -31 -12 -48q0 -41 74 -43v-21z
M208 255h181l-90 253zM483 724l-13 -16q-69 30 -136 64q-52 -25 -137 -63l-12 15q15 14 37 36t54 54.5t51 51.5h13q111 -113 143 -142z" />
    <glyph glyph-name="Atilde" unicode="&#xc3;" horiz-adv-x="658" 
d="M218 -1q-64 2 -119 2q-20 0 -96 -2v21q33 1 52.5 23t36.5 67l158 415q25 64 50 143h76q20 -64 49 -143l147 -415q16 -46 33.5 -67.5t49.5 -22.5v-21q-76 2 -112 2q-101 0 -165 -2v21q70 2 70 41q0 25 -11 57l-32 89h-215l-34 -96q-12 -31 -12 -48q0 -41 74 -43v-21z
M208 255h181l-90 253zM495 825q-9 -29 -17 -48t-28.5 -37.5t-48.5 -18.5q-29 0 -75 20q-44 20 -65 20q-41 0 -65 -49l-18 6q10 44 35.5 78.5t62.5 34.5q23 0 73 -21q5 -2 15.5 -6.5t17 -7t15.5 -4.5t17 -2q25 0 38 9t26 33z" />
    <glyph glyph-name="Adieresis" unicode="&#xc4;" horiz-adv-x="658" 
d="M218 -1q-64 2 -119 2q-20 0 -96 -2v21q33 1 52.5 23t36.5 67l158 415q25 64 50 143h76q20 -64 49 -143l147 -415q16 -46 33.5 -67.5t49.5 -22.5v-21q-76 2 -112 2q-101 0 -165 -2v21q70 2 70 41q0 25 -11 57l-32 89h-215l-34 -96q-12 -31 -12 -48q0 -41 74 -43v-21z
M208 255h181l-90 253zM295 777q0 -22 -15 -37t-37 -15t-36.5 15t-14.5 37q0 23 14.5 38t36.5 15t37 -15.5t15 -37.5zM478 777q0 -22 -15 -37t-37 -15t-36.5 15t-14.5 37q0 23 14.5 38t36.5 15t37 -15t15 -38z" />
    <glyph glyph-name="Aring" unicode="&#xc5;" horiz-adv-x="658" 
d="M218 -1q-64 2 -119 2q-20 0 -96 -2v21q33 1 52.5 23t36.5 67l158 415q25 64 50 143h76q20 -64 49 -143l147 -415q16 -46 33.5 -67.5t49.5 -22.5v-21q-76 2 -112 2q-101 0 -165 -2v21q70 2 70 41q0 25 -11 57l-32 89h-215l-34 -96q-12 -31 -12 -48q0 -41 74 -43v-21z
M208 255h181l-90 253zM430 792q0 -41 -27 -68.5t-71 -27.5q-42 0 -69 27.5t-27 68.5t27 68.5t69 27.5q44 0 71 -27.5t27 -68.5zM388 791q0 28 -15.5 45t-40.5 17q-24 0 -39.5 -17t-15.5 -45q0 -26 15.5 -42.5t39.5 -16.5q25 0 40.5 16.5t15.5 42.5z" />
    <glyph glyph-name="AE" unicode="&#xc6;" horiz-adv-x="941" 
d="M234 -1q-64 2 -130 2q-28 0 -104 -2v21q29 1 52 20.5t54 69.5l263 431q31 49 31 69q0 18 -14.5 26.5t-55.5 10.5v22q55 -3 325 -3q30 0 220 2q2 -38 11 -151h-21q-16 70 -47 86.5t-131 16.5h-74v-252h35q81 0 106.5 14.5t28.5 58.5h23q-2 -31 -2 -100q0 -61 2 -91h-23
q-3 43 -27.5 58t-106.5 15h-36v-269q83 -7 144 -7q62 0 89 27t36 96h24q-3 -79 -3 -170q-106 1 -298 1q-126 0 -188 -2v22q45 1 59.5 22t14.5 68v108h-248l-51 -86q-30 -49 -30 -74q0 -38 72 -39v-21zM271 267h220v349q-15 -1 -31 -28z" />
    <glyph glyph-name="Ccedilla" unicode="&#xc7;" horiz-adv-x="572" 
d="M256 -232l-2 23q41 6 61.5 22.5t20.5 36.5q0 27 -34 51q-26 18 -26 37q0 18 20 52q-123 13 -187.5 100.5t-64.5 232.5q0 167 82 262t224 95q98 0 145.5 -29t47.5 -72q0 -29 -19 -49t-72 -30l-6 7q0 132 -100 132q-76 0 -122 -74t-46 -232q0 -131 50.5 -197.5t136.5 -66.5
q103 0 164 67h8q11 -10 11 -23q0 -39 -61.5 -82.5t-146.5 -43.5h-14q-2 -7 -2 -16q0 -15 17 -25q4 -2 19.5 -11t25.5 -16q26 -19 26 -54q0 -44 -46.5 -70.5t-109.5 -26.5z" />
    <glyph glyph-name="Egrave" unicode="&#xc8;" horiz-adv-x="564" 
d="M524 0q-105 1 -346 1q-48 0 -140 -2v22q43 1 58.5 22.5t15.5 67.5v464q0 42 -14.5 56.5t-59.5 15.5v22q69 -3 199 -3q106 0 259 2q5 -82 11 -151h-23q-17 70 -47 86.5t-129 16.5h-74v-249h36q82 0 106.5 14.5t27.5 57.5h23q-2 -62 -2 -100q0 -60 2 -91h-23
q-3 43 -27 58.5t-106 15.5h-37v-272q68 -7 145 -7q60 0 87 27t36 96h25q-3 -81 -3 -170zM372 726l-12 -16q-42 16 -110.5 53t-105.5 65l68 63q69 -84 160 -165z" />
    <glyph glyph-name="Eacute" unicode="&#xc9;" horiz-adv-x="564" 
d="M524 0q-105 1 -346 1q-48 0 -140 -2v22q43 1 58.5 22.5t15.5 67.5v464q0 42 -14.5 56.5t-59.5 15.5v22q69 -3 199 -3q106 0 259 2q5 -82 11 -151h-23q-17 70 -47 86.5t-129 16.5h-74v-249h36q82 0 106.5 14.5t27.5 57.5h23q-2 -62 -2 -100q0 -60 2 -91h-23
q-3 43 -27 58.5t-106 15.5h-37v-272q68 -7 145 -7q60 0 87 27t36 96h25q-3 -81 -3 -170zM235 708l-12 15q84 75 159 166l68 -63q-36 -28 -104 -65t-111 -53z" />
    <glyph glyph-name="Ecircumflex" unicode="&#xca;" horiz-adv-x="564" 
d="M524 0q-105 1 -346 1q-48 0 -140 -2v22q43 1 58.5 22.5t15.5 67.5v464q0 42 -14.5 56.5t-59.5 15.5v22q69 -3 199 -3q106 0 259 2q5 -82 11 -151h-23q-17 70 -47 86.5t-129 16.5h-74v-249h36q82 0 106.5 14.5t27.5 57.5h23q-2 -62 -2 -100q0 -60 2 -91h-23
q-3 43 -27 58.5t-106 15.5h-37v-272q68 -7 145 -7q60 0 87 27t36 96h25q-3 -81 -3 -170zM455 724l-13 -16q-69 30 -136 64q-52 -25 -137 -63l-12 15q15 14 37 36t54 54.5t51 51.5h13q111 -113 143 -142z" />
    <glyph glyph-name="Edieresis" unicode="&#xcb;" horiz-adv-x="564" 
d="M524 0q-105 1 -346 1q-48 0 -140 -2v22q43 1 58.5 22.5t15.5 67.5v464q0 42 -14.5 56.5t-59.5 15.5v22q69 -3 199 -3q106 0 259 2q5 -82 11 -151h-23q-17 70 -47 86.5t-129 16.5h-74v-249h36q82 0 106.5 14.5t27.5 57.5h23q-2 -62 -2 -100q0 -60 2 -91h-23
q-3 43 -27 58.5t-106 15.5h-37v-272q68 -7 145 -7q60 0 87 27t36 96h25q-3 -81 -3 -170zM259 777q0 -22 -15 -37t-37 -15t-36.5 15t-14.5 37q0 23 14.5 38t36.5 15t37 -15.5t15 -37.5zM442 777q0 -22 -15 -37t-37 -15t-36.5 15t-14.5 37q0 23 14.5 38t36.5 15t37 -15t15 -38
z" />
    <glyph glyph-name="Igrave" unicode="&#xcc;" horiz-adv-x="345" 
d="M308 -1q-64 2 -137 2q-59 0 -133 -2v22q45 1 59.5 23.5t14.5 66.5v459q0 44 -13.5 60t-60.5 17v22q37 -2 133 -2q100 0 137 2v-22q-48 -1 -61 -17t-13 -60v-459q0 -43 14 -66t60 -24v-22zM248 726l-12 -16q-42 16 -110.5 53t-105.5 65l68 63q69 -84 160 -165z" />
    <glyph glyph-name="Iacute" unicode="&#xcd;" horiz-adv-x="345" 
d="M308 -1q-64 2 -137 2q-59 0 -133 -2v22q45 1 59.5 23.5t14.5 66.5v459q0 44 -13.5 60t-60.5 17v22q37 -2 133 -2q100 0 137 2v-22q-48 -1 -61 -17t-13 -60v-459q0 -43 14 -66t60 -24v-22zM134 708l-12 15q84 75 159 166l68 -63q-36 -28 -104 -65t-111 -53z" />
    <glyph glyph-name="Icircumflex" unicode="&#xce;" horiz-adv-x="345" 
d="M308 -1q-64 2 -137 2q-59 0 -133 -2v22q45 1 59.5 23.5t14.5 66.5v459q0 44 -13.5 60t-60.5 17v22q37 -2 133 -2q100 0 137 2v-22q-48 -1 -61 -17t-13 -60v-459q0 -43 14 -66t60 -24v-22zM324 724l-13 -16q-69 30 -136 64q-52 -25 -137 -63l-12 15q15 14 37 36t54 54.5
t51 51.5h13q111 -113 143 -142z" />
    <glyph glyph-name="Idieresis" unicode="&#xcf;" horiz-adv-x="345" 
d="M308 -1q-64 2 -137 2q-59 0 -133 -2v22q45 1 59.5 23.5t14.5 66.5v459q0 44 -13.5 60t-60.5 17v22q37 -2 133 -2q100 0 137 2v-22q-48 -1 -61 -17t-13 -60v-459q0 -43 14 -66t60 -24v-22zM134 777q0 -22 -15 -37t-37 -15t-36.5 15t-14.5 37q0 23 14.5 38t36.5 15
t37 -15.5t15 -37.5zM317 777q0 -22 -15 -37t-37 -15t-36.5 15t-14.5 37q0 23 14.5 38t36.5 15t37 -15t15 -38z" />
    <glyph glyph-name="Eth" unicode="&#xd0;" horiz-adv-x="684" 
d="M38 -1v22q43 1 58.5 22.5t15.5 67.5v220h-76v49h76v195q0 42 -14.5 56.5t-59.5 15.5v22q56 -3 132 -3q17 0 67.5 1t66.5 1q166 0 251 -77.5t85 -252.5q0 -155 -77 -246.5t-244 -91.5q-17 0 -81 1t-81 1q-8 0 -119 -3zM234 55q30 -5 65 -5q105 0 155.5 63t50.5 218
q0 262 -164 288q-31 5 -107 5v-244h162v-49h-162v-276z" />
    <glyph glyph-name="Ntilde" unicode="&#xd1;" horiz-adv-x="711" 
d="M253 -1q-64 2 -102 2q-18 0 -56 -1t-57 -1v22q47 1 61.5 22t14.5 68v474q-28 40 -80 42l-4 11q59 40 124 40q42 0 69.5 -21.5t54.5 -59.5q114 -154 276 -402q-3 38 -6 363q-1 45 -16 67t-58 23v21q36 -2 112 -2q31 0 95 2v-21q-47 -1 -60 -21.5t-13 -68.5v-561h-72
q-79 127 -192 296t-175 249q4 -142 4 -431q0 -46 16.5 -67.5t63.5 -22.5v-22zM520 825q-9 -29 -17 -48t-28.5 -37.5t-48.5 -18.5q-29 0 -75 20q-44 20 -65 20q-41 0 -65 -49l-18 6q10 44 35.5 78.5t62.5 34.5q23 0 73 -21q52 -20 65 -20q25 0 38 9t26 33z" />
    <glyph glyph-name="Ograve" unicode="&#xd2;" horiz-adv-x="673" 
d="M628 334q0 -159 -74.5 -253t-215.5 -94q-150 0 -222 94t-72 254q0 159 77 252.5t212 93.5q81 0 140 -27.5t92 -77t48 -109.5t15 -133zM493 332q0 156 -39 231t-121 75q-155 0 -155 -298q0 -156 38 -233t121 -77q156 0 156 302zM418 730l-18 -17q-39 22 -101 69t-94 79
l76 51q49 -79 137 -182z" />
    <glyph glyph-name="Oacute" unicode="&#xd3;" horiz-adv-x="673" 
d="M628 334q0 -159 -74.5 -253t-215.5 -94q-150 0 -222 94t-72 254q0 159 77 252.5t212 93.5q81 0 140 -27.5t92 -77t48 -109.5t15 -133zM493 332q0 156 -39 231t-121 75q-155 0 -155 -298q0 -156 38 -233t121 -77q156 0 156 302zM264 708l-12 15q84 75 159 166l68 -63
q-36 -28 -104 -65t-111 -53z" />
    <glyph glyph-name="Ocircumflex" unicode="&#xd4;" horiz-adv-x="673" 
d="M628 334q0 -159 -74.5 -253t-215.5 -94q-150 0 -222 94t-72 254q0 159 77 252.5t212 93.5q81 0 140 -27.5t92 -77t48 -109.5t15 -133zM493 332q0 156 -39 231t-121 75q-155 0 -155 -298q0 -156 38 -233t121 -77q156 0 156 302zM486 724l-13 -16q-69 30 -136 64
q-52 -25 -137 -63l-12 15q15 14 37 36t54 54.5t51 51.5h13q111 -113 143 -142z" />
    <glyph glyph-name="Otilde" unicode="&#xd5;" horiz-adv-x="673" 
d="M628 334q0 -159 -74.5 -253t-215.5 -94q-150 0 -222 94t-72 254q0 159 77 252.5t212 93.5q81 0 140 -27.5t92 -77t48 -109.5t15 -133zM493 332q0 156 -39 231t-121 75q-155 0 -155 -298q0 -156 38 -233t121 -77q156 0 156 302zM497 825q-9 -29 -17 -48t-28.5 -37.5
t-48.5 -18.5q-29 0 -75 20q-44 20 -65 20q-41 0 -65 -49l-18 6q10 44 35.5 78.5t62.5 34.5q23 0 73 -21q5 -2 15.5 -6.5t17 -7t15.5 -4.5t17 -2q25 0 38 9t26 33z" />
    <glyph glyph-name="Odieresis" unicode="&#xd6;" horiz-adv-x="673" 
d="M628 334q0 -159 -74.5 -253t-215.5 -94q-150 0 -222 94t-72 254q0 159 77 252.5t212 93.5q81 0 140 -27.5t92 -77t48 -109.5t15 -133zM493 332q0 156 -39 231t-121 75q-155 0 -155 -298q0 -156 38 -233t121 -77q156 0 156 302zM298 777q0 -22 -15 -37t-37 -15t-36.5 15
t-14.5 37q0 23 14.5 38t36.5 15t37 -15.5t15 -37.5zM481 777q0 -22 -15 -37t-37 -15t-36.5 15t-14.5 37q0 23 14.5 38t36.5 15t37 -15t15 -38z" />
    <glyph glyph-name="multiply" unicode="&#xd7;" horiz-adv-x="611" 
d="M495 167l-55 -56l-135 132l-132 -133l-54 53l133 134l-136 132l56 58l134 -133l133 133l54 -55l-133 -132z" />
    <glyph glyph-name="Oslash" unicode="&#xd8;" horiz-adv-x="673" 
d="M628 334q0 -159 -74.5 -253t-215.5 -94q-97 0 -164 42l-50 -80l-46 29l54 85q-88 91 -88 272q0 159 77 252.5t212 93.5q97 0 163 -41l51 80l47 -30l-54 -85q88 -89 88 -271zM493 332q0 101 -17 172l-257 -404q39 -70 118 -70q156 0 156 302zM178 340q0 -111 17 -176
l256 404q-40 70 -118 70q-155 0 -155 -298z" />
    <glyph glyph-name="Ugrave" unicode="&#xd9;" horiz-adv-x="697" 
d="M680 647q-47 -1 -59.5 -20.5t-12.5 -75.5v-310q0 -90 -19 -133q-51 -119 -219 -119q-107 0 -165 29t-83 86q-21 50 -21 131v334q0 44 -13 60.5t-61 17.5v22q37 -2 140 -2q93 0 130 2v-22q-47 -1 -60 -17t-13 -61v-328q0 -76 14 -114q32 -81 141 -81q116 0 152 85
q15 35 15 110v312q0 50 -14 71.5t-61 22.5v21q74 -2 117 -2q32 0 92 2v-21zM438 726l-12 -16q-42 16 -110.5 53t-105.5 65l68 63q69 -84 160 -165z" />
    <glyph glyph-name="Uacute" unicode="&#xda;" horiz-adv-x="697" 
d="M680 647q-47 -1 -59.5 -20.5t-12.5 -75.5v-310q0 -90 -19 -133q-51 -119 -219 -119q-107 0 -165 29t-83 86q-21 50 -21 131v334q0 44 -13 60.5t-61 17.5v22q37 -2 140 -2q93 0 130 2v-22q-47 -1 -60 -17t-13 -61v-328q0 -76 14 -114q32 -81 141 -81q116 0 152 85
q15 35 15 110v312q0 50 -14 71.5t-61 22.5v21q74 -2 117 -2q32 0 92 2v-21zM307 708l-12 15q84 75 159 166l68 -63q-36 -28 -104 -65t-111 -53z" />
    <glyph glyph-name="Ucircumflex" unicode="&#xdb;" horiz-adv-x="697" 
d="M680 647q-47 -1 -59.5 -20.5t-12.5 -75.5v-310q0 -90 -19 -133q-51 -119 -219 -119q-107 0 -165 29t-83 86q-21 50 -21 131v334q0 44 -13 60.5t-61 17.5v22q37 -2 140 -2q93 0 130 2v-22q-47 -1 -60 -17t-13 -61v-328q0 -76 14 -114q32 -81 141 -81q116 0 152 85
q15 35 15 110v312q0 50 -14 71.5t-61 22.5v21q74 -2 117 -2q32 0 92 2v-21zM519 724l-13 -16q-69 30 -136 64q-52 -25 -137 -63l-12 15q15 14 37 36t54 54.5t51 51.5h13q111 -113 143 -142z" />
    <glyph glyph-name="Udieresis" unicode="&#xdc;" horiz-adv-x="697" 
d="M680 647q-47 -1 -59.5 -20.5t-12.5 -75.5v-310q0 -90 -19 -133q-51 -119 -219 -119q-107 0 -165 29t-83 86q-21 50 -21 131v334q0 44 -13 60.5t-61 17.5v22q37 -2 140 -2q93 0 130 2v-22q-47 -1 -60 -17t-13 -61v-328q0 -76 14 -114q32 -81 141 -81q116 0 152 85
q15 35 15 110v312q0 50 -14 71.5t-61 22.5v21q74 -2 117 -2q32 0 92 2v-21zM324 777q0 -22 -15 -37t-37 -15t-36.5 15t-14.5 37q0 23 14.5 38t36.5 15t37 -15.5t15 -37.5zM507 777q0 -22 -15 -37t-37 -15t-36.5 15t-14.5 37q0 23 14.5 38t36.5 15t37 -15t15 -38z" />
    <glyph glyph-name="Yacute" unicode="&#xdd;" horiz-adv-x="650" 
d="M460 -1q-64 2 -134 2q-67 0 -141 -2v22q47 1 61.5 22t14.5 68v177l-160 269q-19 32 -29.5 47t-29 29t-39.5 15v21q38 -2 163 -2q65 0 129 2v-21q-73 -3 -73 -36q0 -19 31 -74l105 -182l103 173q33 56 33 81q0 36 -70 38v21q64 -2 128 -2q17 0 95 2v-21q-29 -2 -49 -22
t-50 -69l-164 -266v-180q0 -47 14.5 -68t61.5 -22v-22zM283 708l-12 15q84 75 159 166l68 -63q-36 -28 -104 -65t-111 -53z" />
    <glyph glyph-name="Thorn" unicode="&#xde;" horiz-adv-x="615" 
d="M316 -1q-64 2 -145 2q-59 0 -133 -2v22q45 1 59.5 23.5t14.5 66.5v459q0 44 -13.5 60t-60.5 17v22q37 -2 133 -2q100 0 137 2v-22q-48 -1 -61 -17t-13 -60v-32q35 2 100 2q242 0 242 -172q0 -42 -13 -77.5t-43 -66.5t-87 -49t-137 -18q-39 0 -62 2v-47q0 -45 17 -67.5
t65 -23.5v-22zM234 205q17 -2 49 -2q90 0 125 42.5t35 114.5q0 88 -59 118q-36 19 -111 19q-25 0 -39 -1v-291z" />
    <glyph glyph-name="germandbls" unicode="&#xdf;" horiz-adv-x="609" 
d="M210 -1q-28 3 -81 3q-56 0 -93 -3v22q37 2 48.5 21.5t11.5 70.5v322h-68v28q41 8 55 32.5t27 87.5q18 88 78.5 127.5t138.5 39.5q96 0 140 -44.5t44 -102.5q0 -49 -28 -83t-91 -82q-36 -28 -36 -52q0 -15 13.5 -26.5t48.5 -30.5l47 -25q63 -34 90 -70t27 -88
q0 -69 -51 -114t-131 -45q-79 0 -113.5 29t-34.5 59q0 19 17 34.5t48 22.5l7 -3q0 -41 20 -70.5t59 -29.5q40 0 63 23t23 63q0 47 -71 85l-56 30q-59 32 -80.5 59.5t-21.5 64.5q0 46 58 98q46 43 70.5 79t24.5 77q0 102 -91 102q-28 0 -52.5 -17t-39.5 -48q-20 -42 -20 -148
v-498z" />
    <glyph glyph-name="agrave" unicode="&#xe0;" horiz-adv-x="527" 
d="M339 63q-16 -30 -55 -53.5t-88 -23.5q-73 0 -114 38.5t-41 100.5q0 143 238 143q27 0 50 -5q0 5 0.5 15t0.5 16q0 59 -11 83q-21 44 -91 44q-94 0 -137 -65l-15 6q4 50 48.5 92.5t139.5 42.5q179 0 179 -159q0 -12 -1.5 -87t-1.5 -109q0 -54 16.5 -75.5t58.5 -21.5v-10
q-42 -44 -94 -44q-64 0 -82 72zM329 92q-1 29 -1 132q-10 1 -33 1q-137 0 -137 -91q0 -37 24.5 -57.5t58.5 -20.5q54 0 88 36zM329 546l-17 -13q-38 25 -96 76t-88 85l80 47q49 -95 121 -195z" />
    <glyph glyph-name="aacute" unicode="&#xe1;" horiz-adv-x="527" 
d="M339 63q-16 -30 -55 -53.5t-88 -23.5q-73 0 -114 38.5t-41 100.5q0 143 238 143q27 0 50 -5q0 5 0.5 15t0.5 16q0 59 -11 83q-21 44 -91 44q-94 0 -137 -65l-15 6q4 50 48.5 92.5t139.5 42.5q179 0 179 -159q0 -12 -1.5 -87t-1.5 -109q0 -54 16.5 -75.5t58.5 -21.5v-10
q-42 -44 -94 -44q-64 0 -82 72zM329 92q-1 29 -1 132q-10 1 -33 1q-137 0 -137 -91q0 -37 24.5 -57.5t58.5 -20.5q54 0 88 36zM214 533l-16 13q71 97 120 195l80 -47q-30 -34 -88 -85t-96 -76z" />
    <glyph glyph-name="acircumflex" unicode="&#xe2;" horiz-adv-x="527" 
d="M339 63q-16 -30 -55 -53.5t-88 -23.5q-73 0 -114 38.5t-41 100.5q0 143 238 143q27 0 50 -5q0 5 0.5 15t0.5 16q0 59 -11 83q-21 44 -91 44q-94 0 -137 -65l-15 6q4 50 48.5 92.5t139.5 42.5q179 0 179 -159q0 -12 -1.5 -87t-1.5 -109q0 -54 16.5 -75.5t58.5 -21.5v-10
q-42 -44 -94 -44q-64 0 -82 72zM329 92q-1 29 -1 132q-10 1 -33 1q-137 0 -137 -91q0 -37 24.5 -57.5t58.5 -20.5q54 0 88 36zM403 559l-14 -14q-32 19 -127 81q-62 -42 -127 -81l-14 14q45 46 135 162h12q117 -141 135 -162z" />
    <glyph glyph-name="atilde" unicode="&#xe3;" horiz-adv-x="527" 
d="M339 63q-16 -30 -55 -53.5t-88 -23.5q-73 0 -114 38.5t-41 100.5q0 143 238 143q27 0 50 -5q0 5 0.5 15t0.5 16q0 59 -11 83q-21 44 -91 44q-94 0 -137 -65l-15 6q4 50 48.5 92.5t139.5 42.5q179 0 179 -159q0 -12 -1.5 -87t-1.5 -109q0 -54 16.5 -75.5t58.5 -21.5v-10
q-42 -44 -94 -44q-64 0 -82 72zM329 92q-1 29 -1 132q-10 1 -33 1q-137 0 -137 -91q0 -37 24.5 -57.5t58.5 -20.5q54 0 88 36zM418 679q-9 -30 -17 -48.5t-28 -37t-48 -18.5q-27 0 -73 20q-42 20 -63 20q-40 0 -64 -49l-18 7q10 44 35 78.5t62 34.5q21 0 71 -22
q50 -19 63 -19q41 0 63 41z" />
    <glyph glyph-name="adieresis" unicode="&#xe4;" horiz-adv-x="527" 
d="M339 63q-16 -30 -55 -53.5t-88 -23.5q-73 0 -114 38.5t-41 100.5q0 143 238 143q27 0 50 -5q0 5 0.5 15t0.5 16q0 59 -11 83q-21 44 -91 44q-94 0 -137 -65l-15 6q4 50 48.5 92.5t139.5 42.5q179 0 179 -159q0 -12 -1.5 -87t-1.5 -109q0 -54 16.5 -75.5t58.5 -21.5v-10
q-42 -44 -94 -44q-64 0 -82 72zM329 92q-1 29 -1 132q-10 1 -33 1q-137 0 -137 -91q0 -37 24.5 -57.5t58.5 -20.5q54 0 88 36zM226 624q0 -22 -15 -37t-37 -15t-36.5 15t-14.5 37q0 23 14.5 38t36.5 15t37 -15t15 -38zM399 624q0 -22 -15 -37t-37 -15t-36.5 15t-14.5 37
q0 23 14.5 38t36.5 15t37 -15t15 -38z" />
    <glyph glyph-name="aring" unicode="&#xe5;" horiz-adv-x="527" 
d="M339 63q-16 -30 -55 -53.5t-88 -23.5q-73 0 -114 38.5t-41 100.5q0 143 238 143q27 0 50 -5q0 5 0.5 15t0.5 16q0 59 -11 83q-21 44 -91 44q-94 0 -137 -65l-15 6q4 50 48.5 92.5t139.5 42.5q179 0 179 -159q0 -12 -1.5 -87t-1.5 -109q0 -54 16.5 -75.5t58.5 -21.5v-10
q-42 -44 -94 -44q-64 0 -82 72zM329 92q-1 29 -1 132q-10 1 -33 1q-137 0 -137 -91q0 -37 24.5 -57.5t58.5 -20.5q54 0 88 36zM358 645q0 -41 -27 -68.5t-71 -27.5q-42 0 -69 27.5t-27 68.5t27 69t69 28q43 0 70.5 -28t27.5 -69zM316 644q0 29 -15.5 46t-40.5 17
q-24 0 -39.5 -17.5t-15.5 -45.5q0 -26 15.5 -42.5t39.5 -16.5q25 0 40.5 16.5t15.5 42.5z" />
    <glyph glyph-name="ae" unicode="&#xe6;" horiz-adv-x="796" 
d="M383 70q-37 -40 -77.5 -61.5t-103.5 -21.5q-72 0 -114 39.5t-42 100.5q0 77 64 109.5t188 32.5q16 0 36 -2q1 13 1 43q0 44 -12 69q-19 38 -81 38q-96 0 -145 -62l-15 6q6 49 54.5 92.5t134.5 43.5q105 0 140 -67q24 30 64.5 48.5t84.5 18.5q200 0 200 -214
q0 -30 -39 -30h-275q1 -106 44.5 -150t108.5 -44q91 0 141 55h5q12 -10 12 -25q0 -28 -56.5 -65t-137.5 -37q-124 0 -180 83zM361 107q-20 50 -22 118q-22 2 -41 2q-135 0 -135 -92q0 -39 23.5 -59.5t57.5 -20.5t65.5 15.5t51.5 36.5zM447 296q158 2 177 4q24 3 24 19
q0 76 -23.5 106.5t-67.5 30.5q-41 0 -73 -34.5t-37 -125.5z" />
    <glyph glyph-name="ccedilla" unicode="&#xe7;" horiz-adv-x="478" 
d="M199 -222l-2 21q39 6 58.5 22t19.5 35q0 25 -32 48q-25 18 -25 36q0 16 19 49q-88 9 -142.5 72.5t-54.5 172.5q0 130 70.5 196.5t171.5 66.5q77 0 120.5 -24t43.5 -69q0 -51 -77 -67l-8 7q0 59 -21 85.5t-64 26.5q-112 0 -112 -206q0 -102 39.5 -147t97.5 -45
q84 0 134 56h6q12 -10 12 -24q0 -29 -54 -65.5t-133 -37.5q-2 -7 -2 -16q0 -14 17 -24q37 -22 42 -26q26 -19 26 -50q0 -42 -44.5 -67.5t-105.5 -25.5z" />
    <glyph glyph-name="egrave" unicode="&#xe8;" horiz-adv-x="511" 
d="M161 253q1 -106 44 -150t109 -44q90 0 141 55h5q12 -10 12 -25q0 -28 -56.5 -65t-137.5 -37q-115 0 -176.5 68t-61.5 190q0 117 66.5 184.5t167.5 67.5q201 0 201 -213q0 -31 -39 -31h-275zM162 296q138 2 177 4q24 0 24 19q0 76 -23.5 106.5t-67.5 30.5
q-40 0 -72.5 -34.5t-37.5 -125.5zM339 546l-17 -13q-38 25 -96 76t-88 85l80 47q49 -95 121 -195z" />
    <glyph glyph-name="eacute" unicode="&#xe9;" horiz-adv-x="511" 
d="M161 253q1 -106 44 -150t109 -44q90 0 141 55h5q12 -10 12 -25q0 -28 -56.5 -65t-137.5 -37q-115 0 -176.5 68t-61.5 190q0 117 66.5 184.5t167.5 67.5q201 0 201 -213q0 -31 -39 -31h-275zM162 296q138 2 177 4q24 0 24 19q0 76 -23.5 106.5t-67.5 30.5
q-40 0 -72.5 -34.5t-37.5 -125.5zM218 533l-16 13q71 97 120 195l80 -47q-30 -34 -88 -85t-96 -76z" />
    <glyph glyph-name="ecircumflex" unicode="&#xea;" horiz-adv-x="511" 
d="M161 253q1 -106 44 -150t109 -44q90 0 141 55h5q12 -10 12 -25q0 -28 -56.5 -65t-137.5 -37q-115 0 -176.5 68t-61.5 190q0 117 66.5 184.5t167.5 67.5q201 0 201 -213q0 -31 -39 -31h-275zM162 296q138 2 177 4q24 0 24 19q0 76 -23.5 106.5t-67.5 30.5
q-40 0 -72.5 -34.5t-37.5 -125.5zM411 559l-14 -14q-32 19 -127 81q-62 -42 -127 -81l-14 14q45 46 135 162h12q117 -141 135 -162z" />
    <glyph glyph-name="edieresis" unicode="&#xeb;" horiz-adv-x="511" 
d="M161 253q1 -106 44 -150t109 -44q90 0 141 55h5q12 -10 12 -25q0 -28 -56.5 -65t-137.5 -37q-115 0 -176.5 68t-61.5 190q0 117 66.5 184.5t167.5 67.5q201 0 201 -213q0 -31 -39 -31h-275zM162 296q138 2 177 4q24 0 24 19q0 76 -23.5 106.5t-67.5 30.5
q-40 0 -72.5 -34.5t-37.5 -125.5zM232 624q0 -22 -15 -37t-37 -15t-36.5 15t-14.5 37q0 23 14.5 38t36.5 15t37 -15t15 -38zM405 624q0 -22 -15 -37t-37 -15t-36.5 15t-14.5 37q0 23 14.5 38t36.5 15t37 -15t15 -38z" />
    <glyph glyph-name="igrave" unicode="&#xec;" horiz-adv-x="297" 
d="M202 546l-17 -13q-38 25 -96 76t-88 85l80 47q49 -95 121 -195zM285 -1q-59 3 -136 3q-73 0 -111 -3v21q37 3 49 25t12 74v182q0 74 -14.5 99.5t-60.5 25.5v12q58 55 114 55q27 0 46.5 -16.5t24.5 -47.5q3 -19 3 -57v-260q0 -48 16 -69t57 -23v-21z" />
    <glyph glyph-name="iacute" unicode="&#xed;" horiz-adv-x="297" 
d="M77 533l-16 13q71 97 120 195l80 -47q-30 -34 -88 -85t-96 -76zM285 -1q-59 3 -136 3q-73 0 -111 -3v21q37 3 49 25t12 74v182q0 74 -14.5 99.5t-60.5 25.5v12q58 55 114 55q27 0 46.5 -16.5t24.5 -47.5q3 -19 3 -57v-260q0 -48 16 -69t57 -23v-21z" />
    <glyph glyph-name="icircumflex" unicode="&#xee;" horiz-adv-x="297" 
d="M285 -1q-59 3 -136 3q-73 0 -111 -3v21q37 3 49 25t12 74v182q0 74 -14.5 99.5t-60.5 25.5v12q58 55 114 55q27 0 46.5 -16.5t24.5 -47.5q3 -19 3 -57v-260q0 -48 16 -69t57 -23v-21zM282 559l-14 -14q-32 19 -127 81q-62 -42 -127 -81l-14 14q45 46 135 162h12
q117 -141 135 -162z" />
    <glyph glyph-name="idieresis" unicode="&#xef;" horiz-adv-x="297" 
d="M106 624q0 -22 -15 -37t-37 -15t-36.5 15t-14.5 37q0 23 14.5 38t36.5 15t37 -15t15 -38zM279 624q0 -22 -15 -37t-37 -15t-36.5 15t-14.5 37q0 23 14.5 38t36.5 15t37 -15t15 -38zM285 -1q-59 3 -136 3q-73 0 -111 -3v21q37 3 49 25t12 74v182q0 74 -14.5 99.5
t-60.5 25.5v12q58 55 114 55q27 0 46.5 -16.5t24.5 -47.5q3 -19 3 -57v-260q0 -48 16 -69t57 -23v-21z" />
    <glyph glyph-name="eth" unicode="&#xf0;" horiz-adv-x="554" 
d="M435 643l-79 -39q154 -121 154 -346q0 -126 -63 -198.5t-174 -72.5t-172 67.5t-61 187.5q0 113 66 181t173 68q53 0 75 -20q-29 56 -71 98l-119 -57l-20 42l102 49q-53 43 -110 64l13 34q93 -24 163 -66l104 50zM388 245q0 205 -111 205q-112 0 -112 -195q0 -122 26 -175
t87 -53q59 0 84.5 52.5t25.5 165.5z" />
    <glyph glyph-name="ntilde" unicode="&#xf1;" horiz-adv-x="597" 
d="M284 -1q-58 3 -133 3q-60 0 -115 -3v21q37 3 50 24t13 69v191q0 72 -15 97t-61 25v12q59 55 109 55q74 0 76 -88q25 37 71 63.5t100 26.5q81 0 111 -61q16 -34 16 -96v-179q0 -52 7 -76q12 -42 73 -42v-11q-41 -39 -90 -39q-76 0 -94 55q-9 28 -9 103v157q0 58 -12 80
q-16 31 -57 31q-66 0 -112 -40v-270q0 -42 15 -63.5t57 -23.5v-21zM452 679q-9 -30 -17 -48.5t-28 -37t-48 -18.5q-27 0 -73 20q-42 20 -63 20q-40 0 -64 -49l-18 7q10 44 35 78.5t62 34.5q21 0 71 -22q50 -19 63 -19q41 0 63 41z" />
    <glyph glyph-name="ograve" unicode="&#xf2;" horiz-adv-x="551" 
d="M510 244q0 -116 -63.5 -186.5t-173.5 -70.5q-111 0 -172 67.5t-61 187.5q0 117 65 186t174 69q117 0 174 -68t57 -185zM388 245q0 117 -27 164t-84 47q-112 0 -112 -201q0 -122 26 -175t87 -53q59 0 84.5 52.5t25.5 165.5zM336 546l-17 -13q-38 25 -96 76t-88 85l80 47
q49 -95 121 -195z" />
    <glyph glyph-name="oacute" unicode="&#xf3;" horiz-adv-x="551" 
d="M510 244q0 -116 -63.5 -186.5t-173.5 -70.5q-111 0 -172 67.5t-61 187.5q0 117 65 186t174 69q117 0 174 -68t57 -185zM388 245q0 117 -27 164t-84 47q-112 0 -112 -201q0 -122 26 -175t87 -53q59 0 84.5 52.5t25.5 165.5zM213 533l-16 13q71 97 120 195l80 -47
q-30 -34 -88 -85t-96 -76z" />
    <glyph glyph-name="ocircumflex" unicode="&#xf4;" horiz-adv-x="551" 
d="M510 244q0 -116 -63.5 -186.5t-173.5 -70.5q-111 0 -172 67.5t-61 187.5q0 117 65 186t174 69q117 0 174 -68t57 -185zM388 245q0 117 -27 164t-84 47q-112 0 -112 -201q0 -122 26 -175t87 -53q59 0 84.5 52.5t25.5 165.5zM416 559l-14 -14q-32 19 -127 81
q-62 -42 -127 -81l-14 14q45 46 135 162h12q117 -141 135 -162z" />
    <glyph glyph-name="otilde" unicode="&#xf5;" horiz-adv-x="551" 
d="M510 244q0 -116 -63.5 -186.5t-173.5 -70.5q-111 0 -172 67.5t-61 187.5q0 117 65 186t174 69q117 0 174 -68t57 -185zM388 245q0 117 -27 164t-84 47q-112 0 -112 -201q0 -122 26 -175t87 -53q59 0 84.5 52.5t25.5 165.5zM431 679q-9 -30 -17 -48.5t-28 -37t-48 -18.5
q-27 0 -73 20q-42 20 -63 20q-40 0 -64 -49l-18 7q10 44 35 78.5t62 34.5q21 0 71 -22q50 -19 63 -19q41 0 63 41z" />
    <glyph glyph-name="odieresis" unicode="&#xf6;" horiz-adv-x="551" 
d="M510 244q0 -116 -63.5 -186.5t-173.5 -70.5q-111 0 -172 67.5t-61 187.5q0 117 65 186t174 69q117 0 174 -68t57 -185zM388 245q0 117 -27 164t-84 47q-112 0 -112 -201q0 -122 26 -175t87 -53q59 0 84.5 52.5t25.5 165.5zM241 624q0 -22 -15 -37t-37 -15t-36.5 15
t-14.5 37q0 23 14.5 38t36.5 15t37 -15t15 -38zM414 624q0 -22 -15 -37t-37 -15t-36.5 15t-14.5 37q0 23 14.5 38t36.5 15t37 -15t15 -38z" />
    <glyph glyph-name="divide" unicode="&#xf7;" horiz-adv-x="611" 
d="M362 447q0 -25 -16.5 -41t-40.5 -16q-25 0 -41.5 16.5t-16.5 41.5q0 24 16.5 40.5t41.5 16.5q24 0 40.5 -16.5t16.5 -41.5zM532 257h-453v78h453v-78zM362 144q0 -25 -16.5 -41t-40.5 -16q-25 0 -41.5 16.5t-16.5 41.5t16.5 41t41.5 16q24 0 40.5 -16.5t16.5 -41.5z" />
    <glyph glyph-name="oslash" unicode="&#xf8;" horiz-adv-x="551" 
d="M510 244q0 -116 -63.5 -186.5t-173.5 -70.5q-68 0 -120 27l-42 -66l-44 26l44 69q-71 66 -71 199q0 117 65 186t174 69q64 0 109 -21l44 68l45 -28l-44 -68q77 -64 77 -204zM388 245q0 74 -10 117l-185 -286q26 -49 85 -49t84.5 52.5t25.5 165.5zM165 255q0 -75 8 -116
l180 282q-27 35 -76 35q-112 0 -112 -201z" />
    <glyph glyph-name="ugrave" unicode="&#xf9;" horiz-adv-x="593" 
d="M397 67q-24 -38 -65 -59t-90 -21q-87 0 -126 58q-22 33 -22 117v141q0 52 -2 66q-4 30 -18.5 43.5t-51.5 13.5v12q60 55 121 55q55 0 62 -61q3 -27 3 -72v-180q0 -60 14 -85q19 -30 69 -30q63 0 99 33v214q0 37 -3 61q-4 53 -71 53v12q22 22 56.5 38.5t63.5 16.5
q61 0 66 -64q2 -20 2 -92v-199q0 -53 17 -74.5t63 -22.5v-12q-38 -38 -95 -38q-37 0 -62 20t-30 56zM346 546l-17 -13q-38 25 -96 76t-88 85l80 47q49 -95 121 -195z" />
    <glyph glyph-name="uacute" unicode="&#xfa;" horiz-adv-x="593" 
d="M397 67q-24 -38 -65 -59t-90 -21q-87 0 -126 58q-22 33 -22 117v141q0 52 -2 66q-4 30 -18.5 43.5t-51.5 13.5v12q60 55 121 55q55 0 62 -61q3 -27 3 -72v-180q0 -60 14 -85q19 -30 69 -30q63 0 99 33v214q0 37 -3 61q-4 53 -71 53v12q22 22 56.5 38.5t63.5 16.5
q61 0 66 -64q2 -20 2 -92v-199q0 -53 17 -74.5t63 -22.5v-12q-38 -38 -95 -38q-37 0 -62 20t-30 56zM245 533l-16 13q71 97 120 195l80 -47q-30 -34 -88 -85t-96 -76z" />
    <glyph glyph-name="ucircumflex" unicode="&#xfb;" horiz-adv-x="593" 
d="M397 67q-24 -38 -65 -59t-90 -21q-87 0 -126 58q-22 33 -22 117v141q0 52 -2 66q-4 30 -18.5 43.5t-51.5 13.5v12q60 55 121 55q55 0 62 -61q3 -27 3 -72v-180q0 -60 14 -85q19 -30 69 -30q63 0 99 33v214q0 37 -3 61q-4 53 -71 53v12q22 22 56.5 38.5t63.5 16.5
q61 0 66 -64q2 -20 2 -92v-199q0 -53 17 -74.5t63 -22.5v-12q-38 -38 -95 -38q-37 0 -62 20t-30 56zM429 559l-14 -14q-32 19 -127 81q-62 -42 -127 -81l-14 14q45 46 135 162h12q117 -141 135 -162z" />
    <glyph glyph-name="udieresis" unicode="&#xfc;" horiz-adv-x="593" 
d="M397 67q-24 -38 -65 -59t-90 -21q-87 0 -126 58q-22 33 -22 117v141q0 52 -2 66q-4 30 -18.5 43.5t-51.5 13.5v12q60 55 121 55q55 0 62 -61q3 -27 3 -72v-180q0 -60 14 -85q19 -30 69 -30q63 0 99 33v214q0 37 -3 61q-4 53 -71 53v12q22 22 56.5 38.5t63.5 16.5
q61 0 66 -64q2 -20 2 -92v-199q0 -53 17 -74.5t63 -22.5v-12q-38 -38 -95 -38q-37 0 -62 20t-30 56zM256 624q0 -22 -15 -37t-37 -15t-36.5 15t-14.5 37q0 23 14.5 38t36.5 15t37 -15t15 -38zM429 624q0 -22 -15 -37t-37 -15t-36.5 15t-14.5 37q0 23 14.5 38t36.5 15t37 -15
t15 -38z" />
    <glyph glyph-name="yacute" unicode="&#xfd;" horiz-adv-x="524" 
d="M235 -4q-123 307 -160 371q-16 28 -30 43t-36 18v13q55 53 100 53q37 0 59 -45q12 -24 49 -112q45 -111 84 -221q61 149 79 194q21 54 21 96q0 30 -27 46v10q41 32 80 32q17 0 30 -12t13 -34q0 -23 -14 -60t-50 -117q-16 -35 -44 -99t-43 -98t-35.5 -78.5t-37 -75
t-30.5 -52.5q-52 -83 -124 -83q-29 0 -50.5 26.5t-21.5 60.5l6 4q21 -8 40 -8t31 1.5t30 12.5t31 32q36 53 50 82zM236 533l-16 13q71 97 120 195l80 -47q-30 -34 -88 -85t-96 -76z" />
    <glyph glyph-name="thorn" unicode="&#xfe;" horiz-adv-x="586" 
d="M272 -209q-59 3 -139 3q-61 0 -116 -3v22q38 3 50.5 23.5t12.5 69.5v661q0 64 -12.5 88.5t-60.5 25.5v12q20 19 53 37.5t65 18.5q34 0 51.5 -21t17.5 -82q0 -165 -2 -221q56 71 146 71q82 0 137.5 -58.5t55.5 -185.5q0 -118 -60.5 -187.5t-161.5 -69.5q-71 0 -116 36
v-130q0 -48 16.5 -66.5t62.5 -21.5v-22zM193 76q34 -26 92 -26q54 0 87.5 45.5t33.5 144.5q0 185 -110 185q-62 0 -103 -37v-312z" />
    <glyph glyph-name="ydieresis" unicode="&#xff;" horiz-adv-x="524" 
d="M235 -4q-123 307 -160 371q-16 28 -30 43t-36 18v13q55 53 100 53q37 0 59 -45q12 -24 49 -112q45 -111 84 -221q61 149 79 194q21 54 21 96q0 30 -27 46v10q41 32 80 32q17 0 30 -12t13 -34q0 -23 -14 -60t-50 -117q-16 -35 -44 -99t-43 -98t-35.5 -78.5t-37 -75
t-30.5 -52.5q-52 -83 -124 -83q-29 0 -50.5 26.5t-21.5 60.5l6 4q21 -8 40 -8t31 1.5t30 12.5t31 32q36 53 50 82zM240 624q0 -22 -15 -37t-37 -15t-36.5 15t-14.5 37q0 23 14.5 38t36.5 15t37 -15t15 -38zM413 624q0 -22 -15 -37t-37 -15t-36.5 15t-14.5 37q0 23 14.5 38
t36.5 15t37 -15t15 -38z" />
    <glyph glyph-name="Amacron" unicode="&#x100;" horiz-adv-x="658" 
d="M218 -1q-64 2 -119 2q-20 0 -96 -2v21q33 1 52.5 23t36.5 67l158 415q25 64 50 143h76q20 -64 49 -143l147 -415q16 -46 33.5 -67.5t49.5 -22.5v-21q-76 2 -112 2q-101 0 -165 -2v21q70 2 70 41q0 25 -11 57l-32 89h-215l-34 -96q-12 -31 -12 -48q0 -41 74 -43v-21z
M208 255h181l-90 253zM482 731h-288v69h288v-69z" />
    <glyph glyph-name="amacron" unicode="&#x101;" horiz-adv-x="527" 
d="M339 63q-16 -30 -55 -53.5t-88 -23.5q-73 0 -114 38.5t-41 100.5q0 143 238 143q27 0 50 -5q0 5 0.5 15t0.5 16q0 59 -11 83q-21 44 -91 44q-94 0 -137 -65l-15 6q4 50 48.5 92.5t139.5 42.5q179 0 179 -159q0 -12 -1.5 -87t-1.5 -109q0 -54 16.5 -75.5t58.5 -21.5v-10
q-42 -44 -94 -44q-64 0 -82 72zM329 92q-1 29 -1 132q-10 1 -33 1q-137 0 -137 -91q0 -37 24.5 -57.5t58.5 -20.5q54 0 88 36zM403 585h-270v69h270v-69z" />
    <glyph glyph-name="Abreve" unicode="&#x102;" horiz-adv-x="658" 
d="M218 -1q-64 2 -119 2q-20 0 -96 -2v21q33 1 52.5 23t36.5 67l158 415q25 64 50 143h76q20 -64 49 -143l147 -415q16 -46 33.5 -67.5t49.5 -22.5v-21q-76 2 -112 2q-101 0 -165 -2v21q70 2 70 41q0 25 -11 57l-32 89h-215l-34 -96q-12 -31 -12 -48q0 -41 74 -43v-21z
M208 255h181l-90 253zM480 858q-7 -61 -39 -101.5t-110 -40.5t-109 42t-32 102l21 3q12 -39 38 -57t82 -18t84 17.5t44 56.5z" />
    <glyph glyph-name="abreve" unicode="&#x103;" horiz-adv-x="527" 
d="M339 63q-16 -30 -55 -53.5t-88 -23.5q-73 0 -114 38.5t-41 100.5q0 143 238 143q27 0 50 -5q0 5 0.5 15t0.5 16q0 59 -11 83q-21 44 -91 44q-94 0 -137 -65l-15 6q4 50 48.5 92.5t139.5 42.5q179 0 179 -159q0 -12 -1.5 -87t-1.5 -109q0 -54 16.5 -75.5t58.5 -21.5v-10
q-42 -44 -94 -44q-64 0 -82 72zM329 92q-1 29 -1 132q-10 1 -33 1q-137 0 -137 -91q0 -37 24.5 -57.5t58.5 -20.5q54 0 88 36zM393 702q-19 -149 -145 -149q-39 0 -67.5 14t-42.5 37.5t-20 48t-6 51.5l20 3q13 -42 36.5 -62t79.5 -20q55 0 80.5 19t43.5 62z" />
    <glyph glyph-name="Aogonek" unicode="&#x104;" horiz-adv-x="658" 
d="M544 -233q-69 0 -115.5 24t-46.5 74q0 78 109 136q-18 0 -60 -0.5t-53 -1.5v21q70 2 70 41q0 25 -11 57l-32 89h-215l-34 -96q-12 -31 -12 -48q0 -41 74 -43v-21q-64 2 -119 2q-20 0 -96 -2v21q33 1 52.5 23t36.5 67l158 415q25 64 50 143h76q20 -64 49 -143l147 -415
q16 -46 33.5 -67.5t49.5 -22.5v-21q-37 2 -107 2q-85 -58 -85 -132q0 -69 84 -75zM208 255h181l-90 253z" />
    <glyph glyph-name="aogonek" unicode="&#x105;" horiz-adv-x="527" 
d="M462 -222q-66 0 -111.5 23t-45.5 71q0 67 92 121q-43 9 -58 70q-16 -30 -55 -53.5t-88 -23.5q-73 0 -114 38.5t-41 100.5q0 143 238 143q27 0 50 -5q0 5 0.5 14t0.5 15q0 61 -11 85q-21 44 -91 44q-93 0 -137 -65l-15 6q4 50 48.5 92.5t139.5 42.5q179 0 179 -159
q0 -12 -1.5 -87.5t-1.5 -109.5q0 -54 16.5 -75.5t58.5 -21.5v-10q-24 -24 -51 -35q-81 -56 -81 -123q0 -28 19 -48.5t62 -23.5zM329 92q-1 29 -1 132q-10 1 -33 1q-137 0 -137 -91q0 -37 24.5 -57.5t58.5 -20.5q54 0 88 36z" />
    <glyph glyph-name="Cacute" unicode="&#x106;" horiz-adv-x="572" 
d="M537 136q11 -10 11 -23q0 -39 -61.5 -82.5t-146.5 -43.5q-143 0 -219.5 89.5t-76.5 246.5q0 167 82 262t223 95q96 0 145 -28.5t49 -72.5q0 -29 -19 -49t-72 -30l-6 7q0 132 -104 132q-72 0 -118 -74.5t-46 -231.5q0 -131 50.5 -197.5t136.5 -66.5q103 0 164 67h8z
M266 701l-12 15q84 75 159 166l68 -63q-36 -28 -104 -65t-111 -53z" />
    <glyph glyph-name="cacute" unicode="&#x107;" horiz-adv-x="478" 
d="M441 114q12 -10 12 -24q0 -29 -54.5 -66t-133.5 -37q-98 0 -161.5 64.5t-63.5 182.5q0 130 70.5 196.5t171.5 66.5q77 0 120.5 -24t43.5 -69q0 -51 -77 -67l-8 7q0 59 -21 85.5t-64 26.5q-112 0 -112 -206q0 -102 39.5 -147t97.5 -45q84 0 134 56h6zM225 533l-16 13
q71 97 120 195l80 -47q-30 -34 -88 -85t-96 -76z" />
    <glyph glyph-name="Ccircumflex" unicode="&#x108;" horiz-adv-x="572" 
d="M537 136q11 -10 11 -23q0 -39 -61.5 -82.5t-146.5 -43.5q-143 0 -219.5 89.5t-76.5 246.5q0 167 82 262t223 95q96 0 145 -28.5t49 -72.5q0 -29 -19 -49t-72 -30l-6 7q0 132 -104 132q-72 0 -118 -74.5t-46 -231.5q0 -131 50.5 -197.5t136.5 -66.5q103 0 164 67h8z
M480 724l-13 -16q-69 30 -136 64q-52 -25 -137 -63l-12 15q15 14 37 36t54 54.5t51 51.5h13q111 -113 143 -142z" />
    <glyph glyph-name="ccircumflex" unicode="&#x109;" horiz-adv-x="478" 
d="M441 114q12 -10 12 -24q0 -29 -54.5 -66t-133.5 -37q-98 0 -161.5 64.5t-63.5 182.5q0 130 70.5 196.5t171.5 66.5q77 0 120.5 -24t43.5 -69q0 -51 -77 -67l-8 7q0 59 -21 85.5t-64 26.5q-112 0 -112 -206q0 -102 39.5 -147t97.5 -45q84 0 134 56h6zM414 559l-14 -14
q-32 19 -127 81q-62 -42 -127 -81l-14 14q45 46 135 162h12q117 -141 135 -162z" />
    <glyph glyph-name="Cdotaccent" unicode="&#x10a;" horiz-adv-x="572" 
d="M537 136q11 -10 11 -23q0 -39 -61.5 -82.5t-146.5 -43.5q-143 0 -219.5 89.5t-76.5 246.5q0 167 82 262t223 95q96 0 145 -28.5t49 -72.5q0 -29 -19 -49t-72 -30l-6 7q0 132 -104 132q-72 0 -118 -74.5t-46 -231.5q0 -131 50.5 -197.5t136.5 -66.5q103 0 164 67h8z
M382 777q0 -22 -15 -37t-37 -15t-36.5 15t-14.5 37q0 23 14.5 38t36.5 15t37 -15t15 -38z" />
    <glyph glyph-name="cdotaccent" unicode="&#x10b;" horiz-adv-x="478" 
d="M441 114q12 -10 12 -24q0 -29 -54.5 -66t-133.5 -37q-98 0 -161.5 64.5t-63.5 182.5q0 130 70.5 196.5t171.5 66.5q77 0 120.5 -24t43.5 -69q0 -51 -77 -67l-8 7q0 59 -21 85.5t-64 26.5q-112 0 -112 -206q0 -102 39.5 -147t97.5 -45q84 0 134 56h6zM319 624
q0 -22 -15 -37t-37 -15t-36.5 15t-14.5 37q0 23 14.5 38t36.5 15t37 -15t15 -38z" />
    <glyph glyph-name="Ccaron" unicode="&#x10c;" horiz-adv-x="572" 
d="M537 136q11 -10 11 -23q0 -39 -61.5 -82.5t-146.5 -43.5q-143 0 -219.5 89.5t-76.5 246.5q0 167 82 262t223 95q96 0 145 -28.5t49 -72.5q0 -29 -19 -49t-72 -30l-6 7q0 132 -104 132q-72 0 -118 -74.5t-46 -231.5q0 -131 50.5 -197.5t136.5 -66.5q103 0 164 67h8z
M170 856l13 16q52 -23 136 -65q93 44 137 63l12 -14q-115 -115 -142 -143h-13q-73 77 -143 143z" />
    <glyph glyph-name="ccaron" unicode="&#x10d;" horiz-adv-x="478" 
d="M441 114q12 -10 12 -24q0 -29 -54.5 -66t-133.5 -37q-98 0 -161.5 64.5t-63.5 182.5q0 130 70.5 196.5t171.5 66.5q77 0 120.5 -24t43.5 -69q0 -51 -77 -67l-8 7q0 59 -21 85.5t-64 26.5q-112 0 -112 -206q0 -102 39.5 -147t97.5 -45q84 0 134 56h6zM120 709l14 14
q67 -40 127 -81q86 57 127 81l15 -14q-58 -61 -136 -162h-12q-108 131 -135 162z" />
    <glyph glyph-name="Dcaron" unicode="&#x10e;" horiz-adv-x="684" 
d="M38 -1v22q43 1 58.5 22.5t15.5 67.5v464q0 42 -14.5 56.5t-59.5 15.5v22q56 -3 132 -3q17 0 67.5 1t66.5 1q166 0 251 -77.5t85 -252.5q0 -155 -77 -246.5t-244 -91.5q-17 0 -81 1t-81 1q-8 0 -119 -3zM234 55q30 -5 65 -5q105 0 155.5 63t50.5 218q0 262 -164 288
q-31 5 -107 5v-569zM162 856l13 16q52 -23 136 -65q93 44 137 63l12 -14q-114 -115 -142 -143h-13q-73 77 -143 143z" />
    <glyph glyph-name="dcaron" unicode="&#x10f;" horiz-adv-x="588" 
d="M386 63q-60 -73 -145 -73q-82 0 -141.5 60t-59.5 183q0 118 62.5 189.5t163.5 71.5q69 0 113 -34v119q0 57 -13.5 79t-58.5 23v12q63 56 120 56q34 0 49.5 -24.5t15.5 -86.5v-486q0 -61 15.5 -85t64.5 -25v-11q-37 -39 -95 -39q-33 0 -58.5 18.5t-32.5 52.5zM379 100v314
q-34 26 -89 26t-90 -46.5t-35 -147.5q0 -103 33 -144.5t80 -41.5q65 0 101 40zM669 676q0 -94 -127 -156l-13 22q34 22 48.5 38.5t14.5 37.5q0 17 -20 30q-23 17 -23 46q0 20 16 35.5t41 15.5q30 0 46.5 -19t16.5 -50z" />
    <glyph glyph-name="Dcroat" unicode="&#x110;" horiz-adv-x="684" 
d="M38 -1v22q43 1 58.5 22.5t15.5 67.5v220h-76v49h76v195q0 42 -14.5 56.5t-59.5 15.5v22q56 -3 132 -3q17 0 67.5 1t66.5 1q166 0 251 -77.5t85 -252.5q0 -155 -77 -246.5t-244 -91.5q-17 0 -81 1t-81 1q-8 0 -119 -3zM234 55q30 -5 65 -5q105 0 155.5 63t50.5 218
q0 262 -164 288q-31 5 -107 5v-244h162v-49h-162v-276z" />
    <glyph glyph-name="dcroat" unicode="&#x111;" horiz-adv-x="588" 
d="M563 549h-71v-397q0 -61 15.5 -85t64.5 -25v-11q-37 -39 -95 -39q-33 0 -58.5 18.5t-32.5 52.5q-60 -73 -145 -73q-82 0 -141.5 60t-59.5 183q0 118 62.5 189.5t163.5 71.5q69 0 113 -34v89h-143v44h143q-2 48 -16 67.5t-56 20.5v12q63 56 120 56q34 0 49.5 -24.5
t15.5 -86.5v-45h71v-44zM379 100v314q-34 26 -89 26t-90 -46.5t-35 -147.5q0 -103 33 -144.5t80 -41.5q65 0 101 40z" />
    <glyph glyph-name="Emacron" unicode="&#x112;" horiz-adv-x="564" 
d="M524 0q-105 1 -346 1q-48 0 -140 -2v22q43 1 58.5 22.5t15.5 67.5v464q0 42 -14.5 56.5t-59.5 15.5v22q69 -3 199 -3q106 0 259 2q5 -82 11 -151h-23q-17 70 -47 86.5t-129 16.5h-74v-249h36q82 0 106.5 14.5t27.5 57.5h23q-2 -62 -2 -100q0 -60 2 -91h-23
q-3 43 -27 58.5t-106 15.5h-37v-272q68 -7 145 -7q60 0 87 27t36 96h25q-3 -81 -3 -170zM433 731h-288v69h288v-69z" />
    <glyph glyph-name="emacron" unicode="&#x113;" horiz-adv-x="511" 
d="M161 253q1 -106 44 -150t109 -44q90 0 141 55h5q12 -10 12 -25q0 -28 -56.5 -65t-137.5 -37q-115 0 -176.5 68t-61.5 190q0 117 66.5 184.5t167.5 67.5q201 0 201 -213q0 -31 -39 -31h-275zM162 296q138 2 177 4q24 0 24 19q0 76 -23.5 106.5t-67.5 30.5
q-40 0 -72.5 -34.5t-37.5 -125.5zM411 585h-270v69h270v-69z" />
    <glyph glyph-name="Ebreve" unicode="&#x114;" horiz-adv-x="564" 
d="M524 0q-105 1 -346 1q-48 0 -140 -2v22q43 1 58.5 22.5t15.5 67.5v464q0 42 -14.5 56.5t-59.5 15.5v22q69 -3 199 -3q106 0 259 2q5 -82 11 -151h-23q-17 70 -47 86.5t-129 16.5h-74v-249h36q82 0 106.5 14.5t27.5 57.5h23q-2 -62 -2 -100q0 -60 2 -91h-23
q-3 43 -27 58.5t-106 15.5h-37v-272q68 -7 145 -7q60 0 87 27t36 96h25q-3 -81 -3 -170zM434 858q-7 -61 -39 -101.5t-110 -40.5t-109 42t-32 102l21 3q12 -39 38 -57t82 -18t84 17.5t44 56.5z" />
    <glyph glyph-name="ebreve" unicode="&#x115;" horiz-adv-x="511" 
d="M161 253q1 -106 44 -150t109 -44q90 0 141 55h5q12 -10 12 -25q0 -28 -56.5 -65t-137.5 -37q-115 0 -176.5 68t-61.5 190q0 117 66.5 184.5t167.5 67.5q201 0 201 -213q0 -31 -39 -31h-275zM162 296q138 2 177 4q24 0 24 19q0 76 -23.5 106.5t-67.5 30.5
q-40 0 -72.5 -34.5t-37.5 -125.5zM414 702q-19 -149 -145 -149q-39 0 -67.5 14t-42.5 37.5t-20 48t-6 51.5l20 3q13 -42 36.5 -62t79.5 -20q55 0 80.5 19t43.5 62z" />
    <glyph glyph-name="Edotaccent" unicode="&#x116;" horiz-adv-x="564" 
d="M524 0q-105 1 -346 1q-48 0 -140 -2v22q43 1 58.5 22.5t15.5 67.5v464q0 42 -14.5 56.5t-59.5 15.5v22q69 -3 199 -3q106 0 259 2q5 -82 11 -151h-23q-17 70 -47 86.5t-129 16.5h-74v-249h36q82 0 106.5 14.5t27.5 57.5h23q-2 -62 -2 -100q0 -60 2 -91h-23
q-3 43 -27 58.5t-106 15.5h-37v-272q68 -7 145 -7q60 0 87 27t36 96h25q-3 -81 -3 -170zM349 777q0 -22 -15 -37t-37 -15t-36.5 15t-14.5 37q0 23 14.5 38t36.5 15t37 -15t15 -38z" />
    <glyph glyph-name="edotaccent" unicode="&#x117;" horiz-adv-x="511" 
d="M161 253q1 -106 44 -150t109 -44q90 0 141 55h5q12 -10 12 -25q0 -28 -56.5 -65t-137.5 -37q-115 0 -176.5 68t-61.5 190q0 117 66.5 184.5t167.5 67.5q201 0 201 -213q0 -31 -39 -31h-275zM162 296q138 2 177 4q24 0 24 19q0 76 -23.5 106.5t-67.5 30.5
q-40 0 -72.5 -34.5t-37.5 -125.5zM327 624q0 -22 -15 -37t-37 -15t-36.5 15t-14.5 37q0 23 14.5 38t36.5 15t37 -15t15 -38z" />
    <glyph glyph-name="Eogonek" unicode="&#x118;" horiz-adv-x="564" 
d="M492 -233q-69 0 -115.5 24t-46.5 74q0 78 108 135q-101 1 -260 1q-48 0 -140 -2v22q43 1 58.5 22.5t15.5 67.5v464q0 42 -14.5 56.5t-59.5 15.5v22q69 -3 199 -3q106 0 259 2q5 -82 11 -151h-23q-17 70 -47 86.5t-129 16.5h-74v-249h36q82 0 106.5 14.5t27.5 57.5h23
q-2 -62 -2 -100q0 -60 2 -91h-23q-3 43 -27 58.5t-106 15.5h-37v-272q68 -7 145 -7q60 0 87 27t36 96h25q-3 -81 -3 -170h-29q-84 -57 -84 -131q0 -69 84 -75z" />
    <glyph glyph-name="eogonek" unicode="&#x119;" horiz-adv-x="511" 
d="M363 -222q-66 0 -111.5 23t-45.5 71q0 64 80 115h-8q-115 0 -176.5 68t-61.5 190q0 117 66.5 184.5t167.5 67.5q201 0 201 -213q0 -31 -39 -31h-275q1 -106 44 -150t109 -44q90 0 141 55h5q12 -10 12 -25q0 -18 -30 -45.5t-77 -43.5q-81 -54 -81 -124q0 -28 19 -48.5
t62 -23.5zM162 296q135 2 177 4q24 1 24 19q0 76 -23.5 106.5t-67.5 30.5q-40 0 -72.5 -34.5t-37.5 -125.5z" />
    <glyph glyph-name="Ecaron" unicode="&#x11a;" horiz-adv-x="564" 
d="M524 0q-105 1 -346 1q-48 0 -140 -2v22q43 1 58.5 22.5t15.5 67.5v464q0 42 -14.5 56.5t-59.5 15.5v22q69 -3 199 -3q106 0 259 2q5 -82 11 -151h-23q-17 70 -47 86.5t-129 16.5h-74v-249h36q82 0 106.5 14.5t27.5 57.5h23q-2 -62 -2 -100q0 -60 2 -91h-23
q-3 43 -27 58.5t-106 15.5h-37v-272q68 -7 145 -7q60 0 87 27t36 96h25q-3 -81 -3 -170zM138 856l13 16q52 -23 136 -65q93 44 137 63l12 -14q-115 -115 -142 -143h-13q-73 77 -143 143z" />
    <glyph glyph-name="ecaron" unicode="&#x11b;" horiz-adv-x="511" 
d="M161 253q1 -106 44 -150t109 -44q90 0 141 55h5q12 -10 12 -25q0 -28 -56.5 -65t-137.5 -37q-115 0 -176.5 68t-61.5 190q0 117 66.5 184.5t167.5 67.5q201 0 201 -213q0 -31 -39 -31h-275zM162 296q138 2 177 4q24 0 24 19q0 76 -23.5 106.5t-67.5 30.5
q-40 0 -72.5 -34.5t-37.5 -125.5zM132 709l14 14q67 -40 127 -81q86 57 127 81l15 -14q-58 -61 -136 -162h-12q-108 131 -135 162z" />
    <glyph glyph-name="Gcircumflex" unicode="&#x11c;" horiz-adv-x="648" 
d="M583 42q-112 -55 -234 -55q-143 0 -224 89t-81 249q0 165 87 260t231 95q98 0 153 -29t55 -71q0 -29 -18.5 -49.5t-70.5 -30.5l-7 7q0 65 -32 98.5t-83 33.5q-182 0 -182 -307q0 -136 52.5 -209.5t147.5 -73.5q52 0 80 11v150q0 47 -14.5 68t-62.5 22v21q114 -2 128 -2
q20 0 124 2v-21q-35 -1 -48 -24.5t-13 -71.5q0 -140 12 -162zM502 724l-13 -16q-69 30 -136 64q-52 -25 -137 -63l-12 15q15 14 37 36t54 54.5t51 51.5h13q111 -113 143 -142z" />
    <glyph glyph-name="gcircumflex" unicode="&#x11d;" horiz-adv-x="499" 
d="M451 516h9q20 -20 20 -41q0 -25 -16 -36.5t-37 -11.5q-17 0 -45 6q43 -36 43 -102q0 -56 -40.5 -101t-127.5 -54q-17 -2 -52 -2q-23 -6 -36.5 -18.5t-13.5 -23.5q0 -14 17 -22q22 -8 114 -11q39 -1 65 -4t53.5 -11.5t43 -23t26 -39.5t10.5 -60q0 -79 -71 -128t-176 -49
q-107 0 -164 36.5t-57 86.5q0 34 27 58t69 32l4 -6q-18 -32 -18 -62q0 -47 39 -75t104 -28q71 0 106.5 29t35.5 72q0 37 -31.5 52.5t-126.5 22.5q-89 7 -121 21q-37 19 -37 60q0 63 89 99q-113 40 -113 148q0 74 50 119.5t144 45.5q58 0 110 -20q39 0 69.5 10.5t34.5 30.5z
M313 336q0 64 -20 91t-58 27q-76 0 -76 -120t76 -120q36 0 57 31t21 91zM392 559l-14 -14q-32 19 -127 81q-62 -42 -127 -81l-14 14q45 46 135 162h12q117 -141 135 -162z" />
    <glyph glyph-name="Gbreve" unicode="&#x11e;" horiz-adv-x="648" 
d="M583 42q-112 -55 -234 -55q-143 0 -224 89t-81 249q0 165 87 260t231 95q98 0 153 -29t55 -71q0 -29 -18.5 -49.5t-70.5 -30.5l-7 7q0 65 -32 98.5t-83 33.5q-182 0 -182 -307q0 -136 52.5 -209.5t147.5 -73.5q52 0 80 11v150q0 47 -14.5 68t-62.5 22v21q114 -2 128 -2
q20 0 124 2v-21q-35 -1 -48 -24.5t-13 -71.5q0 -140 12 -162zM491 858q-7 -61 -39 -101.5t-110 -40.5t-109 42t-32 102l21 3q12 -39 38 -57t82 -18t84 17.5t44 56.5z" />
    <glyph glyph-name="gbreve" unicode="&#x11f;" horiz-adv-x="499" 
d="M451 516h9q20 -20 20 -41q0 -25 -16 -36.5t-37 -11.5q-17 0 -45 6q43 -36 43 -102q0 -56 -40.5 -101t-127.5 -54q-17 -2 -52 -2q-23 -6 -36.5 -18.5t-13.5 -23.5q0 -14 17 -22q22 -8 114 -11q39 -1 65 -4t53.5 -11.5t43 -23t26 -39.5t10.5 -60q0 -79 -71 -128t-176 -49
q-107 0 -164 36.5t-57 86.5q0 34 27 58t69 32l4 -6q-18 -32 -18 -62q0 -47 39 -75t104 -28q71 0 106.5 29t35.5 72q0 37 -31.5 52.5t-126.5 22.5q-89 7 -121 21q-37 19 -37 60q0 63 89 99q-113 40 -113 148q0 74 50 119.5t144 45.5q58 0 110 -20q39 0 69.5 10.5t34.5 30.5z
M313 336q0 64 -20 91t-58 27q-76 0 -76 -120t76 -120q36 0 57 31t21 91zM385 702q-19 -149 -145 -149q-39 0 -67.5 14t-42.5 37.5t-20 48t-6 51.5l20 3q13 -42 36.5 -62t79.5 -20q55 0 80.5 19t43.5 62z" />
    <glyph glyph-name="Gdotaccent" unicode="&#x120;" horiz-adv-x="648" 
d="M583 42q-112 -55 -234 -55q-143 0 -224 89t-81 249q0 165 87 260t231 95q98 0 153 -29t55 -71q0 -29 -18.5 -49.5t-70.5 -30.5l-7 7q0 65 -32 98.5t-83 33.5q-182 0 -182 -307q0 -136 52.5 -209.5t147.5 -73.5q52 0 80 11v150q0 47 -14.5 68t-62.5 22v21q114 -2 128 -2
q20 0 124 2v-21q-35 -1 -48 -24.5t-13 -71.5q0 -140 12 -162zM403 777q0 -22 -15 -37t-37 -15t-36.5 15t-14.5 37q0 23 14.5 38t36.5 15t37 -15t15 -38z" />
    <glyph glyph-name="gdotaccent" unicode="&#x121;" horiz-adv-x="499" 
d="M451 516h9q20 -20 20 -41q0 -25 -16 -36.5t-37 -11.5q-17 0 -45 6q43 -36 43 -102q0 -56 -40.5 -101t-127.5 -54q-17 -2 -52 -2q-23 -6 -36.5 -18.5t-13.5 -23.5q0 -14 17 -22q22 -8 114 -11q39 -1 65 -4t53.5 -11.5t43 -23t26 -39.5t10.5 -60q0 -79 -71 -128t-176 -49
q-107 0 -164 36.5t-57 86.5q0 34 27 58t69 32l4 -6q-18 -32 -18 -62q0 -47 39 -75t104 -28q71 0 106.5 29t35.5 72q0 37 -31.5 52.5t-126.5 22.5q-89 7 -121 21q-37 19 -37 60q0 63 89 99q-113 40 -113 148q0 74 50 119.5t144 45.5q58 0 110 -20q39 0 69.5 10.5t34.5 30.5z
M313 336q0 64 -20 91t-58 27q-76 0 -76 -120t76 -120q36 0 57 31t21 91zM295 624q0 -22 -15 -37t-37 -15t-36.5 15t-14.5 37q0 23 14.5 38t36.5 15t37 -15t15 -38z" />
    <glyph glyph-name="Gcommaaccent" unicode="&#x122;" horiz-adv-x="648" 
d="M583 42q-112 -55 -234 -55q-143 0 -224 89t-81 249q0 165 87 260t231 95q98 0 153 -29t55 -71q0 -29 -18.5 -49.5t-70.5 -30.5l-7 7q0 65 -32 98.5t-83 33.5q-182 0 -182 -307q0 -136 52.5 -209.5t147.5 -73.5q52 0 80 11v150q0 47 -14.5 68t-62.5 22v21q114 -2 128 -2
q20 0 124 2v-21q-35 -1 -48 -24.5t-13 -71.5q0 -140 12 -162zM403 -112q0 -93 -124 -151l-12 21q34 22 48 38t14 35q0 17 -20 30q-23 17 -23 45q0 20 15.5 34.5t40.5 14.5q29 0 45 -18t16 -49z" />
    <glyph glyph-name="gcommaaccent" unicode="&#x123;" horiz-adv-x="499" 
d="M451 516h9q20 -20 20 -41q0 -25 -16 -36.5t-37 -11.5q-17 0 -45 6q43 -36 43 -102q0 -56 -41.5 -101.5t-128.5 -53.5q-17 -2 -50 -2q-23 -6 -36.5 -18.5t-13.5 -23.5q0 -14 17 -22q22 -8 114 -11q39 -1 65 -4t53.5 -11.5t43 -23t26 -39.5t10.5 -60q0 -79 -71 -128
t-176 -49q-107 0 -164 36.5t-57 86.5q0 34 27 58t69 32l4 -6q-18 -32 -18 -62q0 -47 39 -75t104 -28q71 0 106.5 29t35.5 72q0 37 -31.5 52.5t-126.5 22.5q-89 7 -121 21q-37 19 -37 60q0 63 89 99q-113 40 -113 148q0 74 50 119.5t144 45.5q58 0 110 -20q39 0 69.5 10.5
t34.5 30.5zM313 336q0 64 -20 91t-58 27q-76 0 -76 -120t76 -120q36 0 57 31t21 91zM181 622q0 92 124 151l12 -21q-34 -22 -48 -38t-14 -36q0 -15 20 -30q23 -15 23 -44q0 -20 -15 -34.5t-40 -14.5q-29 0 -45.5 18.5t-16.5 48.5z" />
    <glyph glyph-name="Hcircumflex" unicode="&#x124;" horiz-adv-x="731" 
d="M308 -1q-64 2 -137 2q-59 0 -133 -2v22q43 1 58.5 22.5t15.5 67.5v464q0 42 -14.5 56.5t-59.5 15.5v22q37 -2 133 -2q100 0 137 2v-22q-45 -1 -59.5 -15.5t-14.5 -56.5v-201h262v201q0 42 -14.5 56.5t-59.5 15.5v22q37 -2 133 -2q100 0 137 2v-22q-45 -1 -59 -15.5
t-14 -56.5v-464q0 -47 15 -68t58 -22v-22q-64 2 -137 2q-59 0 -133 -2v22q43 1 58.5 22t15.5 68v212h-262v-212q0 -47 15.5 -68t58.5 -22v-22zM477 724l-13 -16q-69 30 -136 64q-52 -25 -137 -63l-12 15q15 14 37 36t54 54.5t51 51.5h13q111 -113 143 -142z" />
    <glyph glyph-name="hcircumflex" unicode="&#x125;" horiz-adv-x="588" 
d="M275 -1q-57 3 -133 3q-58 0 -114 -3v21q36 3 48.5 24t12.5 69v466q0 57 -13.5 79t-58.5 23v12q63 56 122 56q33 0 48 -22.5t15 -83.5v-238q25 35 70 61t97 26q83 0 113 -61q15 -32 15 -95v-177q0 -52 7 -76q14 -42 74 -42v-11q-41 -39 -92 -39q-76 0 -94 55q-9 24 -9 103
v154q0 60 -11 81q-16 31 -57 31q-67 0 -113 -41v-266q0 -42 15 -64t58 -24v-21zM290 772l-13 -16q-69 30 -136 64q-52 -25 -137 -63l-12 15l142 142h13q111 -113 143 -142z" />
    <glyph glyph-name="Hbar" unicode="&#x126;" horiz-adv-x="731" 
d="M686 457h-74v-346q0 -47 15 -68t58 -22v-22q-64 2 -137 2q-58 0 -132 -2v22q43 1 58 22t15 68v212h-255v-212q0 -47 15.5 -68t58.5 -22v-22q-64 2 -137 2q-59 0 -133 -2v22q43 1 58.5 22.5t15.5 67.5v346h-75v49h75v69q0 42 -14.5 56.5t-59.5 15.5v22q37 -2 133 -2
q100 0 137 2v-22q-45 -1 -59.5 -15.5t-14.5 -56.5v-69h255v69q0 42 -14 56.5t-59 15.5v22q37 -2 132 -2q100 0 137 2v-22q-45 -1 -59 -15.5t-14 -56.5v-69h74v-49zM234 374h255v83h-255v-83z" />
    <glyph glyph-name="hbar" unicode="&#x127;" horiz-adv-x="588" 
d="M338 549h-136v-144q25 35 70 61t97 26q83 0 113 -61q15 -32 15 -95v-176q0 -52 7 -76q14 -42 74 -42v-11q-41 -39 -92 -39q-76 0 -94 55q-9 24 -9 103v153q0 60 -11 81q-16 31 -57 31q-67 0 -113 -41v-266q0 -42 15 -64t58 -24v-21q-57 3 -133 3q-58 0 -114 -3v21
q36 3 48.5 24t12.5 69v436h-78v44h78q-1 48 -15.5 67.5t-56.5 20.5v12q63 56 122 56q33 0 48 -22.5t15 -83.5v-50h136v-44z" />
    <glyph glyph-name="Itilde" unicode="&#x128;" horiz-adv-x="345" 
d="M308 -1q-64 2 -137 2q-59 0 -133 -2v22q45 1 59.5 23.5t14.5 66.5v459q0 44 -13.5 60t-60.5 17v22q37 -2 133 -2q100 0 137 2v-22q-48 -1 -61 -17t-13 -60v-459q0 -43 14 -66t60 -24v-22zM333 825q-9 -29 -17 -48t-28.5 -37.5t-48.5 -18.5q-29 0 -75 20q-44 20 -65 20
q-41 0 -65 -49l-18 6q10 44 35.5 78.5t62.5 34.5q23 0 73 -21q5 -2 15.5 -6.5t17 -7t15.5 -4.5t17 -2q25 0 38 9t26 33z" />
    <glyph glyph-name="itilde" unicode="&#x129;" horiz-adv-x="297" 
d="M302 679q-9 -30 -17 -48.5t-28 -37t-48 -18.5q-27 0 -73 20q-42 20 -63 20q-40 0 -64 -49l-18 7q10 44 35 78.5t62 34.5q21 0 71 -22q50 -19 63 -19q41 0 63 41zM285 -1q-59 3 -136 3q-73 0 -111 -3v21q37 3 49 25t12 74v182q0 74 -14.5 99.5t-60.5 25.5v12q58 55 114 55
q27 0 46.5 -16.5t24.5 -47.5q3 -19 3 -57v-260q0 -48 16 -69t57 -23v-21z" />
    <glyph glyph-name="Imacron" unicode="&#x12a;" horiz-adv-x="345" 
d="M308 -1q-64 2 -137 2q-59 0 -133 -2v22q45 1 59.5 23.5t14.5 66.5v459q0 44 -13.5 60t-60.5 17v22q37 -2 133 -2q100 0 137 2v-22q-48 -1 -61 -17t-13 -60v-459q0 -43 14 -66t60 -24v-22zM344 731h-288v69h288v-69z" />
    <glyph glyph-name="imacron" unicode="&#x12b;" horiz-adv-x="297" 
d="M276 585h-270v69h270v-69zM285 -1q-59 3 -136 3q-73 0 -111 -3v21q37 3 49 25t12 74v182q0 74 -14.5 99.5t-60.5 25.5v12q58 55 114 55q27 0 46.5 -16.5t24.5 -47.5q3 -19 3 -57v-260q0 -48 16 -69t57 -23v-21z" />
    <glyph glyph-name="Ibreve" unicode="&#x12c;" horiz-adv-x="345" 
d="M308 -1q-64 2 -137 2q-59 0 -133 -2v22q45 1 59.5 23.5t14.5 66.5v459q0 44 -13.5 60t-60.5 17v22q37 -2 133 -2q100 0 137 2v-22q-48 -1 -61 -17t-13 -60v-459q0 -43 14 -66t60 -24v-22zM320 858q-7 -61 -39 -101.5t-110 -40.5t-109 42t-32 102l21 3q12 -39 38 -57
t82 -18t84 17.5t44 56.5z" />
    <glyph glyph-name="ibreve" unicode="&#x12d;" horiz-adv-x="297" 
d="M281 702q-19 -149 -145 -149q-39 0 -67.5 14t-42.5 37.5t-20 48t-6 51.5l20 3q13 -42 36.5 -62t79.5 -20q55 0 80.5 19t43.5 62zM285 -1q-59 3 -136 3q-73 0 -111 -3v21q37 3 49 25t12 74v182q0 74 -14.5 99.5t-60.5 25.5v12q58 55 114 55q27 0 46.5 -16.5t24.5 -47.5
q3 -19 3 -57v-260q0 -48 16 -69t57 -23v-21z" />
    <glyph glyph-name="Iogonek" unicode="&#x12e;" horiz-adv-x="345" 
d="M220 -233q-69 0 -115.5 24t-46.5 74q0 78 109 136q-57 0 -129 -2v22q45 1 59.5 23.5t14.5 66.5v459q0 44 -13.5 60t-60.5 17v22q37 -2 133 -2q100 0 137 2v-22q-48 -1 -61 -17t-13 -60v-459q0 -43 14 -66t60 -24v-22q-11 1 -41 1.5t-44 0.5q-84 -59 -84 -132
q0 -69 84 -75z" />
    <glyph glyph-name="iogonek" unicode="&#x12f;" horiz-adv-x="297" 
d="M207 -222q-66 0 -111.5 23t-45.5 71q0 75 105 130q-79 0 -117 -3v21q37 3 49 25t12 74v182q0 74 -14.5 99.5t-60.5 25.5v12q58 55 114 55q27 0 46.5 -16.5t24.5 -47.5q3 -19 3 -57v-260q0 -48 16 -69t57 -23v-21q-42 2 -74 2q-83 -55 -83 -125q0 -28 19 -48.5t62 -23.5z
M208 643q0 -28 -18 -46.5t-46 -18.5q-29 0 -48 18.5t-19 46.5q0 29 19 47.5t48 18.5q28 0 46 -18.5t18 -47.5z" />
    <glyph glyph-name="Idotaccent" unicode="&#x130;" horiz-adv-x="345" 
d="M308 -1q-64 2 -137 2q-59 0 -133 -2v22q45 1 59.5 23.5t14.5 66.5v459q0 44 -13.5 60t-60.5 17v22q37 -2 133 -2q100 0 137 2v-22q-48 -1 -61 -17t-13 -60v-459q0 -43 14 -66t60 -24v-22zM225 777q0 -22 -15 -37t-37 -15t-36.5 15t-14.5 37q0 23 14.5 38t36.5 15t37 -15
t15 -38z" />
    <glyph glyph-name="dotlessi" unicode="&#x131;" horiz-adv-x="297" 
d="M285 -1q-59 3 -136 3q-73 0 -111 -3v21q37 3 49 25t12 74v182q0 74 -14.5 99.5t-60.5 25.5v12q58 55 114 55q27 0 46.5 -16.5t24.5 -47.5q3 -19 3 -57v-260q0 -48 16 -69t57 -23v-21z" />
    <glyph glyph-name="IJ" unicode="&#x132;" horiz-adv-x="631" 
d="M308 -1q-64 2 -137 2q-59 0 -133 -2v22q45 1 59.5 23.5t14.5 66.5v459q0 44 -13.5 60t-60.5 17v22q37 -2 133 -2q100 0 137 2v-22q-48 -1 -61 -17t-13 -60v-459q0 -43 14 -66t60 -24v-22zM549 131q0 -100 -14 -141q-18 -51 -65.5 -80t-115.5 -29q-26 0 -41 3v9
q40 13 63 34t36.5 70.5t13.5 133.5v437q0 44 -14.5 61t-62.5 18v22q38 -2 135 -2q100 0 137 2v-22q-46 -1 -59 -17t-13 -60v-439z" />
    <glyph glyph-name="ij" unicode="&#x133;" horiz-adv-x="546" 
d="M285 -1q-59 3 -136 3q-73 0 -111 -3v21q37 3 49 25t12 74v182q0 74 -14.5 99.5t-60.5 25.5v12q58 55 114 55q27 0 46.5 -16.5t24.5 -47.5q3 -19 3 -57v-260q0 -48 16 -69t57 -23v-21zM208 643q0 -28 -18 -46.5t-46 -18.5q-29 0 -48 18.5t-19 46.5q0 29 19 47.5t48 18.5
q28 0 46 -18.5t18 -47.5zM280 -200v9q41 17 58 34t26.5 59t9.5 126v273q0 74 -14.5 99.5t-60.5 25.5v12q58 55 114 55q30 0 49 -18.5t23 -50.5q2 -14 2 -59v-325q0 -116 -15 -150q-43 -94 -160 -94q-22 0 -32 4zM483 643q0 -28 -18 -46.5t-46 -18.5q-29 0 -48 18.5t-19 46.5
q0 29 19 47.5t48 18.5q28 0 46 -18.5t18 -47.5z" />
    <glyph glyph-name="Jcircumflex" unicode="&#x134;" horiz-adv-x="330" 
d="M230 131q0 -100 -14 -141q-18 -51 -65.5 -80t-115.5 -29q-26 0 -41 3v9q40 13 63 34t36.5 70.5t13.5 133.5v437q0 44 -14.5 61t-62.5 18v22q38 -2 135 -2q100 0 137 2v-22q-46 -1 -59 -17t-13 -60v-439zM315 724l-13 -16q-69 30 -136 64q-52 -25 -137 -63l-12 15
q15 14 37 36t54 54.5t51 51.5h13q111 -113 143 -142z" />
    <glyph glyph-name="jcircumflex" unicode="&#x135;" horiz-adv-x="286" 
d="M-1 -200v9q41 17 58 34t26.5 59t9.5 126v273q0 74 -14.5 99.5t-60.5 25.5v12q58 55 114 55q30 0 49 -18.5t23 -50.5q2 -14 2 -59v-325q0 -116 -15 -150q-43 -94 -160 -94q-22 0 -32 4zM282 563l-19 -18q-3 2 -127 81q-62 -42 -127 -81l-18 18q81 84 139 158h12
q22 -26 140 -158z" />
    <glyph glyph-name="Kcommaaccent" unicode="&#x136;" horiz-adv-x="687" 
d="M308 -1q-64 2 -137 2q-59 0 -133 -2v22q43 1 58.5 22.5t15.5 67.5v464q0 42 -14.5 56.5t-59.5 15.5v22q37 -2 133 -2q100 0 137 2v-22q-45 -1 -59.5 -15.5t-14.5 -56.5v-464q0 -47 15.5 -68t58.5 -22v-22zM681 37q-50 -43 -99 -43q-46 0 -78 19.5t-75 74.5
q-41 52 -139 199q-22 34 -39 46v14q34 5 61 30q41 37 98 116q72 97 72 120q0 17 -14 24.5t-49 9.5v22q40 -2 119 -2q59 0 100 2v-22q-30 -3 -50 -20.5t-65 -75.5q-96 -125 -146 -185q70 -107 166 -224q68 -80 135 -96zM414 -112q0 -93 -124 -151l-12 21q34 22 48 38t14 35
q0 17 -20 30q-23 17 -23 45q0 20 15.5 34.5t40.5 14.5q29 0 45 -18t16 -49z" />
    <glyph glyph-name="kcommaaccent" unicode="&#x137;" horiz-adv-x="566" 
d="M273 -1q-57 3 -133 3q-60 0 -115 -3v21q37 3 49.5 24t12.5 69v466q0 57 -13.5 79t-59.5 23v12q64 56 122 56q33 0 48.5 -23t15.5 -83v-536q0 -42 15 -63.5t58 -23.5v-21zM565 63q-19 -37 -49 -54.5t-55 -17.5q-60 0 -110 65q-28 36 -74.5 105t-62.5 87v12q21 8 36 19
q25 18 58.5 48.5t50.5 51.5q25 30 25 58q0 13 -14 25v8q21 21 68 21q53 0 53 -42q0 -30 -67 -89q-40 -34 -100 -80q58 -85 116 -156q47 -57 88 -57q17 0 32 3zM355 -112q0 -93 -124 -151l-12 21q34 22 48 38t14 35q0 17 -20 30q-23 17 -23 45q0 20 15.5 34.5t40.5 14.5
q29 0 45 -18t16 -49z" />
    <glyph glyph-name="kgreenlandic" unicode="&#x138;" horiz-adv-x="566" 
d="M285 -1q-59 3 -133 3q-60 0 -115 -3v21q37 3 49.5 24t12.5 69v210q0 57 -13.5 79t-59.5 23v12q64 56 122 56q33 0 48 -23t15 -83v-280q0 -42 15.5 -63.5t58.5 -23.5v-21zM575 63q-19 -37 -49 -54.5t-55 -17.5q-60 0 -110 65q-28 36 -74 105.5t-62 86.5v12q21 8 36 19
q25 18 58.5 48.5t50.5 51.5q25 30 25 58q0 13 -14 25v8q21 21 68 21q53 0 53 -42q0 -30 -67 -89q-40 -34 -100 -80q63 -92 115 -156q47 -57 88 -57q17 0 32 3z" />
    <glyph glyph-name="Lacute" unicode="&#x139;" horiz-adv-x="550" 
d="M523 0q-105 1 -345 1q-48 0 -140 -2v22q43 1 58.5 22t15.5 68v460q0 44 -13.5 59.5t-60.5 16.5v22q37 -2 132 -2q105 0 142 2v-22q-48 -1 -63 -17.5t-15 -59.5v-514q68 -7 146 -7q59 0 85 27t35 96h26q-3 -80 -3 -172zM157 701l-12 15q84 75 159 166l68 -63
q-36 -28 -104 -65t-111 -53z" />
    <glyph glyph-name="lacute" unicode="&#x13a;" horiz-adv-x="287" 
d="M276 -1q-57 3 -132 3q-60 0 -115 -3v21q36 3 48.5 24t12.5 69v466q0 57 -13.5 79t-59.5 22v12q64 57 123 57q33 0 48.5 -22t15.5 -84v-536q0 -42 14.5 -63.5t57.5 -23.5v-21zM74 771l-12 15q84 75 159 166l68 -63q-36 -28 -104 -65t-111 -53z" />
    <glyph glyph-name="Lcommaaccent" unicode="&#x13b;" horiz-adv-x="550" 
d="M523 0q-105 1 -345 1q-48 0 -140 -2v22q43 1 58.5 22t15.5 68v460q0 44 -13.5 59.5t-60.5 16.5v22q37 -2 132 -2q105 0 142 2v-22q-48 -1 -63 -17.5t-15 -59.5v-514q68 -7 146 -7q59 0 85 27t35 96h26q-3 -80 -3 -172zM330 -112q0 -93 -124 -151l-12 21q34 22 48 38
t14 35q0 17 -20 30q-23 17 -23 45q0 20 15.5 34.5t40.5 14.5q29 0 45 -18t16 -49z" />
    <glyph glyph-name="lcommaaccent" unicode="&#x13c;" horiz-adv-x="287" 
d="M276 -1q-57 3 -132 3q-60 0 -115 -3v21q36 3 48.5 24t12.5 69v466q0 57 -13.5 79t-59.5 22v12q64 57 123 57q33 0 48.5 -22t15.5 -84v-536q0 -42 14.5 -63.5t57.5 -23.5v-21zM203 -112q0 -93 -124 -151l-12 21q34 22 48 38t14 35q0 17 -20 30q-23 17 -23 45
q0 20 15.5 34.5t40.5 14.5q29 0 45 -18t16 -49z" />
    <glyph glyph-name="Lcaron" unicode="&#x13d;" horiz-adv-x="550" 
d="M523 0q-105 1 -345 1q-48 0 -140 -2v22q43 1 58.5 22t15.5 68v460q0 44 -13.5 59.5t-60.5 16.5v22q37 -2 132 -2q105 0 142 2v-22q-48 -1 -63 -17.5t-15 -59.5v-514q68 -7 146 -7q59 0 85 27t35 96h26q-3 -80 -3 -172zM483 676q0 -94 -127 -156l-13 22q34 22 48.5 38.5
t14.5 37.5q0 17 -20 30q-23 17 -23 46q0 20 16 35.5t41 15.5q30 0 46.5 -19t16.5 -50z" />
    <glyph glyph-name="lcaron" unicode="&#x13e;" horiz-adv-x="287" 
d="M276 -1q-57 3 -132 3q-60 0 -115 -3v21q36 3 48.5 24t12.5 69v466q0 57 -13.5 79t-59.5 22v12q64 57 123 57q33 0 48.5 -22t15.5 -84v-536q0 -42 14.5 -63.5t57.5 -23.5v-21zM378 685q0 -94 -127 -156l-13 22q34 22 48.5 38.5t14.5 37.5q0 17 -20 30q-23 17 -23 46
q0 20 16 35.5t41 15.5q30 0 46.5 -19t16.5 -50z" />
    <glyph glyph-name="Ldot" unicode="&#x13f;" horiz-adv-x="550" 
d="M523 0q-105 1 -345 1q-48 0 -140 -2v22q43 1 58.5 22t15.5 68v460q0 44 -13.5 59.5t-60.5 16.5v22q37 -2 132 -2q105 0 142 2v-22q-48 -1 -63 -17.5t-15 -59.5v-514q68 -7 146 -7q60 0 86.5 27t35.5 96h24q-3 -80 -3 -172zM508 299q0 -30 -19.5 -49t-49.5 -19
q-31 0 -50 19.5t-19 49.5t19.5 50t49.5 20t49.5 -20t19.5 -51z" />
    <glyph glyph-name="ldot" unicode="&#x140;" horiz-adv-x="368" 
d="M276 -1q-57 3 -132 3q-60 0 -115 -3v21q36 3 48.5 24t12.5 69v466q0 57 -13.5 79t-59.5 22v12q64 57 123 57q33 0 48.5 -22t15.5 -84v-536q0 -42 14.5 -63.5t57.5 -23.5v-21zM399 311q0 -30 -19.5 -49t-48.5 -19q-31 0 -50 19.5t-19 49.5q0 29 19.5 49t49.5 20
q29 0 48.5 -20t19.5 -50z" />
    <glyph glyph-name="Lslash" unicode="&#x141;" horiz-adv-x="550" 
d="M412 412l-178 -109v-247q68 -7 146 -7q59 0 85 27t35 96h26q-3 -80 -3 -172q-105 1 -345 1q-48 0 -140 -2v22q43 1 58.5 22t15.5 68v120l-78 -47v57l78 48v282q0 44 -13.5 59.5t-60.5 16.5v22q37 -2 132 -2q105 0 142 2v-22q-48 -1 -63 -17.5t-15 -59.5v-209l178 109v-58
z" />
    <glyph glyph-name="lslash" unicode="&#x142;" horiz-adv-x="287" 
d="M276 -1q-57 3 -132 3q-60 0 -115 -3v21q36 3 48.5 24t12.5 69v151l-67 -55v59l67 55v256q0 57 -13.5 79t-59.5 22v12q64 57 123 57q33 0 48.5 -22t15.5 -84v-229l64 53v-59l-64 -53v-248q0 -42 14.5 -63.5t57.5 -23.5v-21z" />
    <glyph glyph-name="Nacute" unicode="&#x143;" horiz-adv-x="711" 
d="M253 -1q-64 2 -102 2q-18 0 -56 -1t-57 -1v22q47 1 61.5 22t14.5 68v474q-28 40 -80 42l-4 11q59 40 124 40q42 0 69.5 -21.5t54.5 -59.5q114 -154 276 -402q-3 38 -6 363q-1 45 -16 67t-58 23v21q36 -2 112 -2q31 0 95 2v-21q-47 -1 -60 -21.5t-13 -68.5v-561h-72
q-79 127 -192 296t-175 249q4 -142 4 -431q0 -46 16.5 -67.5t63.5 -22.5v-22zM314 701l-12 15q84 75 159 166l68 -63q-36 -28 -104 -65t-111 -53z" />
    <glyph glyph-name="nacute" unicode="&#x144;" horiz-adv-x="597" 
d="M284 -1q-58 3 -133 3q-60 0 -115 -3v21q37 3 50 24t13 69v191q0 72 -15 97t-61 25v12q59 55 109 55q74 0 76 -88q25 37 71 63.5t100 26.5q81 0 111 -61q16 -34 16 -96v-179q0 -52 7 -76q12 -42 73 -42v-11q-41 -39 -90 -39q-76 0 -94 55q-9 28 -9 103v157q0 58 -12 80
q-16 31 -57 31q-66 0 -112 -40v-270q0 -42 15 -63.5t57 -23.5v-21zM238 533l-16 13q71 97 120 195l80 -47q-30 -34 -88 -85t-96 -76z" />
    <glyph glyph-name="Ncommaaccent" unicode="&#x145;" horiz-adv-x="711" 
d="M253 -1q-64 2 -102 2q-18 0 -56 -1t-57 -1v22q47 1 61.5 22t14.5 68v474q-28 40 -80 42l-4 11q59 40 124 40q42 0 69.5 -21.5t54.5 -59.5q114 -154 276 -402q-3 38 -6 363q-1 45 -16 67t-58 23v21q36 -2 112 -2q31 0 95 2v-21q-47 -1 -60 -21.5t-13 -68.5v-561h-72
q-79 127 -192 296t-175 249q4 -142 4 -431q0 -46 16.5 -67.5t63.5 -22.5v-22zM418 -112q0 -93 -124 -151l-12 21q34 22 48 38t14 35q0 17 -20 30q-23 17 -23 45q0 20 15.5 34.5t40.5 14.5q29 0 45 -18t16 -49z" />
    <glyph glyph-name="ncommaaccent" unicode="&#x146;" horiz-adv-x="597" 
d="M284 -1q-58 3 -133 3q-60 0 -115 -3v21q37 3 50 24t13 69v191q0 72 -15 97t-61 25v12q59 55 109 55q74 0 76 -88q25 37 71 63.5t100 26.5q81 0 111 -61q16 -34 16 -96v-179q0 -52 7 -76q12 -42 73 -42v-11q-41 -39 -90 -39q-76 0 -94 55q-9 28 -9 103v157q0 58 -12 80
q-16 31 -57 31q-66 0 -112 -40v-270q0 -42 15 -63.5t57 -23.5v-21zM366 -112q0 -93 -124 -151l-12 21q34 22 48 38t14 35q0 17 -20 30q-23 17 -23 45q0 20 15.5 34.5t40.5 14.5q29 0 45 -18t16 -49z" />
    <glyph glyph-name="Ncaron" unicode="&#x147;" horiz-adv-x="711" 
d="M253 -1q-64 2 -102 2q-18 0 -56 -1t-57 -1v22q47 1 61.5 22t14.5 68v474q-28 40 -80 42l-4 11q59 40 124 40q42 0 69.5 -21.5t54.5 -59.5q114 -154 276 -402q-3 38 -6 363q-1 45 -16 67t-58 23v21q36 -2 112 -2q31 0 95 2v-21q-47 -1 -60 -21.5t-13 -68.5v-561h-72
q-79 127 -192 296t-175 249q4 -142 4 -431q0 -46 16.5 -67.5t63.5 -22.5v-22zM207 856l13 16q52 -23 136 -65q93 44 137 63l12 -14q-115 -115 -142 -143h-13q-73 77 -143 143z" />
    <glyph glyph-name="ncaron" unicode="&#x148;" horiz-adv-x="597" 
d="M284 -1q-58 3 -133 3q-60 0 -115 -3v21q37 3 50 24t13 69v191q0 72 -15 97t-61 25v12q59 55 109 55q74 0 76 -88q25 37 71 63.5t100 26.5q81 0 111 -61q16 -34 16 -96v-179q0 -52 7 -76q12 -42 73 -42v-11q-41 -39 -90 -39q-76 0 -94 55q-9 28 -9 103v157q0 58 -12 80
q-16 31 -57 31q-66 0 -112 -40v-270q0 -42 15 -63.5t57 -23.5v-21zM140 709l14 14q67 -40 127 -81q86 57 127 81l15 -14q-58 -61 -136 -162h-12q-108 131 -135 162z" />
    <glyph glyph-name="napostrophe" unicode="&#x149;" horiz-adv-x="597" 
d="M284 -1q-58 3 -133 3q-60 0 -115 -3v21q37 3 50 24t13 69v191q0 72 -15 97t-61 25v12q59 55 109 55q74 0 76 -88q25 37 71 63.5t100 26.5q81 0 111 -61q16 -34 16 -96v-179q0 -52 7 -76q12 -42 73 -42v-11q-41 -39 -90 -39q-76 0 -94 55q-9 28 -9 103v157q0 58 -12 80
q-16 31 -57 31q-66 0 -112 -40v-270q0 -42 15 -63.5t57 -23.5v-21zM187 676q0 -94 -127 -156l-13 22q34 22 48.5 38.5t14.5 37.5q0 17 -20 30q-23 17 -23 46q0 20 16 35.5t41 15.5q30 0 46.5 -19t16.5 -50z" />
    <glyph glyph-name="Eng" unicode="&#x14a;" horiz-adv-x="711" 
d="M252 -1q-64 2 -102 2q-18 0 -55.5 -1t-56.5 -1v22q47 1 61.5 22t14.5 68v474q-28 40 -80 42l-4 11q59 40 124 40q29 0 54.5 -13.5t38.5 -28t31 -39.5q153 -214 270 -397q-3 39 -6 358q0 45 -15 67t-59 23v21q36 -2 111 -2q32 0 96 2v-21q-48 -1 -61 -21.5t-13 -68.5v-499
q0 -120 -15 -154q-17 -42 -52 -61t-71 -19q-32 0 -52 10v7q54 12 79 48.5t25 110.5v19q-78 128 -183 286.5t-164 236.5q4 -144 4 -432q0 -46 16.5 -67.5t63.5 -22.5v-22z" />
    <glyph glyph-name="eng" unicode="&#x14b;" horiz-adv-x="597" 
d="M284 -1q-58 3 -133 3q-60 0 -115 -3v21q37 3 50 24t13 69v191q0 72 -15 97t-61 25v12q59 55 109 55q74 0 76 -88q25 37 71 63.5t100 26.5q81 0 111 -61q16 -34 16 -96v-264q0 -114 -16 -152q-40 -94 -158 -94q-20 0 -32 4v9q33 14 47.5 24.5t26.5 35.5t16 68q3 35 3 85
v252q0 58 -12 80q-16 31 -57 31q-66 0 -112 -40v-270q0 -42 15 -63.5t57 -23.5v-21z" />
    <glyph glyph-name="Omacron" unicode="&#x14c;" horiz-adv-x="673" 
d="M628 334q0 -159 -74.5 -253t-215.5 -94q-150 0 -222 94t-72 254q0 159 77 252.5t212 93.5q81 0 140 -27.5t92 -77t48 -109.5t15 -133zM493 332q0 156 -39 231t-121 75q-155 0 -155 -298q0 -156 38 -233t121 -77q156 0 156 302zM478 731h-288v69h288v-69z" />
    <glyph glyph-name="omacron" unicode="&#x14d;" horiz-adv-x="551" 
d="M510 244q0 -116 -63.5 -186.5t-173.5 -70.5q-111 0 -172 67.5t-61 187.5q0 117 65 186t174 69q117 0 174 -68t57 -185zM388 245q0 117 -27 164t-84 47q-112 0 -112 -201q0 -122 26 -175t87 -53q59 0 84.5 52.5t25.5 165.5zM412 585h-270v69h270v-69z" />
    <glyph glyph-name="Obreve" unicode="&#x14e;" horiz-adv-x="673" 
d="M628 334q0 -159 -74.5 -253t-215.5 -94q-150 0 -222 94t-72 254q0 159 77 252.5t212 93.5q81 0 140 -27.5t92 -77t48 -109.5t15 -133zM493 332q0 156 -39 231t-121 75q-155 0 -155 -298q0 -156 38 -233t121 -77q156 0 156 302zM481 858q-7 -61 -39 -101.5t-110 -40.5
t-109 42t-32 102l21 3q12 -39 38 -57t82 -18t84 17.5t44 56.5z" />
    <glyph glyph-name="obreve" unicode="&#x14f;" horiz-adv-x="551" 
d="M510 244q0 -116 -63.5 -186.5t-173.5 -70.5q-111 0 -172 67.5t-61 187.5q0 117 65 186t174 69q117 0 174 -68t57 -185zM388 245q0 117 -27 164t-84 47q-112 0 -112 -201q0 -122 26 -175t87 -53q59 0 84.5 52.5t25.5 165.5zM420 702q-19 -149 -145 -149q-39 0 -67.5 14
t-42.5 37.5t-20 48t-6 51.5l20 3q13 -42 36.5 -62t79.5 -20q55 0 80.5 19t43.5 62z" />
    <glyph glyph-name="Ohungarumlaut" unicode="&#x150;" horiz-adv-x="673" 
d="M628 334q0 -159 -74.5 -253t-215.5 -94q-150 0 -222 94t-72 254q0 159 77 252.5t212 93.5q81 0 140 -27.5t92 -77t48 -109.5t15 -133zM493 332q0 156 -39 231t-121 75q-155 0 -155 -298q0 -156 38 -233t121 -77q156 0 156 302zM214 710l-12 16q62 55 154 165l61 -54
q-38 -30 -100.5 -69.5t-102.5 -57.5zM369 710l-12 16q66 58 153 165l62 -54q-38 -30 -100.5 -69.5t-102.5 -57.5z" />
    <glyph glyph-name="ohungarumlaut" unicode="&#x151;" horiz-adv-x="551" 
d="M510 244q0 -116 -63.5 -186.5t-173.5 -70.5q-111 0 -172 67.5t-61 187.5q0 117 65 186t174 69q117 0 174 -68t57 -185zM388 245q0 117 -27 164t-84 47q-112 0 -112 -201q0 -122 26 -175t87 -53q59 0 84.5 52.5t25.5 165.5zM182 531l-15 13q48 64 103 192l72 -43
q-65 -85 -160 -162zM326 531l-15 13q48 64 103 192l72 -43q-65 -85 -160 -162z" />
    <glyph glyph-name="OE" unicode="&#x152;" horiz-adv-x="918" 
d="M878 0q-105 1 -346 1q-33 0 -101.5 -4t-103.5 -4q-142 0 -212.5 93t-70.5 251q0 161 81.5 249.5t216.5 88.5q31 0 101.5 -4.5t112.5 -4.5q141 0 295 2q3 -67 10 -151h-21q-16 70 -47 86.5t-131 16.5h-74v-249h37q82 0 106.5 14.5t26.5 57.5h23q-2 -62 -2 -100
q0 -60 2 -91h-23q-2 43 -26 58.5t-106 15.5h-38v-272q69 -7 146 -7q60 0 87 27t36 96h24q-3 -81 -3 -170zM466 148v376q0 62 -22 84q-25 24 -84 24q-182 0 -182 -285q0 -166 41 -239t128 -73q69 0 97 27q22 21 22 86z" />
    <glyph glyph-name="oe" unicode="&#x153;" horiz-adv-x="860" 
d="M447 74q-56 -87 -174 -87q-109 0 -171 68t-62 187q0 118 64.5 186.5t173.5 68.5q127 0 175 -84q27 40 72 62t99 22q200 0 200 -214q0 -30 -39 -30h-275q1 -55 14 -94.5t36 -60.5t48 -30t55 -9q91 0 141 55h5q12 -8 12 -25q0 -28 -56.5 -65t-137.5 -37q-126 0 -180 87z
M388 244q0 117 -27.5 164.5t-84.5 47.5q-111 0 -111 -201q0 -121 27 -174.5t87 -53.5q56 0 82.5 53t26.5 164zM511 296q138 2 177 4q25 0 25 19q0 76 -24 106.5t-68 30.5q-40 0 -72.5 -34.5t-37.5 -125.5z" />
    <glyph glyph-name="Racute" unicode="&#x154;" horiz-adv-x="670" 
d="M324 -1q-62 2 -156 2q-56 0 -130 -2v22q46 1 60 24.5t14 71.5v452q0 44 -13.5 61t-60.5 18v21q35 -2 120 -2q18 0 84 0.5t84 0.5q127 0 183 -41.5t56 -124.5q0 -63 -39.5 -111t-128.5 -68q34 -4 74 -65q13 -20 38 -61t39 -63q32 -49 62 -68q24 -14 58 -14l3 -5
q-16 -21 -45.5 -37.5t-61.5 -16.5q-41 0 -72 18t-61 76q-88 169 -106 189q-20 23 -52 24q-17 0 -39 2v-184q0 -52 17 -74t73 -23v-22zM234 346q14 -2 39 -2q93 0 129 40.5t36 108.5q0 71 -38.5 101t-120.5 30h-45v-278zM252 701l-12 15q84 75 159 166l68 -63
q-36 -28 -104 -65t-111 -53z" />
    <glyph glyph-name="racute" unicode="&#x155;" horiz-adv-x="407" 
d="M290 -1q-57 3 -137 3q-63 0 -113 -3v21q35 3 47 24.5t12 69.5v190q0 73 -14.5 98t-60.5 25v12q57 55 109 55q35 0 54.5 -20.5t20.5 -73.5q15 35 47.5 65t76.5 30q65 0 65 -52q0 -42 -47 -76l-8 3q-13 37 -53 37q-19 0 -41 -10.5t-36 -27.5v-263q0 -41 16 -62.5t62 -23.5
v-21zM175 533l-16 13q71 97 120 195l80 -47q-30 -34 -88 -85t-96 -76z" />
    <glyph glyph-name="Rcommaaccent" unicode="&#x156;" horiz-adv-x="670" 
d="M324 -1q-62 2 -156 2q-56 0 -130 -2v22q46 1 60 24.5t14 71.5v452q0 44 -13.5 61t-60.5 18v21q35 -2 120 -2q18 0 84 0.5t84 0.5q127 0 183 -41.5t56 -124.5q0 -63 -39.5 -111t-128.5 -68q34 -4 74 -65q13 -20 38 -61t39 -63q32 -49 62 -68q24 -14 58 -14l3 -5
q-16 -21 -45.5 -37.5t-61.5 -16.5q-41 0 -72 18t-61 76q-88 169 -106 189q-20 23 -52 24q-17 0 -39 2v-184q0 -52 17 -74t73 -23v-22zM234 346q14 -2 39 -2q93 0 129 40.5t36 108.5q0 71 -38.5 101t-120.5 30h-45v-278zM401 -112q0 -93 -124 -151l-12 21q34 22 48 38t14 35
q0 17 -20 30q-23 17 -23 45q0 20 15.5 34.5t40.5 14.5q29 0 45 -18t16 -49z" />
    <glyph glyph-name="rcommaaccent" unicode="&#x157;" horiz-adv-x="407" 
d="M290 -1q-57 3 -137 3q-63 0 -113 -3v21q35 3 47 24.5t12 69.5v190q0 73 -14.5 98t-60.5 25v12q57 55 109 55q35 0 54.5 -20.5t20.5 -73.5q15 35 47.5 65t76.5 30q65 0 65 -52q0 -42 -47 -76l-8 3q-13 37 -53 37q-19 0 -41 -10.5t-36 -27.5v-263q0 -41 16 -62.5t62 -23.5
v-21zM224 -112q0 -93 -124 -151l-12 21q34 22 48 38t14 35q0 17 -20 30q-23 17 -23 45q0 20 15.5 34.5t40.5 14.5q29 0 45 -18t16 -49z" />
    <glyph glyph-name="Rcaron" unicode="&#x158;" horiz-adv-x="670" 
d="M324 -1q-62 2 -156 2q-56 0 -130 -2v22q46 1 60 24.5t14 71.5v452q0 44 -13.5 61t-60.5 18v21q35 -2 120 -2q18 0 84 0.5t84 0.5q127 0 183 -41.5t56 -124.5q0 -63 -39.5 -111t-128.5 -68q34 -4 74 -65q13 -20 38 -61t39 -63q32 -49 62 -68q24 -14 58 -14l3 -5
q-16 -21 -45.5 -37.5t-61.5 -16.5q-41 0 -72 18t-61 76q-88 169 -106 189q-20 23 -52 24q-17 0 -39 2v-184q0 -52 17 -74t73 -23v-22zM234 346q14 -2 39 -2q93 0 129 40.5t36 108.5q0 71 -38.5 101t-120.5 30h-45v-278zM136 856l13 16q52 -23 136 -65q93 44 137 63l12 -14
q-115 -115 -142 -143h-13q-73 77 -143 143z" />
    <glyph glyph-name="rcaron" unicode="&#x159;" horiz-adv-x="407" 
d="M290 -1q-57 3 -137 3q-63 0 -113 -3v21q35 3 47 24.5t12 69.5v190q0 73 -14.5 98t-60.5 25v12q57 55 109 55q35 0 54.5 -20.5t20.5 -73.5q15 35 47.5 65t76.5 30q65 0 65 -52q0 -42 -47 -76l-8 3q-13 37 -53 37q-19 0 -41 -10.5t-36 -27.5v-263q0 -41 16 -62.5t62 -23.5
v-21zM60 709l14 14q67 -40 127 -81q86 57 127 81l15 -14q-58 -61 -136 -162h-12q-108 131 -135 162z" />
    <glyph glyph-name="Sacute" unicode="&#x15a;" horiz-adv-x="537" 
d="M111 192l6 -5q0 -80 41.5 -118t104.5 -38q60 0 99 31t39 87q0 80 -119 126l-84 32q-144 53 -144 188q0 84 66.5 135t176.5 51q100 0 145.5 -32.5t45.5 -72.5q0 -54 -80 -69l-7 4q-1 127 -115 127q-55 0 -90.5 -28t-35.5 -73q0 -42 26 -71t89 -53l75 -29q87 -34 124 -80
t37 -113q0 -91 -72.5 -147.5t-184.5 -56.5q-114 0 -171.5 39.5t-57.5 94.5q0 61 86 71zM226 701l-12 15q84 75 159 166l68 -63q-36 -28 -104 -65t-111 -53z" />
    <glyph glyph-name="sacute" unicode="&#x15b;" horiz-adv-x="446" 
d="M107 153l7 -5q0 -59 31.5 -89.5t83.5 -30.5q43 0 68.5 20t25.5 56q0 53 -73 78l-62 21q-68 23 -99.5 57t-31.5 91q0 67 54 106.5t137 39.5q80 0 115 -25t35 -60q0 -44 -69 -59l-7 3q0 101 -86 101q-37 0 -63 -17.5t-26 -52.5q0 -52 71 -75l61 -20q78 -26 108 -62t30 -87
q0 -68 -54 -112t-153 -44q-87 0 -131.5 31.5t-44.5 71.5q0 52 73 63zM189 533l-16 13q71 97 120 195l80 -47q-30 -34 -88 -85t-96 -76z" />
    <glyph glyph-name="Scircumflex" unicode="&#x15c;" horiz-adv-x="537" 
d="M111 192l6 -5q0 -80 41.5 -118t104.5 -38q60 0 99 31t39 87q0 80 -119 126l-84 32q-144 53 -144 188q0 84 66.5 135t176.5 51q100 0 145.5 -32.5t45.5 -72.5q0 -54 -80 -69l-7 4q-1 127 -115 127q-55 0 -90.5 -28t-35.5 -73q0 -42 26 -71t89 -53l75 -29q87 -34 124 -80
t37 -113q0 -91 -72.5 -147.5t-184.5 -56.5q-114 0 -171.5 39.5t-57.5 94.5q0 61 86 71zM429 724l-13 -16q-69 30 -136 64q-52 -25 -137 -63l-12 15q15 14 37 36t54 54.5t51 51.5h13q111 -113 143 -142z" />
    <glyph glyph-name="scircumflex" unicode="&#x15d;" horiz-adv-x="446" 
d="M107 153l7 -5q0 -59 31.5 -89.5t83.5 -30.5q43 0 68.5 20t25.5 56q0 53 -73 78l-62 21q-68 23 -99.5 57t-31.5 91q0 67 54 106.5t137 39.5q80 0 115 -25t35 -60q0 -44 -69 -59l-7 3q0 101 -86 101q-37 0 -63 -17.5t-26 -52.5q0 -52 71 -75l61 -20q78 -26 108 -62t30 -87
q0 -68 -54 -112t-153 -44q-87 0 -131.5 31.5t-44.5 71.5q0 52 73 63zM379 559l-14 -14q-32 19 -127 81q-62 -42 -127 -81l-14 14q45 46 135 162h12q117 -141 135 -162z" />
    <glyph glyph-name="Scedilla" unicode="&#x15e;" horiz-adv-x="537" 
d="M205 -232l-2 23q41 6 61.5 22.5t20.5 36.5q0 27 -34 51q-26 18 -26 37q0 18 19 49q-110 2 -164.5 41t-54.5 93q0 61 86 71l6 -5q0 -80 41.5 -118t104.5 -38q60 0 99 31t39 87q0 80 -119 126l-84 32q-144 53 -144 188q0 84 66.5 135t176.5 51q100 0 145.5 -32.5
t45.5 -72.5q0 -54 -80 -69l-7 4q-1 127 -115 127q-55 0 -90.5 -28t-35.5 -73q0 -42 26 -71t89 -53l75 -29q87 -34 124 -80t37 -113q0 -86 -66 -142t-170 -61q-2 -7 -2 -17q0 -15 17 -25q4 -2 19.5 -11t25.5 -16q26 -19 26 -54q0 -44 -46.5 -70.5t-109.5 -26.5z" />
    <glyph glyph-name="scedilla" unicode="&#x15f;" horiz-adv-x="446" 
d="M164 -222l-2 21q39 6 58.5 22t19.5 35q0 25 -32 48q-25 18 -25 36q0 14 18 47q-83 2 -125 33t-42 70q0 52 73 63l7 -5q0 -59 31.5 -89.5t83.5 -30.5q38 0 66 19.5t28 56.5q0 53 -73 78l-62 21q-68 23 -99.5 57t-31.5 91q0 67 54 106.5t137 39.5q80 0 115 -25t35 -60
q0 -44 -69 -59l-7 3q0 101 -86 101q-37 0 -63 -17.5t-26 -52.5q0 -52 71 -75l61 -20q78 -26 108 -62t30 -87q0 -63 -49.5 -106.5t-136.5 -48.5q-2 -7 -2 -17q0 -14 17 -24q37 -22 42 -26q26 -19 26 -50q0 -42 -44.5 -67.5t-105.5 -25.5z" />
    <glyph glyph-name="Scaron" unicode="&#x160;" horiz-adv-x="537" 
d="M111 192l6 -5q0 -80 41.5 -118t104.5 -38q60 0 99 31t39 87q0 80 -119 126l-84 32q-144 53 -144 188q0 84 66.5 135t176.5 51q100 0 145.5 -32.5t45.5 -72.5q0 -54 -80 -69l-7 4q-1 127 -115 127q-55 0 -90.5 -28t-35.5 -73q0 -42 26 -71t89 -53l75 -29q87 -34 124 -80
t37 -113q0 -91 -72.5 -147.5t-184.5 -56.5q-114 0 -171.5 39.5t-57.5 94.5q0 61 86 71zM129 856l13 16q52 -23 136 -65q93 44 137 63l12 -14q-115 -115 -142 -143h-13q-73 77 -143 143z" />
    <glyph glyph-name="scaron" unicode="&#x161;" horiz-adv-x="446" 
d="M107 153l7 -5q0 -59 31.5 -89.5t83.5 -30.5q43 0 68.5 20t25.5 56q0 53 -73 78l-62 21q-68 23 -99.5 57t-31.5 91q0 67 54 106.5t137 39.5q80 0 115 -25t35 -60q0 -44 -69 -59l-7 3q0 101 -86 101q-37 0 -63 -17.5t-26 -52.5q0 -52 71 -75l61 -20q78 -26 108 -62t30 -87
q0 -68 -54 -112t-153 -44q-87 0 -131.5 31.5t-44.5 71.5q0 52 73 63zM86 709l14 14q67 -40 127 -81q86 57 127 81l15 -14q-58 -61 -136 -162h-12q-108 131 -135 162z" />
    <glyph glyph-name="uni0162" unicode="&#x162;" horiz-adv-x="603" 
d="M246 -232l-2 23q41 6 61.5 22.5t20.5 36.5q0 27 -34 51q-26 18 -26 37t27 63q-100 0 -130 -2v22q47 1 62 23t15 69v507h-36q-81 0 -110.5 -22.5t-46.5 -95.5h-24q10 145 11 166q153 -2 269 -2q114 0 267 2q3 -70 10 -166h-24q-17 74 -46.5 96t-111.5 22h-35v-507
q0 -47 15.5 -69t62.5 -23v-22q-14 1 -57.5 1.5t-61.5 0.5q-8 -16 -8 -30q0 -15 17 -25q4 -2 19.5 -11t25.5 -16q26 -19 26 -54q0 -44 -46.5 -70.5t-109.5 -26.5z" />
    <glyph glyph-name="uni0163" unicode="&#x163;" horiz-adv-x="330" 
d="M125 -222l-2 21q39 6 58.5 22t19.5 35q0 25 -32 48q-25 18 -25 36q0 16 22 55q-55 11 -71 65q-8 29 -8 74v301h-65v28q52 12 87 42.5t63 105.5h29v-129h105v-47h-106v-276q0 -37 4 -56q12 -50 61 -50q25 0 61 12l6 -9q-49 -66 -123 -66q-11 0 -16 1q-3 -9 -3 -20
q0 -14 17 -24q37 -22 42 -26q26 -19 26 -50q0 -42 -44.5 -67.5t-105.5 -25.5z" />
    <glyph glyph-name="Tcaron" unicode="&#x164;" horiz-adv-x="603" 
d="M441 -1q-64 2 -141 2q-105 0 -137 -2v22q47 1 62 23t15 69v507h-36q-81 0 -110.5 -22.5t-46.5 -95.5h-24q10 145 11 166q153 -2 269 -2q114 0 267 2q3 -70 10 -166h-24q-17 74 -46.5 96t-111.5 22h-35v-507q0 -47 15.5 -69t62.5 -23v-22zM153 856l13 16q52 -23 136 -65
q93 44 137 63l12 -14q-114 -115 -142 -143h-13q-73 77 -143 143z" />
    <glyph glyph-name="tcaron" unicode="&#x165;" horiz-adv-x="330" 
d="M332 56q-49 -66 -123 -66q-92 0 -114 70q-8 29 -8 74v301h-65v28q52 12 87 42.5t63 105.5h29v-129h105v-47h-106v-276q0 -37 4 -56q12 -50 61 -50q25 0 61 12zM364 674q0 -94 -127 -156l-13 22q34 22 48.5 38.5t14.5 37.5q0 17 -20 30q-23 17 -23 46q0 20 16 35.5
t41 15.5q30 0 46.5 -19t16.5 -50z" />
    <glyph glyph-name="Tbar" unicode="&#x166;" horiz-adv-x="603" 
d="M514 350h-151v-237q0 -47 15.5 -69t62.5 -23v-22q-64 2 -141 2q-105 0 -137 -2v22q47 1 62 23t15 69v237h-153v49h153v221h-36q-81 0 -110.5 -22.5t-46.5 -95.5h-24q10 145 11 166q153 -2 269 -2q114 0 267 2q3 -91 10 -166h-24q-17 74 -46.5 96t-111.5 22h-35v-221h151
v-49z" />
    <glyph glyph-name="tbar" unicode="&#x167;" horiz-adv-x="330" 
d="M302 279h-102v-120q0 -37 4 -56q12 -50 61 -50q25 0 61 12l6 -9q-49 -66 -123 -66q-92 0 -114 70q-8 29 -8 74v145h-60v44h60v114h-65v27q52 12 87 42t63 105h29v-128h105v-46h-106v-114h102v-44z" />
    <glyph glyph-name="Utilde" unicode="&#x168;" horiz-adv-x="697" 
d="M680 647q-47 -1 -59.5 -20.5t-12.5 -75.5v-310q0 -90 -19 -133q-51 -119 -219 -119q-107 0 -165 29t-83 86q-21 50 -21 131v334q0 44 -13 60.5t-61 17.5v22q37 -2 140 -2q93 0 130 2v-22q-47 -1 -60 -17t-13 -61v-328q0 -76 14 -114q32 -81 141 -81q116 0 152 85
q15 35 15 110v312q0 50 -14 71.5t-61 22.5v21q74 -2 117 -2q32 0 92 2v-21zM533 841q-9 -29 -17 -48t-29 -37.5t-49 -18.5q-29 0 -75 19q-44 21 -64 21q-36 0 -61 -51l-22 8q10 44 35.5 78.5t62.5 34.5q10 0 20.5 -2t16 -4.5t18.5 -7.5t18 -7q50 -20 64 -20q25 0 36.5 9
t23.5 34z" />
    <glyph glyph-name="utilde" unicode="&#x169;" horiz-adv-x="593" 
d="M397 67q-24 -38 -65 -59t-90 -21q-87 0 -126 58q-22 33 -22 117v141q0 52 -2 66q-4 30 -18.5 43.5t-51.5 13.5v12q60 55 121 55q55 0 62 -61q3 -27 3 -72v-180q0 -60 14 -85q19 -30 69 -30q63 0 99 33v214q0 37 -3 61q-4 53 -71 53v12q22 22 56.5 38.5t63.5 16.5
q61 0 66 -64q2 -20 2 -92v-199q0 -53 17 -74.5t63 -22.5v-12q-38 -38 -95 -38q-37 0 -62 20t-30 56zM458 679q-9 -30 -17 -48.5t-28 -37t-48 -18.5q-27 0 -73 20q-42 20 -63 20q-40 0 -64 -49l-18 7q10 44 35 78.5t62 34.5q21 0 71 -22q50 -19 63 -19q41 0 63 41z" />
    <glyph glyph-name="Umacron" unicode="&#x16a;" horiz-adv-x="697" 
d="M680 647q-47 -1 -59.5 -20.5t-12.5 -75.5v-310q0 -90 -19 -133q-51 -119 -219 -119q-107 0 -165 29t-83 86q-21 50 -21 131v334q0 44 -13 60.5t-61 17.5v22q37 -2 140 -2q93 0 130 2v-22q-47 -1 -60 -17t-13 -61v-328q0 -76 14 -114q32 -81 141 -81q116 0 152 85
q15 35 15 110v312q0 50 -14 71.5t-61 22.5v21q74 -2 117 -2q32 0 92 2v-21zM503 731h-288v69h288v-69z" />
    <glyph glyph-name="umacron" unicode="&#x16b;" horiz-adv-x="593" 
d="M397 67q-24 -38 -65 -59t-90 -21q-87 0 -126 58q-22 33 -22 117v141q0 52 -2 66q-4 30 -18.5 43.5t-51.5 13.5v12q60 55 121 55q55 0 62 -61q3 -27 3 -72v-180q0 -60 14 -85q19 -30 69 -30q63 0 99 33v214q0 37 -3 61q-4 53 -71 53v12q22 22 56.5 38.5t63.5 16.5
q61 0 66 -64q2 -20 2 -92v-199q0 -53 17 -74.5t63 -22.5v-12q-38 -38 -95 -38q-37 0 -62 20t-30 56zM430 585h-270v69h270v-69z" />
    <glyph glyph-name="Ubreve" unicode="&#x16c;" horiz-adv-x="697" 
d="M680 647q-47 -1 -59.5 -20.5t-12.5 -75.5v-310q0 -90 -19 -133q-51 -119 -219 -119q-107 0 -165 29t-83 86q-21 50 -21 131v334q0 44 -13 60.5t-61 17.5v22q37 -2 140 -2q93 0 130 2v-22q-47 -1 -60 -17t-13 -61v-328q0 -76 14 -114q32 -81 141 -81q116 0 152 85
q15 35 15 110v312q0 50 -14 71.5t-61 22.5v21q74 -2 117 -2q32 0 92 2v-21zM509 858q-7 -61 -39 -101.5t-110 -40.5t-109 42t-32 102l21 3q12 -39 38 -57t82 -18t84 17.5t44 56.5z" />
    <glyph glyph-name="ubreve" unicode="&#x16d;" horiz-adv-x="593" 
d="M397 67q-24 -38 -65 -59t-90 -21q-87 0 -126 58q-22 33 -22 117v141q0 52 -2 66q-4 30 -18.5 43.5t-51.5 13.5v12q60 55 121 55q55 0 62 -61q3 -27 3 -72v-180q0 -60 14 -85q19 -30 69 -30q63 0 99 33v214q0 37 -3 61q-4 53 -71 53v12q22 22 56.5 38.5t63.5 16.5
q61 0 66 -64q2 -20 2 -92v-199q0 -53 17 -74.5t63 -22.5v-12q-38 -38 -95 -38q-37 0 -62 20t-30 56zM424 702q-19 -149 -145 -149q-39 0 -67.5 14t-42.5 37.5t-20 48t-6 51.5l20 3q13 -42 36.5 -62t79.5 -20q55 0 80.5 19t43.5 62z" />
    <glyph glyph-name="Uring" unicode="&#x16e;" horiz-adv-x="697" 
d="M680 647q-47 -1 -59.5 -20.5t-12.5 -75.5v-310q0 -90 -19 -133q-51 -119 -219 -119q-107 0 -165 29t-83 86q-21 50 -21 131v334q0 44 -13 60.5t-61 17.5v22q37 -2 140 -2q93 0 130 2v-22q-47 -1 -60 -17t-13 -61v-328q0 -76 14 -114q32 -81 141 -81q116 0 152 85
q15 35 15 110v312q0 50 -14 71.5t-61 22.5v21q74 -2 117 -2q32 0 92 2v-21zM469 792q0 -41 -27 -68.5t-71 -27.5q-42 0 -69 27.5t-27 68.5t27 68.5t69 27.5q44 0 71 -27.5t27 -68.5zM427 791q0 28 -15.5 45t-40.5 17q-24 0 -39.5 -17t-15.5 -45q0 -26 15.5 -42.5t39.5 -16.5
q25 0 40.5 16.5t15.5 42.5z" />
    <glyph glyph-name="uring" unicode="&#x16f;" horiz-adv-x="593" 
d="M397 67q-24 -38 -65 -59t-90 -21q-87 0 -126 58q-22 33 -22 117v141q0 52 -2 66q-4 30 -18.5 43.5t-51.5 13.5v12q60 55 121 55q55 0 62 -61q3 -27 3 -72v-180q0 -60 14 -85q19 -30 69 -30q63 0 99 33v214q0 37 -3 61q-4 53 -71 53v12q22 22 56.5 38.5t63.5 16.5
q61 0 66 -64q2 -20 2 -92v-199q0 -53 17 -74.5t63 -22.5v-12q-38 -38 -95 -38q-37 0 -62 20t-30 56zM387 645q0 -41 -27 -68.5t-71 -27.5q-42 0 -69 27.5t-27 68.5t27 69t69 28q43 0 70.5 -28t27.5 -69zM345 644q0 29 -15.5 46t-40.5 17q-24 0 -39.5 -17.5t-15.5 -45.5
q0 -26 15.5 -42.5t39.5 -16.5q25 0 40.5 16.5t15.5 42.5z" />
    <glyph glyph-name="Uhungarumlaut" unicode="&#x170;" horiz-adv-x="697" 
d="M680 647q-47 -1 -59.5 -20.5t-12.5 -75.5v-310q0 -90 -19 -133q-51 -119 -219 -119q-107 0 -165 29t-83 86q-21 50 -21 131v334q0 44 -13 60.5t-61 17.5v22q37 -2 140 -2q93 0 130 2v-22q-47 -1 -60 -17t-13 -61v-328q0 -76 14 -114q32 -81 141 -81q116 0 152 85
q15 35 15 110v312q0 50 -14 71.5t-61 22.5v21q74 -2 117 -2q32 0 92 2v-21zM229 710l-12 16q62 55 154 165l61 -54q-38 -30 -100.5 -69.5t-102.5 -57.5zM384 710l-12 16q66 58 153 165l62 -54q-38 -30 -100.5 -69.5t-102.5 -57.5z" />
    <glyph glyph-name="uhungarumlaut" unicode="&#x171;" horiz-adv-x="593" 
d="M397 67q-24 -38 -65 -59t-90 -21q-87 0 -126 58q-22 33 -22 117v141q0 52 -2 66q-4 30 -18.5 43.5t-51.5 13.5v12q60 55 121 55q55 0 62 -61q3 -27 3 -72v-180q0 -60 14 -85q19 -30 69 -30q63 0 99 33v214q0 37 -3 61q-4 53 -71 53v12q22 22 56.5 38.5t63.5 16.5
q61 0 66 -64q2 -20 2 -92v-199q0 -53 17 -74.5t63 -22.5v-12q-38 -38 -95 -38q-37 0 -62 20t-30 56zM195 531l-15 13q48 64 103 192l72 -43q-65 -85 -160 -162zM339 531l-15 13q48 64 103 192l72 -43q-65 -85 -160 -162z" />
    <glyph glyph-name="Uogonek" unicode="&#x172;" horiz-adv-x="697" 
d="M444 -233q-69 0 -115.5 24t-46.5 74q0 70 88 124q-107 0 -165 29t-83 86q-21 50 -21 131v334q0 44 -13 60.5t-61 17.5v22q37 -2 140 -2q93 0 130 2v-22q-47 -1 -60 -17t-13 -61v-328q0 -76 14 -114q32 -81 141 -81q116 0 152 85q15 35 15 110v312q0 50 -14 71.5t-61 22.5
v21q74 -2 117 -2q32 0 92 2v-21q-47 -1 -59.5 -20.5t-12.5 -75.5v-310q0 -90 -19 -133q-39 -91 -149 -112q-77 -56 -77 -127q0 -69 84 -75z" />
    <glyph glyph-name="uogonek" unicode="&#x173;" horiz-adv-x="593" 
d="M522 -222q-66 0 -111.5 23t-45.5 71q0 70 96 125q-57 12 -64 70q-24 -38 -65 -59t-90 -21q-87 0 -126 58q-22 33 -22 117v141q0 52 -2 66q-4 30 -18.5 43.5t-51.5 13.5v12q60 55 121 55q55 0 62 -61q3 -27 3 -72v-180q0 -60 14 -85q19 -30 69 -30q63 0 99 33v214
q0 37 -3 61q-4 53 -71 53v12q22 22 56.5 38.5t63.5 16.5q61 0 66 -64q2 -20 2 -92v-196q0 -53 17 -74.5t63 -22.5v-12q-27 -27 -65 -35q-76 -54 -76 -121q0 -28 19 -48.5t62 -23.5z" />
    <glyph glyph-name="Wcircumflex" unicode="&#x174;" horiz-adv-x="946" 
d="M323 -4h-77q-14 56 -40 148l-120 412q-14 48 -31.5 69t-51.5 22v22q76 -2 153 -2q62 0 126 2v-22q-44 -1 -58.5 -11t-14.5 -32q0 -18 10 -56l101 -368l100 317q31 102 47 171h75q20 -74 51 -173l98 -315l97 349q13 48 13 73q0 22 -16 33t-56 12v22q64 -2 117 -2
q57 0 97 2v-22q-33 -1 -50.5 -23t-31.5 -68l-121 -412q-1 -3 -41 -148h-77q-14 61 -42 145l-110 321l-105 -322q-29 -91 -42 -144zM653 724l-13 -16q-69 30 -136 64q-52 -25 -137 -63l-12 15q15 14 37 36t54 54.5t51 51.5h13q111 -113 143 -142z" />
    <glyph glyph-name="wcircumflex" unicode="&#x175;" horiz-adv-x="779" 
d="M258 -4h-70q-73 273 -111 360q-10 23 -17 35t-21 23.5t-32 14.5v12q20 23 48 38t50 15q42 0 63 -43q21 -44 41 -116q34 -125 46 -190q93 232 129 333h69q50 -130 124 -333q2 6 23.5 64t33.5 93q20 61 20 105q0 12 -8 25.5t-19 19.5v10q37 32 76 32q47 0 47 -45
q0 -30 -63 -187q-92 -229 -106 -266h-68q-7 23 -121 330q-86 -208 -134 -330zM558 559l-14 -14q-32 19 -127 81q-62 -42 -127 -81l-14 14q45 46 135 162h12q117 -141 135 -162z" />
    <glyph glyph-name="Ycircumflex" unicode="&#x176;" horiz-adv-x="650" 
d="M460 -1q-64 2 -134 2q-67 0 -141 -2v22q47 1 61.5 22t14.5 68v177l-160 269q-19 32 -29.5 47t-29 29t-39.5 15v21q38 -2 163 -2q65 0 129 2v-21q-73 -3 -73 -36q0 -19 31 -74l105 -182l103 173q33 56 33 81q0 36 -70 38v21q64 -2 128 -2q17 0 95 2v-21q-29 -2 -49 -22
t-50 -69l-164 -266v-180q0 -47 14.5 -68t61.5 -22v-22zM496 724l-13 -16q-69 30 -136 64q-52 -25 -137 -63l-12 15q15 14 37 36t54 54.5t51 51.5h13q111 -113 143 -142z" />
    <glyph glyph-name="ycircumflex" unicode="&#x177;" horiz-adv-x="524" 
d="M235 -4q-123 307 -160 371q-16 28 -30 43t-36 18v13q55 53 100 53q37 0 59 -45q12 -24 49 -112q45 -111 84 -221q61 149 79 194q21 54 21 96q0 30 -27 46v10q41 32 80 32q17 0 30 -12t13 -34q0 -23 -14 -60t-50 -117q-16 -35 -44 -99t-43 -98t-35.5 -78.5t-37 -75
t-30.5 -52.5q-52 -83 -124 -83q-29 0 -50.5 26.5t-21.5 60.5l6 4q21 -8 40 -8t31 1.5t30 12.5t31 32q36 53 50 82zM416 559l-14 -14q-32 19 -127 81q-62 -42 -127 -81l-14 14q45 46 135 162h12q117 -141 135 -162z" />
    <glyph glyph-name="Ydieresis" unicode="&#x178;" horiz-adv-x="650" 
d="M460 -1q-64 2 -134 2q-67 0 -141 -2v22q47 1 61.5 22t14.5 68v177l-160 269q-19 32 -29.5 47t-29 29t-39.5 15v21q38 -2 163 -2q65 0 129 2v-21q-73 -3 -73 -36q0 -19 31 -74l105 -182l103 173q33 56 33 81q0 36 -70 38v21q64 -2 128 -2q17 0 95 2v-21q-29 -2 -49 -22
t-50 -69l-164 -266v-180q0 -47 14.5 -68t61.5 -22v-22zM304 777q0 -22 -15 -37t-37 -15t-36.5 15t-14.5 37q0 23 14.5 38t36.5 15t37 -15.5t15 -37.5zM487 777q0 -22 -15 -37t-37 -15t-36.5 15t-14.5 37q0 23 14.5 38t36.5 15t37 -15t15 -38z" />
    <glyph glyph-name="Zacute" unicode="&#x179;" horiz-adv-x="593" 
d="M554 -1q-164 2 -211 2q-188 0 -326 -2v19l373 601h-139q-97 0 -126.5 -18t-45.5 -90h-26q9 102 11 158q80 -2 226 -2q193 0 264 2v-20l-376 -600h184q96 0 129 20.5t50 92.5h24q-8 -99 -11 -163zM249 701l-12 15q84 75 159 166l68 -63q-36 -28 -104 -65t-111 -53z" />
    <glyph glyph-name="zacute" unicode="&#x17a;" horiz-adv-x="493" 
d="M472 149q-2 -90 -18 -119.5t-72 -29.5q-22 0 -112.5 0.5t-129.5 0.5q-66 0 -118 -2l-6 13q40 55 84 120l204 300q-57 0 -97 -3q-65 -4 -93.5 -21.5t-40.5 -67.5h-18q-9 36 -9 59q0 51 15 68t66 17q14 0 50 -0.5t49 -0.5q119 0 229 2l6 -13q-39 -53 -80 -114l-202 -301
q33 -2 97 -2q74 0 115 22t64 72h17zM186 533l-16 13q71 97 120 195l80 -47q-30 -34 -88 -85t-96 -76z" />
    <glyph glyph-name="Zdotaccent" unicode="&#x17b;" horiz-adv-x="593" 
d="M554 -1q-164 2 -211 2q-188 0 -326 -2v19l373 601h-139q-97 0 -126.5 -18t-45.5 -90h-26q9 102 11 158q80 -2 226 -2q193 0 264 2v-20l-376 -600h184q96 0 129 20.5t50 92.5h24q-8 -99 -11 -163zM354 777q0 -22 -15 -37t-37 -15t-36.5 15t-14.5 37q0 23 14.5 38t36.5 15
t37 -15t15 -38z" />
    <glyph glyph-name="zdotaccent" unicode="&#x17c;" horiz-adv-x="493" 
d="M472 149q-2 -90 -18 -119.5t-72 -29.5q-22 0 -112.5 0.5t-129.5 0.5q-66 0 -118 -2l-6 13q40 55 84 120l204 300q-57 0 -97 -3q-65 -4 -93.5 -21.5t-40.5 -67.5h-18q-9 36 -9 59q0 51 15 68t66 17q14 0 50 -0.5t49 -0.5q119 0 229 2l6 -13q-39 -53 -80 -114l-202 -301
q33 -2 97 -2q74 0 115 22t64 72h17zM303 624q0 -22 -15 -37t-37 -15t-36.5 15t-14.5 37q0 23 14.5 38t36.5 15t37 -15t15 -38z" />
    <glyph glyph-name="Zcaron" unicode="&#x17d;" horiz-adv-x="593" 
d="M554 -1q-164 2 -211 2q-188 0 -326 -2v19l373 601h-139q-97 0 -126.5 -18t-45.5 -90h-26q9 102 11 158q80 -2 226 -2q193 0 264 2v-20l-376 -600h184q96 0 129 20.5t50 92.5h24q-8 -99 -11 -163zM157 856l13 16q52 -23 136 -65q93 44 137 63l12 -14q-115 -115 -142 -143
h-13q-73 77 -143 143z" />
    <glyph glyph-name="zcaron" unicode="&#x17e;" horiz-adv-x="493" 
d="M472 149q-2 -90 -18 -119.5t-72 -29.5q-22 0 -112.5 0.5t-129.5 0.5q-66 0 -118 -2l-6 13q40 55 84 120l204 300q-57 0 -97 -3q-65 -4 -93.5 -21.5t-40.5 -67.5h-18q-9 36 -9 59q0 51 15 68t66 17q14 0 50 -0.5t49 -0.5q119 0 229 2l6 -13q-39 -53 -80 -114l-202 -301
q33 -2 97 -2q74 0 115 22t64 72h17zM87 709l14 14q67 -40 127 -81q86 57 127 81l15 -14q-58 -61 -136 -162h-12q-108 131 -135 162z" />
    <glyph glyph-name="longs" unicode="&#x17f;" horiz-adv-x="305" 
d="M290 -1q-58 3 -133 3q-84 0 -121 -3v21q36 2 48 22.5t12 70.5v322h-67v28q40 9 54 29.5t21 78.5q6 51 26 88t48 55.5t55.5 27t55.5 8.5q121 0 121 -70q0 -20 -19 -37.5t-60 -21.5l-6 5q0 48 -12 65t-34 17q-39 0 -57 -44q-12 -29 -12 -103v-447q0 -52 17 -72t63 -22v-21z
" />
    <glyph glyph-name="florin" unicode="&#x192;" horiz-adv-x="524" 
d="M433 337h-132l-39 -286q-7 -54 -24 -94.5t-37 -64t-45.5 -38t-48 -19t-46.5 -4.5q-50 0 -74 20t-24 45q0 51 70 70l7 -4q0 -89 39 -89q28 0 41 24.5t24 109.5l42 330h-97v54h104l5 34q29 224 221 224q64 0 92.5 -19.5t28.5 -48.5q0 -32 -17 -47.5t-55 -26.5l-8 4
q-1 45 -15 68.5t-36 23.5q-34 0 -56 -27t-33 -106l-11 -79h124v-54z" />
    <glyph glyph-name="Aringacute" unicode="&#x1fa;" horiz-adv-x="658" 
d="M423 744q0 -56 -49 -77q11 -34 51 -142l147 -415q16 -46 33.5 -67.5t49.5 -22.5v-21q-76 2 -112 2q-101 0 -165 -2v21q70 2 70 41q0 25 -11 57l-32 89h-215l-34 -96q-12 -31 -12 -48q0 -41 74 -43v-21q-64 2 -119 2q-20 0 -96 -2v21q33 1 52.5 23t36.5 67l158 415
q36 96 51 142q-50 21 -50 77q0 36 24 60t62 24t62 -24t24 -60zM208 255h181l-90 253zM310 849l-17 17q61 61 112 130l66 -46q-67 -51 -161 -101zM381 743q0 22 -12 35.5t-32 13.5t-32 -13.5t-12 -35.5q0 -19 12.5 -32t31.5 -13q20 0 32 12.5t12 32.5z" />
    <glyph glyph-name="aringacute" unicode="&#x1fb;" horiz-adv-x="527" 
d="M339 63q-16 -30 -55 -53.5t-88 -23.5q-73 0 -114 38.5t-41 100.5q0 143 238 143q27 0 50 -5q0 5 0.5 14t0.5 15q0 59 -11 83q-21 44 -91 44q-94 0 -135 -66l-16 5q1 23 10.5 45t29.5 44.5t58.5 36t90.5 13.5q177 0 177 -159q0 -12 -1.5 -87t-1.5 -109q0 -54 16.5 -75.5
t58.5 -21.5v-10q-42 -44 -94 -44q-64 0 -82 72zM329 92q-1 29 -1 132q-10 1 -33 1q-137 0 -137 -91q0 -37 24.5 -57.5t58.5 -20.5q54 0 88 36zM358 645q0 -41 -27 -68.5t-71 -27.5q-41 0 -68 27.5t-27 68.5t27 69t68 28q43 0 70.5 -28t27.5 -69zM316 644q0 29 -15 46t-41 17
q-24 0 -39 -17.5t-15 -45.5q0 -26 15 -42.5t39 -16.5q26 0 41 16.5t15 42.5zM227 758l-20 17q79 105 124 192l80 -47q-30 -35 -88 -85.5t-96 -76.5z" />
    <glyph glyph-name="AEacute" unicode="&#x1fc;" horiz-adv-x="941" 
d="M234 -1q-64 2 -130 2q-28 0 -104 -2v21q29 1 52 20.5t54 69.5l263 431q31 49 31 69q0 18 -14.5 26.5t-55.5 10.5v22q55 -3 325 -3q30 0 220 2q2 -38 11 -151h-21q-16 70 -47 86.5t-131 16.5h-74v-252h35q81 0 106.5 14.5t28.5 58.5h23q-2 -31 -2 -100q0 -61 2 -91h-23
q-3 43 -27.5 58t-106.5 15h-36v-269q83 -7 144 -7q62 0 89 27t36 96h24q-3 -79 -3 -170q-106 1 -298 1q-126 0 -188 -2v22q45 1 59.5 22t14.5 68v108h-248l-51 -86q-30 -49 -30 -74q0 -38 72 -39v-21zM271 267h220v349q-15 -1 -31 -28zM544 701l-12 15q84 75 159 166l68 -63
q-36 -28 -104 -65t-111 -53z" />
    <glyph glyph-name="aeacute" unicode="&#x1fd;" horiz-adv-x="796" 
d="M383 70q-37 -40 -77.5 -61.5t-103.5 -21.5q-72 0 -114 39.5t-42 100.5q0 77 64 109.5t188 32.5q16 0 36 -2q1 13 1 43q0 44 -12 69q-19 38 -81 38q-96 0 -145 -62l-15 6q6 49 54.5 92.5t134.5 43.5q105 0 140 -67q24 30 64.5 48.5t84.5 18.5q200 0 200 -214
q0 -30 -39 -30h-275q1 -106 44.5 -150t108.5 -44q91 0 141 55h5q12 -10 12 -25q0 -28 -56.5 -65t-137.5 -37q-124 0 -180 83zM361 107q-20 50 -22 118q-22 2 -41 2q-135 0 -135 -92q0 -39 23.5 -59.5t57.5 -20.5t65.5 15.5t51.5 36.5zM447 296q158 2 177 4q24 3 24 19
q0 76 -23.5 106.5t-67.5 30.5q-41 0 -73 -34.5t-37 -125.5zM386 533l-16 13q71 97 120 195l80 -47q-30 -34 -88 -85t-96 -76z" />
    <glyph glyph-name="Oslashacute" unicode="&#x1fe;" horiz-adv-x="673" 
d="M628 334q0 -159 -74.5 -253t-215.5 -94q-97 0 -164 42l-50 -80l-46 29l54 85q-88 91 -88 272q0 159 77 252.5t212 93.5q97 0 163 -41l51 80l47 -30l-54 -85q88 -89 88 -271zM493 332q0 101 -17 172l-257 -404q39 -70 118 -70q156 0 156 302zM178 340q0 -111 17 -176
l256 404q-40 70 -118 70q-155 0 -155 -298zM282 701l-12 15q84 75 159 166l68 -63q-36 -28 -104 -65t-111 -53z" />
    <glyph glyph-name="oslashacute" unicode="&#x1ff;" horiz-adv-x="551" 
d="M236 533l-16 13q71 97 120 195l80 -47q-30 -34 -88 -85t-96 -76zM510 244q0 -116 -63.5 -186.5t-173.5 -70.5q-68 0 -120 27l-42 -66l-44 26l44 69q-71 66 -71 199q0 117 65 186t174 69q64 0 109 -21l44 68l45 -28l-44 -68q77 -64 77 -204zM388 245q0 74 -10 117
l-185 -286q26 -49 85 -49t84.5 52.5t25.5 165.5zM165 255q0 -75 8 -116l180 282q-27 35 -76 35q-112 0 -112 -201z" />
    <glyph glyph-name="uni0218" unicode="&#x218;" horiz-adv-x="537" 
d="M111 192l6 -5q0 -80 41.5 -118t104.5 -38q60 0 99 31t39 87q0 80 -119 126l-84 32q-144 53 -144 188q0 84 66.5 135t176.5 51q100 0 145.5 -32.5t45.5 -72.5q0 -54 -80 -69l-7 4q-1 127 -115 127q-55 0 -90.5 -28t-35.5 -73q0 -42 26 -71t89 -53l75 -29q87 -34 124 -80
t37 -113q0 -91 -72.5 -147.5t-184.5 -56.5q-114 0 -171.5 39.5t-57.5 94.5q0 61 86 71zM333 -112q0 -93 -124 -151l-12 21q34 22 48 38t14 35q0 17 -20 30q-23 17 -23 45q0 20 15.5 34.5t40.5 14.5q29 0 45 -18t16 -49z" />
    <glyph glyph-name="uni0219" unicode="&#x219;" horiz-adv-x="446" 
d="M107 153l7 -5q0 -59 31.5 -89.5t83.5 -30.5q43 0 68.5 20t25.5 56q0 53 -73 78l-62 21q-68 23 -99.5 57t-31.5 91q0 67 54 106.5t137 39.5q80 0 115 -25t35 -60q0 -44 -69 -59l-7 3q0 101 -86 101q-37 0 -63 -17.5t-26 -52.5q0 -52 71 -75l61 -20q78 -26 108 -62t30 -87
q0 -68 -54 -112t-153 -44q-87 0 -131.5 31.5t-44.5 71.5q0 52 73 63zM293 -112q0 -93 -124 -151l-12 21q34 22 48 38t14 35q0 17 -20 30q-23 17 -23 45q0 20 15.5 34.5t40.5 14.5q29 0 45 -18t16 -49z" />
    <glyph glyph-name="uni021A" unicode="&#x21a;" horiz-adv-x="603" 
d="M441 -1q-64 2 -141 2q-105 0 -137 -2v22q47 1 62 23t15 69v507h-36q-81 0 -110.5 -22.5t-46.5 -95.5h-24q10 145 11 166q153 -2 269 -2q114 0 267 2q3 -70 10 -166h-24q-17 74 -46.5 96t-111.5 22h-35v-507q0 -47 15.5 -69t62.5 -23v-22zM371 -112q0 -93 -124 -151
l-12 21q34 22 48 38t14 35q0 17 -20 30q-23 17 -23 45q0 20 15.5 34.5t40.5 14.5q29 0 45 -18t16 -49z" />
    <glyph glyph-name="uni021B" unicode="&#x21b;" horiz-adv-x="330" 
d="M332 56q-49 -66 -123 -66q-92 0 -114 70q-8 29 -8 74v301h-65v28q52 12 87 42.5t63 105.5h29v-129h105v-47h-106v-276q0 -37 4 -56q12 -50 61 -50q25 0 61 12zM244 -112q0 -93 -124 -151l-12 21q34 22 48 38t14 35q0 17 -20 30q-23 17 -23 45q0 20 15.5 34.5t40.5 14.5
q29 0 45 -18t16 -49z" />
    <glyph glyph-name="circumflex" unicode="&#x2c6;" horiz-adv-x="300" 
d="M291 559l-14 -14q-32 19 -127 81q-62 -42 -127 -81l-14 14q45 46 135 162h12q117 -141 135 -162z" />
    <glyph glyph-name="caron" unicode="&#x2c7;" horiz-adv-x="300" 
d="M9 709l14 14q67 -40 127 -81q86 57 127 81l15 -14q-58 -61 -136 -162h-12q-108 131 -135 162z" />
    <glyph glyph-name="breve" unicode="&#x2d8;" horiz-adv-x="300" 
d="M291 702q-19 -149 -145 -149q-39 0 -67.5 14t-42.5 37.5t-20 48t-6 51.5l20 3q13 -42 36.5 -62t79.5 -20q55 0 80.5 19t43.5 62z" />
    <glyph glyph-name="dotaccent" unicode="&#x2d9;" horiz-adv-x="300" 
d="M202 624q0 -22 -15 -37t-37 -15t-36.5 15t-14.5 37q0 23 14.5 38t36.5 15t37 -15t15 -38z" />
    <glyph glyph-name="ring" unicode="&#x2da;" horiz-adv-x="330" 
d="M262 645q0 -41 -27 -68.5t-71 -27.5q-42 0 -69 27.5t-27 68.5t27 69t69 28q43 0 70.5 -28t27.5 -69zM220 644q0 29 -15.5 46t-40.5 17q-24 0 -39.5 -17.5t-15.5 -45.5q0 -26 15.5 -42.5t39.5 -16.5q25 0 40.5 16.5t15.5 42.5z" />
    <glyph glyph-name="ogonek" unicode="&#x2db;" horiz-adv-x="300" 
d="M223 -222q-66 0 -111.5 23t-45.5 71q0 88 146 149l23 -14q-91 -58 -91 -131q0 -28 19 -48.5t62 -23.5z" />
    <glyph glyph-name="tilde" unicode="&#x2dc;" horiz-adv-x="300" 
d="M306 679q-9 -30 -17 -48.5t-28 -37t-48 -18.5q-27 0 -73 20q-42 20 -63 20q-40 0 -64 -49l-18 7q10 44 35 78.5t62 34.5q21 0 71 -22q50 -19 63 -19q41 0 63 41z" />
    <glyph glyph-name="hungarumlaut" unicode="&#x2dd;" horiz-adv-x="300" 
d="M7 531l-15 13q48 64 103 192l72 -43q-65 -85 -160 -162zM151 531l-15 13q48 64 103 192l72 -43q-65 -85 -160 -162z" />
    <glyph glyph-name="uni0394" unicode="&#x394;" horiz-adv-x="677" 
d="M299 667h76l287 -657l-6 -10q-52 0 -166 0.5t-164 0.5q-204 0 -306 -1l-6 9zM492 88l-191 450l-189 -450h380z" />
    <glyph glyph-name="uni03A9" unicode="&#x3a9;" horiz-adv-x="745" 
d="M292 91v12q-89 29 -148 99t-59 183q0 138 83.5 217t213.5 79q127 0 204 -73t77 -214q0 -195 -199 -290v-13q127 0 153 18q16 11 24 29t18 60l27 -2q-7 -82 -9 -197q-45 1 -145 1q-74 0 -111 -1v120q58 40 82.5 104.5t24.5 160.5q0 138 -38 197.5t-112 59.5
q-165 0 -165 -256q0 -96 31 -166.5t90 -100.5v-119q-39 1 -114 1q-104 0 -150 -1q-3 91 -10 196l27 2q10 -44 17.5 -62t24.5 -29q21 -15 163 -15z" />
    <glyph glyph-name="uni03BC" unicode="&#x3bc;" horiz-adv-x="593" 
d="M205 -209h-111v512q0 52 -2 66q-4 30 -18.5 43.5t-51.5 13.5v12q60 55 121 55q55 0 62 -61q3 -27 3 -72v-179q0 -61 14 -84q19 -32 69 -32q63 0 99 33v214q0 37 -3 61q-4 53 -71 53v12q22 22 56.5 38.5t63.5 16.5q61 0 66 -64q2 -20 2 -92v-199q0 -53 17 -74.5t63 -22.5
v-12q-38 -38 -95 -38q-37 0 -62 20t-30 56q-14 -37 -47 -58.5t-71 -21.5q-53 0 -77 32q3 -62 3 -228z" />
    <glyph glyph-name="pi" unicode="&#x3c0;" horiz-adv-x="621" 
d="M235 420v-309q0 -47 14 -68t55 -22v-22q-60 3 -122 3q-85 0 -122 -3v22q39 2 50.5 22.5t11.5 73.5v302q-43 0 -83 -14l-5 6q34 74 104 74q26 0 111 -1.5t121 -1.5q178 0 219 14l4 -5q-13 -30 -29.5 -46t-50.5 -23v-258q0 -54 10 -82q14 -41 80 -41v-9q-39 -41 -93 -41
q-82 0 -101 60q-9 28 -9 104v262q-135 3 -165 3z" />
    <glyph glyph-name="Wgrave" unicode="&#x1e80;" horiz-adv-x="946" 
d="M323 -4h-77q-14 56 -40 148l-120 412q-14 48 -31.5 69t-51.5 22v22q76 -2 153 -2q62 0 126 2v-22q-44 -1 -58.5 -11t-14.5 -32q0 -18 10 -56l101 -368l100 317q31 102 47 171h75q20 -74 51 -173l98 -315l97 349q13 48 13 73q0 22 -16 33t-56 12v22q64 -2 117 -2
q57 0 97 2v-22q-33 -1 -50.5 -23t-31.5 -68l-121 -412q-1 -3 -41 -148h-77q-14 61 -42 145l-110 321l-105 -322q-29 -91 -42 -144zM572 726l-12 -16q-42 16 -110.5 53t-105.5 65l68 63q69 -84 160 -165z" />
    <glyph glyph-name="wgrave" unicode="&#x1e81;" horiz-adv-x="779" 
d="M258 -4h-70q-73 273 -111 360q-10 23 -17 35t-21 23.5t-32 14.5v12q20 23 48 38t50 15q42 0 63 -43q21 -44 41 -116q34 -125 46 -190q93 232 129 333h69q50 -130 124 -333q2 6 23.5 64t33.5 93q20 61 20 105q0 12 -8 25.5t-19 19.5v10q37 32 76 32q47 0 47 -45
q0 -30 -63 -187q-92 -229 -106 -266h-68q-7 23 -121 330q-86 -208 -134 -330zM462 546l-17 -13q-38 25 -96 76t-88 85l80 47q49 -95 121 -195z" />
    <glyph glyph-name="Wacute" unicode="&#x1e82;" horiz-adv-x="946" 
d="M323 -4h-77q-14 56 -40 148l-120 412q-14 48 -31.5 69t-51.5 22v22q76 -2 153 -2q62 0 126 2v-22q-44 -1 -58.5 -11t-14.5 -32q0 -18 10 -56l101 -368l100 317q31 102 47 171h75q20 -74 51 -173l98 -315l97 349q13 48 13 73q0 22 -16 33t-56 12v22q64 -2 117 -2
q57 0 97 2v-22q-33 -1 -50.5 -23t-31.5 -68l-121 -412q-1 -3 -41 -148h-77q-14 61 -42 145l-110 321l-105 -322q-29 -91 -42 -144zM430 701l-12 15q84 75 159 166l68 -63q-36 -28 -104 -65t-111 -53z" />
    <glyph glyph-name="wacute" unicode="&#x1e83;" horiz-adv-x="779" 
d="M258 -4h-70q-73 273 -111 360q-10 23 -17 35t-21 23.5t-32 14.5v12q20 23 48 38t50 15q42 0 63 -43q21 -44 41 -116q34 -125 46 -190q93 232 129 333h69q50 -130 124 -333q2 6 23.5 64t33.5 93q20 61 20 105q0 12 -8 25.5t-19 19.5v10q37 32 76 32q47 0 47 -45
q0 -30 -63 -187q-92 -229 -106 -266h-68q-7 23 -121 330q-86 -208 -134 -330zM373 533l-16 13q71 97 120 195l80 -47q-30 -34 -88 -85t-96 -76z" />
    <glyph glyph-name="Wdieresis" unicode="&#x1e84;" horiz-adv-x="946" 
d="M323 -4h-77q-14 56 -40 148l-120 412q-14 48 -31.5 69t-51.5 22v22q76 -2 153 -2q62 0 126 2v-22q-44 -1 -58.5 -11t-14.5 -32q0 -18 10 -56l101 -368l100 317q31 102 47 171h75q20 -74 51 -173l98 -315l97 349q13 48 13 73q0 22 -16 33t-56 12v22q64 -2 117 -2
q57 0 97 2v-22q-33 -1 -50.5 -23t-31.5 -68l-121 -412q-1 -3 -41 -148h-77q-14 61 -42 145l-110 321l-105 -322q-29 -91 -42 -144zM460 777q0 -22 -15 -37t-37 -15t-36.5 15t-14.5 37q0 23 14.5 38t36.5 15t37 -15.5t15 -37.5zM643 777q0 -22 -15 -37t-37 -15t-36.5 15
t-14.5 37q0 23 14.5 38t36.5 15t37 -15t15 -38z" />
    <glyph glyph-name="wdieresis" unicode="&#x1e85;" horiz-adv-x="779" 
d="M258 -4h-70q-73 273 -111 360q-10 23 -17 35t-21 23.5t-32 14.5v12q20 23 48 38t50 15q42 0 63 -43q21 -44 41 -116q34 -125 46 -190q93 232 129 333h69q50 -130 124 -333q2 6 23.5 64t33.5 93q20 61 20 105q0 12 -8 25.5t-19 19.5v10q37 32 76 32q47 0 47 -45
q0 -30 -63 -187q-92 -229 -106 -266h-68q-7 23 -121 330q-86 -208 -134 -330zM378 624q0 -22 -15 -37t-37 -15t-36.5 15t-14.5 37q0 23 14.5 38t36.5 15t37 -15t15 -38zM551 624q0 -22 -15 -37t-37 -15t-36.5 15t-14.5 37q0 23 14.5 38t36.5 15t37 -15t15 -38z" />
    <glyph glyph-name="Ygrave" unicode="&#x1ef2;" horiz-adv-x="650" 
d="M460 -1q-64 2 -134 2q-67 0 -141 -2v22q47 1 61.5 22t14.5 68v177l-160 269q-19 32 -29.5 47t-29 29t-39.5 15v21q38 -2 163 -2q65 0 129 2v-21q-73 -3 -73 -36q0 -19 31 -74l105 -182l103 173q33 56 33 81q0 36 -70 38v21q64 -2 128 -2q17 0 95 2v-21q-29 -2 -49 -22
t-50 -69l-164 -266v-180q0 -47 14.5 -68t61.5 -22v-22zM414 726l-12 -16q-42 16 -110.5 53t-105.5 65l68 63q69 -84 160 -165z" />
    <glyph glyph-name="ygrave" unicode="&#x1ef3;" horiz-adv-x="524" 
d="M235 -4q-123 307 -160 371q-16 28 -30 43t-36 18v13q55 53 100 53q37 0 59 -45q12 -24 49 -112q45 -111 84 -221q61 149 79 194q21 54 21 96q0 30 -27 46v10q41 32 80 32q17 0 30 -12t13 -34q0 -23 -14 -60t-50 -117q-16 -35 -44 -99t-43 -98t-35.5 -78.5t-37 -75
t-30.5 -52.5q-52 -83 -124 -83q-29 0 -50.5 26.5t-21.5 60.5l6 4q21 -8 40 -8t31 1.5t30 12.5t31 32q36 53 50 82zM335 546l-17 -13q-38 25 -96 76t-88 85l80 47q49 -95 121 -195z" />
    <glyph glyph-name="endash" unicode="&#x2013;" horiz-adv-x="600" 
d="M553 209h-506v83h506v-83z" />
    <glyph glyph-name="emdash" unicode="&#x2014;" horiz-adv-x="838" 
d="M792 209h-745v83h745v-83z" />
    <glyph glyph-name="quoteleft" unicode="&#x2018;" horiz-adv-x="210" 
d="M37 513q0 116 142 198l16 -21q-38 -29 -56 -54t-18 -54q0 -24 22 -41q30 -20 30 -55q0 -23 -17.5 -39.5t-45.5 -16.5q-35 0 -54 21.5t-19 61.5z" />
    <glyph glyph-name="quoteright" unicode="&#x2019;" horiz-adv-x="210" 
d="M172 615q0 -57 -37.5 -108.5t-104.5 -89.5l-15 21q74 56 74 109q0 24 -23 40q-29 22 -29 55q0 23 17.5 39.5t45.5 16.5q34 0 53 -21.5t19 -61.5z" />
    <glyph glyph-name="quotesinglbase" unicode="&#x201a;" horiz-adv-x="210" 
d="M172 57q0 -117 -142 -198l-15 20q74 55 74 109q0 24 -23 40q-29 19 -29 56q0 23 17.5 39.5t45.5 16.5q34 0 53 -22t19 -61z" />
    <glyph glyph-name="quotedblleft" unicode="&#x201c;" horiz-adv-x="386" 
d="M213 513q0 117 142 198l16 -21q-38 -29 -56 -54t-18 -54q0 -24 22 -41q29 -19 29 -55q0 -23 -17.5 -39.5t-45.5 -16.5q-34 0 -53 21.5t-19 61.5zM37 513q0 116 142 198l16 -21q-38 -29 -56 -54t-18 -54q0 -24 22 -41q30 -20 30 -55q0 -23 -17.5 -39.5t-45.5 -16.5
q-35 0 -54 21.5t-19 61.5z" />
    <glyph glyph-name="quotedblright" unicode="&#x201d;" horiz-adv-x="386" 
d="M172 615q0 -57 -37.5 -108.5t-104.5 -89.5l-15 21q74 56 74 109q0 24 -23 40q-29 22 -29 55q0 23 17.5 39.5t45.5 16.5q34 0 53 -21.5t19 -61.5zM348 615q0 -57 -37.5 -108.5t-104.5 -89.5l-16 21q75 55 75 109q0 24 -23 40q-29 21 -29 55q0 23 17.5 39.5t45.5 16.5
q34 0 53 -21.5t19 -61.5z" />
    <glyph glyph-name="quotedblbase" unicode="&#x201e;" horiz-adv-x="386" 
d="M172 57q0 -117 -142 -198l-15 20q74 55 74 109q0 24 -23 40q-29 19 -29 56q0 23 17.5 39.5t45.5 16.5q34 0 53 -22t19 -61zM348 57q0 -117 -142 -198l-16 20q75 55 75 109q0 25 -23 40q-29 21 -29 56q0 23 17.5 39.5t45.5 16.5q34 0 53 -22t19 -61z" />
    <glyph glyph-name="dagger" unicode="&#x2020;" horiz-adv-x="519" 
d="M295 -151h-72q-10 116 -10 312v221h-178v86h178v206h92v-206h179v-86h-179v-221q0 -196 -10 -312z" />
    <glyph glyph-name="daggerdbl" unicode="&#x2021;" horiz-adv-x="519" 
d="M295 -151h-72q-10 116 -10 281h-178v86h178v173h-178v86h178v199h92v-199h179v-86h-179v-173h179v-86h-179q0 -165 -10 -281z" />
    <glyph glyph-name="bullet" unicode="&#x2022;" horiz-adv-x="460" 
d="M388 326q0 -67 -46 -114.5t-112 -47.5q-67 0 -113 47.5t-46 114.5t46.5 114.5t112.5 47.5t112 -47.5t46 -114.5z" />
    <glyph glyph-name="ellipsis" unicode="&#x2026;" horiz-adv-x="815" 
d="M194 48q0 -26 -16.5 -42.5t-41.5 -16.5q-26 0 -43 17.5t-17 42.5t17 42t43 17q25 0 41.5 -16.5t16.5 -43.5zM466 48q0 -26 -16.5 -42.5t-41.5 -16.5q-26 0 -43 17.5t-17 42.5t17 42t43 17q25 0 41.5 -16.5t16.5 -43.5zM739 48q0 -26 -16 -42.5t-42 -16.5
q-25 0 -42.5 17.5t-17.5 42.5t17 42t43 17t42 -16.5t16 -43.5z" />
    <glyph glyph-name="perthousand" unicode="&#x2030;" horiz-adv-x="1239" 
d="M646 658l-377 -677h-57l377 677h57zM351 438q0 -91 -42 -145.5t-120 -54.5q-82 0 -122 55t-40 148t44.5 147t118.5 54q85 0 123 -56.5t38 -147.5zM265 441q0 91 -17.5 129.5t-58.5 38.5q-39 0 -57.5 -38.5t-18.5 -125.5q0 -94 17 -135t60 -41q75 0 75 172zM829 191
q0 -92 -41.5 -146t-119.5 -54q-83 0 -123 55t-40 148t44.5 147t118.5 54q85 0 123 -56.5t38 -147.5zM744 194q0 91 -18 129.5t-59 38.5q-38 0 -56.5 -38.5t-18.5 -125.5q0 -94 17 -134.5t60 -40.5q75 0 75 171zM1212 191q0 -91 -42 -145.5t-120 -54.5q-82 0 -122 55t-40 148
t44 147t118 54q85 0 123.5 -56.5t38.5 -147.5zM1126 194q0 91 -18 129.5t-59 38.5q-38 0 -56.5 -38.5t-18.5 -125.5q0 -93 17 -134t60 -41q75 0 75 171z" />
    <glyph glyph-name="guilsinglleft" unicode="&#x2039;" horiz-adv-x="295" 
d="M223 448l25 -18q-30 -62 -104 -189q74 -139 104 -199l-29 -17q-93 114 -184 212q76 80 188 211z" />
    <glyph glyph-name="guilsinglright" unicode="&#x203a;" horiz-adv-x="295" 
d="M72 25l-25 19q37 72 105 188q-62 114 -105 199l29 17q93 -112 184 -212q-66 -68 -188 -211z" />
    <glyph glyph-name="fraction" unicode="&#x2044;" horiz-adv-x="101" 
d="M267 658l-377 -677h-57l377 677h57z" />
    <glyph glyph-name="zero.superior" unicode="&#x2070;" 
d="M351 652q0 -91 -42 -145.5t-120 -54.5q-82 0 -122 55t-40 148t44.5 147t118.5 54q85 0 123 -56.5t38 -147.5zM265 655q0 91 -17.5 129.5t-58.5 38.5q-39 0 -57.5 -38.5t-18.5 -125.5q0 -94 17 -135t60 -41q75 0 75 172z" />
    <glyph glyph-name="four.superior" unicode="&#x2074;" 
d="M343 459q-42 2 -93 2q-44 0 -94 -2v20q35 1 45.5 13t10.5 41v18h-177v45q79 113 110 182q13 28 13 45q0 14 -6 22v4q13 14 36 14q31 0 31 -30q0 -23 -27 -71q-18 -32 -108 -154h128v137h79v-137h54v-57h-54v-18q0 -28 11 -40.5t41 -13.5v-20z" />
    <glyph glyph-name="five.superior" unicode="&#x2075;" 
d="M114 704q34 12 73 12q73 0 108 -35t35 -94q0 -57 -45 -96t-120 -39q-60 0 -92.5 21t-32.5 49q0 44 52 52l5 -1q0 -38 17.5 -64t53.5 -26q79 0 79 97q0 41 -23 62t-61 21q-50 0 -90 -15l19 198h216v-64h-188z" />
    <glyph glyph-name="six.superior" unicode="&#x2076;" 
d="M272 749q0 74 -56 74q-42 0 -64.5 -37.5t-26.5 -118.5q32 36 92 36q124 0 124 -119q0 -57 -40 -94.5t-108 -37.5q-79 0 -115 51t-36 130q0 38 7.5 73t25.5 71t54.5 57.5t87.5 21.5q54 0 85 -18.5t31 -51.5q0 -35 -57 -42zM125 641q0 -4 -0.5 -15.5t-0.5 -14.5
q0 -128 74 -128q62 0 62 98q0 84 -65 84q-40 0 -70 -24z" />
    <glyph glyph-name="seven.superior" unicode="&#x2077;" 
d="M191 471q-20 -18 -43 -18q-40 0 -40 40q0 42 32 96q35 61 134 193h-225v64h274v-56q-90 -134 -133 -224q-14 -30 -14 -59q0 -21 14 -31z" />
    <glyph glyph-name="eight.superior" unicode="&#x2078;" 
d="M244 680q90 -37 90 -110q0 -52 -41.5 -85t-108.5 -33q-69 0 -104.5 29t-35.5 74q0 62 79 98q-64 38 -64 94q0 46 36.5 77.5t98.5 31.5q58 0 89.5 -26t31.5 -66q0 -51 -71 -84zM145 641q-44 -41 -44 -82q0 -34 23 -54.5t59 -20.5q31 0 52 17.5t21 46.5t-24 48t-87 45z
M223 691q39 29 39 71q0 29 -18 46t-49 17q-28 0 -45 -16t-17 -41q0 -23 18.5 -41.5t71.5 -35.5z" />
    <glyph glyph-name="nine.superior" unicode="&#x2079;" 
d="M104 562q0 -77 57 -77q42 0 63.5 38t26.5 120q-34 -36 -91 -36q-60 0 -91.5 32t-31.5 86q0 58 38 94.5t107 36.5q79 0 115.5 -51.5t36.5 -129.5q0 -39 -7 -73.5t-24 -70.5t-53.5 -57.5t-89.5 -21.5q-54 0 -86.5 19t-32.5 51q0 39 58 45zM251 670q1 9 1 28q0 127 -71 127
q-63 0 -63 -96q0 -42 17.5 -62.5t45.5 -20.5q40 0 70 24z" />
    <glyph glyph-name="parenleft.superior" unicode="&#x207d;" horiz-adv-x="228" 
d="M227 384l-13 -18q-165 71 -165 285q0 191 164 272l14 -18q-59 -40 -81.5 -103.5t-22.5 -149.5q0 -91 22 -156t82 -112z" />
    <glyph glyph-name="parenright.superior" unicode="&#x207e;" horiz-adv-x="228" 
d="M1 905l12 18q166 -71 166 -285q0 -88 -40 -159.5t-125 -112.5l-13 18q104 72 104 253q0 90 -22.5 155t-81.5 113z" />
    <glyph glyph-name="zero.inferior" unicode="&#x2080;" 
d="M351 32q0 -91 -42 -145.5t-120 -54.5q-82 0 -122 55t-40 148t44.5 147t118.5 54q85 0 123 -56.5t38 -147.5zM265 35q0 91 -17.5 129.5t-58.5 38.5q-39 0 -57.5 -38.5t-18.5 -125.5q0 -94 17 -135t60 -41q75 0 75 172z" />
    <glyph glyph-name="one.inferior" unicode="&#x2081;" 
d="M295 -161q-40 2 -101 2q-47 0 -97 -2v20q36 1 48.5 14.5t12.5 42.5v257q-36 -18 -72 -30l-9 22q34 17 96 64h67v-313q0 -29 12 -42.5t43 -14.5v-20z" />
    <glyph glyph-name="two.inferior" unicode="&#x2082;" 
d="M320 -161q-19 1 -149 1q-105 0 -137 -1v48q121 90 161 141t40 98q0 77 -63 77q-35 0 -50.5 -27.5t-15.5 -69.5l-6 -3q-53 12 -53 55q0 29 34 53.5t94 24.5q73 0 107.5 -29.5t34.5 -80.5q0 -56 -48.5 -104.5t-161.5 -118.5q10 0 80 0.5t133 0.5v-65z" />
    <glyph glyph-name="three.inferior" unicode="&#x2083;" 
d="M225 46q108 -15 108 -92q0 -58 -44.5 -90t-125.5 -32q-55 0 -89.5 21t-34.5 53q0 38 52 49l5 -2q2 -90 75 -90q80 0 80 90q0 41 -23.5 57.5t-70.5 16.5q-21 0 -28 -1v32q6 -1 28 -1q42 0 59.5 19t17.5 64q0 27 -16 45t-49 18q-31 0 -47 -22.5t-16 -61.5l-5 -2
q-50 7 -50 44q0 27 34 51t92 24q138 0 138 -95q0 -76 -90 -95z" />
    <glyph glyph-name="four.inferior" unicode="&#x2084;" 
d="M343 -161q-42 2 -93 2q-44 0 -94 -2v20q35 1 45.5 13t10.5 41v18h-177v45q79 113 110 182q13 28 13 45q0 14 -6 22v4q13 14 36 14q31 0 31 -30q0 -23 -27 -71q-18 -32 -108 -154h128v137h79v-137h54v-57h-54v-18q0 -28 11 -40.5t41 -13.5v-20z" />
    <glyph glyph-name="five.inferior" unicode="&#x2085;" 
d="M114 84q34 12 73 12q73 0 108 -35t35 -94q0 -57 -45 -96t-120 -39q-60 0 -92.5 21t-32.5 49q0 44 52 52l5 -1q0 -38 17.5 -64t53.5 -26q79 0 79 97q0 41 -23 62t-61 21q-50 0 -90 -15l19 198h216v-64h-188z" />
    <glyph glyph-name="six.inferior" unicode="&#x2086;" 
d="M272 129q0 74 -56 74q-42 0 -64.5 -37.5t-26.5 -118.5q32 36 92 36q124 0 124 -119q0 -57 -40 -94.5t-108 -37.5q-79 0 -115 51t-36 130q0 38 7.5 73t25.5 71t54.5 57.5t87.5 21.5q54 0 85 -18.5t31 -51.5q0 -35 -57 -42zM125 21q0 -4 -0.5 -15.5t-0.5 -14.5
q0 -128 74 -128q62 0 62 98q0 84 -65 84q-40 0 -70 -24z" />
    <glyph glyph-name="seven.inferior" unicode="&#x2087;" 
d="M191 -149q-20 -18 -43 -18q-40 0 -40 40q0 42 32 96q35 61 134 193h-225v64h274v-56q-90 -134 -133 -224q-14 -30 -14 -59q0 -21 14 -31z" />
    <glyph glyph-name="eight.inferior" unicode="&#x2088;" 
d="M244 60q90 -37 90 -110q0 -52 -41.5 -85t-108.5 -33q-69 0 -104.5 29t-35.5 74q0 62 79 98q-64 38 -64 94q0 46 36.5 77.5t98.5 31.5q58 0 89.5 -26t31.5 -66q0 -51 -71 -84zM145 21q-44 -41 -44 -82q0 -34 23 -54.5t59 -20.5q31 0 52 17.5t21 46.5t-24 48t-87 45z
M223 71q39 29 39 71q0 29 -18 46t-49 17q-28 0 -45 -16t-17 -41q0 -23 18.5 -41.5t71.5 -35.5z" />
    <glyph glyph-name="nine.inferior" unicode="&#x2089;" 
d="M104 -58q0 -77 57 -77q42 0 63.5 38t26.5 120q-34 -36 -91 -36q-60 0 -91.5 32t-31.5 86q0 58 38 94.5t107 36.5q79 0 115.5 -51.5t36.5 -129.5q0 -39 -7 -73.5t-24 -70.5t-53.5 -57.5t-89.5 -21.5q-54 0 -86.5 19t-32.5 51q0 39 58 45zM251 50q1 9 1 28q0 127 -71 127
q-63 0 -63 -96q0 -42 17.5 -62.5t45.5 -20.5q40 0 70 24z" />
    <glyph glyph-name="parenleft.inferior" unicode="&#x208d;" horiz-adv-x="228" 
d="M227 -236l-13 -18q-165 71 -165 285q0 191 164 272l14 -18q-59 -40 -81.5 -103.5t-22.5 -149.5q0 -91 22 -156t82 -112z" />
    <glyph glyph-name="parenright.inferior" unicode="&#x208e;" horiz-adv-x="228" 
d="M1 285l12 18q166 -71 166 -285q0 -88 -40 -159.5t-125 -112.5l-13 18q104 72 104 253q0 90 -22.5 155t-81.5 113z" />
    <glyph glyph-name="Euro" unicode="&#x20ac;" horiz-adv-x="656" 
d="M72 403h84q20 118 89.5 182.5t181.5 64.5q91 0 137 -27.5t46 -68.5q0 -27 -16.5 -45.5t-65.5 -26.5l-6 6q0 120 -99 120q-126 0 -147 -205h225v-40h-228q-1 -15 -1 -46v-24h229v-40h-226q12 -95 56.5 -142.5t114.5 -47.5q95 0 154 65h7q10 -9 10 -21q0 -37 -57.5 -78.5
t-136.5 -41.5q-121 0 -190 70t-81 196h-80v40h77v16q0 18 2 54h-79v40z" />
    <glyph glyph-name="afii61289" unicode="&#x2113;" horiz-adv-x="414" 
d="M185 272q59 44 95 111.5t36 150.5q0 81 -45 81q-35 0 -54 -45q-31 -72 -32 -298zM374 95q9 -7 9 -15q0 -2 -3 -11q-17 -34 -55 -58t-85 -24q-53 0 -82 15.5t-47 46.5q-24 43 -31 121q-18 -11 -56 -27l-11 26q30 15 65 36q0 160 14.5 242.5t50.5 134.5q47 67 130 67
q51 0 81 -29t30 -88q0 -172 -197 -303q2 -76 11 -113q18 -75 72 -75t98 54h6z" />
    <glyph glyph-name="trademark" unicode="&#x2122;" horiz-adv-x="937" 
d="M304 282q-28 2 -97 2q-52 0 -90 -2v21q32 0 43 15.5t11 43.5v269h-22q-53 0 -68 -12t-27 -57h-22q5 44 7 106q107 -2 170 -2q66 0 172 2q1 -17 7 -106h-23q-11 45 -26.5 57t-72.5 12h-16v-269q0 -59 54 -59v-21zM534 282q-36 2 -72 2q-30 0 -74 -2v21q28 0 39 12.5
t13 41.5q22 240 22 257q-11 21 -43 23l-1 10q37 28 78 28q34 0 55 -34q36 -64 100 -231q38 105 98 258q12 -1 63 -1q48 0 70 2v-22q-26 -1 -35.5 -11t-9.5 -34q0 -25 15 -242q2 -30 12 -43.5t39 -13.5v-21q-40 2 -84 2q-53 0 -99 -2v21q30 0 40 13.5t10 43.5
q0 13 -4.5 105.5t-5.5 119.5q-6 -18 -44.5 -117.5t-63.5 -168.5h-43q-52 144 -113 273q-12 -179 -12 -215q0 -54 50 -54v-21z" />
    <glyph glyph-name="Omega" unicode="&#x2126;" horiz-adv-x="745" 
d="M292 91v12q-89 29 -148 99t-59 183q0 138 83.5 217t213.5 79q127 0 204 -73t77 -214q0 -195 -199 -290v-13q127 0 153 18q16 11 24 29t18 60l27 -2q-7 -82 -9 -197q-45 1 -145 1q-74 0 -111 -1v120q58 40 82.5 104.5t24.5 160.5q0 138 -38 197.5t-112 59.5
q-165 0 -165 -256q0 -96 31 -166.5t90 -100.5v-119q-39 1 -114 1q-104 0 -150 -1q-3 91 -10 196l27 2q10 -44 17.5 -62t24.5 -29q21 -15 163 -15z" />
    <glyph glyph-name="estimated" unicode="&#x212e;" horiz-adv-x="797" 
d="M765 310h-591q-6 0 -6 -5v-179q0 -9 9 -20q89 -95 224 -95q143 0 235 106h55q-51 -59 -127.5 -93.5t-163.5 -34.5q-152 0 -259 96.5t-107 233.5q0 136 107.5 233t258.5 97t258 -97t107 -233v-9zM633 333v182q0 10 -10 22q-93 91 -222 91q-131 0 -223 -95q-10 -10 -10 -22
v-178q0 -5 6 -5h453q6 0 6 5z" />
    <glyph glyph-name="onethird" unicode="&#x2153;" horiz-adv-x="857" 
d="M635 658l-377 -677h-57l377 677h57zM292 246q-40 2 -101 2q-47 0 -97 -2v20q36 1 48.5 14.5t12.5 42.5v256q-36 -18 -72 -30l-9 22q34 17 96 64h67v-312q0 -29 12 -42.5t43 -14.5v-20zM694 206q108 -15 108 -92q0 -58 -44.5 -90t-125.5 -32q-55 0 -89.5 21t-34.5 53
q0 38 52 49l5 -2q2 -90 75 -90q80 0 80 90q0 41 -23.5 57.5t-70.5 16.5q-21 0 -28 -1v32q6 -1 28 -1q42 0 59.5 19t17.5 64q0 27 -16 45t-49 18q-31 0 -47 -22.5t-16 -61.5l-5 -2q-50 7 -50 44q0 27 34 51t92 24q138 0 138 -95q0 -76 -90 -95z" />
    <glyph glyph-name="twothirds" unicode="&#x2154;" horiz-adv-x="857" 
d="M660 658l-377 -677h-57l377 677h57zM334 245q-19 1 -149 1q-105 0 -137 -1v48q121 90 161 141t40 98q0 77 -63 77q-35 0 -50.5 -27.5t-15.5 -69.5l-6 -3q-53 12 -53 55q0 29 34 53.5t94 24.5q73 0 107.5 -29.5t34.5 -80.5q0 -56 -48.5 -104.5t-161.5 -118.5q10 0 80 0.5
t133 0.5v-65zM710 206q108 -15 108 -92q0 -58 -44.5 -90t-125.5 -32q-55 0 -89.5 21t-34.5 53q0 38 52 49l5 -2q2 -90 75 -90q80 0 80 90q0 41 -23.5 57.5t-70.5 16.5q-21 0 -28 -1v32q6 -1 28 -1q42 0 59.5 19t17.5 64q0 27 -16 45t-49 18q-31 0 -47 -22.5t-16 -61.5l-5 -2
q-50 7 -50 44q0 27 34 51t92 24q138 0 138 -95q0 -76 -90 -95z" />
    <glyph glyph-name="oneeighth" unicode="&#x215b;" horiz-adv-x="857" 
d="M635 658l-377 -677h-57l377 677h57zM287 246q-40 2 -101 2q-47 0 -97 -2v20q36 1 48.5 14.5t12.5 42.5v256q-36 -18 -72 -30l-9 22q34 17 96 64h67v-312q0 -29 12 -42.5t43 -14.5v-20zM701 220q90 -37 90 -110q0 -52 -41.5 -85t-108.5 -33q-69 0 -104.5 29t-35.5 74
q0 62 79 98q-64 38 -64 94q0 46 36.5 77.5t98.5 31.5q58 0 89.5 -26t31.5 -66q0 -51 -71 -84zM602 181q-44 -41 -44 -82q0 -34 23 -54.5t59 -20.5q31 0 52 17.5t21 46.5t-24 48t-87 45zM680 231q39 29 39 71q0 29 -18 46t-49 17q-28 0 -45 -16t-17 -41q0 -23 18.5 -41.5
t71.5 -35.5z" />
    <glyph glyph-name="threeeighths" unicode="&#x215c;" horiz-adv-x="857" 
d="M658 658l-377 -677h-57l377 677h57zM239 452q108 -15 108 -92q0 -58 -44.5 -90t-125.5 -32q-55 0 -89.5 21t-34.5 53q0 38 52 49l5 -2q2 -90 75 -90q80 0 80 90q0 41 -23.5 57.5t-70.5 16.5q-21 0 -28 -1v32q6 -1 28 -1q42 0 59.5 19t17.5 64q0 27 -16 45t-49 18
q-31 0 -47 -22.5t-16 -61.5l-5 -2q-50 7 -50 44q0 27 34 51t92 24q138 0 138 -95q0 -76 -90 -95zM717 220q90 -37 90 -110q0 -52 -41.5 -85t-108.5 -33q-69 0 -104.5 29t-35.5 74q0 62 79 98q-64 38 -64 94q0 46 36.5 77.5t98.5 31.5q58 0 89.5 -26t31.5 -66q0 -51 -71 -84z
M618 181q-44 -41 -44 -82q0 -34 23 -54.5t59 -20.5q31 0 52 17.5t21 46.5t-24 48t-87 45zM696 231q39 29 39 71q0 29 -18 46t-49 17q-28 0 -45 -16t-17 -41q0 -23 18.5 -41.5t71.5 -35.5z" />
    <glyph glyph-name="fiveeighths" unicode="&#x215d;" horiz-adv-x="857" 
d="M663 658l-377 -677h-57l377 677h57zM138 490q34 12 75 12q73 0 108 -35t35 -94q0 -57 -45 -96t-120 -39q-60 0 -92.5 21t-32.5 49q0 44 52 52l5 -1q0 -38 17.5 -64t53.5 -26q79 0 79 97q0 41 -23 62t-61 21q-50 0 -90 -15l19 198h216v-64h-188zM726 220q90 -37 90 -110
q0 -52 -41.5 -85t-108.5 -33q-69 0 -104.5 29t-35.5 74q0 62 79 98q-64 38 -64 94q0 46 36.5 77.5t98.5 31.5q58 0 89.5 -26t31.5 -66q0 -51 -71 -84zM627 181q-44 -41 -44 -82q0 -34 23 -54.5t59 -20.5q31 0 52 17.5t21 46.5t-24 48t-87 45zM705 231q39 29 39 71
q0 29 -18 46t-49 17q-28 0 -45 -16t-17 -41q0 -23 18.5 -41.5t71.5 -35.5z" />
    <glyph glyph-name="seveneighths" unicode="&#x215e;" horiz-adv-x="857" 
d="M604 658l-377 -677h-57l377 677h57zM216 257q-20 -18 -43 -18q-40 0 -40 40q0 42 32 96q35 61 134 193h-225v64h274v-56q-90 -134 -133 -224q-14 -30 -14 -59q0 -21 14 -31zM684 220q90 -37 90 -110q0 -52 -41.5 -85t-108.5 -33q-69 0 -104.5 29t-35.5 74q0 62 79 98
q-64 38 -64 94q0 46 36.5 77.5t98.5 31.5q58 0 89.5 -26t31.5 -66q0 -51 -71 -84zM585 181q-44 -41 -44 -82q0 -34 23 -54.5t59 -20.5q31 0 52 17.5t21 46.5t-24 48t-87 45zM663 231q39 29 39 71q0 29 -18 46t-49 17q-28 0 -45 -16t-17 -41q0 -23 18.5 -41.5t71.5 -35.5z
" />
    <glyph glyph-name="partialdiff" unicode="&#x2202;" horiz-adv-x="519" 
d="M162 610l-10 36q45 19 97 19q106 0 167 -66.5t61 -226.5q0 -115 -24.5 -199t-81 -135t-142.5 -51q-92 0 -143.5 54t-51.5 142q0 109 59.5 172.5t166.5 63.5q33 0 63 -10.5t44 -27.5q1 11 1 31q0 99 -37.5 155.5t-96.5 56.5q-36 0 -72 -14zM363 317q-12 31 -37.5 46
t-53.5 15q-57 0 -92.5 -56.5t-35.5 -149.5q0 -146 88 -146q33 0 56.5 20t42.5 77q29 82 32 194z" />
    <glyph glyph-name="Delta" unicode="&#x2206;" horiz-adv-x="677" 
d="M299 667h76l287 -657l-6 -10q-52 0 -166 0.5t-164 0.5q-204 0 -306 -1l-6 9zM492 88l-191 450l-189 -450h380z" />
    <glyph glyph-name="product" unicode="&#x220f;" horiz-adv-x="729" 
d="M688 -121q-64 2 -147 2q-48 0 -122 -2v22q46 1 60 22.5t14 69.5v628h-258v-626q0 -48 14 -70.5t60 -23.5v-22q-64 2 -144 2q-55 0 -123 -2v22q46 1 59.5 23.5t13.5 70.5v578q0 44 -13 59.5t-60 16.5v20q129 -3 316 -3q212 0 329 3v-20q-48 -1 -60.5 -16.5t-12.5 -59.5
v-578q0 -48 14 -70.5t60 -23.5v-22z" />
    <glyph glyph-name="summation" unicode="&#x2211;" horiz-adv-x="595" 
d="M549 -121q-21 0 -103 1t-116 1q-186 0 -324 -2v23l269 360l-238 384v23q138 -2 268 -2q138 0 218 2q7 -104 11 -157h-24q-16 70 -48.5 86.5t-133.5 16.5h-134l188 -304l-249 -331h227q103 0 135 15t48 84h26q-8 -57 -20 -200z" />
    <glyph glyph-name="minus" unicode="&#x2212;" horiz-adv-x="611" 
d="M532 257h-453v79h453v-79z" />
    <glyph glyph-name="uni2215" unicode="&#x2215;" horiz-adv-x="101" 
d="M267 658l-377 -677h-57l377 677h57z" />
    <glyph glyph-name="radical" unicode="&#x221a;" horiz-adv-x="652" 
d="M195 235l140 -290l225 734h75l-280 -832h-88l-158 308l-55 -27l-13 28z" />
    <glyph glyph-name="infinity" unicode="&#x221e;" horiz-adv-x="665" 
d="M334 350q40 47 74.5 67t74.5 20q62 0 100.5 -39t38.5 -104q0 -62 -40 -104.5t-104 -42.5q-42 0 -76 19.5t-72 67.5q-36 -44 -70 -65t-77 -21q-67 0 -103.5 40.5t-36.5 99.5q0 65 40.5 107.5t105.5 42.5q44 0 75.5 -20.5t69.5 -67.5zM287 291q-30 44 -51.5 61t-49.5 17
q-34 0 -52.5 -22t-18.5 -54q0 -33 18 -56t50 -23q28 0 51.5 17.5t52.5 59.5zM377 293q31 -44 53.5 -62t48.5 -18q33 0 51.5 23t18.5 56t-17 54.5t-49 21.5q-52 0 -106 -75z" />
    <glyph glyph-name="integral" unicode="&#x222b;" horiz-adv-x="324" 
d="M132 -60q0 27 -3 102l-16 468q-2 46 -2 72q0 58 30.5 92.5t94.5 34.5q41 0 71 -12l-15 -41q-18 15 -42 15q-47 0 -47 -66q0 -26 2 -66l18 -500q1 -23 1 -79q0 -59 -35 -91t-93 -32q-39 0 -67 10l13 44q20 -17 42 -17q48 0 48 66z" />
    <glyph glyph-name="approxequal" unicode="&#x2248;" horiz-adv-x="597" 
d="M105 309l-53 58q69 89 147 89q25 0 47 -7.5t73 -35.5q50 -28 78 -28q47 0 97 68l51 -58q-68 -89 -145 -89q-40 0 -98 32q-69 38 -100 38q-52 0 -97 -67zM105 136l-53 57q70 88 147 88q25 0 47.5 -7.5t72.5 -34.5q49 -27 78 -27q49 0 97 67l51 -58q-67 -89 -145 -89
q-41 0 -98 31q-72 39 -100 39q-52 0 -97 -66z" />
    <glyph glyph-name="notequal" unicode="&#x2260;" horiz-adv-x="611" 
d="M461 545l-61 -124h132v-77h-169l-48 -97h217v-78h-255l-61 -125h-67l62 125h-132v78h171l47 97h-218v77h256l60 124h66z" />
    <glyph glyph-name="lessequal" unicode="&#x2264;" horiz-adv-x="611" 
d="M500 170l-394 181v78l393 182v-87l-308 -133l309 -131v-90zM500 45h-394v78h394v-78z" />
    <glyph glyph-name="greaterequal" unicode="&#x2265;" horiz-adv-x="611" 
d="M112 611l396 -179v-80l-396 -182v88l310 133l-310 131v89zM508 45h-396v78h396v-78z" />
    <glyph glyph-name="lozenge" unicode="&#x25ca;" horiz-adv-x="611" 
d="M346 1h-80l-144 288l145 290h81l141 -289zM404 289l-97 210l-101 -210l101 -210z" />
    <glyph glyph-name="s_t" unicode="&#xfb06;" horiz-adv-x="763" 
d="M764 56q-20 -28 -52.5 -47t-69.5 -19q-93 0 -115 70q-8 29 -8 74v303h-64v29q67 8 101.5 43.5t34.5 80.5q0 66 -34.5 91t-94.5 25t-96.5 -33t-36.5 -89q0 -61 33 -112q36 -24 36 -60q0 -44 -69 -59l-7 3q0 101 -86 101q-37 0 -63 -17.5t-26 -52.5q0 -52 71 -75l61 -20
q78 -26 108 -62t30 -87q0 -67 -55.5 -111.5t-151.5 -44.5q-87 0 -131.5 31.5t-44.5 71.5q0 52 73 63l7 -5q0 -59 31.5 -89.5t83.5 -30.5q38 0 66 19.5t28 56.5q0 53 -73 78l-62 21q-68 23 -99.5 57t-31.5 91q0 67 54 106.5t137 39.5q43 0 70 -9q-48 50 -48 119
q0 83 57.5 127t139.5 44q83 0 131.5 -45.5t48.5 -137.5q0 -50 -14 -112h105v-46h-106v-278q0 -33 5 -56q12 -50 61 -50q28 0 60 13z" />
    <glyph glyph-name="Dotlessi" horiz-adv-x="345" 
d="M308 -1q-64 2 -137 2q-59 0 -133 -2v22q45 1 59.5 23.5t14.5 66.5v459q0 44 -13.5 60t-60.5 17v22q37 -2 133 -2q100 0 137 2v-22q-48 -1 -61 -17t-13 -60v-459q0 -43 14 -66t60 -24v-22z" />
    <glyph glyph-name="Euro.denominator" horiz-adv-x="422" 
d="M44 251h49q14 72 61 108.5t113 36.5q59 0 91.5 -18.5t32.5 -51.5q0 -36 -55 -49l-6 5q0 83 -65 83q-77 0 -90 -114h124v-28h-126v-44h126v-28h-123q10 -56 39.5 -79t66.5 -23q62 0 99 43h5q9 -7 9 -19q0 -24 -39.5 -52.5t-98.5 -28.5q-70 0 -114 41.5t-53 117.5h-46v28
h44q0 22 2 44h-46v28z" />
    <glyph glyph-name="Euro.inferior" horiz-adv-x="422" 
d="M44 91h49q14 72 61 108.5t113 36.5q59 0 91.5 -18.5t32.5 -51.5q0 -36 -55 -49l-6 5q0 83 -65 83q-77 0 -90 -114h124v-28h-126v-44h126v-28h-123q10 -56 39.5 -79t66.5 -23q62 0 99 43h5q9 -7 9 -19q0 -24 -39.5 -52.5t-98.5 -28.5q-70 0 -114 41.5t-53 117.5h-46v28h44
q0 22 2 44h-46v28z" />
    <glyph glyph-name="Euro.numerator" horiz-adv-x="422" 
d="M44 497h49q14 72 61 108.5t113 36.5q59 0 91.5 -18.5t32.5 -51.5q0 -36 -55 -49l-6 5q0 83 -65 83q-77 0 -90 -114h124v-28h-126v-44h126v-28h-123q10 -56 39.5 -79t66.5 -23q62 0 99 43h5q9 -7 9 -19q0 -24 -39.5 -52.5t-98.5 -28.5q-70 0 -114 41.5t-53 117.5h-46v28
h44q0 22 2 44h-46v28z" />
    <glyph glyph-name="Euro.oldstyle" horiz-adv-x="637" 
d="M71 385h84q22 105 90.5 162.5t176.5 57.5q91 0 136.5 -25.5t45.5 -63.5q0 -26 -16 -44.5t-65 -25.5l-6 6q0 112 -99 112q-119 0 -143 -179h223v-40h-227q-1 -16 -1 -51v-19h228v-40h-225q11 -89 55 -133t114 -44q93 0 152 60h7q10 -6 10 -19q0 -35 -56.5 -73.5
t-136.5 -38.5q-120 0 -188.5 65.5t-80.5 182.5h-78v40h75v11q0 30 3 59h-78v40z" />
    <glyph glyph-name="Euro.superior" horiz-adv-x="422" 
d="M44 711h49q14 72 61 108.5t113 36.5q59 0 91.5 -18.5t32.5 -51.5q0 -36 -55 -49l-6 5q0 83 -65 83q-77 0 -90 -114h124v-28h-126v-44h126v-28h-123q10 -56 39.5 -79t66.5 -23q62 0 99 43h5q9 -7 9 -19q0 -24 -39.5 -52.5t-98.5 -28.5q-70 0 -114 41.5t-53 117.5h-46v28
h44q0 22 2 44h-46v28z" />
    <glyph glyph-name="Kgreenlandic" horiz-adv-x="675" 
d="M308 -1q-64 2 -137 2q-59 0 -133 -2v22q43 1 58.5 22.5t15.5 67.5v464q0 42 -14.5 56.5t-59.5 15.5v22q37 -2 133 -2q100 0 137 2v-22q-45 -1 -59.5 -15.5t-14.5 -56.5v-464q0 -47 15.5 -68t58.5 -22v-22zM681 37q-50 -43 -99 -43q-46 0 -78 19.5t-75 74.5
q-41 52 -139 199q-22 34 -39 46v14q34 5 61 30q41 37 98 116q72 97 72 120q0 17 -14 24.5t-49 9.5v22q40 -2 119 -2q59 0 100 2v-22q-30 -3 -50 -20.5t-65 -75.5q-96 -125 -146 -185q70 -107 166 -224q68 -80 135 -96z" />
    <glyph glyph-name="S_S" horiz-adv-x="1074" 
d="M111 192l6 -5q0 -80 41.5 -118t104.5 -38q60 0 99 31t39 87q0 80 -119 126l-84 32q-144 53 -144 188q0 84 66.5 135t176.5 51q100 0 145.5 -32.5t45.5 -72.5q0 -54 -80 -69l-7 4q-1 127 -115 127q-55 0 -90.5 -28t-35.5 -73q0 -42 26 -71t89 -53l75 -29q87 -34 124 -80
t37 -113q0 -91 -72.5 -147.5t-184.5 -56.5q-114 0 -171.5 39.5t-57.5 94.5q0 61 86 71zM648 192l6 -5q0 -80 41.5 -118t104.5 -38q60 0 99 31t39 87q0 80 -119 126l-84 32q-144 53 -144 188q0 84 66.5 135t176.5 51q100 0 145.5 -32.5t45.5 -72.5q0 -54 -80 -69l-7 4
q-1 127 -115 127q-55 0 -90.5 -28t-35.5 -73q0 -42 26 -71t89 -53l75 -29q87 -34 124 -80t37 -113q0 -91 -72.5 -147.5t-184.5 -56.5q-114 0 -171.5 39.5t-57.5 94.5q0 61 86 71z" />
    <glyph glyph-name="acute.cap" horiz-adv-x="300" 
d="M50 710l-12 15q84 75 159 166l68 -63q-36 -28 -104 -65t-111 -53z" />
    <glyph glyph-name="braceleft.cap" horiz-adv-x="324" 
d="M22 319v21q53 6 68.5 41.5t15.5 118.5v76q0 83 47 125t150 42v-31q-63 0 -84 -27.5t-21 -109.5v-100q0 -64 -25.5 -97.5t-78.5 -46.5q105 -25 105 -147v-100q0 -73 22 -103t82 -30v-33q-98 0 -146.5 34.5t-48.5 119.5v96q0 70 -18.5 108.5t-67.5 42.5z" />
    <glyph glyph-name="braceright.cap" horiz-adv-x="324" 
d="M302 342v-21q-53 -6 -68.5 -41t-15.5 -118v-77q0 -167 -197 -167v31q63 0 84 28t21 110v100q0 64 25.5 97t78.5 46q-105 25 -105 148v99q0 73 -22 103.5t-82 30.5v32q98 0 146.5 -34.5t48.5 -119.5v-95q0 -70 18.5 -109t67.5 -43z" />
    <glyph glyph-name="bracketleft.cap" horiz-adv-x="289" 
d="M264 -75h-189v810h189v-36h-95v-739h95v-35z" />
    <glyph glyph-name="bracketright.cap" horiz-adv-x="289" 
d="M24 735h189v-810h-189v36h95v739h-95v35z" />
    <glyph glyph-name="breve.cap" horiz-adv-x="300" 
d="M295 858q-7 -61 -39 -101.5t-110 -40.5t-109 42t-32 102l21 3q12 -39 38 -57t82 -18t84 17.5t44 56.5z" />
    <glyph glyph-name="c_t" horiz-adv-x="785" 
d="M441 114q12 -10 12 -24q0 -29 -54.5 -66t-133.5 -37q-98 0 -161.5 64.5t-63.5 182.5q0 130 70.5 196.5t171.5 66.5q36 0 65 -6q-41 36 -41 98q0 77 53.5 118.5t130.5 41.5q81 0 130 -38.5t49 -125.5q0 -48 -14 -102h106v-46h-106v-278q0 -37 4 -56q12 -50 61 -50
q26 0 60 12l7 -9q-49 -66 -123 -66q-91 0 -114 70q-9 27 -9 74v303h-64v29q66 8 97 38t31 70q0 103 -120 103q-52 0 -86 -27.5t-34 -81.5q0 -51 26 -91q55 -24 55 -73q0 -51 -77 -67l-8 7q0 59 -21 85.5t-64 26.5q-112 0 -112 -206q0 -102 39.5 -147t97.5 -45q84 0 134 56h6
z" />
    <glyph glyph-name="caron.alt" horiz-adv-x="300" 
d="M220 676q0 -94 -127 -156l-13 22q34 22 48.5 38.5t14.5 37.5q0 17 -20 30q-23 17 -23 46q0 20 16 35.5t41 15.5q30 0 46.5 -19t16.5 -50z" />
    <glyph glyph-name="caron.cap" horiz-adv-x="300" 
d="M1 856l13 16q52 -23 136 -65q93 44 137 63l12 -14q-114 -115 -142 -143h-13q-73 77 -143 143z" />
    <glyph glyph-name="cedilla.cap" horiz-adv-x="300" 
d="M73 -232l-2 23q41 6 61.5 22.5t20.5 36.5q0 27 -34 51q-26 18 -26 37q0 20 33 72l24 -8q-9 -17 -9 -31q0 -15 17 -25q4 -2 19.5 -11t25.5 -16q26 -19 26 -54q0 -44 -46.5 -70.5t-109.5 -26.5z" />
    <glyph glyph-name="cent.denominator" horiz-adv-x="315" 
d="M289 76q8 -6 8 -16q0 -17 -28.5 -38t-70.5 -24v-56h-33v56q-54 6 -89.5 44.5t-35.5 103.5q0 69 36 108.5t89 48.5v56h33v-54q95 -3 95 -56q0 -32 -49 -43l-6 4q0 61 -40 66v-234q56 0 86 34h5zM114 156q0 -86 51 -107v224q-51 -15 -51 -117z" />
    <glyph glyph-name="cent.inferior" horiz-adv-x="315" 
d="M289 -84q8 -6 8 -16q0 -17 -28.5 -38t-70.5 -24v-56h-33v56q-54 6 -89.5 44.5t-35.5 103.5q0 69 36 108.5t89 48.5v56h33v-54q95 -3 95 -56q0 -32 -49 -43l-6 4q0 61 -40 66v-234q56 0 86 34h5zM114 -4q0 -86 51 -107v224q-51 -15 -51 -117z" />
    <glyph glyph-name="cent.numerator" horiz-adv-x="315" 
d="M289 322q8 -6 8 -16q0 -17 -28.5 -38t-70.5 -25v-55h-33v56q-54 6 -89.5 44.5t-35.5 103.5q0 69 36 108.5t89 48.5v56h33v-54q95 -3 95 -56q0 -32 -49 -43l-6 4q0 61 -40 66v-234h5q51 0 81 34h5zM114 402q0 -86 51 -107v224q-51 -15 -51 -117z" />
    <glyph glyph-name="cent.oldstyle" horiz-adv-x="493" 
d="M448 106q11 -11 11 -21q0 -24 -42.5 -56.5t-106.5 -39.5v-87h-45v86q-88 5 -143.5 63.5t-55.5 161.5q0 109 56.5 169t142.5 70v90h45v-89q65 -2 103 -25.5t38 -61.5q0 -47 -71 -62l-8 6q0 90 -62 101v-357h4q81 0 127 52h7zM182 227q0 -137 83 -166v349q-83 -19 -83 -183
z" />
    <glyph glyph-name="cent.superior" horiz-adv-x="315" 
d="M289 536q8 -6 8 -16q0 -17 -28.5 -38t-70.5 -24v-56h-33v56q-54 6 -89.5 44.5t-35.5 103.5q0 69 36 108.5t89 48.5v56h33v-54q95 -3 95 -56q0 -32 -49 -43l-6 4q0 61 -40 66v-234q56 0 86 34h5zM114 616q0 -86 51 -107v224q-51 -15 -51 -117z" />
    <glyph glyph-name="circumflex.cap" horiz-adv-x="300" 
d="M299 724l-13 -16q-69 30 -136 64q-52 -25 -137 -63l-12 15q15 14 37 36t54 54.5t51 51.5h13q111 -113 143 -142z" />
    <glyph glyph-name="comma.denominator" horiz-adv-x="167" 
d="M131 24q0 -76 -95 -131l-13 16q50 41 50 70q0 16 -16 27q-17 12 -17 33q0 14 12.5 26.5t32.5 12.5t33 -14.5t13 -39.5z" />
    <glyph glyph-name="comma.inferior" horiz-adv-x="167" 
d="M131 -136q0 -76 -95 -131l-13 16q50 41 50 70q0 16 -16 27q-17 12 -17 33q0 14 12.5 26.5t32.5 12.5t33 -14.5t13 -39.5z" />
    <glyph glyph-name="comma.numerator" horiz-adv-x="167" 
d="M131 270q0 -76 -95 -131l-13 16q50 41 50 70q0 16 -16 27q-17 12 -17 33q0 14 12.5 26.5t32.5 12.5t33 -14.5t13 -39.5z" />
    <glyph glyph-name="comma.superior" horiz-adv-x="167" 
d="M131 484q0 -76 -95 -131l-13 16q50 41 50 70q0 16 -16 27q-17 12 -17 33q0 14 12.5 26.5t32.5 12.5t33 -14.5t13 -39.5z" />
    <glyph glyph-name="commaaccent" horiz-adv-x="297" 
d="M217 -112q0 -93 -124 -151l-12 21q34 22 48 38t14 35q0 17 -20 30q-23 17 -23 45q0 20 15.5 34.5t40.5 14.5q29 0 45 -18t16 -49z" />
    <glyph glyph-name="dieresis.cap" horiz-adv-x="300" 
d="M110 777q0 -22 -15 -37t-37 -15t-36.5 15t-14.5 37q0 23 14.5 38t36.5 15t37 -15.5t15 -37.5zM293 777q0 -22 -15 -37t-37 -15t-36.5 15t-14.5 37q0 23 14.5 38t36.5 15t37 -15t15 -38z" />
    <glyph glyph-name="dollar.denominator" horiz-adv-x="337" 
d="M187 -60h-32v57q-63 1 -96.5 23.5t-33.5 51.5q0 37 55 47l4 -3q0 -83 71 -88v134l-29 12q-91 35 -91 111q0 43 33 71.5t87 33.5v61h32v-60q53 -2 82 -21t29 -39q0 -36 -53 -47l-5 2q0 34 -15.5 51t-37.5 20v-124l26 -11q53 -22 76 -46.5t23 -62.5q0 -46 -35 -77t-90 -37
v-59zM242 88q0 37 -55 61v-120q55 9 55 59zM105 305q0 -20 10.5 -33t39.5 -26v110q-50 -10 -50 -51z" />
    <glyph glyph-name="dollar.inferior" horiz-adv-x="337" 
d="M187 -220h-32v57q-63 1 -96.5 23.5t-33.5 51.5q0 37 55 47l4 -3q0 -83 71 -88v134l-29 12q-91 35 -91 111q0 43 33 71.5t87 33.5v61h32v-60q53 -2 82 -21t29 -39q0 -36 -53 -47l-5 2q0 34 -15.5 51t-37.5 20v-124l26 -11q53 -22 76 -46.5t23 -62.5q0 -46 -35 -77t-90 -37
v-59zM242 -72q0 37 -55 61v-120q55 9 55 59zM105 145q0 -20 10.5 -33t39.5 -26v110q-50 -10 -50 -51z" />
    <glyph glyph-name="dollar.numerator" horiz-adv-x="337" 
d="M187 186h-32v57q-63 1 -96.5 23.5t-33.5 51.5q0 37 55 47l4 -3q0 -83 71 -88v134l-29 12q-91 35 -91 111q0 43 33 71.5t87 33.5v61h32v-60q53 -2 82 -21t29 -39q0 -36 -53 -47l-5 2q0 34 -15.5 51t-37.5 20v-124l26 -11q54 -23 76.5 -47t22.5 -62q0 -46 -35 -77t-90 -38
v-58zM242 334q0 37 -55 61v-120q55 9 55 59zM105 551q0 -20 10.5 -33t39.5 -26v110q-50 -10 -50 -51z" />
    <glyph glyph-name="dollar.oldstyle" horiz-adv-x="522" 
d="M118 177l6 -4q0 -68 33 -101t88 -35v211l-55 20q-130 46 -130 166q0 66 50 108.5t135 50.5v101h45v-99q86 -2 126 -30.5t40 -62.5q0 -49 -75 -61l-7 3q0 100 -84 111v-198l39 -14q79 -29 112.5 -70.5t33.5 -99.5q0 -70 -50.5 -116.5t-134.5 -56.5v-98h-45v95
q-103 1 -155 36t-52 82q0 55 80 62zM374 135q0 61 -84 97v-191q38 8 61 32t23 62zM157 471q0 -33 19 -54.5t69 -42.5v180q-40 -6 -64 -28t-24 -55z" />
    <glyph glyph-name="dollar.superior" horiz-adv-x="337" 
d="M187 400h-32v57q-63 1 -96.5 23.5t-33.5 51.5q0 37 55 47l4 -3q0 -83 71 -88v134l-29 12q-91 35 -91 111q0 43 33 71.5t87 33.5v61h32v-60q53 -2 82 -21t29 -39q0 -36 -53 -47l-5 2q0 34 -15.5 51t-37.5 20v-124l26 -11q53 -22 76 -46.5t23 -62.5q0 -46 -35 -77t-90 -37
v-59zM242 548q0 37 -55 61v-120q55 9 55 59zM105 765q0 -20 10.5 -33t39.5 -26v110q-50 -10 -50 -51z" />
    <glyph glyph-name="dotaccent.cap" horiz-adv-x="300" 
d="M201 777q0 -22 -15 -37t-37 -15t-36.5 15t-14.5 37q0 23 14.5 38t36.5 15t37 -15t15 -38z" />
    <glyph glyph-name="eight.denominator" 
d="M244 220q90 -37 90 -110q0 -52 -41.5 -85t-108.5 -33q-69 0 -104.5 29t-35.5 74q0 62 79 98q-64 38 -64 94q0 46 36.5 77.5t98.5 31.5q58 0 89.5 -26t31.5 -66q0 -51 -71 -84zM145 181q-44 -41 -44 -82q0 -34 23 -54.5t59 -20.5q31 0 52 17.5t21 46.5t-24 48t-87 45z
M223 231q39 29 39 71q0 29 -18 46t-49 17q-28 0 -45 -16t-17 -41q0 -23 18.5 -41.5t71.5 -35.5z" />
    <glyph glyph-name="eight.fitted" horiz-adv-x="558" 
d="M361 355q72 -31 108 -71.5t36 -107.5q0 -86 -63 -137.5t-166 -51.5q-111 0 -167 45t-56 122q0 104 131 161q-103 57 -103 160q0 79 59 127t143 48q92 0 144.5 -41t52.5 -110q0 -94 -119 -144zM223 297q-67 -61 -67 -139q0 -62 31.5 -95.5t89.5 -33.5q56 0 88.5 29
t32.5 83q0 52 -38.5 84t-136.5 72zM320 373q61 50 61 124q0 49 -25 80t-73 31t-73.5 -29.5t-25.5 -73.5q0 -39 31 -70.5t105 -61.5z" />
    <glyph glyph-name="eight.numerator" 
d="M244 466q90 -37 90 -110q0 -52 -41.5 -85t-108.5 -33q-69 0 -104.5 29t-35.5 74q0 62 79 98q-64 38 -64 94q0 46 36.5 77.5t98.5 31.5q58 0 89.5 -26t31.5 -66q0 -51 -71 -84zM145 427q-44 -41 -44 -82q0 -34 23 -54.5t59 -20.5q31 0 52 17.5t21 46.5t-24 48t-87 45z
M223 477q39 29 39 71q0 29 -18 46t-49 17q-28 0 -45 -16t-17 -41q0 -23 18.5 -41.5t71.5 -35.5z" />
    <glyph glyph-name="eight.oldstyle" horiz-adv-x="540" 
d="M349 356q70 -33 105 -73t35 -107q0 -86 -61 -137.5t-161 -51.5q-107 0 -161.5 45t-54.5 122q0 103 128 161q-101 57 -101 160q0 79 57.5 127t138.5 48q90 0 140 -41t50 -110q0 -93 -115 -143zM216 297q-66 -61 -66 -142q0 -60 31 -93.5t87 -33.5q54 0 86 30t32 83
q0 52 -37.5 84t-132.5 72zM309 373q60 53 60 124q0 50 -24.5 81t-70.5 31q-47 0 -71.5 -30t-24.5 -74q0 -77 131 -132z" />
    <glyph glyph-name="eight.taboldstyle" horiz-adv-x="540" 
d="M349 356q70 -33 105 -73t35 -107q0 -86 -61 -137.5t-161 -51.5q-107 0 -161.5 45t-54.5 122q0 103 128 161q-101 57 -101 160q0 79 57.5 127t138.5 48q90 0 140 -41t50 -110q0 -93 -115 -143zM216 297q-66 -61 -66 -142q0 -60 31 -93.5t87 -33.5q54 0 86 30t32 83
q0 52 -37.5 84t-132.5 72zM309 373q60 53 60 124q0 50 -24.5 81t-70.5 31q-47 0 -71.5 -30t-24.5 -74q0 -77 131 -132z" />
    <glyph glyph-name="emdash.cap" horiz-adv-x="838" 
d="M792 279h-745v83h745v-83z" />
    <glyph glyph-name="endash.cap" horiz-adv-x="600" 
d="M553 279h-506v83h506v-83z" />
    <glyph glyph-name="estimated.alt" horiz-adv-x="762" 
d="M161 338q1 -133 77 -201t207 -68q159 0 261 86h9q12 -10 12 -26q0 -15 -22 -38t-59 -46.5t-97.5 -40.5t-127.5 -17q-187 0 -282.5 88t-95.5 248q0 153 99.5 239t262.5 86q323 0 323 -275q0 -35 -48 -35h-519zM163 383q305 2 402 5q38 1 38 26q0 96 -54 142t-149 46
q-39 0 -76 -10.5t-73 -33.5t-60 -68t-28 -107z" />
    <glyph glyph-name="five.denominator" 
d="M114 244q34 12 73 12q73 0 108 -35t35 -94q0 -57 -45 -96t-120 -39q-60 0 -92.5 21t-32.5 49q0 44 52 52l5 -1q0 -38 17.5 -64t53.5 -26q79 0 79 97q0 41 -23 62t-61 21q-50 0 -90 -15l19 198h216v-64h-188z" />
    <glyph glyph-name="five.fitted" horiz-adv-x="547" 
d="M155 389q45 19 108 19q114 0 170.5 -52.5t56.5 -150.5q0 -96 -70 -157t-190 -61q-90 0 -141 36t-51 84q0 64 84 77l7 -4q0 -66 27 -108t82 -42q73 0 101.5 40t28.5 128q0 67 -39 103.5t-102 36.5q-73 0 -133 -22l30 316h332v-93h-287z" />
    <glyph glyph-name="five.numerator" 
d="M112 490q34 12 75 12q73 0 108 -35t35 -94q0 -57 -45 -96t-120 -39q-60 0 -92.5 21t-32.5 49q0 44 52 52l5 -1q0 -38 17.5 -64t53.5 -26q79 0 79 97q0 41 -23 62t-61 21q-50 0 -90 -15l19 198h216v-64h-188z" />
    <glyph glyph-name="five.oldstyle" horiz-adv-x="518" 
d="M156 270q42 19 102 19q110 0 165 -52.5t55 -150.5q0 -96 -68 -157t-182 -61q-86 0 -135.5 36t-49.5 84q0 65 81 77l7 -3q0 -67 25.5 -109.5t78.5 -42.5q70 0 97 41t27 128q0 67 -37.5 104t-96.5 37q-70 0 -127 -22l29 314h317v-90h-274z" />
    <glyph glyph-name="five.taboldstyle" horiz-adv-x="540" 
d="M165 270q44 19 103 19q110 0 164.5 -52.5t54.5 -150.5q0 -96 -67.5 -157t-181.5 -61q-86 0 -135.5 36t-49.5 84q0 65 80 77l7 -3q0 -67 26 -109.5t78 -42.5q70 0 97.5 41t27.5 128q0 67 -37.5 104t-96.5 37q-71 0 -128 -22l29 314h318v-90h-275z" />
    <glyph glyph-name="florin.denominator" horiz-adv-x="337" 
d="M277 203h-80l-24 -171q-8 -54 -33.5 -86t-50 -40t-51.5 -8q-31 0 -47.5 14.5t-16.5 30.5q0 32 45 45l5 -3q0 -55 25 -55q17 0 26 14.5t15 61.5l25 197h-62v35h67l3 21q18 136 146 136q78 0 78 -45q0 -35 -48 -47l-5 2q-1 57 -32 57q-13 0 -21.5 -4t-17.5 -22t-14 -51
l-7 -47h75v-35z" />
    <glyph glyph-name="florin.inferior" horiz-adv-x="337" 
d="M277 43h-80l-24 -171q-8 -54 -33.5 -86t-50 -40t-51.5 -8q-31 0 -47.5 14.5t-16.5 30.5q0 32 45 45l5 -3q0 -55 25 -55q17 0 26 14.5t15 61.5l25 197h-62v35h67l3 21q18 136 146 136q78 0 78 -45q0 -35 -48 -47l-5 2q-1 57 -32 57q-13 0 -21.5 -4t-17.5 -22t-14 -51
l-7 -47h75v-35z" />
    <glyph glyph-name="florin.numerator" horiz-adv-x="337" 
d="M277 449h-80l-24 -171q-8 -54 -33.5 -86t-50 -40t-51.5 -8q-31 0 -47.5 14.5t-16.5 30.5q0 32 45 45l5 -3q0 -55 25 -55q17 0 26 14.5t15 61.5l25 197h-62v35h67l3 21q18 136 146 136q78 0 78 -45q0 -35 -48 -47l-5 2q-1 57 -32 57q-13 0 -21.5 -4t-17.5 -22t-14 -51
l-7 -47h75v-35z" />
    <glyph glyph-name="florin.oldstyle" horiz-adv-x="513" 
d="M427 308h-132l-33 -249q-9 -66 -31 -112.5t-52 -68.5t-58 -30.5t-59 -8.5q-50 0 -74 20t-24 45q0 51 71 70l7 -4q0 -88 38 -88q28 0 41 23t23 103l38 300h-98v53h104l3 20q29 224 220 224q64 0 92.5 -20t28.5 -49q0 -32 -16.5 -45.5t-55.5 -23.5l-8 4q-3 91 -51 91
q-34 0 -56 -26.5t-33 -105.5l-10 -69h125v-53z" />
    <glyph glyph-name="florin.superior" horiz-adv-x="337" 
d="M277 663h-80l-24 -171q-8 -54 -33.5 -86t-50 -40t-51.5 -8q-31 0 -47.5 14.5t-16.5 30.5q0 32 45 45l5 -3q0 -55 25 -55q17 0 26 14.5t15 61.5l25 197h-62v35h67l3 21q18 136 146 136q78 0 78 -45q0 -35 -48 -47l-5 2q-1 57 -32 57q-13 0 -21.5 -4t-17.5 -22t-14 -51
l-7 -47h75v-35z" />
    <glyph glyph-name="four.denominator" 
d="M343 -1q-42 2 -93 2q-44 0 -94 -2v20q35 1 45.5 13t10.5 41v18h-177v45q79 113 110 182q13 28 13 45q0 14 -6 22v4q13 14 36 14q31 0 31 -30q0 -23 -27 -71q-18 -32 -108 -154h128v137h79v-137h54v-57h-54v-18q0 -28 11 -40.5t41 -13.5v-20z" />
    <glyph glyph-name="four.fitted" horiz-adv-x="569" 
d="M523 -1q-64 2 -134 2q-55 0 -131 -2v22q52 1 66 20.5t14 68.5v44h-287v57q125 213 159 281q38 76 38 106q0 18 -9 29l-1 8q22 25 54 25q44 0 44 -51q0 -36 -50 -122q-44 -76 -163 -256h215v237h110v-237h87v-77h-87v-44q0 -46 14.5 -67t60.5 -22v-22z" />
    <glyph glyph-name="four.numerator" 
d="M343 245q-42 2 -93 2q-44 0 -94 -2v20q35 1 45.5 13t10.5 41v18h-177v45q79 113 110 182q13 28 13 45q0 14 -6 22v4q13 14 36 14q31 0 31 -30q0 -23 -27 -71q-18 -32 -108 -154h128v137h79v-137h54v-57h-54v-18q0 -28 11 -40.5t41 -13.5v-20z" />
    <glyph glyph-name="four.oldstyle" horiz-adv-x="543" 
d="M430 -141h-107v171h-286v54q121 211 157 283q38 78 38 106q0 19 -9 28l-1 8q22 26 52 26q20 0 32 -13t12 -37q0 -33 -51 -123q-43 -75 -159 -258h215v236h107v-236h88v-74h-88v-171z" />
    <glyph glyph-name="four.taboldstyle" horiz-adv-x="540" 
d="M417 -141h-107v171h-276v54q121 211 157 283q37 76 37 106q0 20 -8 28l-1 8q22 26 51 26q20 0 32 -13t12 -37q0 -35 -50 -123q-43 -75 -159 -258h205v236h107v-236h86v-74h-86v-171z" />
    <glyph glyph-name="fourfifths" horiz-adv-x="857" 
d="M682 658l-377 -677h-57l377 677h57zM350 245q-42 2 -93 2q-44 0 -94 -2v20q35 1 45.5 13t10.5 41v18h-177v45q79 113 110 182q13 28 13 45q0 14 -6 22v4q13 14 36 14q31 0 31 -30q0 -23 -27 -71q-18 -32 -108 -154h128v137h79v-137h54v-57h-54v-18q0 -28 11 -40.5
t41 -13.5v-20zM605 244q34 12 73 12q73 0 108 -35t35 -94q0 -57 -45 -96t-120 -39q-60 0 -92.5 21t-32.5 49q0 44 52 52l5 -1q0 -38 17.5 -64t53.5 -26q79 0 79 97q0 41 -23 62t-61 21q-50 0 -90 -15l19 198h216v-64h-188z" />
    <glyph glyph-name="grave.cap" horiz-adv-x="300" 
d="M262 726l-12 -16q-42 16 -110.5 53t-105.5 65l68 63q69 -84 160 -165z" />
    <glyph glyph-name="guillemotleft.cap" horiz-adv-x="484" 
d="M223 518l25 -18q-37 -75 -104 -189q74 -139 104 -199l-29 -17q-93 114 -184 212q76 80 188 211zM412 518l25 -18q-32 -65 -105 -189q91 -170 105 -199l-29 -17q-80 97 -184 212q88 92 188 211z" />
    <glyph glyph-name="guillemotright.cap" horiz-adv-x="484" 
d="M260 95l-24 19q17 35 104 188q-86 162 -104 199l28 17q97 -117 185 -212q-48 -49 -189 -211zM72 95l-25 19q29 59 105 188q-62 114 -105 199l29 17q93 -112 184 -212q-66 -68 -188 -211z" />
    <glyph glyph-name="guilsinglleft.cap" horiz-adv-x="295" 
d="M223 518l25 -18q-32 -66 -104 -189q74 -139 104 -199l-29 -17q-93 114 -184 212q76 80 188 211z" />
    <glyph glyph-name="guilsinglright.cap" horiz-adv-x="295" 
d="M72 95l-25 19q29 59 105 188q-62 114 -105 199l29 17q93 -112 184 -212q-66 -68 -188 -211z" />
    <glyph glyph-name="hungarumlaut.cap" horiz-adv-x="300" 
d="M-22 710l-12 16q62 55 154 165l61 -54q-38 -30 -100.5 -69.5t-102.5 -57.5zM133 710l-12 16q66 58 153 165l62 -54q-38 -30 -100.5 -69.5t-102.5 -57.5z" />
    <glyph glyph-name="hyphen.cap" horiz-adv-x="308" 
d="M261 276h-214v89h214v-89z" />
    <glyph glyph-name="hyphen.denominator" horiz-adv-x="206" 
d="M170 153h-134v56h134v-56z" />
    <glyph glyph-name="hyphen.inferior" horiz-adv-x="206" 
d="M170 -7h-134v56h134v-56z" />
    <glyph glyph-name="hyphen.numerator" horiz-adv-x="206" 
d="M170 399h-134v56h134v-56z" />
    <glyph glyph-name="hyphen.superior" horiz-adv-x="206" 
d="M170 613h-134v56h134v-56z" />
    <glyph glyph-name="idotaccent" horiz-adv-x="297" 
d="M285 -1q-59 3 -136 3q-73 0 -111 -3v21q37 3 49 25t12 74v182q0 74 -14.5 99.5t-60.5 25.5v12q58 55 114 55q27 0 46.5 -16.5t24.5 -47.5q3 -19 3 -57v-260q0 -48 16 -69t57 -23v-21zM208 643q0 -28 -18 -46.5t-46 -18.5q-29 0 -48 18.5t-19 46.5q0 29 19 47.5t48 18.5
q28 0 46 -18.5t18 -47.5z" />
    <glyph glyph-name="macron.cap" horiz-adv-x="440" 
d="M364 731h-288v69h288v-69z" />
    <glyph glyph-name="nine.denominator" 
d="M104 102q0 -77 57 -77q42 0 63.5 38t26.5 120q-34 -36 -91 -36q-60 0 -91.5 32t-31.5 86q0 58 38 94.5t107 36.5q79 0 115.5 -51.5t36.5 -129.5q0 -39 -7 -73.5t-24 -70.5t-53.5 -57.5t-89.5 -21.5q-54 0 -86.5 19t-32.5 51q0 39 58 45zM251 210q1 9 1 28q0 127 -71 127
q-63 0 -63 -96q0 -42 17.5 -62.5t45.5 -20.5q40 0 70 24z" />
    <glyph glyph-name="nine.fitted" horiz-adv-x="567" 
d="M137 159q0 -131 97 -131q71 0 105.5 71t40.5 211q-23 -24 -62.5 -42t-82.5 -18q-95 0 -145 48t-50 138q0 93 61 153t167 60q236 0 236 -296q0 -54 -7 -102.5t-26.5 -98t-50 -85.5t-80.5 -58.5t-114 -22.5q-94 0 -136.5 31.5t-42.5 75.5q0 27 23 45.5t61 23.5zM381 353
q0 4 0.5 18.5t0.5 19.5q0 105 -26.5 160.5t-90.5 55.5q-107 0 -107 -173q0 -63 29.5 -96t75.5 -33q67 0 118 48z" />
    <glyph glyph-name="nine.numerator" 
d="M104 348q0 -77 57 -77q42 0 63.5 38t26.5 120q-34 -36 -91 -36q-60 0 -91.5 32t-31.5 86q0 58 38 94.5t107 36.5q79 0 115.5 -51.5t36.5 -129.5q0 -39 -7 -73.5t-24 -70.5t-53.5 -57.5t-89.5 -21.5q-54 0 -86.5 19t-32.5 51q0 39 58 45zM251 456q1 9 1 28q0 127 -71 127
q-63 0 -63 -96q0 -42 17.5 -62.5t45.5 -20.5q40 0 70 24z" />
    <glyph glyph-name="nine.oldstyle" horiz-adv-x="547" 
d="M141 41q0 -132 94 -132q129 0 140 284q-21 -24 -59.5 -41.5t-80.5 -17.5q-189 0 -189 179q0 93 59.5 153t161.5 60q66 0 112 -22.5t71 -63.5t35.5 -90.5t10.5 -113.5q0 -54 -7 -102.5t-26 -98.5t-48.5 -86t-78 -58.5t-110.5 -22.5q-91 0 -132 31.5t-41 76.5q0 26 22 45
t59 24zM376 236q0 4 0.5 15.5t0.5 16.5q0 105 -25.5 160t-87.5 55q-103 0 -103 -172q0 -63 28.5 -93.5t73.5 -30.5q64 0 113 49z" />
    <glyph glyph-name="nine.taboldstyle" horiz-adv-x="540" 
d="M141 41q0 -132 94 -132q129 0 140 284q-21 -24 -59.5 -41.5t-80.5 -17.5q-189 0 -189 179q0 93 59.5 153t161.5 60q66 0 112 -22.5t71 -63.5t35.5 -90.5t10.5 -113.5q0 -54 -7 -102.5t-26 -98.5t-48.5 -86t-78 -58.5t-110.5 -22.5q-91 0 -132 31.5t-41 76.5q0 26 22 45
t59 24zM376 236q0 4 0.5 15.5t0.5 16.5q0 105 -25.5 160t-87.5 55q-103 0 -103 -172q0 -63 28.5 -93.5t73.5 -30.5q64 0 113 49z" />
    <glyph glyph-name="numbersign.oldstyle" horiz-adv-x="581" 
d="M161 -26h-51l41 197h-110v86h128l21 97h-113v85h131l37 175h51l-37 -175h122l37 175h50l-38 -175h111v-85h-129l-20 -97h112v-86h-130l-42 -197h-48l41 197h-123zM241 354l-21 -97h123l20 97h-122z" />
    <glyph glyph-name="ogonek.cap" horiz-adv-x="300" 
d="M224 -233q-69 0 -115.5 24t-46.5 74q0 92 151 156l24 -14q-94 -61 -94 -138q0 -69 84 -75z" />
    <glyph glyph-name="one.denominator" 
d="M295 -1q-40 2 -101 2q-47 0 -97 -2v20q36 1 48.5 14.5t12.5 42.5v257q-36 -18 -72 -30l-9 22q34 17 96 64h67v-313q0 -29 12 -42.5t43 -14.5v-20z" />
    <glyph glyph-name="one.fitted" horiz-adv-x="423" 
d="M357 -1q-64 2 -136 2q-67 0 -143 -2v22q52 1 70.5 23t18.5 70v445q-55 -29 -110 -48l-11 28q60 32 144 98h93v-523q0 -48 15 -70t59 -23v-22z" />
    <glyph glyph-name="one.numerator" 
d="M295 246q-40 2 -101 2q-47 0 -97 -2v20q36 1 48.5 14.5t12.5 42.5v256q-36 -18 -72 -30l-9 22q34 17 96 64h67v-312q0 -29 12 -42.5t43 -14.5v-20z" />
    <glyph glyph-name="one.oldstyle" horiz-adv-x="410" 
d="M360 -1q-64 2 -142 2q-73 0 -149 -2v22q53 1 74 22.5t21 70.5v318q-40 -20 -115 -45l-11 27q86 48 149 97h90v-397q0 -49 18 -70.5t65 -22.5v-22z" />
    </font>
</defs>
</svg>
